<svg width="815" height="506" viewBox="0 0 815 506" fill="none" xmlns="http://www.w3.org/2000/svg">
<g opacity="0.5">
<g style="mix-blend-mode:overlay">
<circle cx="1.42457" cy="1.42457" r="1.42457" transform="matrix(0.954139 -0.299364 -0.299364 -0.954139 159.058 308.019)" fill="white"/>
</g>
<circle cx="0.712653" cy="0.712653" r="0.712653" transform="matrix(0.954139 -0.299364 -0.299364 -0.954139 173.984 279.448)" fill="white"/>
<g style="mix-blend-mode:overlay">
<circle cx="0.712653" cy="0.712653" r="0.712653" transform="matrix(0.954139 -0.299364 -0.299364 -0.954139 212.791 326.992)" fill="white"/>
</g>
<circle cx="0.712653" cy="0.712653" r="0.712653" transform="matrix(0.954139 -0.299364 -0.299364 -0.954139 225.012 199.22)" fill="white"/>
<g style="mix-blend-mode:overlay">
<circle cx="0.712653" cy="0.712653" r="0.712653" transform="matrix(0.954139 -0.299364 -0.299364 -0.954139 207.242 233.177)" fill="white"/>
</g>
<g style="mix-blend-mode:overlay">
<circle cx="1.42457" cy="1.42457" r="1.42457" transform="matrix(0.954139 -0.299364 -0.299364 -0.954139 206.604 269.209)" fill="white"/>
</g>
<circle cx="1.42457" cy="1.42457" r="1.42457" transform="matrix(0.954139 -0.299364 -0.299364 -0.954139 213.472 300.632)" fill="white"/>
<g style="mix-blend-mode:overlay">
<circle cx="1.42457" cy="1.42457" r="1.42457" transform="matrix(0.954139 -0.299364 -0.299364 -0.954139 243.359 229.313)" fill="white"/>
</g>
<g style="mix-blend-mode:overlay">
<circle cx="0.712653" cy="0.712653" r="0.712653" transform="matrix(0.954139 -0.299364 -0.299364 -0.954139 163.75 246.825)" fill="white"/>
</g>
<circle cx="0.712653" cy="0.712653" r="0.712653" transform="matrix(0.954139 -0.299364 -0.299364 -0.954139 198.074 242.025)" fill="white"/>
<circle cx="0.712653" cy="0.712653" r="0.712653" transform="matrix(0.954139 -0.299364 -0.299364 -0.954139 228.703 265.168)" fill="white"/>
<g style="mix-blend-mode:overlay">
<circle cx="0.712653" cy="0.712653" r="0.712653" transform="matrix(0.954139 -0.299364 -0.299364 -0.954139 204.26 299.809)" fill="white"/>
</g>
<g style="mix-blend-mode:overlay">
<circle cx="1.44428" cy="1.44428" r="1.44428" transform="matrix(0.104703 -0.994504 -0.994504 -0.104703 162.464 220.509)" fill="white"/>
</g>
<g style="mix-blend-mode:overlay">
<circle cx="0.722513" cy="0.722513" r="0.722513" transform="matrix(0.104703 -0.994504 -0.994504 -0.104703 141.898 195.102)" fill="white"/>
</g>
<g style="mix-blend-mode:overlay">
<circle cx="0.722513" cy="0.722513" r="0.722513" transform="matrix(0.104703 -0.994504 -0.994504 -0.104703 201.776 178.171)" fill="white"/>
</g>
<g style="mix-blend-mode:overlay">
<circle cx="0.722513" cy="0.722513" r="0.722513" transform="matrix(0.104703 -0.994504 -0.994504 -0.104703 161.861 115.881)" fill="white"/>
</g>
<circle cx="0.722513" cy="0.722513" r="0.722513" transform="matrix(0.104703 -0.994504 -0.994504 -0.104703 112.268 145.511)" fill="white"/>
<g style="mix-blend-mode:overlay">
<circle cx="1.44428" cy="1.44428" r="1.44428" transform="matrix(0.104703 -0.994504 -0.994504 -0.104703 145.529 160.635)" fill="white"/>
</g>
<g style="mix-blend-mode:overlay">
<circle cx="1.44428" cy="1.44428" r="1.44428" transform="matrix(0.104703 -0.994504 -0.994504 -0.104703 195.123 131.002)" fill="white"/>
</g>
<circle cx="1.44428" cy="1.44428" r="1.44428" transform="matrix(0.104703 -0.994504 -0.994504 -0.104703 123.231 110.361)" fill="white"/>
<circle cx="0.722513" cy="0.722513" r="0.722513" transform="matrix(0.104703 -0.994504 -0.994504 -0.104703 107.431 191.475)" fill="white"/>
<circle cx="0.722513" cy="0.722513" r="0.722513" transform="matrix(0.104703 -0.994504 -0.994504 -0.104703 116.804 157.609)" fill="white"/>
<g style="mix-blend-mode:overlay">
<circle cx="0.722513" cy="0.722513" r="0.722513" transform="matrix(0.104703 -0.994504 -0.994504 -0.104703 193.913 142.493)" fill="white"/>
</g>
<g style="mix-blend-mode:overlay">
<circle cx="0.722513" cy="0.722513" r="0.722513" transform="matrix(0.104703 -0.994504 -0.994504 -0.104703 173.048 175.149)" fill="white"/>
</g>
<circle cx="1.57609" cy="1.57609" r="1.57609" transform="matrix(0.924462 -0.381274 -0.381274 -0.924462 38.0605 58.8655)" fill="white"/>
<g style="mix-blend-mode:overlay">
<circle cx="0.788452" cy="0.788452" r="0.788452" transform="matrix(0.924462 -0.381274 -0.381274 -0.924462 42.5507 30.0648)" fill="white"/>
</g>
<circle cx="0.788452" cy="0.788452" r="0.788452" transform="matrix(0.924462 -0.381274 -0.381274 -0.924462 89.9003 78.7299)" fill="white"/>
<g style="mix-blend-mode:overlay">
<circle cx="0.788452" cy="0.788452" r="0.788452" transform="matrix(0.924462 -0.381274 -0.381274 -0.924462 128.95 8.06779)" fill="white"/>
</g>
<g style="mix-blend-mode:overlay">
<circle cx="1.57609" cy="1.57609" r="1.57609" transform="matrix(0.924462 -0.381274 -0.381274 -0.924462 77.5186 15.6438)" fill="white"/>
</g>
<circle cx="1.57609" cy="1.57609" r="1.57609" transform="matrix(0.924462 -0.381274 -0.381274 -0.924462 142.608 48.9934)" fill="white"/>
<circle cx="0.788452" cy="0.788452" r="0.788452" transform="matrix(0.924462 -0.381274 -0.381274 -0.924462 120.06 52.6525)" fill="white"/>
<circle cx="0.788452" cy="0.788452" r="0.788452" transform="matrix(0.924462 -0.381274 -0.381274 -0.924462 77.8818 49.5891)" fill="white"/>
<g style="mix-blend-mode:overlay">
<circle cx="0.874008" cy="0.874008" r="0.874008" transform="matrix(0.804293 0.594233 0.594233 -0.804293 27.9629 227.552)" fill="white"/>
</g>
<g style="mix-blend-mode:overlay">
<circle cx="0.874008" cy="0.874008" r="0.874008" transform="matrix(0.804293 0.594233 0.594233 -0.804293 8.92212 300.371)" fill="white"/>
</g>
<g style="mix-blend-mode:overlay">
<circle cx="0.874008" cy="0.874008" r="0.874008" transform="matrix(0.804293 0.594233 0.594233 -0.804293 98.3496 296.933)" fill="white"/>
</g>
<g style="mix-blend-mode:overlay">
<circle cx="0.874008" cy="0.874008" r="0.874008" transform="matrix(0.804293 0.594233 0.594233 -0.804293 97.8467 227.051)" fill="white"/>
</g>
<g style="mix-blend-mode:overlay">
<circle cx="1.74711" cy="1.74711" r="1.74711" transform="matrix(0.804293 0.594233 0.594233 -0.804293 61.6886 252.468)" fill="white"/>
</g>
<circle cx="1.74711" cy="1.74711" r="1.74711" transform="matrix(0.804293 0.594233 0.594233 -0.804293 86.6553 325.449)" fill="white"/>
<g style="mix-blend-mode:overlay">
<circle cx="1.74711" cy="1.74711" r="1.74711" transform="matrix(0.804293 0.594233 0.594233 -0.804293 101.99 257.314)" fill="white"/>
</g>
<g style="mix-blend-mode:overlay">
<circle cx="0.874008" cy="0.874008" r="0.874008" transform="matrix(0.804293 0.594233 0.594233 -0.804293 52.8818 193.829)" fill="white"/>
</g>
<g style="mix-blend-mode:overlay">
<circle cx="0.874008" cy="0.874008" r="0.874008" transform="matrix(0.804293 0.594233 0.594233 -0.804293 82.4531 224.364)" fill="white"/>
</g>
<circle cx="0.874008" cy="0.874008" r="0.874008" transform="matrix(0.804293 0.594233 0.594233 -0.804293 61.1006 287.623)" fill="white"/>
<g style="mix-blend-mode:overlay">
<circle cx="0.874008" cy="0.874008" r="0.874008" transform="matrix(0.804293 0.594233 0.594233 -0.804293 29.6836 272.271)" fill="white"/>
</g>
</g>
<g opacity="0.5">
<g style="mix-blend-mode:overlay">
<circle cx="1.42457" cy="1.42457" r="1.42457" transform="matrix(0.954139 -0.299364 -0.299364 -0.954139 159.058 308.019)" fill="white"/>
</g>
<circle cx="0.712653" cy="0.712653" r="0.712653" transform="matrix(0.954139 -0.299364 -0.299364 -0.954139 173.984 279.448)" fill="white"/>
<g style="mix-blend-mode:overlay">
<circle cx="0.712653" cy="0.712653" r="0.712653" transform="matrix(0.954139 -0.299364 -0.299364 -0.954139 212.791 326.993)" fill="white"/>
</g>
<circle cx="0.712653" cy="0.712653" r="0.712653" transform="matrix(0.954139 -0.299364 -0.299364 -0.954139 225.012 199.221)" fill="white"/>
<g style="mix-blend-mode:overlay">
<circle cx="0.712653" cy="0.712653" r="0.712653" transform="matrix(0.954139 -0.299364 -0.299364 -0.954139 207.242 233.178)" fill="white"/>
</g>
<g style="mix-blend-mode:overlay">
<circle cx="1.42457" cy="1.42457" r="1.42457" transform="matrix(0.954139 -0.299364 -0.299364 -0.954139 206.604 269.209)" fill="white"/>
</g>
<circle cx="1.42457" cy="1.42457" r="1.42457" transform="matrix(0.954139 -0.299364 -0.299364 -0.954139 213.472 300.633)" fill="white"/>
<g style="mix-blend-mode:overlay">
<circle cx="1.42457" cy="1.42457" r="1.42457" transform="matrix(0.954139 -0.299364 -0.299364 -0.954139 243.359 229.314)" fill="white"/>
</g>
<g style="mix-blend-mode:overlay">
<circle cx="0.712653" cy="0.712653" r="0.712653" transform="matrix(0.954139 -0.299364 -0.299364 -0.954139 163.75 246.826)" fill="white"/>
</g>
<circle cx="0.712653" cy="0.712653" r="0.712653" transform="matrix(0.954139 -0.299364 -0.299364 -0.954139 198.074 242.027)" fill="white"/>
<circle cx="0.712653" cy="0.712653" r="0.712653" transform="matrix(0.954139 -0.299364 -0.299364 -0.954139 228.703 265.169)" fill="white"/>
<g style="mix-blend-mode:overlay">
<circle cx="0.712653" cy="0.712653" r="0.712653" transform="matrix(0.954139 -0.299364 -0.299364 -0.954139 204.26 299.81)" fill="white"/>
</g>
<g style="mix-blend-mode:overlay">
<circle cx="1.44428" cy="1.44428" r="1.44428" transform="matrix(0.104703 -0.994504 -0.994504 -0.104703 162.464 220.51)" fill="white"/>
</g>
<g style="mix-blend-mode:overlay">
<circle cx="0.722513" cy="0.722513" r="0.722513" transform="matrix(0.104703 -0.994504 -0.994504 -0.104703 141.898 195.103)" fill="white"/>
</g>
<g style="mix-blend-mode:overlay">
<circle cx="0.722513" cy="0.722513" r="0.722513" transform="matrix(0.104703 -0.994504 -0.994504 -0.104703 201.776 178.172)" fill="white"/>
</g>
<g style="mix-blend-mode:overlay">
<circle cx="0.722513" cy="0.722513" r="0.722513" transform="matrix(0.104703 -0.994504 -0.994504 -0.104703 161.861 115.882)" fill="white"/>
</g>
<circle cx="0.722513" cy="0.722513" r="0.722513" transform="matrix(0.104703 -0.994504 -0.994504 -0.104703 112.268 145.512)" fill="white"/>
<g style="mix-blend-mode:overlay">
<circle cx="1.44428" cy="1.44428" r="1.44428" transform="matrix(0.104703 -0.994504 -0.994504 -0.104703 145.529 160.635)" fill="white"/>
</g>
<g style="mix-blend-mode:overlay">
<circle cx="1.44428" cy="1.44428" r="1.44428" transform="matrix(0.104703 -0.994504 -0.994504 -0.104703 195.123 131.003)" fill="white"/>
</g>
<circle cx="1.44428" cy="1.44428" r="1.44428" transform="matrix(0.104703 -0.994504 -0.994504 -0.104703 123.231 110.361)" fill="white"/>
<circle cx="0.722513" cy="0.722513" r="0.722513" transform="matrix(0.104703 -0.994504 -0.994504 -0.104703 107.431 191.476)" fill="white"/>
<circle cx="0.722513" cy="0.722513" r="0.722513" transform="matrix(0.104703 -0.994504 -0.994504 -0.104703 116.804 157.61)" fill="white"/>
<g style="mix-blend-mode:overlay">
<circle cx="0.722513" cy="0.722513" r="0.722513" transform="matrix(0.104703 -0.994504 -0.994504 -0.104703 193.913 142.494)" fill="white"/>
</g>
<g style="mix-blend-mode:overlay">
<circle cx="0.722513" cy="0.722513" r="0.722513" transform="matrix(0.104703 -0.994504 -0.994504 -0.104703 173.048 175.149)" fill="white"/>
</g>
<circle cx="1.57609" cy="1.57609" r="1.57609" transform="matrix(0.924462 -0.381274 -0.381274 -0.924462 38.0605 58.8664)" fill="white"/>
<g style="mix-blend-mode:overlay">
<circle cx="0.788452" cy="0.788452" r="0.788452" transform="matrix(0.924462 -0.381274 -0.381274 -0.924462 42.5505 30.0657)" fill="white"/>
</g>
<circle cx="0.788452" cy="0.788452" r="0.788452" transform="matrix(0.924462 -0.381274 -0.381274 -0.924462 89.9003 78.7308)" fill="white"/>
<g style="mix-blend-mode:overlay">
<circle cx="0.788452" cy="0.788452" r="0.788452" transform="matrix(0.924462 -0.381274 -0.381274 -0.924462 128.95 8.06871)" fill="white"/>
</g>
<g style="mix-blend-mode:overlay">
<circle cx="1.57609" cy="1.57609" r="1.57609" transform="matrix(0.924462 -0.381274 -0.381274 -0.924462 77.5186 15.6448)" fill="white"/>
</g>
<circle cx="1.57609" cy="1.57609" r="1.57609" transform="matrix(0.924462 -0.381274 -0.381274 -0.924462 142.608 48.9934)" fill="white"/>
<circle cx="0.788452" cy="0.788452" r="0.788452" transform="matrix(0.924462 -0.381274 -0.381274 -0.924462 120.06 52.6535)" fill="white"/>
<circle cx="0.788452" cy="0.788452" r="0.788452" transform="matrix(0.924462 -0.381274 -0.381274 -0.924462 77.8818 49.5901)" fill="white"/>
<g style="mix-blend-mode:overlay">
<circle cx="0.874008" cy="0.874008" r="0.874008" transform="matrix(0.804293 0.594233 0.594233 -0.804293 27.9629 227.552)" fill="white"/>
</g>
<g style="mix-blend-mode:overlay">
<circle cx="0.874008" cy="0.874008" r="0.874008" transform="matrix(0.804293 0.594233 0.594233 -0.804293 8.92212 300.372)" fill="white"/>
</g>
<g style="mix-blend-mode:overlay">
<circle cx="0.874008" cy="0.874008" r="0.874008" transform="matrix(0.804293 0.594233 0.594233 -0.804293 98.3496 296.933)" fill="white"/>
</g>
<g style="mix-blend-mode:overlay">
<circle cx="0.874008" cy="0.874008" r="0.874008" transform="matrix(0.804293 0.594233 0.594233 -0.804293 97.8467 227.052)" fill="white"/>
</g>
<g style="mix-blend-mode:overlay">
<circle cx="1.74711" cy="1.74711" r="1.74711" transform="matrix(0.804293 0.594233 0.594233 -0.804293 61.6886 252.469)" fill="white"/>
</g>
<circle cx="1.74711" cy="1.74711" r="1.74711" transform="matrix(0.804293 0.594233 0.594233 -0.804293 86.6553 325.45)" fill="white"/>
<g style="mix-blend-mode:overlay">
<circle cx="1.74711" cy="1.74711" r="1.74711" transform="matrix(0.804293 0.594233 0.594233 -0.804293 101.99 257.314)" fill="white"/>
</g>
<g style="mix-blend-mode:overlay">
<circle cx="0.874008" cy="0.874008" r="0.874008" transform="matrix(0.804293 0.594233 0.594233 -0.804293 52.8828 193.83)" fill="white"/>
</g>
<g style="mix-blend-mode:overlay">
<circle cx="0.874008" cy="0.874008" r="0.874008" transform="matrix(0.804293 0.594233 0.594233 -0.804293 82.4531 224.365)" fill="white"/>
</g>
<circle cx="0.874008" cy="0.874008" r="0.874008" transform="matrix(0.804293 0.594233 0.594233 -0.804293 61.1007 287.624)" fill="white"/>
<g style="mix-blend-mode:overlay">
<circle cx="0.874008" cy="0.874008" r="0.874008" transform="matrix(0.804293 0.594233 0.594233 -0.804293 29.6836 272.271)" fill="white"/>
</g>
</g>
<g opacity="0.3">
<g opacity="0.5">
<g style="mix-blend-mode:overlay">
<circle cx="1.42457" cy="1.42457" r="1.42457" transform="matrix(0.954139 -0.299364 -0.299364 -0.954139 252.058 399.019)" fill="white"/>
</g>
<circle cx="0.712653" cy="0.712653" r="0.712653" transform="matrix(0.954139 -0.299364 -0.299364 -0.954139 266.984 370.448)" fill="white"/>
<g style="mix-blend-mode:overlay">
<circle cx="0.712653" cy="0.712653" r="0.712653" transform="matrix(0.954139 -0.299364 -0.299364 -0.954139 305.791 417.992)" fill="white"/>
</g>
<circle cx="0.712653" cy="0.712653" r="0.712653" transform="matrix(0.954139 -0.299364 -0.299364 -0.954139 318.012 290.22)" fill="white"/>
<g style="mix-blend-mode:overlay">
<circle cx="0.712653" cy="0.712653" r="0.712653" transform="matrix(0.954139 -0.299364 -0.299364 -0.954139 300.242 324.177)" fill="white"/>
</g>
<g style="mix-blend-mode:overlay">
<circle cx="1.42457" cy="1.42457" r="1.42457" transform="matrix(0.954139 -0.299364 -0.299364 -0.954139 299.604 360.209)" fill="white"/>
</g>
<circle cx="1.42457" cy="1.42457" r="1.42457" transform="matrix(0.954139 -0.299364 -0.299364 -0.954139 306.472 391.632)" fill="white"/>
<g style="mix-blend-mode:overlay">
<circle cx="1.42457" cy="1.42457" r="1.42457" transform="matrix(0.954139 -0.299364 -0.299364 -0.954139 336.359 320.313)" fill="white"/>
</g>
<g style="mix-blend-mode:overlay">
<circle cx="0.712653" cy="0.712653" r="0.712653" transform="matrix(0.954139 -0.299364 -0.299364 -0.954139 256.75 337.825)" fill="white"/>
</g>
<circle cx="0.712653" cy="0.712653" r="0.712653" transform="matrix(0.954139 -0.299364 -0.299364 -0.954139 291.074 333.025)" fill="white"/>
<circle cx="0.712653" cy="0.712653" r="0.712653" transform="matrix(0.954139 -0.299364 -0.299364 -0.954139 321.703 356.168)" fill="white"/>
<g style="mix-blend-mode:overlay">
<circle cx="0.712653" cy="0.712653" r="0.712653" transform="matrix(0.954139 -0.299364 -0.299364 -0.954139 297.26 390.809)" fill="white"/>
</g>
<g style="mix-blend-mode:overlay">
<circle cx="1.44428" cy="1.44428" r="1.44428" transform="matrix(0.104703 -0.994504 -0.994504 -0.104703 255.464 311.509)" fill="white"/>
</g>
<g style="mix-blend-mode:overlay">
<circle cx="0.722513" cy="0.722513" r="0.722513" transform="matrix(0.104703 -0.994504 -0.994504 -0.104703 234.898 286.102)" fill="white"/>
</g>
<g style="mix-blend-mode:overlay">
<circle cx="0.722513" cy="0.722513" r="0.722513" transform="matrix(0.104703 -0.994504 -0.994504 -0.104703 294.776 269.171)" fill="white"/>
</g>
<g style="mix-blend-mode:overlay">
<circle cx="0.722513" cy="0.722513" r="0.722513" transform="matrix(0.104703 -0.994504 -0.994504 -0.104703 254.861 206.881)" fill="white"/>
</g>
<circle cx="0.722513" cy="0.722513" r="0.722513" transform="matrix(0.104703 -0.994504 -0.994504 -0.104703 205.268 236.511)" fill="white"/>
<g style="mix-blend-mode:overlay">
<circle cx="1.44428" cy="1.44428" r="1.44428" transform="matrix(0.104703 -0.994504 -0.994504 -0.104703 238.529 251.635)" fill="white"/>
</g>
<g style="mix-blend-mode:overlay">
<circle cx="1.44428" cy="1.44428" r="1.44428" transform="matrix(0.104703 -0.994504 -0.994504 -0.104703 288.123 222.002)" fill="white"/>
</g>
<circle cx="1.44428" cy="1.44428" r="1.44428" transform="matrix(0.104703 -0.994504 -0.994504 -0.104703 216.231 201.361)" fill="white"/>
<circle cx="0.722513" cy="0.722513" r="0.722513" transform="matrix(0.104703 -0.994504 -0.994504 -0.104703 200.431 282.475)" fill="white"/>
<circle cx="0.722513" cy="0.722513" r="0.722513" transform="matrix(0.104703 -0.994504 -0.994504 -0.104703 209.804 248.609)" fill="white"/>
<g style="mix-blend-mode:overlay">
<circle cx="0.722513" cy="0.722513" r="0.722513" transform="matrix(0.104703 -0.994504 -0.994504 -0.104703 286.913 233.493)" fill="white"/>
</g>
<g style="mix-blend-mode:overlay">
<circle cx="0.722513" cy="0.722513" r="0.722513" transform="matrix(0.104703 -0.994504 -0.994504 -0.104703 266.048 266.149)" fill="white"/>
</g>
<circle cx="1.57609" cy="1.57609" r="1.57609" transform="matrix(0.924462 -0.381274 -0.381274 -0.924462 131.061 149.865)" fill="white"/>
<g style="mix-blend-mode:overlay">
<circle cx="0.788452" cy="0.788452" r="0.788452" transform="matrix(0.924462 -0.381274 -0.381274 -0.924462 135.551 121.065)" fill="white"/>
</g>
<circle cx="0.788452" cy="0.788452" r="0.788452" transform="matrix(0.924462 -0.381274 -0.381274 -0.924462 182.9 169.73)" fill="white"/>
<g style="mix-blend-mode:overlay">
<circle cx="0.788452" cy="0.788452" r="0.788452" transform="matrix(0.924462 -0.381274 -0.381274 -0.924462 221.95 99.0678)" fill="white"/>
</g>
<g style="mix-blend-mode:overlay">
<circle cx="0.788452" cy="0.788452" r="0.788452" transform="matrix(0.924462 -0.381274 -0.381274 -0.924462 167.754 66.8664)" fill="white"/>
</g>
<g style="mix-blend-mode:overlay">
<circle cx="1.57609" cy="1.57609" r="1.57609" transform="matrix(0.924462 -0.381274 -0.381274 -0.924462 170.519 106.644)" fill="white"/>
</g>
<circle cx="1.57609" cy="1.57609" r="1.57609" transform="matrix(0.924462 -0.381274 -0.381274 -0.924462 235.608 139.993)" fill="white"/>
<g style="mix-blend-mode:overlay">
<circle cx="1.57609" cy="1.57609" r="1.57609" transform="matrix(0.924462 -0.381274 -0.381274 -0.924462 207.183 59.1262)" fill="white"/>
</g>
<g style="mix-blend-mode:overlay">
<circle cx="0.788452" cy="0.788452" r="0.788452" transform="matrix(0.924462 -0.381274 -0.381274 -0.924462 121.129 86.0979)" fill="white"/>
</g>
<g style="mix-blend-mode:overlay">
<circle cx="0.788452" cy="0.788452" r="0.788452" transform="matrix(0.924462 -0.381274 -0.381274 -0.924462 158.498 77.5002)" fill="white"/>
</g>
<circle cx="0.788452" cy="0.788452" r="0.788452" transform="matrix(0.924462 -0.381274 -0.381274 -0.924462 213.06 143.652)" fill="white"/>
<circle cx="0.788452" cy="0.788452" r="0.788452" transform="matrix(0.924462 -0.381274 -0.381274 -0.924462 170.882 140.589)" fill="white"/>
<g style="mix-blend-mode:overlay">
<circle cx="1.74711" cy="1.74711" r="1.74711" transform="matrix(0.804293 0.594233 0.594233 -0.804293 81.8711 324.426)" fill="white"/>
</g>
<g style="mix-blend-mode:overlay">
<circle cx="0.874008" cy="0.874008" r="0.874008" transform="matrix(0.804293 0.594233 0.594233 -0.804293 120.963 318.552)" fill="white"/>
</g>
<g style="mix-blend-mode:overlay">
<circle cx="0.874008" cy="0.874008" r="0.874008" transform="matrix(0.804293 0.594233 0.594233 -0.804293 101.922 391.371)" fill="white"/>
</g>
<g style="mix-blend-mode:overlay">
<circle cx="0.874008" cy="0.874008" r="0.874008" transform="matrix(0.804293 0.594233 0.594233 -0.804293 191.35 387.933)" fill="white"/>
</g>
<g style="mix-blend-mode:overlay">
<circle cx="0.874008" cy="0.874008" r="0.874008" transform="matrix(0.804293 0.594233 0.594233 -0.804293 190.847 318.051)" fill="white"/>
</g>
<g style="mix-blend-mode:overlay">
<circle cx="1.74711" cy="1.74711" r="1.74711" transform="matrix(0.804293 0.594233 0.594233 -0.804293 154.689 343.468)" fill="white"/>
</g>
<circle cx="1.74711" cy="1.74711" r="1.74711" transform="matrix(0.804293 0.594233 0.594233 -0.804293 179.655 416.449)" fill="white"/>
<g style="mix-blend-mode:overlay">
<circle cx="1.74711" cy="1.74711" r="1.74711" transform="matrix(0.804293 0.594233 0.594233 -0.804293 194.99 348.314)" fill="white"/>
</g>
<g style="mix-blend-mode:overlay">
<circle cx="0.874008" cy="0.874008" r="0.874008" transform="matrix(0.804293 0.594233 0.594233 -0.804293 145.882 284.829)" fill="white"/>
</g>
<g style="mix-blend-mode:overlay">
<circle cx="0.874008" cy="0.874008" r="0.874008" transform="matrix(0.804293 0.594233 0.594233 -0.804293 175.453 315.364)" fill="white"/>
</g>
<circle cx="0.874008" cy="0.874008" r="0.874008" transform="matrix(0.804293 0.594233 0.594233 -0.804293 154.101 378.623)" fill="white"/>
<g style="mix-blend-mode:overlay">
<circle cx="0.874008" cy="0.874008" r="0.874008" transform="matrix(0.804293 0.594233 0.594233 -0.804293 122.684 363.271)" fill="white"/>
</g>
</g>
<g opacity="0.5">
<g style="mix-blend-mode:overlay">
<circle cx="1.42457" cy="1.42457" r="1.42457" transform="matrix(0.954139 -0.299364 -0.299364 -0.954139 252.058 399.019)" fill="white"/>
</g>
<circle cx="0.712653" cy="0.712653" r="0.712653" transform="matrix(0.954139 -0.299364 -0.299364 -0.954139 266.984 370.448)" fill="white"/>
<g style="mix-blend-mode:overlay">
<circle cx="0.712653" cy="0.712653" r="0.712653" transform="matrix(0.954139 -0.299364 -0.299364 -0.954139 305.791 417.993)" fill="white"/>
</g>
<circle cx="0.712653" cy="0.712653" r="0.712653" transform="matrix(0.954139 -0.299364 -0.299364 -0.954139 318.012 290.221)" fill="white"/>
<g style="mix-blend-mode:overlay">
<circle cx="0.712653" cy="0.712653" r="0.712653" transform="matrix(0.954139 -0.299364 -0.299364 -0.954139 300.242 324.178)" fill="white"/>
</g>
<g style="mix-blend-mode:overlay">
<circle cx="1.42457" cy="1.42457" r="1.42457" transform="matrix(0.954139 -0.299364 -0.299364 -0.954139 299.604 360.209)" fill="white"/>
</g>
<circle cx="1.42457" cy="1.42457" r="1.42457" transform="matrix(0.954139 -0.299364 -0.299364 -0.954139 306.472 391.633)" fill="white"/>
<g style="mix-blend-mode:overlay">
<circle cx="1.42457" cy="1.42457" r="1.42457" transform="matrix(0.954139 -0.299364 -0.299364 -0.954139 336.359 320.314)" fill="white"/>
</g>
<g style="mix-blend-mode:overlay">
<circle cx="0.712653" cy="0.712653" r="0.712653" transform="matrix(0.954139 -0.299364 -0.299364 -0.954139 256.75 337.826)" fill="white"/>
</g>
<circle cx="0.712653" cy="0.712653" r="0.712653" transform="matrix(0.954139 -0.299364 -0.299364 -0.954139 291.074 333.027)" fill="white"/>
<circle cx="0.712653" cy="0.712653" r="0.712653" transform="matrix(0.954139 -0.299364 -0.299364 -0.954139 321.703 356.169)" fill="white"/>
<g style="mix-blend-mode:overlay">
<circle cx="0.712653" cy="0.712653" r="0.712653" transform="matrix(0.954139 -0.299364 -0.299364 -0.954139 297.26 390.81)" fill="white"/>
</g>
<g style="mix-blend-mode:overlay">
<circle cx="1.44428" cy="1.44428" r="1.44428" transform="matrix(0.104703 -0.994504 -0.994504 -0.104703 255.464 311.51)" fill="white"/>
</g>
<g style="mix-blend-mode:overlay">
<circle cx="0.722513" cy="0.722513" r="0.722513" transform="matrix(0.104703 -0.994504 -0.994504 -0.104703 234.898 286.103)" fill="white"/>
</g>
<g style="mix-blend-mode:overlay">
<circle cx="0.722513" cy="0.722513" r="0.722513" transform="matrix(0.104703 -0.994504 -0.994504 -0.104703 294.776 269.172)" fill="white"/>
</g>
<g style="mix-blend-mode:overlay">
<circle cx="0.722513" cy="0.722513" r="0.722513" transform="matrix(0.104703 -0.994504 -0.994504 -0.104703 254.861 206.882)" fill="white"/>
</g>
<circle cx="0.722513" cy="0.722513" r="0.722513" transform="matrix(0.104703 -0.994504 -0.994504 -0.104703 205.268 236.512)" fill="white"/>
<g style="mix-blend-mode:overlay">
<circle cx="1.44428" cy="1.44428" r="1.44428" transform="matrix(0.104703 -0.994504 -0.994504 -0.104703 238.529 251.635)" fill="white"/>
</g>
<g style="mix-blend-mode:overlay">
<circle cx="1.44428" cy="1.44428" r="1.44428" transform="matrix(0.104703 -0.994504 -0.994504 -0.104703 288.123 222.003)" fill="white"/>
</g>
<circle cx="1.44428" cy="1.44428" r="1.44428" transform="matrix(0.104703 -0.994504 -0.994504 -0.104703 216.231 201.361)" fill="white"/>
<circle cx="0.722513" cy="0.722513" r="0.722513" transform="matrix(0.104703 -0.994504 -0.994504 -0.104703 200.431 282.476)" fill="white"/>
<circle cx="0.722513" cy="0.722513" r="0.722513" transform="matrix(0.104703 -0.994504 -0.994504 -0.104703 209.804 248.61)" fill="white"/>
<g style="mix-blend-mode:overlay">
<circle cx="0.722513" cy="0.722513" r="0.722513" transform="matrix(0.104703 -0.994504 -0.994504 -0.104703 286.913 233.494)" fill="white"/>
</g>
<g style="mix-blend-mode:overlay">
<circle cx="0.722513" cy="0.722513" r="0.722513" transform="matrix(0.104703 -0.994504 -0.994504 -0.104703 266.048 266.149)" fill="white"/>
</g>
<circle cx="1.57609" cy="1.57609" r="1.57609" transform="matrix(0.924462 -0.381274 -0.381274 -0.924462 131.061 149.866)" fill="white"/>
<g style="mix-blend-mode:overlay">
<circle cx="0.788452" cy="0.788452" r="0.788452" transform="matrix(0.924462 -0.381274 -0.381274 -0.924462 135.551 121.066)" fill="white"/>
</g>
<circle cx="0.788452" cy="0.788452" r="0.788452" transform="matrix(0.924462 -0.381274 -0.381274 -0.924462 182.9 169.731)" fill="white"/>
<g style="mix-blend-mode:overlay">
<circle cx="0.788452" cy="0.788452" r="0.788452" transform="matrix(0.924462 -0.381274 -0.381274 -0.924462 221.95 99.0687)" fill="white"/>
</g>
<g style="mix-blend-mode:overlay">
<circle cx="0.788452" cy="0.788452" r="0.788452" transform="matrix(0.924462 -0.381274 -0.381274 -0.924462 167.754 66.8674)" fill="white"/>
</g>
<g style="mix-blend-mode:overlay">
<circle cx="1.57609" cy="1.57609" r="1.57609" transform="matrix(0.924462 -0.381274 -0.381274 -0.924462 170.519 106.645)" fill="white"/>
</g>
<circle cx="1.57609" cy="1.57609" r="1.57609" transform="matrix(0.924462 -0.381274 -0.381274 -0.924462 235.608 139.993)" fill="white"/>
<g style="mix-blend-mode:overlay">
<circle cx="1.57609" cy="1.57609" r="1.57609" transform="matrix(0.924462 -0.381274 -0.381274 -0.924462 207.183 59.1272)" fill="white"/>
</g>
<g style="mix-blend-mode:overlay">
<circle cx="0.788452" cy="0.788452" r="0.788452" transform="matrix(0.924462 -0.381274 -0.381274 -0.924462 121.129 86.0989)" fill="white"/>
</g>
<g style="mix-blend-mode:overlay">
<circle cx="0.788452" cy="0.788452" r="0.788452" transform="matrix(0.924462 -0.381274 -0.381274 -0.924462 158.498 77.5002)" fill="white"/>
</g>
<circle cx="0.788452" cy="0.788452" r="0.788452" transform="matrix(0.924462 -0.381274 -0.381274 -0.924462 213.06 143.654)" fill="white"/>
<circle cx="0.788452" cy="0.788452" r="0.788452" transform="matrix(0.924462 -0.381274 -0.381274 -0.924462 170.882 140.59)" fill="white"/>
<g style="mix-blend-mode:overlay">
<circle cx="1.74711" cy="1.74711" r="1.74711" transform="matrix(0.804293 0.594233 0.594233 -0.804293 81.8711 324.427)" fill="white"/>
</g>
<g style="mix-blend-mode:overlay">
<circle cx="0.874008" cy="0.874008" r="0.874008" transform="matrix(0.804293 0.594233 0.594233 -0.804293 120.963 318.552)" fill="white"/>
</g>
<g style="mix-blend-mode:overlay">
<circle cx="0.874008" cy="0.874008" r="0.874008" transform="matrix(0.804293 0.594233 0.594233 -0.804293 101.922 391.372)" fill="white"/>
</g>
<g style="mix-blend-mode:overlay">
<circle cx="0.874008" cy="0.874008" r="0.874008" transform="matrix(0.804293 0.594233 0.594233 -0.804293 191.35 387.933)" fill="white"/>
</g>
<g style="mix-blend-mode:overlay">
<circle cx="0.874008" cy="0.874008" r="0.874008" transform="matrix(0.804293 0.594233 0.594233 -0.804293 190.847 318.052)" fill="white"/>
</g>
<g style="mix-blend-mode:overlay">
<circle cx="1.74711" cy="1.74711" r="1.74711" transform="matrix(0.804293 0.594233 0.594233 -0.804293 154.689 343.469)" fill="white"/>
</g>
<circle cx="1.74711" cy="1.74711" r="1.74711" transform="matrix(0.804293 0.594233 0.594233 -0.804293 179.655 416.45)" fill="white"/>
<g style="mix-blend-mode:overlay">
<circle cx="1.74711" cy="1.74711" r="1.74711" transform="matrix(0.804293 0.594233 0.594233 -0.804293 194.99 348.314)" fill="white"/>
</g>
<g style="mix-blend-mode:overlay">
<circle cx="0.874008" cy="0.874008" r="0.874008" transform="matrix(0.804293 0.594233 0.594233 -0.804293 145.883 284.83)" fill="white"/>
</g>
<g style="mix-blend-mode:overlay">
<circle cx="0.874008" cy="0.874008" r="0.874008" transform="matrix(0.804293 0.594233 0.594233 -0.804293 175.453 315.365)" fill="white"/>
</g>
<circle cx="0.874008" cy="0.874008" r="0.874008" transform="matrix(0.804293 0.594233 0.594233 -0.804293 154.101 378.624)" fill="white"/>
<g style="mix-blend-mode:overlay">
<circle cx="0.874008" cy="0.874008" r="0.874008" transform="matrix(0.804293 0.594233 0.594233 -0.804293 122.684 363.271)" fill="white"/>
</g>
</g>
</g>
</svg>
