<svg width="1440" height="633" viewBox="0 0 1440 633" fill="none" xmlns="http://www.w3.org/2000/svg">
<g clip-path="url(#clip0_393_6846)">
<rect width="1442" height="633" fill="#02060A"/>
<g clip-path="url(#clip1_393_6846)">
<g filter="url(#filter0_f_393_6846)">
<ellipse cx="477.941" cy="1717.31" rx="2478.31" ry="896.117" fill="url(#paint0_radial_393_6846)"/>
</g>
<g style="mix-blend-mode:plus-lighter" filter="url(#filter1_f_393_6846)">
<path d="M1904.52 1724.98C1904.52 2219.89 1265.82 2621.09 477.942 2621.09C-309.937 2621.09 -948.639 2219.89 -948.639 1724.98C-948.639 1230.07 -309.937 399.584 477.942 399.584C1265.82 399.584 1904.52 1230.07 1904.52 1724.98Z" fill="url(#paint1_radial_393_6846)"/>
</g>
<g opacity="0.4">
<g style="mix-blend-mode:color-dodge" opacity="0.5" filter="url(#filter2_f_393_6846)">
<path d="M198.539 -308L-98.9993 -136.216L283.275 525.902L580.813 354.118L198.539 -308Z" fill="url(#paint2_linear_393_6846)"/>
</g>
</g>
<g opacity="0.5">
<g style="mix-blend-mode:overlay">
<circle cx="1.42457" cy="1.42457" r="1.42457" transform="matrix(0.954139 -0.299364 -0.299364 -0.954139 96.0566 235.018)" fill="white"/>
</g>
<circle cx="0.712653" cy="0.712653" r="0.712653" transform="matrix(0.954139 -0.299364 -0.299364 -0.954139 110.982 206.447)" fill="white"/>
<g style="mix-blend-mode:overlay">
<circle cx="0.712653" cy="0.712653" r="0.712653" transform="matrix(0.954139 -0.299364 -0.299364 -0.954139 149.789 253.992)" fill="white"/>
</g>
<circle cx="0.712653" cy="0.712653" r="0.712653" transform="matrix(0.954139 -0.299364 -0.299364 -0.954139 162.01 126.221)" fill="white"/>
<g style="mix-blend-mode:overlay">
<circle cx="0.712653" cy="0.712653" r="0.712653" transform="matrix(0.954139 -0.299364 -0.299364 -0.954139 144.24 160.176)" fill="white"/>
</g>
<g style="mix-blend-mode:overlay">
<circle cx="1.42457" cy="1.42457" r="1.42457" transform="matrix(0.954139 -0.299364 -0.299364 -0.954139 143.604 196.209)" fill="white"/>
</g>
<circle cx="1.42457" cy="1.42457" r="1.42457" transform="matrix(0.954139 -0.299364 -0.299364 -0.954139 150.471 227.633)" fill="white"/>
<g style="mix-blend-mode:overlay">
<circle cx="1.42457" cy="1.42457" r="1.42457" transform="matrix(0.954139 -0.299364 -0.299364 -0.954139 180.359 156.312)" fill="white"/>
</g>
<g style="mix-blend-mode:overlay">
<circle cx="0.712653" cy="0.712653" r="0.712653" transform="matrix(0.954139 -0.299364 -0.299364 -0.954139 100.748 173.824)" fill="white"/>
</g>
<circle cx="0.712653" cy="0.712653" r="0.712653" transform="matrix(0.954139 -0.299364 -0.299364 -0.954139 135.072 169.025)" fill="white"/>
<circle cx="0.712653" cy="0.712653" r="0.712653" transform="matrix(0.954139 -0.299364 -0.299364 -0.954139 165.703 192.168)" fill="white"/>
<g style="mix-blend-mode:overlay">
<circle cx="0.712653" cy="0.712653" r="0.712653" transform="matrix(0.954139 -0.299364 -0.299364 -0.954139 141.26 226.809)" fill="white"/>
</g>
<g style="mix-blend-mode:overlay">
<circle cx="1.44428" cy="1.44428" r="1.44428" transform="matrix(0.104703 -0.994504 -0.994504 -0.104703 99.4629 147.51)" fill="white"/>
</g>
<g style="mix-blend-mode:overlay">
<circle cx="0.722513" cy="0.722513" r="0.722513" transform="matrix(0.104703 -0.994504 -0.994504 -0.104703 78.8965 122.102)" fill="white"/>
</g>
<g style="mix-blend-mode:overlay">
<circle cx="0.722513" cy="0.722513" r="0.722513" transform="matrix(0.104703 -0.994504 -0.994504 -0.104703 138.775 105.17)" fill="white"/>
</g>
<g style="mix-blend-mode:overlay">
<circle cx="0.722513" cy="0.722513" r="0.722513" transform="matrix(0.104703 -0.994504 -0.994504 -0.104703 98.8594 42.8809)" fill="white"/>
</g>
<circle cx="0.722513" cy="0.722513" r="0.722513" transform="matrix(0.104703 -0.994504 -0.994504 -0.104703 49.2676 72.5117)" fill="white"/>
<g style="mix-blend-mode:overlay">
<circle cx="1.44428" cy="1.44428" r="1.44428" transform="matrix(0.104703 -0.994504 -0.994504 -0.104703 82.5273 87.6348)" fill="white"/>
</g>
<g style="mix-blend-mode:overlay">
<circle cx="1.44428" cy="1.44428" r="1.44428" transform="matrix(0.104703 -0.994504 -0.994504 -0.104703 132.121 58.002)" fill="white"/>
</g>
<circle cx="1.44428" cy="1.44428" r="1.44428" transform="matrix(0.104703 -0.994504 -0.994504 -0.104703 60.2305 37.3594)" fill="white"/>
<circle cx="0.722513" cy="0.722513" r="0.722513" transform="matrix(0.104703 -0.994504 -0.994504 -0.104703 44.4297 118.475)" fill="white"/>
<circle cx="0.722513" cy="0.722513" r="0.722513" transform="matrix(0.104703 -0.994504 -0.994504 -0.104703 53.8027 84.6094)" fill="white"/>
<g style="mix-blend-mode:overlay">
<circle cx="0.722513" cy="0.722513" r="0.722513" transform="matrix(0.104703 -0.994504 -0.994504 -0.104703 130.912 69.4941)" fill="white"/>
</g>
<g style="mix-blend-mode:overlay">
<circle cx="0.722513" cy="0.722513" r="0.722513" transform="matrix(0.104703 -0.994504 -0.994504 -0.104703 110.047 102.148)" fill="white"/>
</g>
<circle cx="0.788452" cy="0.788452" r="0.788452" transform="matrix(0.924462 -0.381274 -0.381274 -0.924462 26.8984 5.73047)" fill="white"/>
<g style="mix-blend-mode:overlay">
<circle cx="0.874008" cy="0.874008" r="0.874008" transform="matrix(0.804293 0.594233 0.594233 -0.804293 35.3496 223.932)" fill="white"/>
</g>
<g style="mix-blend-mode:overlay">
<circle cx="0.874008" cy="0.874008" r="0.874008" transform="matrix(0.804293 0.594233 0.594233 -0.804293 34.8457 154.051)" fill="white"/>
</g>
<g style="mix-blend-mode:overlay">
<circle cx="1.74711" cy="1.74711" r="1.74711" transform="matrix(0.804293 0.594233 0.594233 -0.804293 -1.3125 179.467)" fill="white"/>
</g>
<circle cx="1.74711" cy="1.74711" r="1.74711" transform="matrix(0.804293 0.594233 0.594233 -0.804293 23.6543 252.449)" fill="white"/>
<g style="mix-blend-mode:overlay">
<circle cx="1.74711" cy="1.74711" r="1.74711" transform="matrix(0.804293 0.594233 0.594233 -0.804293 38.9902 184.312)" fill="white"/>
</g>
<g style="mix-blend-mode:overlay">
<circle cx="0.874008" cy="0.874008" r="0.874008" transform="matrix(0.804293 0.594233 0.594233 -0.804293 19.4531 151.365)" fill="white"/>
</g>
<circle cx="0.874008" cy="0.874008" r="0.874008" transform="matrix(0.804293 0.594233 0.594233 -0.804293 -1.90039 214.623)" fill="white"/>
</g>
<g opacity="0.5">
<g style="mix-blend-mode:overlay">
<circle cx="1.42457" cy="1.42457" r="1.42457" transform="matrix(0.954139 -0.299364 -0.299364 -0.954139 96.0586 235.018)" fill="white"/>
</g>
<circle cx="0.712653" cy="0.712653" r="0.712653" transform="matrix(0.954139 -0.299364 -0.299364 -0.954139 110.984 206.447)" fill="white"/>
<g style="mix-blend-mode:overlay">
<circle cx="0.712653" cy="0.712653" r="0.712653" transform="matrix(0.954139 -0.299364 -0.299364 -0.954139 149.791 253.992)" fill="white"/>
</g>
<circle cx="0.712653" cy="0.712653" r="0.712653" transform="matrix(0.954139 -0.299364 -0.299364 -0.954139 162.01 126.221)" fill="white"/>
<g style="mix-blend-mode:overlay">
<circle cx="0.712653" cy="0.712653" r="0.712653" transform="matrix(0.954139 -0.299364 -0.299364 -0.954139 144.24 160.176)" fill="white"/>
</g>
<g style="mix-blend-mode:overlay">
<circle cx="1.42457" cy="1.42457" r="1.42457" transform="matrix(0.954139 -0.299364 -0.299364 -0.954139 143.604 196.209)" fill="white"/>
</g>
<circle cx="1.42457" cy="1.42457" r="1.42457" transform="matrix(0.954139 -0.299364 -0.299364 -0.954139 150.471 227.633)" fill="white"/>
<g style="mix-blend-mode:overlay">
<circle cx="1.42457" cy="1.42457" r="1.42457" transform="matrix(0.954139 -0.299364 -0.299364 -0.954139 180.359 156.312)" fill="white"/>
</g>
<g style="mix-blend-mode:overlay">
<circle cx="0.712653" cy="0.712653" r="0.712653" transform="matrix(0.954139 -0.299364 -0.299364 -0.954139 100.748 173.824)" fill="white"/>
</g>
<circle cx="0.712653" cy="0.712653" r="0.712653" transform="matrix(0.954139 -0.299364 -0.299364 -0.954139 135.074 169.023)" fill="white"/>
<circle cx="0.712653" cy="0.712653" r="0.712653" transform="matrix(0.954139 -0.299364 -0.299364 -0.954139 165.703 192.168)" fill="white"/>
<g style="mix-blend-mode:overlay">
<circle cx="0.712653" cy="0.712653" r="0.712653" transform="matrix(0.954139 -0.299364 -0.299364 -0.954139 141.26 226.809)" fill="white"/>
</g>
<g style="mix-blend-mode:overlay">
<circle cx="1.44428" cy="1.44428" r="1.44428" transform="matrix(0.104703 -0.994504 -0.994504 -0.104703 99.4629 147.508)" fill="white"/>
</g>
<g style="mix-blend-mode:overlay">
<circle cx="0.722513" cy="0.722513" r="0.722513" transform="matrix(0.104703 -0.994504 -0.994504 -0.104703 78.8965 122.102)" fill="white"/>
</g>
<g style="mix-blend-mode:overlay">
<circle cx="0.722513" cy="0.722513" r="0.722513" transform="matrix(0.104703 -0.994504 -0.994504 -0.104703 138.775 105.17)" fill="white"/>
</g>
<g style="mix-blend-mode:overlay">
<circle cx="0.722513" cy="0.722513" r="0.722513" transform="matrix(0.104703 -0.994504 -0.994504 -0.104703 98.8594 42.8809)" fill="white"/>
</g>
<circle cx="0.722513" cy="0.722513" r="0.722513" transform="matrix(0.104703 -0.994504 -0.994504 -0.104703 49.2676 72.5098)" fill="white"/>
<g style="mix-blend-mode:overlay">
<circle cx="1.44428" cy="1.44428" r="1.44428" transform="matrix(0.104703 -0.994504 -0.994504 -0.104703 82.5293 87.6348)" fill="white"/>
</g>
<g style="mix-blend-mode:overlay">
<circle cx="1.44428" cy="1.44428" r="1.44428" transform="matrix(0.104703 -0.994504 -0.994504 -0.104703 132.123 58.002)" fill="white"/>
</g>
<circle cx="1.44428" cy="1.44428" r="1.44428" transform="matrix(0.104703 -0.994504 -0.994504 -0.104703 60.2305 37.3594)" fill="white"/>
<circle cx="0.722513" cy="0.722513" r="0.722513" transform="matrix(0.104703 -0.994504 -0.994504 -0.104703 44.4297 118.475)" fill="white"/>
<circle cx="0.722513" cy="0.722513" r="0.722513" transform="matrix(0.104703 -0.994504 -0.994504 -0.104703 53.8027 84.6094)" fill="white"/>
<g style="mix-blend-mode:overlay">
<circle cx="0.722513" cy="0.722513" r="0.722513" transform="matrix(0.104703 -0.994504 -0.994504 -0.104703 130.912 69.4941)" fill="white"/>
</g>
<g style="mix-blend-mode:overlay">
<circle cx="0.722513" cy="0.722513" r="0.722513" transform="matrix(0.104703 -0.994504 -0.994504 -0.104703 110.047 102.148)" fill="white"/>
</g>
<circle cx="0.788452" cy="0.788452" r="0.788452" transform="matrix(0.924462 -0.381274 -0.381274 -0.924462 26.8984 5.73047)" fill="white"/>
<g style="mix-blend-mode:overlay">
<circle cx="0.874008" cy="0.874008" r="0.874008" transform="matrix(0.804293 0.594233 0.594233 -0.804293 35.3496 223.932)" fill="white"/>
</g>
<g style="mix-blend-mode:overlay">
<circle cx="0.874008" cy="0.874008" r="0.874008" transform="matrix(0.804293 0.594233 0.594233 -0.804293 34.8457 154.051)" fill="white"/>
</g>
<g style="mix-blend-mode:overlay">
<circle cx="1.74711" cy="1.74711" r="1.74711" transform="matrix(0.804293 0.594233 0.594233 -0.804293 -1.3125 179.467)" fill="white"/>
</g>
<circle cx="1.74711" cy="1.74711" r="1.74711" transform="matrix(0.804293 0.594233 0.594233 -0.804293 23.6543 252.447)" fill="white"/>
<g style="mix-blend-mode:overlay">
<circle cx="1.74711" cy="1.74711" r="1.74711" transform="matrix(0.804293 0.594233 0.594233 -0.804293 38.9883 184.312)" fill="white"/>
</g>
<g style="mix-blend-mode:overlay">
<circle cx="0.874008" cy="0.874008" r="0.874008" transform="matrix(0.804293 0.594233 0.594233 -0.804293 19.4531 151.365)" fill="white"/>
</g>
<circle cx="0.874008" cy="0.874008" r="0.874008" transform="matrix(0.804293 0.594233 0.594233 -0.804293 -1.90039 214.623)" fill="white"/>
</g>
<g opacity="0.3">
<g opacity="0.5">
<g style="mix-blend-mode:overlay">
<circle cx="1.42457" cy="1.42457" r="1.42457" transform="matrix(0.954139 -0.299364 -0.299364 -0.954139 189.057 326.018)" fill="white"/>
</g>
<circle cx="0.712653" cy="0.712653" r="0.712653" transform="matrix(0.954139 -0.299364 -0.299364 -0.954139 203.982 297.447)" fill="white"/>
<g style="mix-blend-mode:overlay">
<circle cx="0.712653" cy="0.712653" r="0.712653" transform="matrix(0.954139 -0.299364 -0.299364 -0.954139 242.789 344.992)" fill="white"/>
</g>
<circle cx="0.712653" cy="0.712653" r="0.712653" transform="matrix(0.954139 -0.299364 -0.299364 -0.954139 255.01 217.221)" fill="white"/>
<g style="mix-blend-mode:overlay">
<circle cx="0.712653" cy="0.712653" r="0.712653" transform="matrix(0.954139 -0.299364 -0.299364 -0.954139 237.24 251.176)" fill="white"/>
</g>
<g style="mix-blend-mode:overlay">
<circle cx="1.42457" cy="1.42457" r="1.42457" transform="matrix(0.954139 -0.299364 -0.299364 -0.954139 236.604 287.209)" fill="white"/>
</g>
<circle cx="1.42457" cy="1.42457" r="1.42457" transform="matrix(0.954139 -0.299364 -0.299364 -0.954139 243.471 318.633)" fill="white"/>
<g style="mix-blend-mode:overlay">
<circle cx="1.42457" cy="1.42457" r="1.42457" transform="matrix(0.954139 -0.299364 -0.299364 -0.954139 273.359 247.312)" fill="white"/>
</g>
<g style="mix-blend-mode:overlay">
<circle cx="0.712653" cy="0.712653" r="0.712653" transform="matrix(0.954139 -0.299364 -0.299364 -0.954139 193.748 264.824)" fill="white"/>
</g>
<circle cx="0.712653" cy="0.712653" r="0.712653" transform="matrix(0.954139 -0.299364 -0.299364 -0.954139 228.072 260.025)" fill="white"/>
<circle cx="0.712653" cy="0.712653" r="0.712653" transform="matrix(0.954139 -0.299364 -0.299364 -0.954139 258.703 283.168)" fill="white"/>
<g style="mix-blend-mode:overlay">
<circle cx="0.712653" cy="0.712653" r="0.712653" transform="matrix(0.954139 -0.299364 -0.299364 -0.954139 234.26 317.809)" fill="white"/>
</g>
<g style="mix-blend-mode:overlay">
<circle cx="1.44428" cy="1.44428" r="1.44428" transform="matrix(0.104703 -0.994504 -0.994504 -0.104703 192.463 238.51)" fill="white"/>
</g>
<g style="mix-blend-mode:overlay">
<circle cx="0.722513" cy="0.722513" r="0.722513" transform="matrix(0.104703 -0.994504 -0.994504 -0.104703 171.896 213.102)" fill="white"/>
</g>
<g style="mix-blend-mode:overlay">
<circle cx="0.722513" cy="0.722513" r="0.722513" transform="matrix(0.104703 -0.994504 -0.994504 -0.104703 231.775 196.17)" fill="white"/>
</g>
<g style="mix-blend-mode:overlay">
<circle cx="0.722513" cy="0.722513" r="0.722513" transform="matrix(0.104703 -0.994504 -0.994504 -0.104703 191.859 133.881)" fill="white"/>
</g>
<circle cx="0.722513" cy="0.722513" r="0.722513" transform="matrix(0.104703 -0.994504 -0.994504 -0.104703 142.268 163.512)" fill="white"/>
<g style="mix-blend-mode:overlay">
<circle cx="1.44428" cy="1.44428" r="1.44428" transform="matrix(0.104703 -0.994504 -0.994504 -0.104703 175.527 178.635)" fill="white"/>
</g>
<g style="mix-blend-mode:overlay">
<circle cx="1.44428" cy="1.44428" r="1.44428" transform="matrix(0.104703 -0.994504 -0.994504 -0.104703 225.121 149.002)" fill="white"/>
</g>
<circle cx="1.44428" cy="1.44428" r="1.44428" transform="matrix(0.104703 -0.994504 -0.994504 -0.104703 153.23 128.359)" fill="white"/>
<circle cx="0.722513" cy="0.722513" r="0.722513" transform="matrix(0.104703 -0.994504 -0.994504 -0.104703 137.43 209.475)" fill="white"/>
<circle cx="0.722513" cy="0.722513" r="0.722513" transform="matrix(0.104703 -0.994504 -0.994504 -0.104703 146.803 175.609)" fill="white"/>
<g style="mix-blend-mode:overlay">
<circle cx="0.722513" cy="0.722513" r="0.722513" transform="matrix(0.104703 -0.994504 -0.994504 -0.104703 223.912 160.494)" fill="white"/>
</g>
<g style="mix-blend-mode:overlay">
<circle cx="0.722513" cy="0.722513" r="0.722513" transform="matrix(0.104703 -0.994504 -0.994504 -0.104703 203.047 193.148)" fill="white"/>
</g>
<circle cx="1.57609" cy="1.57609" r="1.57609" transform="matrix(0.924462 -0.381274 -0.381274 -0.924462 68.0605 76.8652)" fill="white"/>
<g style="mix-blend-mode:overlay">
<circle cx="0.788452" cy="0.788452" r="0.788452" transform="matrix(0.924462 -0.381274 -0.381274 -0.924462 72.5488 48.0645)" fill="white"/>
</g>
<circle cx="0.788452" cy="0.788452" r="0.788452" transform="matrix(0.924462 -0.381274 -0.381274 -0.924462 119.898 96.7305)" fill="white"/>
<g style="mix-blend-mode:overlay">
<circle cx="0.788452" cy="0.788452" r="0.788452" transform="matrix(0.924462 -0.381274 -0.381274 -0.924462 158.949 26.0684)" fill="white"/>
</g>
<g style="mix-blend-mode:overlay">
<circle cx="1.57609" cy="1.57609" r="1.57609" transform="matrix(0.924462 -0.381274 -0.381274 -0.924462 107.518 33.6426)" fill="white"/>
</g>
<circle cx="1.57609" cy="1.57609" r="1.57609" transform="matrix(0.924462 -0.381274 -0.381274 -0.924462 172.607 66.9922)" fill="white"/>
<g style="mix-blend-mode:overlay">
<circle cx="0.788452" cy="0.788452" r="0.788452" transform="matrix(0.924462 -0.381274 -0.381274 -0.924462 58.127 13.0977)" fill="white"/>
</g>
<g style="mix-blend-mode:overlay">
<circle cx="0.788452" cy="0.788452" r="0.788452" transform="matrix(0.924462 -0.381274 -0.381274 -0.924462 95.4961 4.5)" fill="white"/>
</g>
<circle cx="0.788452" cy="0.788452" r="0.788452" transform="matrix(0.924462 -0.381274 -0.381274 -0.924462 150.059 70.6523)" fill="white"/>
<circle cx="0.788452" cy="0.788452" r="0.788452" transform="matrix(0.924462 -0.381274 -0.381274 -0.924462 107.881 67.5898)" fill="white"/>
<g style="mix-blend-mode:overlay">
<circle cx="1.74711" cy="1.74711" r="1.74711" transform="matrix(0.804293 0.594233 0.594233 -0.804293 18.8711 251.426)" fill="white"/>
</g>
<g style="mix-blend-mode:overlay">
<circle cx="0.874008" cy="0.874008" r="0.874008" transform="matrix(0.804293 0.594233 0.594233 -0.804293 57.9609 245.553)" fill="white"/>
</g>
<g style="mix-blend-mode:overlay">
<circle cx="0.874008" cy="0.874008" r="0.874008" transform="matrix(0.804293 0.594233 0.594233 -0.804293 38.9219 318.371)" fill="white"/>
</g>
<g style="mix-blend-mode:overlay">
<circle cx="0.874008" cy="0.874008" r="0.874008" transform="matrix(0.804293 0.594233 0.594233 -0.804293 128.35 314.932)" fill="white"/>
</g>
<g style="mix-blend-mode:overlay">
<circle cx="0.874008" cy="0.874008" r="0.874008" transform="matrix(0.804293 0.594233 0.594233 -0.804293 127.846 245.051)" fill="white"/>
</g>
<g style="mix-blend-mode:overlay">
<circle cx="1.74711" cy="1.74711" r="1.74711" transform="matrix(0.804293 0.594233 0.594233 -0.804293 91.6875 270.467)" fill="white"/>
</g>
<circle cx="1.74711" cy="1.74711" r="1.74711" transform="matrix(0.804293 0.594233 0.594233 -0.804293 116.654 343.449)" fill="white"/>
<g style="mix-blend-mode:overlay">
<circle cx="1.74711" cy="1.74711" r="1.74711" transform="matrix(0.804293 0.594233 0.594233 -0.804293 131.99 275.312)" fill="white"/>
</g>
<g style="mix-blend-mode:overlay">
<circle cx="0.874008" cy="0.874008" r="0.874008" transform="matrix(0.804293 0.594233 0.594233 -0.804293 82.8809 211.83)" fill="white"/>
</g>
<g style="mix-blend-mode:overlay">
<circle cx="0.874008" cy="0.874008" r="0.874008" transform="matrix(0.804293 0.594233 0.594233 -0.804293 112.453 242.365)" fill="white"/>
</g>
<circle cx="0.874008" cy="0.874008" r="0.874008" transform="matrix(0.804293 0.594233 0.594233 -0.804293 91.0996 305.623)" fill="white"/>
<g style="mix-blend-mode:overlay">
<circle cx="0.874008" cy="0.874008" r="0.874008" transform="matrix(0.804293 0.594233 0.594233 -0.804293 59.6836 290.271)" fill="white"/>
</g>
</g>
<g opacity="0.5">
<g style="mix-blend-mode:overlay">
<circle cx="1.42457" cy="1.42457" r="1.42457" transform="matrix(0.954139 -0.299364 -0.299364 -0.954139 189.059 326.02)" fill="white"/>
</g>
<circle cx="0.712653" cy="0.712653" r="0.712653" transform="matrix(0.954139 -0.299364 -0.299364 -0.954139 203.984 297.449)" fill="white"/>
<g style="mix-blend-mode:overlay">
<circle cx="0.712653" cy="0.712653" r="0.712653" transform="matrix(0.954139 -0.299364 -0.299364 -0.954139 242.791 344.994)" fill="white"/>
</g>
<circle cx="0.712653" cy="0.712653" r="0.712653" transform="matrix(0.954139 -0.299364 -0.299364 -0.954139 255.01 217.223)" fill="white"/>
<g style="mix-blend-mode:overlay">
<circle cx="0.712653" cy="0.712653" r="0.712653" transform="matrix(0.954139 -0.299364 -0.299364 -0.954139 237.24 251.178)" fill="white"/>
</g>
<g style="mix-blend-mode:overlay">
<circle cx="1.42457" cy="1.42457" r="1.42457" transform="matrix(0.954139 -0.299364 -0.299364 -0.954139 236.604 287.211)" fill="white"/>
</g>
<circle cx="1.42457" cy="1.42457" r="1.42457" transform="matrix(0.954139 -0.299364 -0.299364 -0.954139 243.471 318.635)" fill="white"/>
<g style="mix-blend-mode:overlay">
<circle cx="1.42457" cy="1.42457" r="1.42457" transform="matrix(0.954139 -0.299364 -0.299364 -0.954139 273.359 247.314)" fill="white"/>
</g>
<g style="mix-blend-mode:overlay">
<circle cx="0.712653" cy="0.712653" r="0.712653" transform="matrix(0.954139 -0.299364 -0.299364 -0.954139 193.748 264.826)" fill="white"/>
</g>
<circle cx="0.712653" cy="0.712653" r="0.712653" transform="matrix(0.954139 -0.299364 -0.299364 -0.954139 228.074 260.025)" fill="white"/>
<circle cx="0.712653" cy="0.712653" r="0.712653" transform="matrix(0.954139 -0.299364 -0.299364 -0.954139 258.703 283.17)" fill="white"/>
<g style="mix-blend-mode:overlay">
<circle cx="0.712653" cy="0.712653" r="0.712653" transform="matrix(0.954139 -0.299364 -0.299364 -0.954139 234.26 317.811)" fill="white"/>
</g>
<g style="mix-blend-mode:overlay">
<circle cx="1.44428" cy="1.44428" r="1.44428" transform="matrix(0.104703 -0.994504 -0.994504 -0.104703 192.463 238.51)" fill="white"/>
</g>
<g style="mix-blend-mode:overlay">
<circle cx="0.722513" cy="0.722513" r="0.722513" transform="matrix(0.104703 -0.994504 -0.994504 -0.104703 171.896 213.104)" fill="white"/>
</g>
<g style="mix-blend-mode:overlay">
<circle cx="0.722513" cy="0.722513" r="0.722513" transform="matrix(0.104703 -0.994504 -0.994504 -0.104703 231.775 196.172)" fill="white"/>
</g>
<g style="mix-blend-mode:overlay">
<circle cx="0.722513" cy="0.722513" r="0.722513" transform="matrix(0.104703 -0.994504 -0.994504 -0.104703 191.859 133.883)" fill="white"/>
</g>
<circle cx="0.722513" cy="0.722513" r="0.722513" transform="matrix(0.104703 -0.994504 -0.994504 -0.104703 142.268 163.512)" fill="white"/>
<g style="mix-blend-mode:overlay">
<circle cx="1.44428" cy="1.44428" r="1.44428" transform="matrix(0.104703 -0.994504 -0.994504 -0.104703 175.529 178.637)" fill="white"/>
</g>
<g style="mix-blend-mode:overlay">
<circle cx="1.44428" cy="1.44428" r="1.44428" transform="matrix(0.104703 -0.994504 -0.994504 -0.104703 225.123 149.004)" fill="white"/>
</g>
<circle cx="1.44428" cy="1.44428" r="1.44428" transform="matrix(0.104703 -0.994504 -0.994504 -0.104703 153.23 128.361)" fill="white"/>
<circle cx="0.722513" cy="0.722513" r="0.722513" transform="matrix(0.104703 -0.994504 -0.994504 -0.104703 137.43 209.477)" fill="white"/>
<circle cx="0.722513" cy="0.722513" r="0.722513" transform="matrix(0.104703 -0.994504 -0.994504 -0.104703 146.803 175.611)" fill="white"/>
<g style="mix-blend-mode:overlay">
<circle cx="0.722513" cy="0.722513" r="0.722513" transform="matrix(0.104703 -0.994504 -0.994504 -0.104703 223.912 160.496)" fill="white"/>
</g>
<g style="mix-blend-mode:overlay">
<circle cx="0.722513" cy="0.722513" r="0.722513" transform="matrix(0.104703 -0.994504 -0.994504 -0.104703 203.047 193.15)" fill="white"/>
</g>
<circle cx="1.57609" cy="1.57609" r="1.57609" transform="matrix(0.924462 -0.381274 -0.381274 -0.924462 68.0605 76.8672)" fill="white"/>
<g style="mix-blend-mode:overlay">
<circle cx="0.788452" cy="0.788452" r="0.788452" transform="matrix(0.924462 -0.381274 -0.381274 -0.924462 72.5488 48.0664)" fill="white"/>
</g>
<circle cx="0.788452" cy="0.788452" r="0.788452" transform="matrix(0.924462 -0.381274 -0.381274 -0.924462 119.898 96.7324)" fill="white"/>
<g style="mix-blend-mode:overlay">
<circle cx="0.788452" cy="0.788452" r="0.788452" transform="matrix(0.924462 -0.381274 -0.381274 -0.924462 158.949 26.0703)" fill="white"/>
</g>
<g style="mix-blend-mode:overlay">
<circle cx="1.57609" cy="1.57609" r="1.57609" transform="matrix(0.924462 -0.381274 -0.381274 -0.924462 107.518 33.6445)" fill="white"/>
</g>
<circle cx="1.57609" cy="1.57609" r="1.57609" transform="matrix(0.924462 -0.381274 -0.381274 -0.924462 172.607 66.9941)" fill="white"/>
<g style="mix-blend-mode:overlay">
<circle cx="0.788452" cy="0.788452" r="0.788452" transform="matrix(0.924462 -0.381274 -0.381274 -0.924462 58.127 13.0996)" fill="white"/>
</g>
<g style="mix-blend-mode:overlay">
<circle cx="0.788452" cy="0.788452" r="0.788452" transform="matrix(0.924462 -0.381274 -0.381274 -0.924462 95.498 4.5)" fill="white"/>
</g>
<circle cx="0.788452" cy="0.788452" r="0.788452" transform="matrix(0.924462 -0.381274 -0.381274 -0.924462 150.059 70.6543)" fill="white"/>
<circle cx="0.788452" cy="0.788452" r="0.788452" transform="matrix(0.924462 -0.381274 -0.381274 -0.924462 107.881 67.5918)" fill="white"/>
<g style="mix-blend-mode:overlay">
<circle cx="1.74711" cy="1.74711" r="1.74711" transform="matrix(0.804293 0.594233 0.594233 -0.804293 18.8711 251.428)" fill="white"/>
</g>
<g style="mix-blend-mode:overlay">
<circle cx="0.874008" cy="0.874008" r="0.874008" transform="matrix(0.804293 0.594233 0.594233 -0.804293 57.9609 245.553)" fill="white"/>
</g>
<g style="mix-blend-mode:overlay">
<circle cx="0.874008" cy="0.874008" r="0.874008" transform="matrix(0.804293 0.594233 0.594233 -0.804293 38.9219 318.373)" fill="white"/>
</g>
<g style="mix-blend-mode:overlay">
<circle cx="0.874008" cy="0.874008" r="0.874008" transform="matrix(0.804293 0.594233 0.594233 -0.804293 128.35 314.934)" fill="white"/>
</g>
<g style="mix-blend-mode:overlay">
<circle cx="0.874008" cy="0.874008" r="0.874008" transform="matrix(0.804293 0.594233 0.594233 -0.804293 127.846 245.053)" fill="white"/>
</g>
<g style="mix-blend-mode:overlay">
<circle cx="1.74711" cy="1.74711" r="1.74711" transform="matrix(0.804293 0.594233 0.594233 -0.804293 91.6875 270.469)" fill="white"/>
</g>
<circle cx="1.74711" cy="1.74711" r="1.74711" transform="matrix(0.804293 0.594233 0.594233 -0.804293 116.654 343.449)" fill="white"/>
<g style="mix-blend-mode:overlay">
<circle cx="1.74711" cy="1.74711" r="1.74711" transform="matrix(0.804293 0.594233 0.594233 -0.804293 131.988 275.314)" fill="white"/>
</g>
<g style="mix-blend-mode:overlay">
<circle cx="0.874008" cy="0.874008" r="0.874008" transform="matrix(0.804293 0.594233 0.594233 -0.804293 82.8828 211.83)" fill="white"/>
</g>
<g style="mix-blend-mode:overlay">
<circle cx="0.874008" cy="0.874008" r="0.874008" transform="matrix(0.804293 0.594233 0.594233 -0.804293 112.453 242.367)" fill="white"/>
</g>
<circle cx="0.874008" cy="0.874008" r="0.874008" transform="matrix(0.804293 0.594233 0.594233 -0.804293 91.0996 305.625)" fill="white"/>
<g style="mix-blend-mode:overlay">
<circle cx="0.874008" cy="0.874008" r="0.874008" transform="matrix(0.804293 0.594233 0.594233 -0.804293 59.6816 290.271)" fill="white"/>
</g>
</g>
</g>
</g>
<rect width="558" height="650" transform="matrix(-1 0 0 1 474 4)" fill="url(#paint3_linear_393_6846)"/>
</g>
<defs>
<filter id="filter0_f_393_6846" x="-2309.14" y="512.422" width="5574.17" height="2409.78" filterUnits="userSpaceOnUse" color-interpolation-filters="sRGB">
<feFlood flood-opacity="0" result="BackgroundImageFix"/>
<feBlend mode="normal" in="SourceGraphic" in2="BackgroundImageFix" result="shape"/>
<feGaussianBlur stdDeviation="154.387" result="effect1_foregroundBlur_393_6846"/>
</filter>
<filter id="filter1_f_393_6846" x="-1257.41" y="90.8109" width="3470.71" height="2839.06" filterUnits="userSpaceOnUse" color-interpolation-filters="sRGB">
<feFlood flood-opacity="0" result="BackgroundImageFix"/>
<feBlend mode="normal" in="SourceGraphic" in2="BackgroundImageFix" result="shape"/>
<feGaussianBlur stdDeviation="154.387" result="effect1_foregroundBlur_393_6846"/>
</filter>
<filter id="filter2_f_393_6846" x="-193.718" y="-402.719" width="869.25" height="1023.34" filterUnits="userSpaceOnUse" color-interpolation-filters="sRGB">
<feFlood flood-opacity="0" result="BackgroundImageFix"/>
<feBlend mode="normal" in="SourceGraphic" in2="BackgroundImageFix" result="shape"/>
<feGaussianBlur stdDeviation="47.3596" result="effect1_foregroundBlur_393_6846"/>
</filter>
<radialGradient id="paint0_radial_393_6846" cx="0" cy="0" r="1" gradientUnits="userSpaceOnUse" gradientTransform="translate(477.941 1111.21) rotate(-90) scale(290.017 4671.85)">
<stop offset="0.347401" stop-color="#FCFCFC"/>
<stop offset="1" stop-color="#FCFCFC" stop-opacity="0"/>
</radialGradient>
<radialGradient id="paint1_radial_393_6846" cx="0" cy="0" r="1" gradientUnits="userSpaceOnUse" gradientTransform="translate(477.942 1923.52) rotate(-90) scale(1094.66 4341.99)">
<stop offset="0.187016" stop-color="#17416A"/>
<stop offset="0.54104" stop-color="#2957E3"/>
</radialGradient>
<linearGradient id="paint2_linear_393_6846" x1="598.94" y1="274.88" x2="201.177" y2="255.611" gradientUnits="userSpaceOnUse">
<stop stop-color="#22625F" stop-opacity="0"/>
<stop offset="1" stop-color="#46C8C1"/>
</linearGradient>
<linearGradient id="paint3_linear_393_6846" x1="0" y1="325" x2="558" y2="325" gradientUnits="userSpaceOnUse">
<stop stop-opacity="0"/>
<stop offset="1"/>
</linearGradient>
<clipPath id="clip0_393_6846">
<rect width="1442" height="633" fill="white"/>
</clipPath>
<clipPath id="clip1_393_6846">
<rect width="1451" height="696" fill="white" transform="translate(-9 -57)"/>
</clipPath>
</defs>
</svg>
