<svg width="1440" height="658" viewBox="0 0 1440 658" fill="none" xmlns="http://www.w3.org/2000/svg">
<g clip-path="url(#clip0_75_776)">
<rect width="1442" height="658" transform="translate(-1)" fill="#02060A"/>
<g clip-path="url(#clip1_75_776)">
<g filter="url(#filter0_f_75_776)">
<ellipse cx="476.942" cy="1796.31" rx="2478.31" ry="896.117" fill="url(#paint0_radial_75_776)"/>
</g>
<g style="mix-blend-mode:plus-lighter" filter="url(#filter1_f_75_776)">
<path d="M1903.52 1803.98C1903.52 2298.89 1264.82 2700.09 476.942 2700.09C-310.937 2700.09 -949.639 2298.89 -949.639 1803.98C-949.639 1309.07 -310.937 478.584 476.942 478.584C1264.82 478.584 1903.52 1309.07 1903.52 1803.98Z" fill="url(#paint1_radial_75_776)"/>
</g>
<g opacity="0.4">
<g style="mix-blend-mode:color-dodge" opacity="0.5" filter="url(#filter2_f_75_776)">
<path d="M197.539 -229L-99.9995 -57.2161L282.275 604.902L579.813 433.118L197.539 -229Z" fill="url(#paint2_linear_75_776)"/>
</g>
</g>
<g opacity="0.5">
<g style="mix-blend-mode:overlay">
<circle cx="1.42457" cy="1.42457" r="1.42457" transform="matrix(0.954139 -0.299364 -0.299364 -0.954139 95.0574 314.019)" fill="white"/>
</g>
<circle cx="0.712653" cy="0.712653" r="0.712653" transform="matrix(0.954139 -0.299364 -0.299364 -0.954139 109.983 285.448)" fill="white"/>
<g style="mix-blend-mode:overlay">
<circle cx="0.712653" cy="0.712653" r="0.712653" transform="matrix(0.954139 -0.299364 -0.299364 -0.954139 148.79 332.992)" fill="white"/>
</g>
<circle cx="0.712653" cy="0.712653" r="0.712653" transform="matrix(0.954139 -0.299364 -0.299364 -0.954139 161.011 205.22)" fill="white"/>
<g style="mix-blend-mode:overlay">
<circle cx="0.712653" cy="0.712653" r="0.712653" transform="matrix(0.954139 -0.299364 -0.299364 -0.954139 143.241 239.177)" fill="white"/>
</g>
<g style="mix-blend-mode:overlay">
<circle cx="1.42457" cy="1.42457" r="1.42457" transform="matrix(0.954139 -0.299364 -0.299364 -0.954139 142.604 275.209)" fill="white"/>
</g>
<circle cx="1.42457" cy="1.42457" r="1.42457" transform="matrix(0.954139 -0.299364 -0.299364 -0.954139 149.471 306.632)" fill="white"/>
<g style="mix-blend-mode:overlay">
<circle cx="1.42457" cy="1.42457" r="1.42457" transform="matrix(0.954139 -0.299364 -0.299364 -0.954139 179.358 235.313)" fill="white"/>
</g>
<g style="mix-blend-mode:overlay">
<circle cx="0.712653" cy="0.712653" r="0.712653" transform="matrix(0.954139 -0.299364 -0.299364 -0.954139 99.749 252.825)" fill="white"/>
</g>
<circle cx="0.712653" cy="0.712653" r="0.712653" transform="matrix(0.954139 -0.299364 -0.299364 -0.954139 134.073 248.026)" fill="white"/>
<circle cx="0.712653" cy="0.712653" r="0.712653" transform="matrix(0.954139 -0.299364 -0.299364 -0.954139 164.702 271.168)" fill="white"/>
<g style="mix-blend-mode:overlay">
<circle cx="0.712653" cy="0.712653" r="0.712653" transform="matrix(0.954139 -0.299364 -0.299364 -0.954139 140.259 305.809)" fill="white"/>
</g>
<g style="mix-blend-mode:overlay">
<circle cx="1.44428" cy="1.44428" r="1.44428" transform="matrix(0.104703 -0.994504 -0.994504 -0.104703 98.4626 226.509)" fill="white"/>
</g>
<g style="mix-blend-mode:overlay">
<circle cx="0.722513" cy="0.722513" r="0.722513" transform="matrix(0.104703 -0.994504 -0.994504 -0.104703 77.8972 201.102)" fill="white"/>
</g>
<g style="mix-blend-mode:overlay">
<circle cx="0.722513" cy="0.722513" r="0.722513" transform="matrix(0.104703 -0.994504 -0.994504 -0.104703 137.775 184.171)" fill="white"/>
</g>
<g style="mix-blend-mode:overlay">
<circle cx="0.722513" cy="0.722513" r="0.722513" transform="matrix(0.104703 -0.994504 -0.994504 -0.104703 97.8596 121.881)" fill="white"/>
</g>
<circle cx="0.722513" cy="0.722513" r="0.722513" transform="matrix(0.104703 -0.994504 -0.994504 -0.104703 48.2667 151.511)" fill="white"/>
<g style="mix-blend-mode:overlay">
<circle cx="1.44428" cy="1.44428" r="1.44428" transform="matrix(0.104703 -0.994504 -0.994504 -0.104703 81.5283 166.635)" fill="white"/>
</g>
<g style="mix-blend-mode:overlay">
<circle cx="1.44428" cy="1.44428" r="1.44428" transform="matrix(0.104703 -0.994504 -0.994504 -0.104703 131.122 137.002)" fill="white"/>
</g>
<circle cx="1.44428" cy="1.44428" r="1.44428" transform="matrix(0.104703 -0.994504 -0.994504 -0.104703 59.2305 116.361)" fill="white"/>
<circle cx="0.722513" cy="0.722513" r="0.722513" transform="matrix(0.104703 -0.994504 -0.994504 -0.104703 43.4297 197.475)" fill="white"/>
<circle cx="0.722513" cy="0.722513" r="0.722513" transform="matrix(0.104703 -0.994504 -0.994504 -0.104703 52.8027 163.609)" fill="white"/>
<g style="mix-blend-mode:overlay">
<circle cx="0.722513" cy="0.722513" r="0.722513" transform="matrix(0.104703 -0.994504 -0.994504 -0.104703 129.912 148.493)" fill="white"/>
</g>
<g style="mix-blend-mode:overlay">
<circle cx="0.722513" cy="0.722513" r="0.722513" transform="matrix(0.104703 -0.994504 -0.994504 -0.104703 109.047 181.149)" fill="white"/>
</g>
<circle cx="0.788452" cy="0.788452" r="0.788452" transform="matrix(0.924462 -0.381274 -0.381274 -0.924462 25.8993 84.7299)" fill="white"/>
<circle cx="1.57609" cy="1.57609" r="1.57609" transform="matrix(0.924462 -0.381274 -0.381274 -0.924462 78.6074 54.9934)" fill="white"/>
<circle cx="0.788452" cy="0.788452" r="0.788452" transform="matrix(0.924462 -0.381274 -0.381274 -0.924462 56.0588 58.6526)" fill="white"/>
<circle cx="0.788452" cy="0.788452" r="0.788452" transform="matrix(0.924462 -0.381274 -0.381274 -0.924462 13.8808 55.5901)" fill="white"/>
<g style="mix-blend-mode:overlay">
<circle cx="0.874008" cy="0.874008" r="0.874008" transform="matrix(0.804293 0.594233 0.594233 -0.804293 34.3486 302.933)" fill="white"/>
</g>
<g style="mix-blend-mode:overlay">
<circle cx="0.874008" cy="0.874008" r="0.874008" transform="matrix(0.804293 0.594233 0.594233 -0.804293 33.8457 233.051)" fill="white"/>
</g>
<g style="mix-blend-mode:overlay">
<circle cx="1.74711" cy="1.74711" r="1.74711" transform="matrix(0.804293 0.594233 0.594233 -0.804293 -2.31235 258.468)" fill="white"/>
</g>
<circle cx="1.74711" cy="1.74711" r="1.74711" transform="matrix(0.804293 0.594233 0.594233 -0.804293 22.6543 331.449)" fill="white"/>
<g style="mix-blend-mode:overlay">
<circle cx="1.74711" cy="1.74711" r="1.74711" transform="matrix(0.804293 0.594233 0.594233 -0.804293 37.989 263.314)" fill="white"/>
</g>
<g style="mix-blend-mode:overlay">
<circle cx="0.874008" cy="0.874008" r="0.874008" transform="matrix(0.804293 0.594233 0.594233 -0.804293 18.4521 230.365)" fill="white"/>
</g>
</g>
<g opacity="0.5">
<g style="mix-blend-mode:overlay">
<circle cx="1.42457" cy="1.42457" r="1.42457" transform="matrix(0.954139 -0.299364 -0.299364 -0.954139 95.0574 314.019)" fill="white"/>
</g>
<circle cx="0.712653" cy="0.712653" r="0.712653" transform="matrix(0.954139 -0.299364 -0.299364 -0.954139 109.983 285.448)" fill="white"/>
<g style="mix-blend-mode:overlay">
<circle cx="0.712653" cy="0.712653" r="0.712653" transform="matrix(0.954139 -0.299364 -0.299364 -0.954139 148.79 332.993)" fill="white"/>
</g>
<circle cx="0.712653" cy="0.712653" r="0.712653" transform="matrix(0.954139 -0.299364 -0.299364 -0.954139 161.011 205.221)" fill="white"/>
<g style="mix-blend-mode:overlay">
<circle cx="0.712653" cy="0.712653" r="0.712653" transform="matrix(0.954139 -0.299364 -0.299364 -0.954139 143.241 239.178)" fill="white"/>
</g>
<g style="mix-blend-mode:overlay">
<circle cx="1.42457" cy="1.42457" r="1.42457" transform="matrix(0.954139 -0.299364 -0.299364 -0.954139 142.604 275.209)" fill="white"/>
</g>
<circle cx="1.42457" cy="1.42457" r="1.42457" transform="matrix(0.954139 -0.299364 -0.299364 -0.954139 149.471 306.633)" fill="white"/>
<g style="mix-blend-mode:overlay">
<circle cx="1.42457" cy="1.42457" r="1.42457" transform="matrix(0.954139 -0.299364 -0.299364 -0.954139 179.358 235.314)" fill="white"/>
</g>
<g style="mix-blend-mode:overlay">
<circle cx="0.712653" cy="0.712653" r="0.712653" transform="matrix(0.954139 -0.299364 -0.299364 -0.954139 99.749 252.826)" fill="white"/>
</g>
<circle cx="0.712653" cy="0.712653" r="0.712653" transform="matrix(0.954139 -0.299364 -0.299364 -0.954139 134.073 248.025)" fill="white"/>
<circle cx="0.712653" cy="0.712653" r="0.712653" transform="matrix(0.954139 -0.299364 -0.299364 -0.954139 164.702 271.169)" fill="white"/>
<g style="mix-blend-mode:overlay">
<circle cx="0.712653" cy="0.712653" r="0.712653" transform="matrix(0.954139 -0.299364 -0.299364 -0.954139 140.259 305.81)" fill="white"/>
</g>
<g style="mix-blend-mode:overlay">
<circle cx="1.44428" cy="1.44428" r="1.44428" transform="matrix(0.104703 -0.994504 -0.994504 -0.104703 98.4627 226.51)" fill="white"/>
</g>
<g style="mix-blend-mode:overlay">
<circle cx="0.722513" cy="0.722513" r="0.722513" transform="matrix(0.104703 -0.994504 -0.994504 -0.104703 77.8973 201.103)" fill="white"/>
</g>
<g style="mix-blend-mode:overlay">
<circle cx="0.722513" cy="0.722513" r="0.722513" transform="matrix(0.104703 -0.994504 -0.994504 -0.104703 137.775 184.172)" fill="white"/>
</g>
<g style="mix-blend-mode:overlay">
<circle cx="0.722513" cy="0.722513" r="0.722513" transform="matrix(0.104703 -0.994504 -0.994504 -0.104703 97.8596 121.882)" fill="white"/>
</g>
<circle cx="0.722513" cy="0.722513" r="0.722513" transform="matrix(0.104703 -0.994504 -0.994504 -0.104703 48.2667 151.512)" fill="white"/>
<g style="mix-blend-mode:overlay">
<circle cx="1.44428" cy="1.44428" r="1.44428" transform="matrix(0.104703 -0.994504 -0.994504 -0.104703 81.5283 166.635)" fill="white"/>
</g>
<g style="mix-blend-mode:overlay">
<circle cx="1.44428" cy="1.44428" r="1.44428" transform="matrix(0.104703 -0.994504 -0.994504 -0.104703 131.122 137.003)" fill="white"/>
</g>
<circle cx="1.44428" cy="1.44428" r="1.44428" transform="matrix(0.104703 -0.994504 -0.994504 -0.104703 59.2305 116.361)" fill="white"/>
<circle cx="0.722513" cy="0.722513" r="0.722513" transform="matrix(0.104703 -0.994504 -0.994504 -0.104703 43.4297 197.476)" fill="white"/>
<circle cx="0.722513" cy="0.722513" r="0.722513" transform="matrix(0.104703 -0.994504 -0.994504 -0.104703 52.8027 163.609)" fill="white"/>
<g style="mix-blend-mode:overlay">
<circle cx="0.722513" cy="0.722513" r="0.722513" transform="matrix(0.104703 -0.994504 -0.994504 -0.104703 129.912 148.494)" fill="white"/>
</g>
<g style="mix-blend-mode:overlay">
<circle cx="0.722513" cy="0.722513" r="0.722513" transform="matrix(0.104703 -0.994504 -0.994504 -0.104703 109.047 181.149)" fill="white"/>
</g>
<circle cx="0.788452" cy="0.788452" r="0.788452" transform="matrix(0.924462 -0.381274 -0.381274 -0.924462 25.8993 84.7306)" fill="white"/>
<circle cx="1.57609" cy="1.57609" r="1.57609" transform="matrix(0.924462 -0.381274 -0.381274 -0.924462 78.6074 54.9932)" fill="white"/>
<circle cx="0.788452" cy="0.788452" r="0.788452" transform="matrix(0.924462 -0.381274 -0.381274 -0.924462 56.0586 58.6533)" fill="white"/>
<circle cx="0.788452" cy="0.788452" r="0.788452" transform="matrix(0.924462 -0.381274 -0.381274 -0.924462 13.8808 55.5898)" fill="white"/>
<g style="mix-blend-mode:overlay">
<circle cx="0.874008" cy="0.874008" r="0.874008" transform="matrix(0.804293 0.594233 0.594233 -0.804293 34.3486 302.933)" fill="white"/>
</g>
<g style="mix-blend-mode:overlay">
<circle cx="0.874008" cy="0.874008" r="0.874008" transform="matrix(0.804293 0.594233 0.594233 -0.804293 33.8457 233.052)" fill="white"/>
</g>
<g style="mix-blend-mode:overlay">
<circle cx="1.74711" cy="1.74711" r="1.74711" transform="matrix(0.804293 0.594233 0.594233 -0.804293 -2.31236 258.469)" fill="white"/>
</g>
<circle cx="1.74711" cy="1.74711" r="1.74711" transform="matrix(0.804293 0.594233 0.594233 -0.804293 22.6543 331.449)" fill="white"/>
<g style="mix-blend-mode:overlay">
<circle cx="1.74711" cy="1.74711" r="1.74711" transform="matrix(0.804293 0.594233 0.594233 -0.804293 37.989 263.313)" fill="white"/>
</g>
<g style="mix-blend-mode:overlay">
<circle cx="0.874008" cy="0.874008" r="0.874008" transform="matrix(0.804293 0.594233 0.594233 -0.804293 18.4521 230.365)" fill="white"/>
</g>
</g>
<g opacity="0.3">
<g opacity="0.5">
<g style="mix-blend-mode:overlay">
<circle cx="1.42457" cy="1.42457" r="1.42457" transform="matrix(0.954139 -0.299364 -0.299364 -0.954139 188.057 405.019)" fill="white"/>
</g>
<circle cx="0.712653" cy="0.712653" r="0.712653" transform="matrix(0.954139 -0.299364 -0.299364 -0.954139 202.983 376.448)" fill="white"/>
<g style="mix-blend-mode:overlay">
<circle cx="0.712653" cy="0.712653" r="0.712653" transform="matrix(0.954139 -0.299364 -0.299364 -0.954139 241.79 423.992)" fill="white"/>
</g>
<circle cx="0.712653" cy="0.712653" r="0.712653" transform="matrix(0.954139 -0.299364 -0.299364 -0.954139 254.011 296.22)" fill="white"/>
<g style="mix-blend-mode:overlay">
<circle cx="0.712653" cy="0.712653" r="0.712653" transform="matrix(0.954139 -0.299364 -0.299364 -0.954139 236.241 330.177)" fill="white"/>
</g>
<g style="mix-blend-mode:overlay">
<circle cx="1.42457" cy="1.42457" r="1.42457" transform="matrix(0.954139 -0.299364 -0.299364 -0.954139 235.604 366.209)" fill="white"/>
</g>
<circle cx="1.42457" cy="1.42457" r="1.42457" transform="matrix(0.954139 -0.299364 -0.299364 -0.954139 242.471 397.632)" fill="white"/>
<g style="mix-blend-mode:overlay">
<circle cx="1.42457" cy="1.42457" r="1.42457" transform="matrix(0.954139 -0.299364 -0.299364 -0.954139 272.359 326.313)" fill="white"/>
</g>
<g style="mix-blend-mode:overlay">
<circle cx="0.712653" cy="0.712653" r="0.712653" transform="matrix(0.954139 -0.299364 -0.299364 -0.954139 192.749 343.825)" fill="white"/>
</g>
<circle cx="0.712653" cy="0.712653" r="0.712653" transform="matrix(0.954139 -0.299364 -0.299364 -0.954139 227.073 339.026)" fill="white"/>
<circle cx="0.712653" cy="0.712653" r="0.712653" transform="matrix(0.954139 -0.299364 -0.299364 -0.954139 257.702 362.168)" fill="white"/>
<g style="mix-blend-mode:overlay">
<circle cx="0.712653" cy="0.712653" r="0.712653" transform="matrix(0.954139 -0.299364 -0.299364 -0.954139 233.259 396.809)" fill="white"/>
</g>
<g style="mix-blend-mode:overlay">
<circle cx="1.44428" cy="1.44428" r="1.44428" transform="matrix(0.104703 -0.994504 -0.994504 -0.104703 191.463 317.509)" fill="white"/>
</g>
<g style="mix-blend-mode:overlay">
<circle cx="0.722513" cy="0.722513" r="0.722513" transform="matrix(0.104703 -0.994504 -0.994504 -0.104703 170.897 292.102)" fill="white"/>
</g>
<g style="mix-blend-mode:overlay">
<circle cx="0.722513" cy="0.722513" r="0.722513" transform="matrix(0.104703 -0.994504 -0.994504 -0.104703 230.775 275.171)" fill="white"/>
</g>
<g style="mix-blend-mode:overlay">
<circle cx="0.722513" cy="0.722513" r="0.722513" transform="matrix(0.104703 -0.994504 -0.994504 -0.104703 190.86 212.881)" fill="white"/>
</g>
<circle cx="0.722513" cy="0.722513" r="0.722513" transform="matrix(0.104703 -0.994504 -0.994504 -0.104703 141.267 242.511)" fill="white"/>
<g style="mix-blend-mode:overlay">
<circle cx="1.44428" cy="1.44428" r="1.44428" transform="matrix(0.104703 -0.994504 -0.994504 -0.104703 174.528 257.635)" fill="white"/>
</g>
<g style="mix-blend-mode:overlay">
<circle cx="1.44428" cy="1.44428" r="1.44428" transform="matrix(0.104703 -0.994504 -0.994504 -0.104703 224.122 228.002)" fill="white"/>
</g>
<circle cx="1.44428" cy="1.44428" r="1.44428" transform="matrix(0.104703 -0.994504 -0.994504 -0.104703 152.231 207.361)" fill="white"/>
<circle cx="0.722513" cy="0.722513" r="0.722513" transform="matrix(0.104703 -0.994504 -0.994504 -0.104703 136.43 288.475)" fill="white"/>
<circle cx="0.722513" cy="0.722513" r="0.722513" transform="matrix(0.104703 -0.994504 -0.994504 -0.104703 145.803 254.609)" fill="white"/>
<g style="mix-blend-mode:overlay">
<circle cx="0.722513" cy="0.722513" r="0.722513" transform="matrix(0.104703 -0.994504 -0.994504 -0.104703 222.912 239.493)" fill="white"/>
</g>
<g style="mix-blend-mode:overlay">
<circle cx="0.722513" cy="0.722513" r="0.722513" transform="matrix(0.104703 -0.994504 -0.994504 -0.104703 202.047 272.149)" fill="white"/>
</g>
<circle cx="1.57609" cy="1.57609" r="1.57609" transform="matrix(0.924462 -0.381274 -0.381274 -0.924462 67.0596 155.865)" fill="white"/>
<g style="mix-blend-mode:overlay">
<circle cx="0.788452" cy="0.788452" r="0.788452" transform="matrix(0.924462 -0.381274 -0.381274 -0.924462 71.5497 127.065)" fill="white"/>
</g>
<circle cx="0.788452" cy="0.788452" r="0.788452" transform="matrix(0.924462 -0.381274 -0.381274 -0.924462 118.899 175.73)" fill="white"/>
<g style="mix-blend-mode:overlay">
<circle cx="0.788452" cy="0.788452" r="0.788452" transform="matrix(0.924462 -0.381274 -0.381274 -0.924462 157.949 105.068)" fill="white"/>
</g>
<g style="mix-blend-mode:overlay">
<circle cx="0.788452" cy="0.788452" r="0.788452" transform="matrix(0.924462 -0.381274 -0.381274 -0.924462 103.753 72.8665)" fill="white"/>
</g>
<g style="mix-blend-mode:overlay">
<circle cx="1.57609" cy="1.57609" r="1.57609" transform="matrix(0.924462 -0.381274 -0.381274 -0.924462 106.518 112.644)" fill="white"/>
</g>
<circle cx="1.57609" cy="1.57609" r="1.57609" transform="matrix(0.924462 -0.381274 -0.381274 -0.924462 171.607 145.993)" fill="white"/>
<g style="mix-blend-mode:overlay">
<circle cx="1.57609" cy="1.57609" r="1.57609" transform="matrix(0.924462 -0.381274 -0.381274 -0.924462 143.182 65.1262)" fill="white"/>
</g>
<g style="mix-blend-mode:overlay">
<circle cx="0.788452" cy="0.788452" r="0.788452" transform="matrix(0.924462 -0.381274 -0.381274 -0.924462 57.1277 92.0979)" fill="white"/>
</g>
<g style="mix-blend-mode:overlay">
<circle cx="0.788452" cy="0.788452" r="0.788452" transform="matrix(0.924462 -0.381274 -0.381274 -0.924462 94.4971 83.5002)" fill="white"/>
</g>
<circle cx="0.788452" cy="0.788452" r="0.788452" transform="matrix(0.924462 -0.381274 -0.381274 -0.924462 149.059 149.653)" fill="white"/>
<circle cx="0.788452" cy="0.788452" r="0.788452" transform="matrix(0.924462 -0.381274 -0.381274 -0.924462 106.881 146.59)" fill="white"/>
<g style="mix-blend-mode:overlay">
<circle cx="1.74711" cy="1.74711" r="1.74711" transform="matrix(0.804293 0.594233 0.594233 -0.804293 17.8702 330.426)" fill="white"/>
</g>
<g style="mix-blend-mode:overlay">
<circle cx="0.874008" cy="0.874008" r="0.874008" transform="matrix(0.804293 0.594233 0.594233 -0.804293 56.962 324.552)" fill="white"/>
</g>
<g style="mix-blend-mode:overlay">
<circle cx="0.874008" cy="0.874008" r="0.874008" transform="matrix(0.804293 0.594233 0.594233 -0.804293 37.9212 397.372)" fill="white"/>
</g>
<g style="mix-blend-mode:overlay">
<circle cx="0.874008" cy="0.874008" r="0.874008" transform="matrix(0.804293 0.594233 0.594233 -0.804293 127.349 393.933)" fill="white"/>
</g>
<g style="mix-blend-mode:overlay">
<circle cx="0.874008" cy="0.874008" r="0.874008" transform="matrix(0.804293 0.594233 0.594233 -0.804293 126.846 324.051)" fill="white"/>
</g>
<g style="mix-blend-mode:overlay">
<circle cx="1.74711" cy="1.74711" r="1.74711" transform="matrix(0.804293 0.594233 0.594233 -0.804293 90.6877 349.468)" fill="white"/>
</g>
<circle cx="1.74711" cy="1.74711" r="1.74711" transform="matrix(0.804293 0.594233 0.594233 -0.804293 115.654 422.449)" fill="white"/>
<g style="mix-blend-mode:overlay">
<circle cx="1.74711" cy="1.74711" r="1.74711" transform="matrix(0.804293 0.594233 0.594233 -0.804293 130.989 354.314)" fill="white"/>
</g>
<g style="mix-blend-mode:overlay">
<circle cx="0.874008" cy="0.874008" r="0.874008" transform="matrix(0.804293 0.594233 0.594233 -0.804293 81.8809 290.829)" fill="white"/>
</g>
<g style="mix-blend-mode:overlay">
<circle cx="0.874008" cy="0.874008" r="0.874008" transform="matrix(0.804293 0.594233 0.594233 -0.804293 111.452 321.365)" fill="white"/>
</g>
<circle cx="0.874008" cy="0.874008" r="0.874008" transform="matrix(0.804293 0.594233 0.594233 -0.804293 90.0997 384.623)" fill="white"/>
<g style="mix-blend-mode:overlay">
<circle cx="0.874008" cy="0.874008" r="0.874008" transform="matrix(0.804293 0.594233 0.594233 -0.804293 58.6827 369.271)" fill="white"/>
</g>
</g>
<g opacity="0.5">
<g style="mix-blend-mode:overlay">
<circle cx="1.42457" cy="1.42457" r="1.42457" transform="matrix(0.954139 -0.299364 -0.299364 -0.954139 188.057 405.019)" fill="white"/>
</g>
<circle cx="0.712653" cy="0.712653" r="0.712653" transform="matrix(0.954139 -0.299364 -0.299364 -0.954139 202.983 376.448)" fill="white"/>
<g style="mix-blend-mode:overlay">
<circle cx="0.712653" cy="0.712653" r="0.712653" transform="matrix(0.954139 -0.299364 -0.299364 -0.954139 241.79 423.993)" fill="white"/>
</g>
<circle cx="0.712653" cy="0.712653" r="0.712653" transform="matrix(0.954139 -0.299364 -0.299364 -0.954139 254.011 296.221)" fill="white"/>
<g style="mix-blend-mode:overlay">
<circle cx="0.712653" cy="0.712653" r="0.712653" transform="matrix(0.954139 -0.299364 -0.299364 -0.954139 236.241 330.178)" fill="white"/>
</g>
<g style="mix-blend-mode:overlay">
<circle cx="1.42457" cy="1.42457" r="1.42457" transform="matrix(0.954139 -0.299364 -0.299364 -0.954139 235.604 366.209)" fill="white"/>
</g>
<circle cx="1.42457" cy="1.42457" r="1.42457" transform="matrix(0.954139 -0.299364 -0.299364 -0.954139 242.471 397.633)" fill="white"/>
<g style="mix-blend-mode:overlay">
<circle cx="1.42457" cy="1.42457" r="1.42457" transform="matrix(0.954139 -0.299364 -0.299364 -0.954139 272.359 326.314)" fill="white"/>
</g>
<g style="mix-blend-mode:overlay">
<circle cx="0.712653" cy="0.712653" r="0.712653" transform="matrix(0.954139 -0.299364 -0.299364 -0.954139 192.749 343.826)" fill="white"/>
</g>
<circle cx="0.712653" cy="0.712653" r="0.712653" transform="matrix(0.954139 -0.299364 -0.299364 -0.954139 227.073 339.026)" fill="white"/>
<circle cx="0.712653" cy="0.712653" r="0.712653" transform="matrix(0.954139 -0.299364 -0.299364 -0.954139 257.702 362.169)" fill="white"/>
<g style="mix-blend-mode:overlay">
<circle cx="0.712653" cy="0.712653" r="0.712653" transform="matrix(0.954139 -0.299364 -0.299364 -0.954139 233.259 396.81)" fill="white"/>
</g>
<g style="mix-blend-mode:overlay">
<circle cx="1.44428" cy="1.44428" r="1.44428" transform="matrix(0.104703 -0.994504 -0.994504 -0.104703 191.463 317.51)" fill="white"/>
</g>
<g style="mix-blend-mode:overlay">
<circle cx="0.722513" cy="0.722513" r="0.722513" transform="matrix(0.104703 -0.994504 -0.994504 -0.104703 170.897 292.103)" fill="white"/>
</g>
<g style="mix-blend-mode:overlay">
<circle cx="0.722513" cy="0.722513" r="0.722513" transform="matrix(0.104703 -0.994504 -0.994504 -0.104703 230.775 275.172)" fill="white"/>
</g>
<g style="mix-blend-mode:overlay">
<circle cx="0.722513" cy="0.722513" r="0.722513" transform="matrix(0.104703 -0.994504 -0.994504 -0.104703 190.86 212.882)" fill="white"/>
</g>
<circle cx="0.722513" cy="0.722513" r="0.722513" transform="matrix(0.104703 -0.994504 -0.994504 -0.104703 141.267 242.512)" fill="white"/>
<g style="mix-blend-mode:overlay">
<circle cx="1.44428" cy="1.44428" r="1.44428" transform="matrix(0.104703 -0.994504 -0.994504 -0.104703 174.528 257.635)" fill="white"/>
</g>
<g style="mix-blend-mode:overlay">
<circle cx="1.44428" cy="1.44428" r="1.44428" transform="matrix(0.104703 -0.994504 -0.994504 -0.104703 224.122 228.003)" fill="white"/>
</g>
<circle cx="1.44428" cy="1.44428" r="1.44428" transform="matrix(0.104703 -0.994504 -0.994504 -0.104703 152.231 207.362)" fill="white"/>
<circle cx="0.722513" cy="0.722513" r="0.722513" transform="matrix(0.104703 -0.994504 -0.994504 -0.104703 136.43 288.476)" fill="white"/>
<circle cx="0.722513" cy="0.722513" r="0.722513" transform="matrix(0.104703 -0.994504 -0.994504 -0.104703 145.803 254.61)" fill="white"/>
<g style="mix-blend-mode:overlay">
<circle cx="0.722513" cy="0.722513" r="0.722513" transform="matrix(0.104703 -0.994504 -0.994504 -0.104703 222.912 239.494)" fill="white"/>
</g>
<g style="mix-blend-mode:overlay">
<circle cx="0.722513" cy="0.722513" r="0.722513" transform="matrix(0.104703 -0.994504 -0.994504 -0.104703 202.047 272.149)" fill="white"/>
</g>
<circle cx="1.57609" cy="1.57609" r="1.57609" transform="matrix(0.924462 -0.381274 -0.381274 -0.924462 67.0596 155.866)" fill="white"/>
<g style="mix-blend-mode:overlay">
<circle cx="0.788452" cy="0.788452" r="0.788452" transform="matrix(0.924462 -0.381274 -0.381274 -0.924462 71.5497 127.066)" fill="white"/>
</g>
<circle cx="0.788452" cy="0.788452" r="0.788452" transform="matrix(0.924462 -0.381274 -0.381274 -0.924462 118.899 175.731)" fill="white"/>
<g style="mix-blend-mode:overlay">
<circle cx="0.788452" cy="0.788452" r="0.788452" transform="matrix(0.924462 -0.381274 -0.381274 -0.924462 157.949 105.069)" fill="white"/>
</g>
<g style="mix-blend-mode:overlay">
<circle cx="0.788452" cy="0.788452" r="0.788452" transform="matrix(0.924462 -0.381274 -0.381274 -0.924462 103.753 72.8674)" fill="white"/>
</g>
<g style="mix-blend-mode:overlay">
<circle cx="1.57609" cy="1.57609" r="1.57609" transform="matrix(0.924462 -0.381274 -0.381274 -0.924462 106.518 112.645)" fill="white"/>
</g>
<circle cx="1.57609" cy="1.57609" r="1.57609" transform="matrix(0.924462 -0.381274 -0.381274 -0.924462 171.607 145.993)" fill="white"/>
<g style="mix-blend-mode:overlay">
<circle cx="1.57609" cy="1.57609" r="1.57609" transform="matrix(0.924462 -0.381274 -0.381274 -0.924462 143.182 65.1272)" fill="white"/>
</g>
<g style="mix-blend-mode:overlay">
<circle cx="0.788452" cy="0.788452" r="0.788452" transform="matrix(0.924462 -0.381274 -0.381274 -0.924462 57.1278 92.099)" fill="white"/>
</g>
<g style="mix-blend-mode:overlay">
<circle cx="0.788452" cy="0.788452" r="0.788452" transform="matrix(0.924462 -0.381274 -0.381274 -0.924462 94.4971 83.5002)" fill="white"/>
</g>
<circle cx="0.788452" cy="0.788452" r="0.788452" transform="matrix(0.924462 -0.381274 -0.381274 -0.924462 149.059 149.654)" fill="white"/>
<circle cx="0.788452" cy="0.788452" r="0.788452" transform="matrix(0.924462 -0.381274 -0.381274 -0.924462 106.881 146.59)" fill="white"/>
<g style="mix-blend-mode:overlay">
<circle cx="1.74711" cy="1.74711" r="1.74711" transform="matrix(0.804293 0.594233 0.594233 -0.804293 17.8702 330.427)" fill="white"/>
</g>
<g style="mix-blend-mode:overlay">
<circle cx="0.874008" cy="0.874008" r="0.874008" transform="matrix(0.804293 0.594233 0.594233 -0.804293 56.962 324.552)" fill="white"/>
</g>
<g style="mix-blend-mode:overlay">
<circle cx="0.874008" cy="0.874008" r="0.874008" transform="matrix(0.804293 0.594233 0.594233 -0.804293 37.9212 397.372)" fill="white"/>
</g>
<g style="mix-blend-mode:overlay">
<circle cx="0.874008" cy="0.874008" r="0.874008" transform="matrix(0.804293 0.594233 0.594233 -0.804293 127.349 393.933)" fill="white"/>
</g>
<g style="mix-blend-mode:overlay">
<circle cx="0.874008" cy="0.874008" r="0.874008" transform="matrix(0.804293 0.594233 0.594233 -0.804293 126.846 324.052)" fill="white"/>
</g>
<g style="mix-blend-mode:overlay">
<circle cx="1.74711" cy="1.74711" r="1.74711" transform="matrix(0.804293 0.594233 0.594233 -0.804293 90.6877 349.469)" fill="white"/>
</g>
<circle cx="1.74711" cy="1.74711" r="1.74711" transform="matrix(0.804293 0.594233 0.594233 -0.804293 115.654 422.449)" fill="white"/>
<g style="mix-blend-mode:overlay">
<circle cx="1.74711" cy="1.74711" r="1.74711" transform="matrix(0.804293 0.594233 0.594233 -0.804293 130.989 354.314)" fill="white"/>
</g>
<g style="mix-blend-mode:overlay">
<circle cx="0.874008" cy="0.874008" r="0.874008" transform="matrix(0.804293 0.594233 0.594233 -0.804293 81.8819 290.83)" fill="white"/>
</g>
<g style="mix-blend-mode:overlay">
<circle cx="0.874008" cy="0.874008" r="0.874008" transform="matrix(0.804293 0.594233 0.594233 -0.804293 111.452 321.365)" fill="white"/>
</g>
<circle cx="0.874008" cy="0.874008" r="0.874008" transform="matrix(0.804293 0.594233 0.594233 -0.804293 90.0998 384.625)" fill="white"/>
<g style="mix-blend-mode:overlay">
<circle cx="0.874008" cy="0.874008" r="0.874008" transform="matrix(0.804293 0.594233 0.594233 -0.804293 58.6827 369.271)" fill="white"/>
</g>
</g>
</g>
</g>
</g>
<defs>
<filter id="filter0_f_75_776" x="-2310.14" y="591.422" width="5574.17" height="2409.78" filterUnits="userSpaceOnUse" color-interpolation-filters="sRGB">
<feFlood flood-opacity="0" result="BackgroundImageFix"/>
<feBlend mode="normal" in="SourceGraphic" in2="BackgroundImageFix" result="shape"/>
<feGaussianBlur stdDeviation="154.387" result="effect1_foregroundBlur_75_776"/>
</filter>
<filter id="filter1_f_75_776" x="-1258.41" y="169.811" width="3470.71" height="2839.06" filterUnits="userSpaceOnUse" color-interpolation-filters="sRGB">
<feFlood flood-opacity="0" result="BackgroundImageFix"/>
<feBlend mode="normal" in="SourceGraphic" in2="BackgroundImageFix" result="shape"/>
<feGaussianBlur stdDeviation="154.387" result="effect1_foregroundBlur_75_776"/>
</filter>
<filter id="filter2_f_75_776" x="-194.719" y="-323.719" width="869.251" height="1023.34" filterUnits="userSpaceOnUse" color-interpolation-filters="sRGB">
<feFlood flood-opacity="0" result="BackgroundImageFix"/>
<feBlend mode="normal" in="SourceGraphic" in2="BackgroundImageFix" result="shape"/>
<feGaussianBlur stdDeviation="47.3596" result="effect1_foregroundBlur_75_776"/>
</filter>
<radialGradient id="paint0_radial_75_776" cx="0" cy="0" r="1" gradientUnits="userSpaceOnUse" gradientTransform="translate(476.942 1190.21) rotate(-90) scale(290.017 4671.85)">
<stop offset="0.347401" stop-color="#FCFCFC"/>
<stop offset="1" stop-color="#FCFCFC" stop-opacity="0"/>
</radialGradient>
<radialGradient id="paint1_radial_75_776" cx="0" cy="0" r="1" gradientUnits="userSpaceOnUse" gradientTransform="translate(476.942 2002.52) rotate(-90) scale(1094.66 4341.99)">
<stop offset="0.187016" stop-color="#17416A"/>
<stop offset="0.54104" stop-color="#2957E3"/>
</radialGradient>
<linearGradient id="paint2_linear_75_776" x1="597.94" y1="353.88" x2="200.177" y2="334.611" gradientUnits="userSpaceOnUse">
<stop stop-color="#22625F" stop-opacity="0"/>
<stop offset="1" stop-color="#46C8C1"/>
</linearGradient>
<clipPath id="clip0_75_776">
<rect width="1442" height="658" fill="white" transform="translate(-1)"/>
</clipPath>
<clipPath id="clip1_75_776">
<rect width="1451" height="696" fill="white" transform="translate(-10 22)"/>
</clipPath>
</defs>
</svg>
