<svg version="1.2" xmlns="http://www.w3.org/2000/svg" viewBox="0 0 1440 634" width="1440" height="634"><defs><clipPath clipPathUnits="userSpaceOnUse" id="cp1"><path d="m-1-24h1442v658h-1442z"/></clipPath><clipPath clipPathUnits="userSpaceOnUse" id="cp2"><path d="m-10-2h1451v696h-1451z"/></clipPath><filter x="-50%" y="-50%" width="200%" height="200%" id="f1"> <feGaussianBlur stdDeviation="154.4"/> </filter><linearGradient id="P" gradientUnits="userSpaceOnUse"/><radialGradient id="g1" cx="0" cy="0" r="1" href="#P" gradientTransform="matrix(0,-290.017,290.017,0,476.942,1166.21)"><stop offset=".35" stop-color="#fcfcfc" stop-opacity="1"/><stop offset="1" stop-color="#fcfcfc" stop-opacity="0"/></radialGradient><radialGradient id="g2" cx="0" cy="0" r="1" href="#P" gradientTransform="matrix(0,-1094.66,1094.66,0,476.942,1978.52)"><stop offset=".19" stop-color="#17416a"/><stop offset=".54" stop-color="#2957e3"/></radialGradient><filter x="-50%" y="-50%" width="200%" height="200%" id="f2"> <feGaussianBlur stdDeviation="47.4"/> </filter><linearGradient id="g3" x2="1" href="#P" gradientTransform="matrix(-397.763,-19.269,22.726,-469.128,602.94,329.88)"><stop stop-color="#22625f" stop-opacity="0"/><stop offset="1" stop-color="#46c8c1" stop-opacity="1"/></linearGradient></defs><style>.a{fill:#02060a}.b{filter:url(#f1);fill:url(#g1)}.c{filter:url(#f1);fill:url(#g2)}.d{mix-blend-mode:color-dodge;filter:url(#f2);fill:url(#g3)}.e{mix-blend-mode:overlay;fill:#fff}.f{fill:#fff}</style><g clip-path="url(#cp1)"><path fill-rule="evenodd" class="a" d="m-1-24h1442v658h-1442z"/><g clip-path="url(#cp2)"><path fill-rule="evenodd" class="b" d="m476.9 2668.4c-1370.5 0-2478.3-400.5-2478.3-896.1 0-495.5 1107.8-896.1 2478.3-896.1 1370.5 0 2478.4 400.6 2478.4 896.1 0 495.6-1107.9 896.1-2478.4 896.1z"/><path class="c" d="m1903.5 1780c0 494.9-638.7 896.1-1426.6 896.1-787.8 0-1426.5-401.2-1426.5-896.1 0-494.9 638.7-1325.4 1426.5-1325.4 787.9 0 1426.6 830.5 1426.6 1325.4z"/><g style="opacity:.4"><g style="opacity:.5"><path class="d" d="m202.5-253l-297.5 171.8 382.3 662.1 297.5-171.8z"/></g></g><g style="opacity:.5"><path fill-rule="evenodd" class="e" d="m95.6 286.9c-0.8 0.2-1.2 1-1 1.8 0.3 0.7 1.1 1.1 1.8 0.9 0.8-0.2 1.2-1 0.9-1.8-0.2-0.7-1-1.2-1.7-0.9z"/><path fill-rule="evenodd" class="f" d="m110.2 259.9c-0.3 0.1-0.5 0.5-0.4 0.9 0.1 0.3 0.5 0.6 0.9 0.4 0.3-0.1 0.5-0.5 0.4-0.9-0.1-0.3-0.5-0.5-0.9-0.4z"/><path fill-rule="evenodd" class="e" d="m149 307.4c-0.3 0.1-0.5 0.5-0.4 0.9 0.1 0.4 0.5 0.6 0.9 0.5 0.3-0.1 0.6-0.5 0.4-0.9-0.1-0.4-0.5-0.6-0.9-0.5z"/><path fill-rule="evenodd" class="f" d="m161.3 179.6c-0.4 0.2-0.6 0.6-0.5 0.9 0.1 0.4 0.5 0.6 0.9 0.5 0.4-0.1 0.6-0.5 0.5-0.9-0.2-0.4-0.6-0.6-0.9-0.5z"/><path fill-rule="evenodd" class="e" d="m143.5 213.6c-0.4 0.1-0.6 0.5-0.5 0.9 0.1 0.4 0.5 0.6 0.9 0.5 0.4-0.2 0.6-0.6 0.5-0.9-0.1-0.4-0.5-0.6-0.9-0.5z"/><path fill-rule="evenodd" class="e" d="m143.1 248.1c-0.7 0.2-1.2 1-0.9 1.7 0.2 0.8 1 1.2 1.8 1 0.7-0.3 1.1-1.1 0.9-1.8-0.2-0.8-1-1.2-1.8-0.9z"/><path fill-rule="evenodd" class="f" d="m150 279.5c-0.8 0.2-1.2 1-1 1.8 0.3 0.7 1.1 1.1 1.8 0.9 0.8-0.2 1.2-1 1-1.8-0.3-0.7-1.1-1.1-1.8-0.9z"/><path fill-rule="evenodd" class="e" d="m179.9 208.2c-0.8 0.2-1.2 1-1 1.8 0.3 0.7 1.1 1.1 1.8 0.9 0.8-0.2 1.2-1 1-1.8-0.3-0.8-1.1-1.2-1.8-0.9z"/><path fill-rule="evenodd" class="e" d="m100 227.3c-0.4 0.1-0.6 0.5-0.5 0.8 0.2 0.4 0.6 0.6 0.9 0.5 0.4-0.1 0.6-0.5 0.5-0.9-0.1-0.4-0.5-0.6-0.9-0.4z"/><path fill-rule="evenodd" class="f" d="m134.3 222.5c-0.3 0.1-0.6 0.5-0.4 0.8 0.1 0.4 0.5 0.6 0.9 0.5 0.3-0.1 0.5-0.5 0.4-0.9-0.1-0.4-0.5-0.6-0.9-0.4z"/><path fill-rule="evenodd" class="f" d="m165 245.6c-0.4 0.1-0.6 0.5-0.5 0.9 0.1 0.4 0.5 0.6 0.9 0.5 0.4-0.2 0.6-0.6 0.4-0.9-0.1-0.4-0.5-0.6-0.8-0.5z"/><path fill-rule="evenodd" class="e" d="m140.5 280.2c-0.4 0.2-0.6 0.6-0.5 0.9 0.2 0.4 0.6 0.6 0.9 0.5 0.4-0.1 0.6-0.5 0.5-0.9-0.1-0.4-0.5-0.6-0.9-0.5z"/><path fill-rule="evenodd" class="e" d="m95.7 200.8c0 0.8 0.5 1.5 1.3 1.6 0.8 0 1.5-0.5 1.6-1.3 0.1-0.8-0.5-1.5-1.3-1.6-0.8-0.1-1.5 0.5-1.6 1.3z"/><path fill-rule="evenodd" class="e" d="m76.5 176.2c0 0.4 0.3 0.8 0.7 0.8 0.4 0.1 0.7-0.2 0.8-0.6 0-0.4-0.3-0.8-0.7-0.8-0.4-0.1-0.7 0.2-0.8 0.6z"/><path fill-rule="evenodd" class="e" d="m136.4 159.3c0 0.4 0.3 0.8 0.7 0.8 0.4 0 0.7-0.3 0.8-0.6 0-0.4-0.3-0.8-0.7-0.8-0.4-0.1-0.7 0.2-0.8 0.6z"/><path fill-rule="evenodd" class="e" d="m96.5 97c0 0.4 0.2 0.8 0.6 0.8 0.4 0 0.8-0.2 0.8-0.6 0.1-0.4-0.2-0.8-0.6-0.8-0.4-0.1-0.8 0.2-0.8 0.6z"/><path fill-rule="evenodd" class="f" d="m46.9 126.6c0 0.4 0.3 0.8 0.6 0.8 0.4 0.1 0.8-0.2 0.8-0.6 0.1-0.4-0.2-0.8-0.6-0.8-0.4 0-0.8 0.2-0.8 0.6z"/><path fill-rule="evenodd" class="e" d="m78.8 140.9c-0.1 0.8 0.5 1.5 1.3 1.6 0.8 0.1 1.5-0.5 1.6-1.3 0.1-0.8-0.5-1.5-1.3-1.6-0.8-0.1-1.5 0.5-1.6 1.3z"/><path fill-rule="evenodd" class="e" d="m128.4 111.3c-0.1 0.8 0.5 1.5 1.3 1.6 0.8 0 1.5-0.5 1.6-1.3 0.1-0.8-0.5-1.5-1.3-1.6-0.8-0.1-1.5 0.5-1.6 1.3z"/><path fill-rule="evenodd" class="f" d="m56.5 90.6c-0.1 0.8 0.5 1.5 1.3 1.6 0.8 0.1 1.5-0.5 1.6-1.3 0.1-0.8-0.5-1.5-1.3-1.6-0.8 0-1.5 0.5-1.6 1.3z"/><path fill-rule="evenodd" class="f" d="m42.1 172.6c-0.1 0.4 0.2 0.8 0.6 0.8 0.4 0 0.8-0.2 0.8-0.6 0-0.4-0.2-0.8-0.6-0.8-0.4-0.1-0.8 0.2-0.8 0.6z"/><path fill-rule="evenodd" class="f" d="m51.4 138.7c0 0.4 0.3 0.8 0.7 0.8 0.4 0.1 0.7-0.2 0.8-0.6 0-0.4-0.3-0.8-0.7-0.8-0.4 0-0.7 0.2-0.8 0.6z"/><path fill-rule="evenodd" class="e" d="m128.6 123.6c-0.1 0.4 0.2 0.8 0.6 0.8 0.4 0.1 0.7-0.2 0.8-0.6 0-0.4-0.3-0.8-0.7-0.8-0.4-0.1-0.7 0.2-0.7 0.6z"/><path fill-rule="evenodd" class="e" d="m107.7 156.3c-0.1 0.4 0.2 0.7 0.6 0.8 0.4 0 0.8-0.3 0.8-0.7 0.1-0.4-0.2-0.7-0.6-0.8-0.4 0-0.8 0.3-0.8 0.7z"/><path fill-rule="evenodd" class="f" d="m26 59c-0.4 0.1-0.6 0.6-0.4 1 0.2 0.4 0.6 0.6 1 0.4 0.4-0.1 0.6-0.6 0.5-1-0.2-0.4-0.7-0.6-1.1-0.4z"/><path fill-rule="evenodd" class="f" d="m78.9 27.5c-0.8 0.3-1.2 1.2-0.9 2 0.3 0.8 1.3 1.2 2.1 0.9 0.8-0.3 1.2-1.3 0.8-2.1-0.3-0.8-1.2-1.2-2-0.8z"/><path fill-rule="evenodd" class="f" d="m56.2 32.9c-0.4 0.2-0.6 0.6-0.4 1 0.1 0.4 0.6 0.6 1 0.5 0.4-0.2 0.6-0.7 0.4-1.1-0.2-0.4-0.6-0.6-1-0.4z"/><path fill-rule="evenodd" class="f" d="m14 29.8c-0.4 0.2-0.6 0.7-0.4 1.1 0.1 0.4 0.6 0.6 1 0.4 0.4-0.2 0.6-0.6 0.4-1-0.1-0.4-0.6-0.6-1-0.5z"/><path fill-rule="evenodd" class="e" d="m36.1 278c-0.4-0.2-0.9-0.2-1.2 0.2-0.3 0.4-0.2 1 0.2 1.3 0.3 0.2 0.9 0.2 1.2-0.2 0.3-0.4 0.2-1-0.2-1.3z"/><path fill-rule="evenodd" class="e" d="m35.6 208.2c-0.4-0.3-0.9-0.2-1.2 0.1-0.3 0.4-0.2 1 0.1 1.3 0.4 0.3 1 0.2 1.3-0.2 0.3-0.4 0.2-0.9-0.2-1.2z"/><path fill-rule="evenodd" class="e" d="m1.2 232.7c-0.8-0.6-1.9-0.4-2.5 0.4-0.5 0.7-0.4 1.8 0.4 2.4 0.8 0.6 1.9 0.4 2.4-0.4 0.6-0.7 0.4-1.8-0.3-2.4z"/><path fill-rule="evenodd" class="f" d="m26.1 305.7c-0.7-0.6-1.8-0.4-2.4 0.3-0.6 0.8-0.4 1.9 0.4 2.5 0.7 0.6 1.8 0.4 2.4-0.4 0.6-0.8 0.4-1.8-0.4-2.4z"/><path fill-rule="evenodd" class="e" d="m41.5 237.5c-0.8-0.5-1.9-0.4-2.5 0.4-0.5 0.8-0.4 1.9 0.4 2.5 0.8 0.5 1.9 0.4 2.4-0.4 0.6-0.8 0.4-1.9-0.3-2.5z"/><path fill-rule="evenodd" class="e" d="m20.2 205.5c-0.4-0.3-0.9-0.2-1.2 0.2-0.3 0.4-0.2 0.9 0.2 1.2 0.3 0.3 0.9 0.2 1.2-0.2 0.3-0.4 0.2-0.9-0.2-1.2z"/></g><g style="opacity:.5"><path fill-rule="evenodd" class="e" d="m95.6 286.9c-0.8 0.2-1.2 1-1 1.8 0.3 0.7 1.1 1.1 1.8 0.9 0.8-0.2 1.2-1 0.9-1.8-0.2-0.7-1-1.2-1.7-0.9z"/><path fill-rule="evenodd" class="f" d="m110.2 259.9c-0.3 0.1-0.5 0.5-0.4 0.9 0.1 0.3 0.5 0.6 0.9 0.4 0.3-0.1 0.5-0.5 0.4-0.9-0.1-0.3-0.5-0.5-0.9-0.4z"/><path fill-rule="evenodd" class="e" d="m149 307.4c-0.3 0.1-0.5 0.5-0.4 0.9 0.1 0.4 0.5 0.6 0.9 0.5 0.3-0.1 0.6-0.5 0.4-0.9-0.1-0.4-0.5-0.6-0.9-0.5z"/><path fill-rule="evenodd" class="f" d="m161.3 179.6c-0.4 0.2-0.6 0.6-0.5 0.9 0.1 0.4 0.5 0.6 0.9 0.5 0.4-0.1 0.6-0.5 0.5-0.9-0.2-0.4-0.6-0.6-0.9-0.5z"/><path fill-rule="evenodd" class="e" d="m143.5 213.6c-0.4 0.1-0.6 0.5-0.5 0.9 0.1 0.4 0.5 0.6 0.9 0.5 0.4-0.2 0.6-0.6 0.5-0.9-0.1-0.4-0.5-0.6-0.9-0.5z"/><path fill-rule="evenodd" class="e" d="m143.1 248.1c-0.7 0.2-1.2 1-0.9 1.7 0.2 0.8 1 1.2 1.8 1 0.7-0.3 1.1-1.1 0.9-1.8-0.2-0.8-1-1.2-1.8-0.9z"/><path fill-rule="evenodd" class="f" d="m150 279.5c-0.8 0.2-1.2 1-1 1.8 0.3 0.7 1.1 1.1 1.8 0.9 0.8-0.2 1.2-1 1-1.8-0.3-0.7-1.1-1.1-1.8-0.9z"/><path fill-rule="evenodd" class="e" d="m179.9 208.2c-0.8 0.2-1.2 1-1 1.8 0.3 0.7 1.1 1.1 1.8 0.9 0.8-0.2 1.2-1 1-1.8-0.3-0.7-1.1-1.2-1.8-0.9z"/><path fill-rule="evenodd" class="e" d="m100 227.3c-0.4 0.1-0.6 0.5-0.5 0.8 0.2 0.4 0.6 0.6 0.9 0.5 0.4-0.1 0.6-0.5 0.5-0.9-0.1-0.4-0.5-0.6-0.9-0.4z"/><path fill-rule="evenodd" class="f" d="m134.3 222.5c-0.3 0.1-0.6 0.5-0.4 0.8 0.1 0.4 0.5 0.6 0.9 0.5 0.3-0.1 0.5-0.5 0.4-0.9-0.1-0.4-0.5-0.6-0.9-0.4z"/><path fill-rule="evenodd" class="f" d="m165 245.6c-0.4 0.1-0.6 0.5-0.5 0.9 0.1 0.4 0.5 0.6 0.9 0.5 0.4-0.2 0.6-0.6 0.4-0.9-0.1-0.4-0.5-0.6-0.8-0.5z"/><path fill-rule="evenodd" class="e" d="m140.5 280.2c-0.4 0.2-0.6 0.6-0.5 0.9 0.2 0.4 0.6 0.6 0.9 0.5 0.4-0.1 0.6-0.5 0.5-0.9-0.1-0.4-0.5-0.6-0.9-0.5z"/><path fill-rule="evenodd" class="e" d="m95.7 200.8c0 0.8 0.5 1.5 1.3 1.6 0.8 0 1.5-0.5 1.6-1.3 0.1-0.8-0.5-1.5-1.3-1.6-0.8-0.1-1.5 0.5-1.6 1.3z"/><path fill-rule="evenodd" class="e" d="m76.5 176.2c0 0.4 0.3 0.8 0.7 0.8 0.4 0.1 0.7-0.2 0.8-0.6 0-0.4-0.3-0.8-0.7-0.8-0.4-0.1-0.7 0.2-0.8 0.6z"/><path fill-rule="evenodd" class="e" d="m136.4 159.3c0 0.4 0.3 0.8 0.7 0.8 0.4 0 0.7-0.2 0.8-0.6 0-0.4-0.3-0.8-0.7-0.8-0.4-0.1-0.7 0.2-0.8 0.6z"/><path fill-rule="evenodd" class="e" d="m96.5 97c0 0.4 0.2 0.8 0.6 0.8 0.4 0 0.8-0.2 0.8-0.6 0.1-0.4-0.2-0.8-0.6-0.8-0.4-0.1-0.8 0.2-0.8 0.6z"/><path fill-rule="evenodd" class="f" d="m46.9 126.6c0 0.4 0.3 0.8 0.6 0.8 0.4 0.1 0.8-0.2 0.8-0.6 0.1-0.4-0.2-0.8-0.6-0.8-0.4 0-0.8 0.2-0.8 0.6z"/><path fill-rule="evenodd" class="e" d="m78.8 140.9c-0.1 0.8 0.5 1.5 1.3 1.6 0.8 0.1 1.5-0.5 1.6-1.3 0.1-0.8-0.5-1.5-1.3-1.6-0.8-0.1-1.5 0.5-1.6 1.3z"/><path fill-rule="evenodd" class="e" d="m128.4 111.3c-0.1 0.8 0.5 1.5 1.3 1.6 0.8 0 1.5-0.5 1.6-1.3 0.1-0.8-0.5-1.5-1.3-1.6-0.8-0.1-1.5 0.5-1.6 1.3z"/><path fill-rule="evenodd" class="f" d="m56.5 90.6c-0.1 0.8 0.5 1.5 1.3 1.6 0.8 0.1 1.5-0.5 1.6-1.3 0.1-0.8-0.5-1.5-1.3-1.6-0.8 0-1.5 0.5-1.6 1.3z"/><path fill-rule="evenodd" class="f" d="m42.1 172.6c-0.1 0.4 0.2 0.8 0.6 0.8 0.4 0 0.8-0.2 0.8-0.6 0-0.4-0.2-0.8-0.6-0.8-0.4-0.1-0.8 0.2-0.8 0.6z"/><path fill-rule="evenodd" class="f" d="m51.4 138.7c0 0.4 0.3 0.8 0.7 0.8 0.4 0.1 0.7-0.2 0.8-0.6 0-0.4-0.3-0.8-0.7-0.8-0.4 0-0.7 0.2-0.8 0.6z"/><path fill-rule="evenodd" class="e" d="m128.6 123.6c-0.1 0.4 0.2 0.8 0.6 0.8 0.4 0.1 0.7-0.2 0.8-0.6 0-0.4-0.3-0.8-0.7-0.8-0.4-0.1-0.7 0.2-0.7 0.6z"/><path fill-rule="evenodd" class="e" d="m107.7 156.3c-0.1 0.4 0.2 0.7 0.6 0.8 0.4 0 0.8-0.3 0.8-0.7 0.1-0.4-0.2-0.7-0.6-0.8-0.4 0-0.8 0.3-0.8 0.7z"/><path fill-rule="evenodd" class="f" d="m26 59c-0.4 0.1-0.6 0.6-0.4 1 0.2 0.4 0.6 0.6 1 0.4 0.4-0.1 0.6-0.6 0.5-1-0.2-0.4-0.7-0.6-1.1-0.4z"/><path fill-rule="evenodd" class="f" d="m78.9 27.5c-0.8 0.3-1.2 1.2-0.9 2 0.3 0.8 1.3 1.2 2.1 0.9 0.8-0.3 1.2-1.3 0.8-2.1-0.3-0.8-1.2-1.2-2-0.8z"/><path fill-rule="evenodd" class="f" d="m56.2 32.9c-0.4 0.2-0.6 0.6-0.4 1 0.1 0.4 0.6 0.6 1 0.5 0.4-0.2 0.6-0.7 0.4-1.1-0.2-0.4-0.6-0.6-1-0.4z"/><path fill-rule="evenodd" class="f" d="m14 29.8c-0.4 0.2-0.6 0.7-0.4 1.1 0.1 0.4 0.6 0.6 1 0.4 0.4-0.2 0.6-0.6 0.4-1-0.1-0.4-0.6-0.6-1-0.5z"/><path fill-rule="evenodd" class="e" d="m36.1 278c-0.4-0.2-0.9-0.2-1.2 0.2-0.3 0.4-0.2 1 0.2 1.3 0.3 0.2 0.9 0.2 1.2-0.2 0.3-0.4 0.2-1-0.2-1.3z"/><path fill-rule="evenodd" class="e" d="m35.6 208.2c-0.4-0.3-0.9-0.2-1.2 0.1-0.3 0.4-0.2 1 0.1 1.3 0.4 0.3 1 0.2 1.3-0.2 0.3-0.4 0.2-0.9-0.2-1.2z"/><path fill-rule="evenodd" class="e" d="m1.2 232.7c-0.8-0.6-1.9-0.4-2.5 0.4-0.5 0.7-0.4 1.8 0.4 2.4 0.8 0.6 1.9 0.4 2.4-0.4 0.6-0.7 0.4-1.8-0.3-2.4z"/><path fill-rule="evenodd" class="f" d="m26.1 305.7c-0.7-0.6-1.8-0.4-2.4 0.3-0.6 0.8-0.4 1.9 0.4 2.5 0.7 0.6 1.8 0.4 2.4-0.4 0.6-0.8 0.4-1.8-0.4-2.4z"/><path fill-rule="evenodd" class="e" d="m41.5 237.5c-0.8-0.5-1.9-0.4-2.5 0.4-0.5 0.8-0.4 1.9 0.4 2.5 0.8 0.5 1.9 0.4 2.4-0.4 0.6-0.8 0.4-1.9-0.3-2.5z"/><path fill-rule="evenodd" class="e" d="m20.2 205.5c-0.4-0.3-0.9-0.2-1.2 0.2-0.3 0.4-0.2 0.9 0.2 1.2 0.3 0.3 0.9 0.2 1.2-0.2 0.3-0.4 0.2-0.9-0.2-1.2z"/></g><g style="opacity:.3"><g style="opacity:.5"><path fill-rule="evenodd" class="e" d="m188.6 377.9c-0.8 0.2-1.2 1-1 1.8 0.3 0.7 1.1 1.1 1.8 0.9 0.8-0.2 1.2-1 0.9-1.8-0.2-0.7-1-1.2-1.7-0.9z"/><path fill-rule="evenodd" class="f" d="m203.2 350.9c-0.3 0.1-0.5 0.5-0.4 0.9 0.1 0.3 0.5 0.6 0.9 0.4 0.3-0.1 0.5-0.5 0.4-0.9-0.1-0.3-0.5-0.5-0.9-0.4z"/><path fill-rule="evenodd" class="e" d="m242 398.4c-0.3 0.1-0.5 0.5-0.4 0.9 0.1 0.4 0.5 0.6 0.9 0.5 0.3-0.1 0.6-0.5 0.4-0.9-0.1-0.4-0.5-0.6-0.9-0.5z"/><path fill-rule="evenodd" class="f" d="m254.3 270.6c-0.4 0.2-0.6 0.6-0.5 0.9 0.1 0.4 0.5 0.6 0.9 0.5 0.4-0.1 0.6-0.5 0.5-0.9-0.2-0.4-0.6-0.6-0.9-0.5z"/><path fill-rule="evenodd" class="e" d="m236.5 304.6c-0.4 0.1-0.6 0.5-0.5 0.9 0.1 0.4 0.5 0.6 0.9 0.5 0.4-0.2 0.6-0.6 0.5-0.9-0.1-0.4-0.5-0.6-0.9-0.5z"/><path fill-rule="evenodd" class="e" d="m236.1 339.1c-0.7 0.2-1.2 1-0.9 1.7 0.2 0.8 1 1.2 1.8 1 0.7-0.3 1.1-1.1 0.9-1.8-0.2-0.8-1-1.2-1.8-0.9z"/><path fill-rule="evenodd" class="f" d="m243 370.5c-0.8 0.2-1.2 1-1 1.8 0.3 0.7 1.1 1.1 1.8 0.9 0.8-0.2 1.2-1 1-1.8-0.3-0.7-1.1-1.1-1.8-0.9z"/><path fill-rule="evenodd" class="e" d="m272.9 299.2c-0.8 0.2-1.2 1-1 1.8 0.3 0.7 1.1 1.1 1.8 0.9 0.8-0.2 1.2-1 1-1.8-0.3-0.8-1.1-1.2-1.8-0.9z"/><path fill-rule="evenodd" class="e" d="m193 318.3c-0.4 0.1-0.6 0.5-0.5 0.8 0.2 0.4 0.6 0.6 0.9 0.5 0.4-0.1 0.6-0.5 0.5-0.9-0.1-0.4-0.5-0.6-0.9-0.4z"/><path fill-rule="evenodd" class="f" d="m227.3 313.5c-0.3 0.1-0.6 0.5-0.4 0.8 0.1 0.4 0.5 0.6 0.9 0.5 0.3-0.1 0.5-0.5 0.4-0.9-0.1-0.4-0.5-0.6-0.9-0.4z"/><path fill-rule="evenodd" class="f" d="m258 336.6c-0.4 0.1-0.6 0.5-0.5 0.9 0.1 0.4 0.5 0.6 0.9 0.5 0.4-0.2 0.6-0.6 0.4-0.9-0.1-0.4-0.5-0.6-0.8-0.5z"/><path fill-rule="evenodd" class="e" d="m233.5 371.2c-0.4 0.2-0.6 0.6-0.5 0.9 0.2 0.4 0.6 0.6 0.9 0.5 0.4-0.1 0.6-0.5 0.5-0.9-0.1-0.4-0.5-0.6-0.9-0.5z"/><path fill-rule="evenodd" class="e" d="m188.7 291.8c0 0.8 0.5 1.5 1.3 1.6 0.8 0 1.5-0.5 1.6-1.3 0.1-0.8-0.5-1.5-1.3-1.6-0.8-0.1-1.5 0.5-1.6 1.3z"/><path fill-rule="evenodd" class="e" d="m169.5 267.2c0 0.4 0.3 0.8 0.7 0.8 0.4 0.1 0.7-0.2 0.8-0.6 0-0.4-0.3-0.8-0.7-0.8-0.4-0.1-0.7 0.2-0.8 0.6z"/><path fill-rule="evenodd" class="e" d="m229.4 250.3c0 0.4 0.3 0.8 0.7 0.8 0.4 0 0.7-0.3 0.8-0.6 0-0.4-0.3-0.8-0.7-0.8-0.4-0.1-0.7 0.2-0.8 0.6z"/><path fill-rule="evenodd" class="e" d="m189.5 188c0 0.4 0.2 0.8 0.6 0.8 0.4 0 0.8-0.2 0.8-0.6 0.1-0.4-0.2-0.8-0.6-0.8-0.4-0.1-0.8 0.2-0.8 0.6z"/><path fill-rule="evenodd" class="f" d="m139.9 217.6c0 0.4 0.3 0.8 0.6 0.8 0.4 0.1 0.8-0.2 0.8-0.6 0.1-0.4-0.2-0.8-0.6-0.8-0.4 0-0.8 0.2-0.8 0.6z"/><path fill-rule="evenodd" class="e" d="m171.8 231.9c-0.1 0.8 0.5 1.5 1.3 1.6 0.8 0.1 1.5-0.5 1.6-1.3 0.1-0.8-0.5-1.5-1.3-1.6-0.8-0.1-1.5 0.5-1.6 1.3z"/><path fill-rule="evenodd" class="e" d="m221.4 202.3c-0.1 0.8 0.5 1.5 1.3 1.6 0.8 0 1.5-0.5 1.6-1.3 0.1-0.8-0.5-1.5-1.3-1.6-0.8-0.1-1.5 0.5-1.6 1.3z"/><path fill-rule="evenodd" class="f" d="m149.5 181.6c-0.1 0.8 0.5 1.5 1.3 1.6 0.8 0.1 1.5-0.5 1.6-1.3 0.1-0.8-0.5-1.5-1.3-1.6-0.8 0-1.5 0.5-1.6 1.3z"/><path fill-rule="evenodd" class="f" d="m135.1 263.6c-0.1 0.4 0.2 0.8 0.6 0.8 0.4 0 0.8-0.2 0.8-0.6 0-0.4-0.2-0.8-0.6-0.8-0.4-0.1-0.8 0.2-0.8 0.6z"/><path fill-rule="evenodd" class="f" d="m144.4 229.7c0 0.4 0.3 0.8 0.7 0.8 0.4 0.1 0.7-0.2 0.8-0.6 0-0.4-0.3-0.8-0.7-0.8-0.4 0-0.7 0.2-0.8 0.6z"/><path fill-rule="evenodd" class="e" d="m221.6 214.6c-0.1 0.4 0.2 0.8 0.6 0.8 0.4 0.1 0.7-0.2 0.8-0.6 0-0.4-0.3-0.8-0.7-0.8-0.4-0.1-0.7 0.2-0.7 0.6z"/><path fill-rule="evenodd" class="e" d="m200.7 247.3c-0.1 0.4 0.2 0.7 0.6 0.8 0.4 0 0.8-0.3 0.8-0.7 0.1-0.4-0.2-0.7-0.6-0.8-0.4 0-0.8 0.3-0.8 0.7z"/><path fill-rule="evenodd" class="f" d="m67.3 128.4c-0.8 0.3-1.2 1.2-0.8 2 0.3 0.8 1.2 1.2 2 0.9 0.8-0.4 1.2-1.3 0.9-2.1-0.4-0.8-1.3-1.2-2.1-0.8z"/><path fill-rule="evenodd" class="e" d="m71.7 101.3c-0.4 0.2-0.6 0.6-0.5 1 0.2 0.4 0.7 0.6 1.1 0.5 0.4-0.2 0.6-0.7 0.4-1.1-0.2-0.4-0.6-0.6-1-0.4z"/><path fill-rule="evenodd" class="f" d="m119 150c-0.4 0.1-0.6 0.6-0.4 1 0.2 0.4 0.6 0.6 1 0.4 0.4-0.1 0.6-0.6 0.5-1-0.2-0.4-0.7-0.6-1.1-0.4z"/><path fill-rule="evenodd" class="e" d="m158.1 79.3c-0.4 0.2-0.6 0.6-0.5 1 0.2 0.4 0.7 0.6 1.1 0.5 0.4-0.2 0.6-0.7 0.4-1.1-0.2-0.4-0.6-0.6-1-0.4z"/><path fill-rule="evenodd" class="e" d="m103.9 47.1c-0.4 0.2-0.6 0.6-0.4 1 0.1 0.4 0.6 0.6 1 0.5 0.4-0.2 0.6-0.7 0.4-1.1-0.2-0.4-0.6-0.6-1-0.4z"/><path fill-rule="evenodd" class="e" d="m106.8 85.1c-0.8 0.4-1.2 1.3-0.9 2.1 0.3 0.8 1.3 1.2 2.1 0.8 0.8-0.3 1.2-1.2 0.8-2-0.3-0.8-1.2-1.2-2-0.9z"/><path fill-rule="evenodd" class="f" d="m171.9 118.5c-0.8 0.3-1.2 1.2-0.9 2 0.3 0.8 1.3 1.2 2.1 0.9 0.8-0.3 1.2-1.3 0.8-2.1-0.3-0.8-1.2-1.2-2-0.8z"/><path fill-rule="evenodd" class="e" d="m143.4 37.6c-0.8 0.3-1.2 1.3-0.8 2.1 0.3 0.8 1.2 1.2 2 0.8 0.8-0.3 1.2-1.2 0.9-2-0.3-0.8-1.3-1.2-2.1-0.9z"/><path fill-rule="evenodd" class="e" d="m57.3 66.3c-0.4 0.2-0.6 0.7-0.5 1.1 0.2 0.4 0.7 0.6 1.1 0.4 0.4-0.2 0.6-0.6 0.4-1-0.2-0.4-0.6-0.6-1-0.5z"/><path fill-rule="evenodd" class="e" d="m94.6 57.7c-0.4 0.2-0.6 0.7-0.4 1.1 0.2 0.4 0.6 0.6 1 0.4 0.4-0.2 0.6-0.6 0.5-1-0.2-0.4-0.7-0.6-1.1-0.5z"/><path fill-rule="evenodd" class="f" d="m149.2 123.9c-0.4 0.2-0.6 0.6-0.4 1 0.1 0.4 0.6 0.6 1 0.5 0.4-0.2 0.6-0.7 0.4-1.1-0.2-0.4-0.6-0.6-1-0.4z"/><path fill-rule="evenodd" class="f" d="m107 120.8c-0.4 0.2-0.6 0.7-0.4 1.1 0.1 0.4 0.6 0.6 1 0.4 0.4-0.2 0.6-0.6 0.4-1-0.1-0.4-0.6-0.6-1-0.5z"/><path fill-rule="evenodd" class="e" d="m21.4 304.7c-0.8-0.6-1.9-0.5-2.5 0.3-0.6 0.8-0.4 1.9 0.4 2.5 0.8 0.5 1.8 0.4 2.4-0.4 0.6-0.8 0.4-1.9-0.3-2.4z"/><path fill-rule="evenodd" class="e" d="m58.7 299.7c-0.4-0.3-0.9-0.2-1.2 0.1-0.3 0.4-0.2 1 0.2 1.3 0.4 0.3 0.9 0.2 1.2-0.2 0.3-0.4 0.2-0.9-0.2-1.2z"/><path fill-rule="evenodd" class="e" d="m39.7 372.5c-0.4-0.3-1-0.2-1.3 0.2-0.2 0.4-0.2 0.9 0.2 1.2 0.4 0.3 1 0.2 1.2-0.2 0.3-0.4 0.3-0.9-0.1-1.2z"/><path fill-rule="evenodd" class="e" d="m129.1 369c-0.4-0.2-0.9-0.2-1.2 0.2-0.3 0.4-0.2 1 0.2 1.3 0.3 0.2 0.9 0.2 1.2-0.2 0.3-0.4 0.2-1-0.2-1.3z"/><path fill-rule="evenodd" class="e" d="m128.6 299.2c-0.4-0.3-0.9-0.2-1.2 0.1-0.3 0.4-0.2 1 0.1 1.3 0.4 0.3 1 0.2 1.3-0.2 0.3-0.4 0.2-0.9-0.2-1.2z"/><path fill-rule="evenodd" class="e" d="m94.2 323.7c-0.8-0.6-1.9-0.4-2.5 0.4-0.5 0.7-0.4 1.8 0.4 2.4 0.8 0.6 1.9 0.4 2.4-0.4 0.6-0.7 0.4-1.8-0.3-2.4z"/><path fill-rule="evenodd" class="f" d="m119.1 396.7c-0.7-0.6-1.8-0.4-2.4 0.3-0.6 0.8-0.4 1.9 0.4 2.5 0.7 0.6 1.8 0.4 2.4-0.4 0.6-0.8 0.4-1.8-0.4-2.4z"/><path fill-rule="evenodd" class="e" d="m134.5 328.5c-0.8-0.5-1.9-0.4-2.5 0.4-0.5 0.8-0.4 1.9 0.4 2.5 0.8 0.5 1.9 0.4 2.4-0.4 0.6-0.8 0.4-1.9-0.3-2.5z"/><path fill-rule="evenodd" class="e" d="m83.6 265.9c-0.4-0.2-0.9-0.2-1.2 0.2-0.3 0.4-0.2 1 0.2 1.2 0.4 0.3 0.9 0.3 1.2-0.1 0.3-0.4 0.2-1-0.2-1.3z"/><path fill-rule="evenodd" class="e" d="m113.2 296.5c-0.4-0.3-0.9-0.2-1.2 0.2-0.3 0.4-0.2 0.9 0.2 1.2 0.3 0.3 0.9 0.2 1.2-0.2 0.3-0.4 0.2-0.9-0.2-1.2z"/><path fill-rule="evenodd" class="f" d="m91.8 359.7c-0.3-0.3-0.9-0.2-1.2 0.2-0.3 0.4-0.2 1 0.2 1.2 0.4 0.3 0.9 0.2 1.2-0.1 0.3-0.4 0.2-1-0.2-1.3z"/><path fill-rule="evenodd" class="e" d="m60.4 344.4c-0.4-0.3-0.9-0.2-1.2 0.2-0.3 0.4-0.2 0.9 0.2 1.2 0.4 0.3 0.9 0.2 1.2-0.2 0.3-0.4 0.2-0.9-0.2-1.2z"/></g><g style="opacity:.5"><path fill-rule="evenodd" class="e" d="m188.6 377.9c-0.8 0.2-1.2 1-1 1.8 0.3 0.7 1.1 1.1 1.8 0.9 0.8-0.2 1.2-1 0.9-1.8-0.2-0.7-1-1.2-1.7-0.9z"/><path fill-rule="evenodd" class="f" d="m203.2 350.9c-0.3 0.1-0.5 0.5-0.4 0.9 0.1 0.3 0.5 0.6 0.9 0.4 0.3-0.1 0.5-0.5 0.4-0.9-0.1-0.3-0.5-0.5-0.9-0.4z"/><path fill-rule="evenodd" class="e" d="m242 398.4c-0.3 0.1-0.5 0.5-0.4 0.9 0.1 0.4 0.5 0.6 0.9 0.5 0.3-0.1 0.6-0.5 0.4-0.9-0.1-0.4-0.5-0.6-0.9-0.5z"/><path fill-rule="evenodd" class="f" d="m254.3 270.6c-0.4 0.2-0.6 0.6-0.5 0.9 0.1 0.4 0.5 0.6 0.9 0.5 0.4-0.1 0.6-0.5 0.5-0.9-0.2-0.4-0.6-0.6-0.9-0.5z"/><path fill-rule="evenodd" class="e" d="m236.5 304.6c-0.4 0.1-0.6 0.5-0.5 0.9 0.1 0.4 0.5 0.6 0.9 0.5 0.4-0.2 0.6-0.6 0.5-0.9-0.1-0.4-0.5-0.6-0.9-0.5z"/><path fill-rule="evenodd" class="e" d="m236.1 339.1c-0.7 0.2-1.2 1-0.9 1.7 0.2 0.8 1 1.2 1.8 1 0.7-0.3 1.1-1.1 0.9-1.8-0.2-0.8-1-1.2-1.8-0.9z"/><path fill-rule="evenodd" class="f" d="m243 370.5c-0.8 0.2-1.2 1-1 1.8 0.3 0.7 1.1 1.1 1.8 0.9 0.8-0.2 1.2-1 1-1.8-0.3-0.7-1.1-1.1-1.8-0.9z"/><path fill-rule="evenodd" class="e" d="m272.9 299.2c-0.8 0.2-1.2 1-1 1.8 0.3 0.7 1.1 1.1 1.8 0.9 0.8-0.2 1.2-1 1-1.8-0.3-0.7-1.1-1.2-1.8-0.9z"/><path fill-rule="evenodd" class="e" d="m193 318.3c-0.4 0.1-0.6 0.5-0.5 0.8 0.2 0.4 0.6 0.6 0.9 0.5 0.4-0.1 0.6-0.5 0.5-0.9-0.1-0.4-0.5-0.6-0.9-0.4z"/><path fill-rule="evenodd" class="f" d="m227.3 313.5c-0.3 0.1-0.6 0.5-0.4 0.8 0.1 0.4 0.5 0.6 0.9 0.5 0.3-0.1 0.5-0.5 0.4-0.9-0.1-0.4-0.5-0.6-0.9-0.4z"/><path fill-rule="evenodd" class="f" d="m258 336.6c-0.4 0.1-0.6 0.5-0.5 0.9 0.1 0.4 0.5 0.6 0.9 0.5 0.4-0.2 0.6-0.6 0.4-0.9-0.1-0.4-0.5-0.6-0.8-0.5z"/><path fill-rule="evenodd" class="e" d="m233.5 371.2c-0.4 0.2-0.6 0.6-0.5 0.9 0.2 0.4 0.6 0.6 0.9 0.5 0.4-0.1 0.6-0.5 0.5-0.9-0.1-0.4-0.5-0.6-0.9-0.5z"/><path fill-rule="evenodd" class="e" d="m188.7 291.8c0 0.8 0.5 1.5 1.3 1.6 0.8 0 1.5-0.5 1.6-1.3 0.1-0.8-0.5-1.5-1.3-1.6-0.8-0.1-1.5 0.5-1.6 1.3z"/><path fill-rule="evenodd" class="e" d="m169.5 267.2c0 0.4 0.3 0.8 0.7 0.8 0.4 0.1 0.7-0.2 0.8-0.6 0-0.4-0.3-0.8-0.7-0.8-0.4-0.1-0.7 0.2-0.8 0.6z"/><path fill-rule="evenodd" class="e" d="m229.4 250.3c0 0.4 0.3 0.8 0.7 0.8 0.4 0 0.7-0.2 0.8-0.6 0-0.4-0.3-0.8-0.7-0.8-0.4-0.1-0.7 0.2-0.8 0.6z"/><path fill-rule="evenodd" class="e" d="m189.5 188c0 0.4 0.2 0.8 0.6 0.8 0.4 0 0.8-0.2 0.8-0.6 0.1-0.4-0.2-0.8-0.6-0.8-0.4-0.1-0.8 0.2-0.8 0.6z"/><path fill-rule="evenodd" class="f" d="m139.9 217.6c0 0.4 0.3 0.8 0.6 0.8 0.4 0.1 0.8-0.2 0.8-0.6 0.1-0.4-0.2-0.8-0.6-0.8-0.4 0-0.8 0.2-0.8 0.6z"/><path fill-rule="evenodd" class="e" d="m171.8 231.9c-0.1 0.8 0.5 1.5 1.3 1.6 0.8 0.1 1.5-0.5 1.6-1.3 0.1-0.8-0.5-1.5-1.3-1.6-0.8-0.1-1.5 0.5-1.6 1.3z"/><path fill-rule="evenodd" class="e" d="m221.4 202.3c-0.1 0.8 0.5 1.5 1.3 1.6 0.8 0 1.5-0.5 1.6-1.3 0.1-0.8-0.5-1.5-1.3-1.6-0.8-0.1-1.5 0.5-1.6 1.3z"/><path fill-rule="evenodd" class="f" d="m149.5 181.6c-0.1 0.8 0.5 1.5 1.3 1.6 0.8 0.1 1.5-0.5 1.6-1.3 0.1-0.8-0.5-1.5-1.3-1.6-0.8 0-1.5 0.5-1.6 1.3z"/><path fill-rule="evenodd" class="f" d="m135.1 263.6c-0.1 0.4 0.2 0.8 0.6 0.8 0.4 0 0.8-0.2 0.8-0.6 0-0.4-0.2-0.8-0.6-0.8-0.4-0.1-0.8 0.2-0.8 0.6z"/><path fill-rule="evenodd" class="f" d="m144.4 229.7c0 0.4 0.3 0.8 0.7 0.8 0.4 0.1 0.7-0.2 0.8-0.6 0-0.4-0.3-0.8-0.7-0.8-0.4 0-0.7 0.2-0.8 0.6z"/><path fill-rule="evenodd" class="e" d="m221.6 214.6c-0.1 0.4 0.2 0.8 0.6 0.8 0.4 0.1 0.7-0.2 0.8-0.6 0-0.4-0.3-0.8-0.7-0.8-0.4-0.1-0.7 0.2-0.7 0.6z"/><path fill-rule="evenodd" class="e" d="m200.7 247.3c-0.1 0.4 0.2 0.7 0.6 0.8 0.4 0 0.8-0.3 0.8-0.7 0.1-0.4-0.2-0.7-0.6-0.8-0.4 0-0.8 0.3-0.8 0.7z"/><path fill-rule="evenodd" class="f" d="m67.3 128.4c-0.8 0.3-1.2 1.2-0.8 2 0.3 0.8 1.2 1.2 2 0.9 0.8-0.4 1.2-1.3 0.9-2.1-0.4-0.8-1.3-1.2-2.1-0.8z"/><path fill-rule="evenodd" class="e" d="m71.7 101.3c-0.4 0.2-0.6 0.6-0.5 1 0.2 0.4 0.7 0.6 1.1 0.5 0.4-0.2 0.6-0.7 0.4-1.1-0.2-0.4-0.6-0.6-1-0.4z"/><path fill-rule="evenodd" class="f" d="m119 150c-0.4 0.1-0.6 0.6-0.4 1 0.2 0.4 0.6 0.6 1 0.4 0.4-0.1 0.6-0.6 0.5-1-0.2-0.4-0.7-0.6-1.1-0.4z"/><path fill-rule="evenodd" class="e" d="m158.1 79.3c-0.4 0.2-0.6 0.6-0.5 1 0.2 0.4 0.7 0.6 1.1 0.5 0.4-0.2 0.6-0.7 0.4-1.1-0.2-0.4-0.6-0.6-1-0.4z"/><path fill-rule="evenodd" class="e" d="m103.9 47.1c-0.4 0.2-0.6 0.6-0.4 1 0.1 0.4 0.6 0.6 1 0.5 0.4-0.2 0.6-0.7 0.4-1.1-0.2-0.4-0.6-0.6-1-0.4z"/><path fill-rule="evenodd" class="e" d="m106.8 85.1c-0.8 0.4-1.2 1.3-0.9 2.1 0.3 0.8 1.3 1.2 2.1 0.8 0.8-0.3 1.2-1.2 0.8-2-0.3-0.8-1.2-1.2-2-0.9z"/><path fill-rule="evenodd" class="f" d="m171.9 118.5c-0.8 0.3-1.2 1.2-0.9 2 0.3 0.8 1.3 1.2 2.1 0.9 0.8-0.3 1.2-1.3 0.8-2.1-0.3-0.8-1.2-1.2-2-0.8z"/><path fill-rule="evenodd" class="e" d="m143.4 37.6c-0.8 0.3-1.2 1.3-0.8 2.1 0.3 0.8 1.2 1.2 2 0.8 0.8-0.3 1.2-1.2 0.9-2-0.3-0.8-1.3-1.2-2.1-0.9z"/><path fill-rule="evenodd" class="e" d="m57.3 66.3c-0.4 0.2-0.6 0.7-0.5 1.1 0.2 0.4 0.7 0.6 1.1 0.4 0.4-0.2 0.6-0.6 0.4-1-0.2-0.4-0.6-0.6-1-0.5z"/><path fill-rule="evenodd" class="e" d="m94.6 57.7c-0.4 0.2-0.6 0.7-0.4 1.1 0.2 0.4 0.6 0.6 1 0.4 0.4-0.2 0.6-0.6 0.5-1-0.2-0.4-0.7-0.6-1.1-0.5z"/><path fill-rule="evenodd" class="f" d="m149.2 123.9c-0.4 0.2-0.6 0.6-0.4 1 0.1 0.4 0.6 0.6 1 0.5 0.4-0.2 0.6-0.7 0.4-1.1-0.2-0.4-0.6-0.6-1-0.4z"/><path fill-rule="evenodd" class="f" d="m107 120.8c-0.4 0.2-0.6 0.7-0.4 1.1 0.1 0.4 0.6 0.6 1 0.4 0.4-0.2 0.6-0.6 0.4-1-0.1-0.4-0.6-0.6-1-0.5z"/><path fill-rule="evenodd" class="e" d="m21.4 304.7c-0.8-0.6-1.9-0.5-2.5 0.3-0.6 0.8-0.4 1.9 0.4 2.5 0.8 0.5 1.8 0.4 2.4-0.4 0.6-0.8 0.4-1.9-0.3-2.4z"/><path fill-rule="evenodd" class="e" d="m58.7 299.7c-0.4-0.3-0.9-0.2-1.2 0.1-0.3 0.4-0.2 1 0.2 1.3 0.4 0.3 0.9 0.2 1.2-0.2 0.3-0.4 0.2-0.9-0.2-1.2z"/><path fill-rule="evenodd" class="e" d="m39.7 372.5c-0.4-0.3-1-0.2-1.3 0.2-0.2 0.4-0.2 0.9 0.2 1.2 0.4 0.3 1 0.2 1.2-0.2 0.3-0.4 0.3-0.9-0.1-1.2z"/><path fill-rule="evenodd" class="e" d="m129.1 369c-0.4-0.2-0.9-0.2-1.2 0.2-0.3 0.4-0.2 1 0.2 1.3 0.3 0.2 0.9 0.2 1.2-0.2 0.3-0.4 0.2-1-0.2-1.3z"/><path fill-rule="evenodd" class="e" d="m128.6 299.2c-0.4-0.3-0.9-0.2-1.2 0.1-0.3 0.4-0.2 1 0.1 1.3 0.4 0.3 1 0.2 1.3-0.2 0.3-0.4 0.2-0.9-0.2-1.2z"/><path fill-rule="evenodd" class="e" d="m94.2 323.7c-0.8-0.6-1.9-0.4-2.5 0.4-0.5 0.7-0.4 1.8 0.4 2.4 0.8 0.6 1.9 0.4 2.4-0.4 0.6-0.7 0.4-1.8-0.3-2.4z"/><path fill-rule="evenodd" class="f" d="m119.1 396.7c-0.7-0.6-1.8-0.4-2.4 0.3-0.6 0.8-0.4 1.9 0.4 2.5 0.7 0.6 1.8 0.4 2.4-0.4 0.6-0.8 0.4-1.8-0.4-2.4z"/><path fill-rule="evenodd" class="e" d="m134.5 328.5c-0.8-0.5-1.9-0.4-2.5 0.4-0.5 0.8-0.4 1.9 0.4 2.5 0.8 0.5 1.9 0.4 2.4-0.4 0.6-0.8 0.4-1.9-0.3-2.5z"/><path fill-rule="evenodd" class="e" d="m83.6 265.9c-0.4-0.2-0.9-0.2-1.2 0.2-0.3 0.4-0.2 1 0.2 1.2 0.4 0.3 0.9 0.3 1.2-0.1 0.3-0.4 0.2-1-0.2-1.3z"/><path fill-rule="evenodd" class="e" d="m113.2 296.5c-0.4-0.3-0.9-0.2-1.2 0.2-0.3 0.4-0.2 0.9 0.2 1.2 0.3 0.3 0.9 0.2 1.2-0.2 0.3-0.4 0.2-0.9-0.2-1.2z"/><path fill-rule="evenodd" class="f" d="m91.8 359.7c-0.3-0.2-0.9-0.2-1.2 0.2-0.3 0.4-0.2 1 0.2 1.2 0.4 0.3 0.9 0.2 1.2-0.1 0.3-0.4 0.2-1-0.2-1.3z"/><path fill-rule="evenodd" class="e" d="m60.4 344.4c-0.4-0.3-0.9-0.2-1.2 0.2-0.3 0.4-0.2 0.9 0.2 1.2 0.4 0.3 0.9 0.2 1.2-0.2 0.3-0.4 0.2-0.9-0.2-1.2z"/></g></g></g></g></svg>