<svg width="1440" height="865" viewBox="0 0 1440 865" fill="none" xmlns="http://www.w3.org/2000/svg">
<g clip-path="url(#clip0_527_2214)">
<rect width="1440" height="865" fill="#F9FAFC"/>
<g clip-path="url(#clip1_527_2214)">
<g clip-path="url(#clip2_527_2214)">
<rect width="1440" height="957" transform="matrix(1 0 0 -1 0 865)" fill="#02060A"/>
<g clip-path="url(#clip3_527_2214)">
<g filter="url(#filter0_f_527_2214)">
<ellipse cx="1616.5" cy="584.5" rx="1616.5" ry="584.5" transform="matrix(1 0 0 -1 -896 232)" fill="url(#paint0_radial_527_2214)"/>
</g>
<g style="mix-blend-mode:plus-lighter" filter="url(#filter1_f_527_2214)">
<path d="M1651 -8.7756C1651 -174.033 1234.4 -308 720.5 -308C206.599 -308 -210 -174.033 -210 -8.7756C-210 156.481 206.599 357 720.5 357C1234.4 357 1651 156.481 1651 -8.7756Z" fill="url(#paint1_radial_527_2214)"/>
</g>
</g>
</g>
<mask id="path-3-outside-1_527_2214" maskUnits="userSpaceOnUse" x="-7" y="607" width="1457" height="277" fill="black">
<rect fill="white" x="-7" y="607" width="1457" height="277"/>
<path d="M-6.31777 821V611.311H31.6679V700.081H128.833V611.311H166.921V821H128.833V731.923H31.6679V821H-6.31777ZM249.247 824.072C233.889 824.072 220.579 820.693 209.316 813.935C198.053 807.178 189.316 797.724 183.105 785.574C176.962 773.424 173.89 759.226 173.89 742.981C173.89 726.735 176.962 712.504 183.105 700.285C189.316 688.067 198.053 678.579 209.316 671.822C220.579 665.064 233.889 661.685 249.247 661.685C264.605 661.685 277.915 665.064 289.178 671.822C300.441 678.579 309.144 688.067 315.287 700.285C321.498 712.504 324.604 726.735 324.604 742.981C324.604 759.226 321.498 773.424 315.287 785.574C309.144 797.724 300.441 807.178 289.178 813.935C277.915 820.693 264.605 824.072 249.247 824.072ZM249.452 794.379C257.779 794.379 264.742 792.093 270.339 787.519C275.936 782.878 280.1 776.666 282.83 768.885C285.629 761.103 287.028 752.435 287.028 742.879C287.028 733.254 285.629 724.551 282.83 716.77C280.1 708.92 275.936 702.674 270.339 698.033C264.742 693.391 257.779 691.071 249.452 691.071C240.919 691.071 233.821 693.391 228.155 698.033C222.558 702.674 218.36 708.92 215.562 716.77C212.831 724.551 211.466 733.254 211.466 742.879C211.466 752.435 212.831 761.103 215.562 768.885C218.36 776.666 222.558 782.878 228.155 787.519C233.821 792.093 240.919 794.379 249.452 794.379ZM454.412 705.302L420.624 708.988C419.668 705.575 417.996 702.367 415.607 699.364C413.286 696.361 410.146 693.937 406.187 692.094C402.228 690.251 397.382 689.33 391.648 689.33C383.935 689.33 377.45 691.002 372.195 694.347C367.007 697.692 364.447 702.026 364.516 707.35C364.447 711.923 366.12 715.644 369.533 718.51C373.014 721.377 378.747 723.732 386.734 725.575L413.559 731.309C428.439 734.517 439.497 739.602 446.733 746.564C454.036 753.527 457.722 762.639 457.79 773.902C457.722 783.799 454.821 792.536 449.087 800.113C443.422 807.621 435.538 813.492 425.436 817.724C415.334 821.956 403.73 824.072 390.624 824.072C371.375 824.072 355.881 820.044 344.14 811.99C332.4 803.867 325.404 792.57 323.151 778.1L359.294 774.619C360.932 781.717 364.413 787.076 369.737 790.693C375.061 794.311 381.99 796.12 390.522 796.12C399.327 796.12 406.392 794.311 411.716 790.693C417.108 787.076 419.805 782.605 419.805 777.281C419.805 772.776 418.064 769.056 414.583 766.12C411.17 763.185 405.846 760.933 398.61 759.363L371.785 753.732C356.7 750.592 345.54 745.302 338.304 737.862C331.069 730.353 327.485 720.865 327.554 709.398C327.485 699.705 330.113 691.309 335.438 684.211C340.83 677.044 348.304 671.515 357.86 667.624C367.485 663.665 378.577 661.685 391.136 661.685C409.566 661.685 424.071 665.61 434.651 673.46C445.299 681.31 451.886 691.924 454.412 705.302ZM540.935 663.733V692.402H450.527V663.733H540.935ZM472.847 626.055H509.912V773.697C509.912 778.68 510.662 782.502 512.164 785.164C513.734 787.758 515.782 789.533 518.307 790.489C520.833 791.444 523.631 791.922 526.703 791.922C529.024 791.922 531.14 791.751 533.051 791.41C535.031 791.069 536.532 790.762 537.556 790.489L543.802 819.464C541.822 820.147 538.99 820.898 535.304 821.717C531.686 822.536 527.249 823.014 521.993 823.15C512.71 823.423 504.349 822.024 496.908 818.952C489.468 815.812 483.564 810.966 479.195 804.413C474.895 797.86 472.779 789.669 472.847 779.84V626.055ZM780.559 716.155C780.559 738.749 776.327 758.1 767.863 774.209C759.467 790.25 748 802.536 733.461 811.068C718.99 819.601 702.574 823.867 684.213 823.867C665.851 823.867 649.401 819.601 634.862 811.068C620.391 802.468 608.924 790.147 600.46 774.107C592.064 757.998 587.866 738.681 587.866 716.155C587.866 693.562 592.064 674.245 600.46 658.204C608.924 642.095 620.391 629.775 634.862 621.242C649.401 612.71 665.851 608.444 684.213 608.444C702.574 608.444 718.99 612.71 733.461 621.242C748 629.775 759.467 642.095 767.863 658.204C776.327 674.245 780.559 693.562 780.559 716.155ZM742.369 716.155C742.369 700.251 739.877 686.839 734.894 675.917C729.98 664.928 723.154 656.634 714.417 651.037C705.68 645.372 695.612 642.539 684.213 642.539C672.813 642.539 662.745 645.372 654.008 651.037C645.271 656.634 638.411 664.928 633.428 675.917C628.514 686.839 626.057 700.251 626.057 716.155C626.057 732.06 628.514 745.506 633.428 756.496C638.411 767.417 645.271 775.711 654.008 781.376C662.745 786.973 672.813 789.772 684.213 789.772C695.612 789.772 705.68 786.973 714.417 781.376C723.154 775.711 729.98 767.417 734.894 756.496C739.877 745.506 742.369 732.06 742.369 716.155ZM788.884 821V663.733H824.31V690.456H826.153C829.429 681.446 834.856 674.416 842.433 669.364C850.009 664.245 859.054 661.685 869.565 661.685C880.214 661.685 889.189 664.279 896.493 669.467C903.865 674.586 909.053 681.583 912.056 690.456H913.694C917.175 681.719 923.046 674.757 931.305 669.569C939.632 664.313 949.496 661.685 960.895 661.685C975.365 661.685 987.174 666.259 996.321 675.405C1005.47 684.552 1010.04 697.896 1010.04 715.439V821H972.874V721.172C972.874 711.412 970.28 704.279 965.093 699.773C959.905 695.2 953.557 692.914 946.049 692.914C937.107 692.914 930.11 695.712 925.059 701.309C920.076 706.838 917.585 714.039 917.585 722.913V821H881.237V719.637C881.237 711.514 878.78 705.029 873.866 700.183C869.019 695.337 862.671 692.914 854.822 692.914C849.497 692.914 844.651 694.279 840.283 697.009C835.914 699.671 832.433 703.459 829.839 708.374C827.245 713.22 825.948 718.886 825.948 725.37V821H788.884ZM1091.32 824.072C1075.55 824.072 1061.93 820.795 1050.46 814.242C1039.06 807.621 1030.29 798.27 1024.15 786.188C1018.01 774.038 1014.94 759.738 1014.94 743.288C1014.94 727.111 1018.01 712.913 1024.15 700.695C1030.36 688.408 1039.03 678.852 1050.16 672.027C1061.28 665.132 1074.35 661.685 1089.37 661.685C1099.06 661.685 1108.21 663.255 1116.81 666.395C1125.48 669.467 1133.12 674.245 1139.75 680.729C1146.44 687.214 1151.69 695.473 1155.51 705.507C1159.34 715.473 1161.25 727.35 1161.25 741.138V752.503H1032.34V727.52H1125.72C1125.65 720.422 1124.11 714.108 1121.11 708.579C1118.11 702.982 1113.91 698.579 1108.52 695.371C1103.19 692.163 1096.98 690.559 1089.88 690.559C1082.31 690.559 1075.65 692.402 1069.92 696.088C1064.18 699.705 1059.71 704.483 1056.5 710.422C1053.36 716.292 1051.76 722.742 1051.69 729.773V751.581C1051.69 760.728 1053.36 768.578 1056.71 775.131C1060.05 781.615 1064.73 786.598 1070.74 790.079C1076.74 793.492 1083.77 795.198 1091.83 795.198C1097.22 795.198 1102.1 794.448 1106.47 792.946C1110.84 791.376 1114.63 789.089 1117.83 786.086C1121.04 783.083 1123.47 779.363 1125.1 774.926L1159.71 778.816C1157.53 787.963 1153.36 795.949 1147.22 802.775C1141.15 809.533 1133.36 814.789 1123.88 818.543C1114.39 822.229 1103.53 824.072 1091.32 824.072ZM1235.05 883.251C1221.74 883.251 1210.31 881.443 1200.75 877.825C1191.19 874.276 1183.51 869.497 1177.71 863.491C1171.91 857.484 1167.88 850.829 1165.63 843.525L1199.01 835.437C1200.51 838.508 1202.69 841.546 1205.56 844.549C1208.43 847.621 1212.28 850.146 1217.13 852.126C1222.05 854.173 1228.22 855.197 1235.66 855.197C1246.17 855.197 1254.88 852.638 1261.77 847.518C1268.67 842.467 1272.11 834.14 1272.11 822.536V792.741H1270.27C1268.36 796.564 1265.56 800.488 1261.87 804.516C1258.26 808.543 1253.44 811.922 1247.44 814.652C1241.5 817.382 1234.02 818.747 1225.01 818.747C1212.93 818.747 1201.98 815.915 1192.15 810.249C1182.39 804.516 1174.61 795.983 1168.8 784.653C1163.07 773.253 1160.2 758.987 1160.2 741.855C1160.2 724.585 1163.07 710.012 1168.8 698.135C1174.61 686.19 1182.42 677.146 1192.25 671.003C1202.08 664.791 1213.04 661.685 1225.12 661.685C1234.33 661.685 1241.91 663.255 1247.85 666.395C1253.85 669.467 1258.63 673.187 1262.18 677.555C1265.73 681.856 1268.43 685.917 1270.27 689.74H1272.32V663.733H1308.87V823.56C1308.87 837.007 1305.66 848.133 1299.25 856.938C1292.83 865.743 1284.06 872.33 1272.93 876.699C1261.81 881.067 1249.18 883.251 1235.05 883.251ZM1235.36 789.669C1243.21 789.669 1249.89 787.758 1255.42 783.936C1260.95 780.113 1265.15 774.619 1268.02 767.451C1270.88 760.284 1272.32 751.684 1272.32 741.65C1272.32 731.752 1270.88 723.084 1268.02 715.644C1265.22 708.203 1261.06 702.436 1255.53 698.34C1250.07 694.176 1243.34 692.094 1235.36 692.094C1227.1 692.094 1220.2 694.245 1214.67 698.545C1209.14 702.845 1204.98 708.749 1202.18 716.258C1199.38 723.698 1197.98 732.162 1197.98 741.65C1197.98 751.274 1199.38 759.704 1202.18 766.94C1205.05 774.107 1209.25 779.704 1214.78 783.731C1220.37 787.69 1227.23 789.669 1235.36 789.669ZM1366.16 824.174C1356.2 824.174 1347.22 822.399 1339.23 818.85C1331.32 815.232 1325.04 809.908 1320.39 802.877C1315.82 795.847 1313.53 787.178 1313.53 776.871C1313.53 767.998 1315.17 760.66 1318.45 754.858C1321.73 749.056 1326.2 744.414 1331.86 740.933C1337.53 737.452 1343.91 734.824 1351.01 733.049C1358.18 731.206 1365.58 729.875 1373.23 729.056C1382.44 728.101 1389.92 727.247 1395.65 726.497C1401.38 725.677 1405.55 724.449 1408.14 722.811C1410.8 721.104 1412.13 718.476 1412.13 714.927V714.312C1412.13 706.599 1409.85 700.627 1405.27 696.395C1400.7 692.163 1394.11 690.047 1385.51 690.047C1376.43 690.047 1369.23 692.026 1363.91 695.985C1358.65 699.944 1355.1 704.62 1353.26 710.012L1318.65 705.098C1321.38 695.541 1325.89 687.555 1332.17 681.139C1338.45 674.654 1346.13 669.808 1355.21 666.6C1364.28 663.324 1374.32 661.685 1385.31 661.685C1392.88 661.685 1400.43 662.573 1407.94 664.347C1415.44 666.122 1422.3 669.057 1428.52 673.153C1434.73 677.18 1439.71 682.675 1443.46 689.637C1447.29 696.599 1449.2 705.302 1449.2 715.746V821H1413.57V799.396H1412.34C1410.09 803.765 1406.91 807.86 1402.82 811.683C1398.79 815.437 1393.7 818.474 1387.56 820.795C1381.49 823.048 1374.35 824.174 1366.16 824.174ZM1375.79 796.939C1383.23 796.939 1389.68 795.471 1395.14 792.536C1400.6 789.533 1404.8 785.574 1407.73 780.659C1410.73 775.745 1412.24 770.387 1412.24 764.585V746.053C1411.08 747.008 1409.1 747.895 1406.3 748.715C1403.57 749.534 1400.5 750.25 1397.08 750.865C1393.67 751.479 1390.29 752.025 1386.95 752.503C1383.6 752.981 1380.7 753.39 1378.24 753.732C1372.71 754.482 1367.77 755.711 1363.4 757.418C1359.03 759.124 1355.58 761.513 1353.06 764.585C1350.53 767.588 1349.27 771.479 1349.27 776.257C1349.27 783.083 1351.76 788.236 1356.74 791.717C1361.73 795.198 1368.07 796.939 1375.79 796.939Z"/>
</mask>
<path d="M-6.31777 821V611.311H31.6679V700.081H128.833V611.311H166.921V821H128.833V731.923H31.6679V821H-6.31777ZM249.247 824.072C233.889 824.072 220.579 820.693 209.316 813.935C198.053 807.178 189.316 797.724 183.105 785.574C176.962 773.424 173.89 759.226 173.89 742.981C173.89 726.735 176.962 712.504 183.105 700.285C189.316 688.067 198.053 678.579 209.316 671.822C220.579 665.064 233.889 661.685 249.247 661.685C264.605 661.685 277.915 665.064 289.178 671.822C300.441 678.579 309.144 688.067 315.287 700.285C321.498 712.504 324.604 726.735 324.604 742.981C324.604 759.226 321.498 773.424 315.287 785.574C309.144 797.724 300.441 807.178 289.178 813.935C277.915 820.693 264.605 824.072 249.247 824.072ZM249.452 794.379C257.779 794.379 264.742 792.093 270.339 787.519C275.936 782.878 280.1 776.666 282.83 768.885C285.629 761.103 287.028 752.435 287.028 742.879C287.028 733.254 285.629 724.551 282.83 716.77C280.1 708.92 275.936 702.674 270.339 698.033C264.742 693.391 257.779 691.071 249.452 691.071C240.919 691.071 233.821 693.391 228.155 698.033C222.558 702.674 218.36 708.92 215.562 716.77C212.831 724.551 211.466 733.254 211.466 742.879C211.466 752.435 212.831 761.103 215.562 768.885C218.36 776.666 222.558 782.878 228.155 787.519C233.821 792.093 240.919 794.379 249.452 794.379ZM454.412 705.302L420.624 708.988C419.668 705.575 417.996 702.367 415.607 699.364C413.286 696.361 410.146 693.937 406.187 692.094C402.228 690.251 397.382 689.33 391.648 689.33C383.935 689.33 377.45 691.002 372.195 694.347C367.007 697.692 364.447 702.026 364.516 707.35C364.447 711.923 366.12 715.644 369.533 718.51C373.014 721.377 378.747 723.732 386.734 725.575L413.559 731.309C428.439 734.517 439.497 739.602 446.733 746.564C454.036 753.527 457.722 762.639 457.79 773.902C457.722 783.799 454.821 792.536 449.087 800.113C443.422 807.621 435.538 813.492 425.436 817.724C415.334 821.956 403.73 824.072 390.624 824.072C371.375 824.072 355.881 820.044 344.14 811.99C332.4 803.867 325.404 792.57 323.151 778.1L359.294 774.619C360.932 781.717 364.413 787.076 369.737 790.693C375.061 794.311 381.99 796.12 390.522 796.12C399.327 796.12 406.392 794.311 411.716 790.693C417.108 787.076 419.805 782.605 419.805 777.281C419.805 772.776 418.064 769.056 414.583 766.12C411.17 763.185 405.846 760.933 398.61 759.363L371.785 753.732C356.7 750.592 345.54 745.302 338.304 737.862C331.069 730.353 327.485 720.865 327.554 709.398C327.485 699.705 330.113 691.309 335.438 684.211C340.83 677.044 348.304 671.515 357.86 667.624C367.485 663.665 378.577 661.685 391.136 661.685C409.566 661.685 424.071 665.61 434.651 673.46C445.299 681.31 451.886 691.924 454.412 705.302ZM540.935 663.733V692.402H450.527V663.733H540.935ZM472.847 626.055H509.912V773.697C509.912 778.68 510.662 782.502 512.164 785.164C513.734 787.758 515.782 789.533 518.307 790.489C520.833 791.444 523.631 791.922 526.703 791.922C529.024 791.922 531.14 791.751 533.051 791.41C535.031 791.069 536.532 790.762 537.556 790.489L543.802 819.464C541.822 820.147 538.99 820.898 535.304 821.717C531.686 822.536 527.249 823.014 521.993 823.15C512.71 823.423 504.349 822.024 496.908 818.952C489.468 815.812 483.564 810.966 479.195 804.413C474.895 797.86 472.779 789.669 472.847 779.84V626.055ZM780.559 716.155C780.559 738.749 776.327 758.1 767.863 774.209C759.467 790.25 748 802.536 733.461 811.068C718.99 819.601 702.574 823.867 684.213 823.867C665.851 823.867 649.401 819.601 634.862 811.068C620.391 802.468 608.924 790.147 600.46 774.107C592.064 757.998 587.866 738.681 587.866 716.155C587.866 693.562 592.064 674.245 600.46 658.204C608.924 642.095 620.391 629.775 634.862 621.242C649.401 612.71 665.851 608.444 684.213 608.444C702.574 608.444 718.99 612.71 733.461 621.242C748 629.775 759.467 642.095 767.863 658.204C776.327 674.245 780.559 693.562 780.559 716.155ZM742.369 716.155C742.369 700.251 739.877 686.839 734.894 675.917C729.98 664.928 723.154 656.634 714.417 651.037C705.68 645.372 695.612 642.539 684.213 642.539C672.813 642.539 662.745 645.372 654.008 651.037C645.271 656.634 638.411 664.928 633.428 675.917C628.514 686.839 626.057 700.251 626.057 716.155C626.057 732.06 628.514 745.506 633.428 756.496C638.411 767.417 645.271 775.711 654.008 781.376C662.745 786.973 672.813 789.772 684.213 789.772C695.612 789.772 705.68 786.973 714.417 781.376C723.154 775.711 729.98 767.417 734.894 756.496C739.877 745.506 742.369 732.06 742.369 716.155ZM788.884 821V663.733H824.31V690.456H826.153C829.429 681.446 834.856 674.416 842.433 669.364C850.009 664.245 859.054 661.685 869.565 661.685C880.214 661.685 889.189 664.279 896.493 669.467C903.865 674.586 909.053 681.583 912.056 690.456H913.694C917.175 681.719 923.046 674.757 931.305 669.569C939.632 664.313 949.496 661.685 960.895 661.685C975.365 661.685 987.174 666.259 996.321 675.405C1005.47 684.552 1010.04 697.896 1010.04 715.439V821H972.874V721.172C972.874 711.412 970.28 704.279 965.093 699.773C959.905 695.2 953.557 692.914 946.049 692.914C937.107 692.914 930.11 695.712 925.059 701.309C920.076 706.838 917.585 714.039 917.585 722.913V821H881.237V719.637C881.237 711.514 878.78 705.029 873.866 700.183C869.019 695.337 862.671 692.914 854.822 692.914C849.497 692.914 844.651 694.279 840.283 697.009C835.914 699.671 832.433 703.459 829.839 708.374C827.245 713.22 825.948 718.886 825.948 725.37V821H788.884ZM1091.32 824.072C1075.55 824.072 1061.93 820.795 1050.46 814.242C1039.06 807.621 1030.29 798.27 1024.15 786.188C1018.01 774.038 1014.94 759.738 1014.94 743.288C1014.94 727.111 1018.01 712.913 1024.15 700.695C1030.36 688.408 1039.03 678.852 1050.16 672.027C1061.28 665.132 1074.35 661.685 1089.37 661.685C1099.06 661.685 1108.21 663.255 1116.81 666.395C1125.48 669.467 1133.12 674.245 1139.75 680.729C1146.44 687.214 1151.69 695.473 1155.51 705.507C1159.34 715.473 1161.25 727.35 1161.25 741.138V752.503H1032.34V727.52H1125.72C1125.65 720.422 1124.11 714.108 1121.11 708.579C1118.11 702.982 1113.91 698.579 1108.52 695.371C1103.19 692.163 1096.98 690.559 1089.88 690.559C1082.31 690.559 1075.65 692.402 1069.92 696.088C1064.18 699.705 1059.71 704.483 1056.5 710.422C1053.36 716.292 1051.76 722.742 1051.69 729.773V751.581C1051.69 760.728 1053.36 768.578 1056.71 775.131C1060.05 781.615 1064.73 786.598 1070.74 790.079C1076.74 793.492 1083.77 795.198 1091.83 795.198C1097.22 795.198 1102.1 794.448 1106.47 792.946C1110.84 791.376 1114.63 789.089 1117.83 786.086C1121.04 783.083 1123.47 779.363 1125.1 774.926L1159.71 778.816C1157.53 787.963 1153.36 795.949 1147.22 802.775C1141.15 809.533 1133.36 814.789 1123.88 818.543C1114.39 822.229 1103.53 824.072 1091.32 824.072ZM1235.05 883.251C1221.74 883.251 1210.31 881.443 1200.75 877.825C1191.19 874.276 1183.51 869.497 1177.71 863.491C1171.91 857.484 1167.88 850.829 1165.63 843.525L1199.01 835.437C1200.51 838.508 1202.69 841.546 1205.56 844.549C1208.43 847.621 1212.28 850.146 1217.13 852.126C1222.05 854.173 1228.22 855.197 1235.66 855.197C1246.17 855.197 1254.88 852.638 1261.77 847.518C1268.67 842.467 1272.11 834.14 1272.11 822.536V792.741H1270.27C1268.36 796.564 1265.56 800.488 1261.87 804.516C1258.26 808.543 1253.44 811.922 1247.44 814.652C1241.5 817.382 1234.02 818.747 1225.01 818.747C1212.93 818.747 1201.98 815.915 1192.15 810.249C1182.39 804.516 1174.61 795.983 1168.8 784.653C1163.07 773.253 1160.2 758.987 1160.2 741.855C1160.2 724.585 1163.07 710.012 1168.8 698.135C1174.61 686.19 1182.42 677.146 1192.25 671.003C1202.08 664.791 1213.04 661.685 1225.12 661.685C1234.33 661.685 1241.91 663.255 1247.85 666.395C1253.85 669.467 1258.63 673.187 1262.18 677.555C1265.73 681.856 1268.43 685.917 1270.27 689.74H1272.32V663.733H1308.87V823.56C1308.87 837.007 1305.66 848.133 1299.25 856.938C1292.83 865.743 1284.06 872.33 1272.93 876.699C1261.81 881.067 1249.18 883.251 1235.05 883.251ZM1235.36 789.669C1243.21 789.669 1249.89 787.758 1255.42 783.936C1260.95 780.113 1265.15 774.619 1268.02 767.451C1270.88 760.284 1272.32 751.684 1272.32 741.65C1272.32 731.752 1270.88 723.084 1268.02 715.644C1265.22 708.203 1261.06 702.436 1255.53 698.34C1250.07 694.176 1243.34 692.094 1235.36 692.094C1227.1 692.094 1220.2 694.245 1214.67 698.545C1209.14 702.845 1204.98 708.749 1202.18 716.258C1199.38 723.698 1197.98 732.162 1197.98 741.65C1197.98 751.274 1199.38 759.704 1202.18 766.94C1205.05 774.107 1209.25 779.704 1214.78 783.731C1220.37 787.69 1227.23 789.669 1235.36 789.669ZM1366.16 824.174C1356.2 824.174 1347.22 822.399 1339.23 818.85C1331.32 815.232 1325.04 809.908 1320.39 802.877C1315.82 795.847 1313.53 787.178 1313.53 776.871C1313.53 767.998 1315.17 760.66 1318.45 754.858C1321.73 749.056 1326.2 744.414 1331.86 740.933C1337.53 737.452 1343.91 734.824 1351.01 733.049C1358.18 731.206 1365.58 729.875 1373.23 729.056C1382.44 728.101 1389.92 727.247 1395.65 726.497C1401.38 725.677 1405.55 724.449 1408.14 722.811C1410.8 721.104 1412.13 718.476 1412.13 714.927V714.312C1412.13 706.599 1409.85 700.627 1405.27 696.395C1400.7 692.163 1394.11 690.047 1385.51 690.047C1376.43 690.047 1369.23 692.026 1363.91 695.985C1358.65 699.944 1355.1 704.62 1353.26 710.012L1318.65 705.098C1321.38 695.541 1325.89 687.555 1332.17 681.139C1338.45 674.654 1346.13 669.808 1355.21 666.6C1364.28 663.324 1374.32 661.685 1385.31 661.685C1392.88 661.685 1400.43 662.573 1407.94 664.347C1415.44 666.122 1422.3 669.057 1428.52 673.153C1434.73 677.18 1439.71 682.675 1443.46 689.637C1447.29 696.599 1449.2 705.302 1449.2 715.746V821H1413.57V799.396H1412.34C1410.09 803.765 1406.91 807.86 1402.82 811.683C1398.79 815.437 1393.7 818.474 1387.56 820.795C1381.49 823.048 1374.35 824.174 1366.16 824.174ZM1375.79 796.939C1383.23 796.939 1389.68 795.471 1395.14 792.536C1400.6 789.533 1404.8 785.574 1407.73 780.659C1410.73 775.745 1412.24 770.387 1412.24 764.585V746.053C1411.08 747.008 1409.1 747.895 1406.3 748.715C1403.57 749.534 1400.5 750.25 1397.08 750.865C1393.67 751.479 1390.29 752.025 1386.95 752.503C1383.6 752.981 1380.7 753.39 1378.24 753.732C1372.71 754.482 1367.77 755.711 1363.4 757.418C1359.03 759.124 1355.58 761.513 1353.06 764.585C1350.53 767.588 1349.27 771.479 1349.27 776.257C1349.27 783.083 1351.76 788.236 1356.74 791.717C1361.73 795.198 1368.07 796.939 1375.79 796.939Z" fill="url(#paint2_linear_527_2214)" fill-opacity="0.5"/>
<path d="M-6.31777 821H-6.95006V821.632H-6.31777V821ZM-6.31777 611.311V610.679H-6.95006V611.311H-6.31777ZM31.6679 611.311H32.3002V610.679H31.6679V611.311ZM31.6679 700.081H31.0356V700.713H31.6679V700.081ZM128.833 700.081V700.713H129.466V700.081H128.833ZM128.833 611.311V610.679H128.201V611.311H128.833ZM166.921 611.311H167.554V610.679H166.921V611.311ZM166.921 821V821.632H167.554V821H166.921ZM128.833 821H128.201V821.632H128.833V821ZM128.833 731.923H129.466V731.291H128.833V731.923ZM31.6679 731.923V731.291H31.0356V731.923H31.6679ZM31.6679 821V821.632H32.3002V821H31.6679ZM-6.31777 821H-5.68549V611.311H-6.31777H-6.95006V821H-6.31777ZM-6.31777 611.311V611.943H31.6679V611.311V610.679H-6.31777V611.311ZM31.6679 611.311H31.0356V700.081H31.6679H32.3002V611.311H31.6679ZM31.6679 700.081V700.713H128.833V700.081V699.448H31.6679V700.081ZM128.833 700.081H129.466V611.311H128.833H128.201V700.081H128.833ZM128.833 611.311V611.943H166.921V611.311V610.679H128.833V611.311ZM166.921 611.311H166.289V821H166.921H167.554V611.311H166.921ZM166.921 821V820.368H128.833V821V821.632H166.921V821ZM128.833 821H129.466V731.923H128.833H128.201V821H128.833ZM128.833 731.923V731.291H31.6679V731.923V732.555H128.833V731.923ZM31.6679 731.923H31.0356V821H31.6679H32.3002V731.923H31.6679ZM31.6679 821V820.368H-6.31777V821V821.632H31.6679V821ZM209.316 813.935L208.991 814.477L208.991 814.477L209.316 813.935ZM183.105 785.574L182.541 785.859L182.542 785.862L183.105 785.574ZM183.105 700.285L182.541 699.999L182.54 700.001L183.105 700.285ZM209.316 671.822L209.641 672.364L209.641 672.364L209.316 671.822ZM289.178 671.822L288.853 672.364L288.853 672.364L289.178 671.822ZM315.287 700.285L314.722 700.569L314.723 700.572L315.287 700.285ZM315.287 785.574L314.724 785.286L314.722 785.289L315.287 785.574ZM289.178 813.935L288.853 813.393L288.853 813.393L289.178 813.935ZM270.339 787.519L270.739 788.009L270.742 788.006L270.339 787.519ZM282.83 768.885L282.235 768.671L282.233 768.676L282.83 768.885ZM282.83 716.77L282.233 716.978L282.235 716.984L282.83 716.77ZM270.339 698.033L270.742 697.546L270.742 697.546L270.339 698.033ZM228.155 698.033L227.754 697.544L227.752 697.546L228.155 698.033ZM215.562 716.77L214.966 716.557L214.965 716.56L215.562 716.77ZM215.562 768.885L214.965 769.094L214.967 769.099L215.562 768.885ZM228.155 787.519L227.752 788.006L227.758 788.011L228.155 787.519ZM249.247 824.072V823.439C233.984 823.439 220.79 820.082 209.641 813.393L209.316 813.935L208.991 814.477C220.367 821.303 233.794 824.704 249.247 824.704V824.072ZM209.316 813.935L209.641 813.393C198.484 806.699 189.828 797.335 183.668 785.286L183.105 785.574L182.542 785.862C188.805 798.113 197.622 807.657 208.991 814.477L209.316 813.935ZM183.105 785.574L183.669 785.289C177.578 773.243 174.522 759.146 174.522 742.981H173.89H173.258C173.258 759.306 176.345 773.605 182.541 785.859L183.105 785.574ZM173.89 742.981H174.522C174.522 726.816 177.578 712.684 183.67 700.569L183.105 700.285L182.54 700.001C176.345 712.323 173.258 726.655 173.258 742.981H173.89ZM183.105 700.285L183.668 700.572C189.829 688.455 198.485 679.058 209.641 672.364L209.316 671.822L208.991 671.28C197.622 678.101 188.804 687.68 182.541 699.999L183.105 700.285ZM209.316 671.822L209.641 672.364C220.79 665.675 233.984 662.318 249.247 662.318V661.685V661.053C233.794 661.053 220.367 664.454 208.991 671.28L209.316 671.822ZM249.247 661.685V662.318C264.51 662.318 277.704 665.675 288.853 672.364L289.178 671.822L289.503 671.28C278.127 664.454 264.7 661.053 249.247 661.053V661.685ZM289.178 671.822L288.853 672.364C300.008 679.057 308.63 688.454 314.722 700.569L315.287 700.285L315.852 700.001C309.657 687.681 300.873 678.101 289.503 671.28L289.178 671.822ZM315.287 700.285L314.723 700.572C320.882 712.686 323.972 726.817 323.972 742.981H324.604H325.236C325.236 726.654 322.115 712.321 315.85 699.999L315.287 700.285ZM324.604 742.981H323.972C323.972 759.145 320.882 773.241 314.724 785.286L315.287 785.574L315.85 785.862C322.115 773.607 325.236 759.307 325.236 742.981H324.604ZM315.287 785.574L314.722 785.289C308.631 797.336 300.009 806.699 288.853 813.393L289.178 813.935L289.503 814.477C300.872 807.656 309.656 798.112 315.851 785.859L315.287 785.574ZM289.178 813.935L288.853 813.393C277.704 820.082 264.51 823.439 249.247 823.439V824.072V824.704C264.7 824.704 278.127 821.303 289.503 814.477L289.178 813.935ZM249.452 794.379V795.012C257.902 795.012 265.012 792.688 270.739 788.009L270.339 787.519L269.939 787.03C264.471 791.497 257.657 793.747 249.452 793.747V794.379ZM270.339 787.519L270.742 788.006C276.439 783.282 280.664 776.969 283.427 769.094L282.83 768.885L282.233 768.676C279.536 776.364 275.433 782.474 269.935 787.033L270.339 787.519ZM282.83 768.885L283.425 769.099C286.252 761.239 287.66 752.496 287.66 742.879H287.028H286.396C286.396 752.373 285.005 760.968 282.235 768.671L282.83 768.885ZM287.028 742.879H287.66C287.66 733.193 286.252 724.416 283.425 716.556L282.83 716.77L282.235 716.984C285.005 724.686 286.396 733.315 286.396 742.879H287.028ZM282.83 716.77L283.427 716.562C280.664 708.619 276.44 702.271 270.742 697.546L270.339 698.033L269.935 698.52C275.431 703.078 279.535 709.221 282.233 716.977L282.83 716.77ZM270.339 698.033L270.742 697.546C265.015 692.797 257.904 690.438 249.452 690.438V691.071V691.703C257.654 691.703 264.468 693.986 269.935 698.52L270.339 698.033ZM249.452 691.071V690.438C240.799 690.438 233.551 692.795 227.754 697.544L228.155 698.033L228.556 698.522C234.09 693.988 241.04 691.703 249.452 691.703V691.071ZM228.155 698.033L227.752 697.546C222.055 702.27 217.797 708.617 214.966 716.557L215.562 716.77L216.157 716.982C218.923 709.224 223.061 703.079 228.559 698.52L228.155 698.033ZM215.562 716.77L214.965 716.56C212.207 724.419 210.834 733.194 210.834 742.879H211.466H212.098C212.098 733.314 213.455 724.683 216.158 716.979L215.562 716.77ZM211.466 742.879H210.834C210.834 752.495 212.208 761.236 214.965 769.094L215.562 768.885L216.158 768.676C213.455 760.971 212.098 752.374 212.098 742.879H211.466ZM215.562 768.885L214.967 769.099C217.798 776.972 222.056 783.283 227.752 788.006L228.155 787.519L228.559 787.033C223.06 782.473 218.922 776.361 216.157 768.671L215.562 768.885ZM228.155 787.519L227.758 788.011C233.555 792.691 240.801 795.012 249.452 795.012V794.379V793.747C241.038 793.747 234.087 791.495 228.552 787.027L228.155 787.519ZM454.412 705.302L454.48 705.931L455.16 705.857L455.033 705.185L454.412 705.302ZM420.624 708.988L420.015 709.159L420.159 709.675L420.692 709.617L420.624 708.988ZM415.607 699.364L415.106 699.751L415.112 699.758L415.607 699.364ZM406.187 692.094L406.454 691.521L406.454 691.521L406.187 692.094ZM372.195 694.347L371.855 693.814L371.852 693.816L372.195 694.347ZM364.516 707.35L365.148 707.36L365.148 707.351L365.148 707.342L364.516 707.35ZM369.533 718.51L369.126 718.995L369.131 718.998L369.533 718.51ZM386.734 725.575L386.591 726.191L386.601 726.193L386.734 725.575ZM413.559 731.309L413.692 730.691L413.691 730.69L413.559 731.309ZM446.733 746.564L446.294 747.02L446.296 747.022L446.733 746.564ZM457.79 773.902L458.423 773.906L458.423 773.898L457.79 773.902ZM449.087 800.113L448.583 799.731L448.583 799.732L449.087 800.113ZM425.436 817.724L425.68 818.307L425.68 818.307L425.436 817.724ZM344.14 811.99L343.781 812.51L343.783 812.511L344.14 811.99ZM323.151 778.1L323.09 777.47L322.423 777.535L322.526 778.197L323.151 778.1ZM359.294 774.619L359.91 774.476L359.785 773.936L359.233 773.989L359.294 774.619ZM369.737 790.693L370.093 790.17L370.093 790.17L369.737 790.693ZM411.716 790.693L411.364 790.168L411.361 790.17L411.716 790.693ZM414.583 766.12L414.171 766.6L414.175 766.604L414.583 766.12ZM398.61 759.363L398.745 758.745L398.74 758.744L398.61 759.363ZM371.785 753.732L371.915 753.113L371.914 753.113L371.785 753.732ZM338.304 737.862L337.849 738.3L337.851 738.302L338.304 737.862ZM327.554 709.398L328.186 709.402L328.186 709.393L327.554 709.398ZM335.438 684.211L334.932 683.83L334.932 683.831L335.438 684.211ZM357.86 667.624L358.099 668.209L358.101 668.209L357.86 667.624ZM434.651 673.46L434.274 673.968L434.276 673.969L434.651 673.46ZM454.412 705.302L454.343 704.674L420.555 708.36L420.624 708.988L420.692 709.617L454.48 705.931L454.412 705.302ZM420.624 708.988L421.233 708.818C420.252 705.317 418.539 702.034 416.102 698.97L415.607 699.364L415.112 699.758C417.453 702.7 419.084 705.834 420.015 709.159L420.624 708.988ZM415.607 699.364L416.107 698.977C413.716 695.883 410.491 693.4 406.454 691.521L406.187 692.094L405.92 692.668C409.802 694.474 412.856 696.838 415.106 699.751L415.607 699.364ZM406.187 692.094L406.454 691.521C402.39 689.629 397.446 688.698 391.648 688.698V689.33V689.962C397.317 689.962 402.067 690.874 405.92 692.668L406.187 692.094ZM391.648 689.33V688.698C383.843 688.698 377.234 690.39 371.855 693.814L372.195 694.347L372.534 694.88C377.667 691.614 384.027 689.962 391.648 689.962V689.33ZM372.195 694.347L371.852 693.816C366.516 697.256 363.812 701.779 363.883 707.358L364.516 707.35L365.148 707.342C365.083 702.273 367.498 698.127 372.537 694.878L372.195 694.347ZM364.516 707.35L363.883 707.341C363.812 712.098 365.563 716.002 369.126 718.995L369.533 718.51L369.939 718.026C366.676 715.285 365.082 711.749 365.148 707.36L364.516 707.35ZM369.533 718.51L369.131 718.998C372.726 721.96 378.576 724.341 386.591 726.191L386.734 725.575L386.876 724.959C378.919 723.123 373.301 720.795 369.934 718.022L369.533 718.51ZM386.734 725.575L386.601 726.193L413.427 731.927L413.559 731.309L413.691 730.69L386.866 724.957L386.734 725.575ZM413.559 731.309L413.426 731.927C428.246 735.122 439.176 740.171 446.294 747.02L446.733 746.564L447.171 746.109C439.818 739.033 428.632 733.912 413.692 730.691L413.559 731.309ZM446.733 746.564L446.296 747.022C453.461 753.852 457.091 762.793 457.158 773.906L457.79 773.902L458.423 773.898C458.353 762.486 454.612 753.202 447.169 746.107L446.733 746.564ZM457.79 773.902L457.158 773.897C457.091 783.665 454.231 792.268 448.583 799.731L449.087 800.113L449.592 800.495C455.411 792.804 458.353 783.934 458.423 773.906L457.79 773.902ZM449.087 800.113L448.583 799.732C442.995 807.138 435.208 812.944 425.192 817.14L425.436 817.724L425.68 818.307C435.868 814.039 443.849 808.105 449.592 800.494L449.087 800.113ZM425.436 817.724L425.192 817.14C415.18 821.334 403.662 823.439 390.624 823.439V824.072V824.704C403.798 824.704 415.487 822.577 425.68 818.307L425.436 817.724ZM390.624 824.072V823.439C371.459 823.439 356.102 819.429 344.498 811.469L344.14 811.99L343.783 812.511C355.66 820.659 371.292 824.704 390.624 824.704V824.072ZM344.14 811.99L344.5 811.47C332.906 803.449 326.002 792.307 323.776 778.002L323.151 778.1L322.526 778.197C324.805 792.834 331.894 804.286 343.781 812.51L344.14 811.99ZM323.151 778.1L323.212 778.729L359.354 775.248L359.294 774.619L359.233 773.989L323.09 777.47L323.151 778.1ZM359.294 774.619L358.678 774.761C360.347 781.993 363.908 787.497 369.382 791.216L369.737 790.693L370.093 790.17C364.918 786.654 361.517 781.442 359.91 774.476L359.294 774.619ZM369.737 790.693L369.382 791.216C374.84 794.925 381.904 796.752 390.522 796.752V796.12V795.488C382.076 795.488 375.283 793.697 370.093 790.17L369.737 790.693ZM390.522 796.12V796.752C399.409 796.752 406.61 794.927 412.071 791.216L411.716 790.693L411.361 790.17C406.174 793.695 399.246 795.488 390.522 795.488V796.12ZM411.716 790.693L412.068 791.218C417.592 787.513 420.437 782.863 420.437 777.281H419.805H419.172C419.172 782.346 416.625 786.639 411.364 790.168L411.716 790.693ZM419.805 777.281H420.437C420.437 772.587 418.612 768.691 414.99 765.637L414.583 766.12L414.175 766.604C417.516 769.42 419.172 772.964 419.172 777.281H419.805ZM414.583 766.12L414.995 765.641C411.467 762.607 406.024 760.324 398.745 758.745L398.61 759.363L398.476 759.981C405.668 761.541 410.873 763.764 414.171 766.6L414.583 766.12ZM398.61 759.363L398.74 758.744L371.915 753.113L371.785 753.732L371.655 754.35L398.481 759.982L398.61 759.363ZM371.785 753.732L371.914 753.113C356.896 749.987 345.872 744.736 338.758 737.421L338.304 737.862L337.851 738.302C345.208 745.867 356.504 751.197 371.656 754.351L371.785 753.732ZM338.304 737.862L338.76 737.423C331.651 730.046 328.119 720.722 328.186 709.402L327.554 709.398L326.921 709.394C326.852 721.008 330.487 730.661 337.849 738.3L338.304 737.862ZM327.554 709.398L328.186 709.393C328.119 699.826 330.71 691.568 335.943 684.59L335.438 684.211L334.932 683.831C329.517 691.051 326.852 699.585 326.921 709.402L327.554 709.398ZM335.438 684.211L335.943 684.591C341.257 677.528 348.632 672.064 358.099 668.209L357.86 667.624L357.622 667.038C347.976 670.966 340.403 676.559 334.932 683.83L335.438 684.211ZM357.86 667.624L358.101 668.209C367.635 664.287 378.643 662.318 391.136 662.318V661.685V661.053C378.511 661.053 367.335 663.043 357.62 667.039L357.86 667.624ZM391.136 661.685V662.318C409.483 662.318 423.839 666.226 434.274 673.968L434.651 673.46L435.028 672.952C424.303 664.995 409.649 661.053 391.136 661.053V661.685ZM434.651 673.46L434.276 673.969C444.791 681.721 451.293 692.193 453.79 705.42L454.412 705.302L455.033 705.185C452.479 691.655 445.807 680.899 435.026 672.951L434.651 673.46ZM540.935 663.733H541.567V663.101H540.935V663.733ZM540.935 692.402V693.034H541.567V692.402H540.935ZM450.527 692.402H449.895V693.034H450.527V692.402ZM450.527 663.733V663.101H449.895V663.733H450.527ZM472.847 626.055V625.422H472.215V626.055H472.847ZM509.912 626.055H510.544V625.422H509.912V626.055ZM512.164 785.164L511.613 785.475L511.618 785.484L511.623 785.492L512.164 785.164ZM518.307 790.489L518.084 791.08L518.084 791.08L518.307 790.489ZM533.051 791.41L532.944 790.787L532.94 790.788L533.051 791.41ZM537.556 790.489L538.174 790.355L538.034 789.707L537.393 789.878L537.556 790.489ZM543.802 819.464L544.008 820.062L544.538 819.879L544.42 819.331L543.802 819.464ZM535.304 821.717L535.166 821.099L535.164 821.1L535.304 821.717ZM521.993 823.15L521.977 822.518L521.975 822.518L521.993 823.15ZM496.908 818.952L496.663 819.535L496.667 819.537L496.908 818.952ZM479.195 804.413L478.667 804.76L478.669 804.764L479.195 804.413ZM472.847 779.84L473.48 779.845V779.84H472.847ZM540.935 663.733H540.303V692.402H540.935H541.567V663.733H540.935ZM540.935 692.402V691.769H450.527V692.402V693.034H540.935V692.402ZM450.527 692.402H451.159V663.733H450.527H449.895V692.402H450.527ZM450.527 663.733V664.365H540.935V663.733V663.101H450.527V663.733ZM472.847 626.055V626.687H509.912V626.055V625.422H472.847V626.055ZM509.912 626.055H509.279V773.697H509.912H510.544V626.055H509.912ZM509.912 773.697H509.279C509.279 778.727 510.035 782.676 511.613 785.475L512.164 785.164L512.715 784.854C511.29 782.329 510.544 778.632 510.544 773.697H509.912ZM512.164 785.164L511.623 785.492C513.257 788.191 515.41 790.068 518.084 791.08L518.307 790.489L518.531 789.897C516.154 788.998 514.211 787.326 512.705 784.837L512.164 785.164ZM518.307 790.489L518.084 791.08C520.69 792.066 523.565 792.554 526.703 792.554V791.922V791.29C523.698 791.29 520.976 790.822 518.531 789.897L518.307 790.489ZM526.703 791.922V792.554C529.054 792.554 531.208 792.381 533.162 792.033L533.051 791.41L532.94 790.788C531.072 791.121 528.994 791.29 526.703 791.29V791.922ZM533.051 791.41L533.159 792.033C535.143 791.691 536.667 791.38 537.719 791.1L537.556 790.489L537.393 789.878C536.397 790.143 534.918 790.447 532.944 790.787L533.051 791.41ZM537.556 790.489L536.938 790.622L543.184 819.597L543.802 819.464L544.42 819.331L538.174 790.355L537.556 790.489ZM543.802 819.464L543.596 818.866C541.65 819.537 538.844 820.282 535.166 821.099L535.304 821.717L535.441 822.334C539.135 821.513 541.995 820.756 544.008 820.062L543.802 819.464ZM535.304 821.717L535.164 821.1C531.6 821.907 527.207 822.382 521.977 822.518L521.993 823.15L522.01 823.782C527.291 823.645 531.772 823.165 535.443 822.333L535.304 821.717ZM521.993 823.15L521.975 822.518C512.767 822.789 504.496 821.401 497.15 818.368L496.908 818.952L496.667 819.537C504.201 822.647 512.653 824.057 522.012 823.782L521.993 823.15ZM496.908 818.952L497.154 818.37C489.825 815.277 484.019 810.51 479.721 804.063L479.195 804.413L478.669 804.764C483.108 811.423 489.111 816.348 496.663 819.535L496.908 818.952ZM479.195 804.413L479.724 804.066C475.508 797.642 473.412 789.581 473.48 779.845L472.847 779.84L472.215 779.836C472.146 789.758 474.283 798.079 478.667 804.76L479.195 804.413ZM472.847 779.84H473.48V626.055H472.847H472.215V779.84H472.847ZM767.863 774.209L767.303 773.915L767.303 773.916L767.863 774.209ZM733.461 811.068L733.141 810.523L733.14 810.524L733.461 811.068ZM634.862 811.068L634.539 811.612L634.542 811.614L634.862 811.068ZM600.46 774.107L599.899 774.399L599.901 774.402L600.46 774.107ZM600.46 658.204L599.9 657.91L599.9 657.911L600.46 658.204ZM634.862 621.242L634.542 620.697L634.541 620.698L634.862 621.242ZM733.461 621.242L733.14 621.787L733.141 621.788L733.461 621.242ZM767.863 658.204L767.302 658.496L767.304 658.499L767.863 658.204ZM734.894 675.917L734.317 676.175L734.319 676.18L734.894 675.917ZM714.417 651.037L714.073 651.568L714.076 651.57L714.417 651.037ZM654.008 651.037L654.349 651.57L654.352 651.568L654.008 651.037ZM633.428 675.917L632.853 675.656L632.852 675.658L633.428 675.917ZM633.428 756.496L632.851 756.754L632.853 756.758L633.428 756.496ZM654.008 781.376L653.664 781.907L653.667 781.909L654.008 781.376ZM714.417 781.376L714.758 781.909L714.761 781.907L714.417 781.376ZM734.894 756.496L734.318 756.235L734.318 756.237L734.894 756.496ZM780.559 716.155H779.927C779.927 738.671 775.709 757.916 767.303 773.915L767.863 774.209L768.423 774.503C776.944 758.284 781.191 738.827 781.191 716.155H780.559ZM767.863 774.209L767.303 773.916C758.958 789.86 747.57 802.055 733.141 810.523L733.461 811.068L733.781 811.614C748.43 803.017 759.977 790.64 768.423 774.502L767.863 774.209ZM733.461 811.068L733.14 810.524C718.775 818.993 702.472 823.235 684.213 823.235V823.867V824.499C702.676 824.499 719.205 820.208 733.782 811.613L733.461 811.068ZM684.213 823.867V823.235C665.953 823.235 649.615 818.993 635.182 810.523L634.862 811.068L634.542 811.614C649.186 820.208 665.749 824.499 684.213 824.499V823.867ZM634.862 811.068L635.185 810.525C620.822 801.988 609.433 789.758 601.019 773.812L600.46 774.107L599.901 774.402C608.415 790.537 619.96 802.947 634.539 811.612L634.862 811.068ZM600.46 774.107L601.02 773.814C592.682 757.815 588.498 738.603 588.498 716.155H587.866H587.234C587.234 738.758 591.446 758.181 599.899 774.399L600.46 774.107ZM587.866 716.155H588.498C588.498 693.639 592.682 674.428 601.02 658.497L600.46 658.204L599.9 657.911C591.446 674.062 587.234 693.485 587.234 716.155H587.866ZM600.46 658.204L601.02 658.498C609.434 642.485 620.822 630.255 635.183 621.787L634.862 621.242L634.541 620.698C619.96 629.295 608.414 641.706 599.9 657.91L600.46 658.204ZM634.862 621.242L635.182 621.788C649.615 613.317 665.953 609.076 684.213 609.076V608.444V607.812C665.749 607.812 649.186 612.103 634.542 620.697L634.862 621.242ZM684.213 608.444V609.076C702.472 609.076 718.775 613.317 733.14 621.787L733.461 621.242L733.782 620.698C719.205 612.103 702.676 607.812 684.213 607.812V608.444ZM733.461 621.242L733.141 621.788C747.569 630.255 758.957 642.484 767.302 658.496L767.863 658.204L768.424 657.912C759.977 641.706 748.43 629.294 733.781 620.697L733.461 621.242ZM767.863 658.204L767.304 658.499C775.709 674.429 779.927 693.64 779.927 716.155H780.559H781.191C781.191 693.484 776.945 674.06 768.422 657.909L767.863 658.204ZM742.369 716.155H743.001C743.001 700.189 740.5 686.681 735.469 675.655L734.894 675.917L734.319 676.18C739.254 686.996 741.736 700.314 741.736 716.155H742.369ZM734.894 675.917L735.471 675.659C730.515 664.576 723.614 656.179 714.758 650.505L714.417 651.037L714.076 651.57C722.693 657.09 729.445 665.28 734.317 676.175L734.894 675.917ZM714.417 651.037L714.761 650.507C705.912 644.769 695.722 641.907 684.213 641.907V642.539V643.171C695.502 643.171 705.448 645.975 714.073 651.568L714.417 651.037ZM684.213 642.539V641.907C672.703 641.907 662.513 644.769 653.664 650.507L654.008 651.037L654.352 651.568C662.977 645.975 672.924 643.171 684.213 643.171V642.539ZM654.008 651.037L653.667 650.505C644.812 656.178 637.877 664.574 632.853 675.656L633.428 675.917L634.004 676.178C638.945 665.281 645.731 657.091 654.349 651.57L654.008 651.037ZM633.428 675.917L632.852 675.658C627.891 686.683 625.424 700.19 625.424 716.155H626.057H626.689C626.689 700.313 629.137 686.994 634.005 676.177L633.428 675.917ZM626.057 716.155H625.424C625.424 732.121 627.891 745.662 632.851 756.754L633.428 756.496L634.006 756.238C629.137 745.351 626.689 731.998 626.689 716.155H626.057ZM633.428 756.496L632.853 756.758C637.878 767.772 644.812 776.166 653.664 781.907L654.008 781.376L654.352 780.846C645.731 775.255 638.944 767.062 634.004 756.234L633.428 756.496ZM654.008 781.376L653.667 781.909C662.516 787.577 672.705 790.404 684.213 790.404V789.772V789.14C672.922 789.14 662.975 786.369 654.349 780.844L654.008 781.376ZM684.213 789.772V790.404C695.72 790.404 705.909 787.577 714.758 781.909L714.417 781.376L714.076 780.844C705.45 786.369 695.503 789.14 684.213 789.14V789.772ZM714.417 781.376L714.761 781.907C723.614 776.166 730.514 767.771 735.471 756.755L734.894 756.496L734.318 756.237C729.445 767.064 722.693 775.256 714.073 780.846L714.417 781.376ZM734.894 756.496L735.47 756.757C740.5 745.664 743.001 732.122 743.001 716.155H742.369H741.736C741.736 731.997 739.254 745.349 734.318 756.235L734.894 756.496ZM788.884 821H788.252V821.632H788.884V821ZM788.884 663.733V663.101H788.252V663.733H788.884ZM824.31 663.733H824.942V663.101H824.31V663.733ZM824.31 690.456H823.678V691.089H824.31V690.456ZM826.153 690.456V691.089H826.596L826.747 690.672L826.153 690.456ZM842.433 669.364L842.783 669.891L842.787 669.888L842.433 669.364ZM896.493 669.467L896.127 669.982L896.132 669.986L896.493 669.467ZM912.056 690.456L911.457 690.659L911.602 691.089H912.056V690.456ZM913.694 690.456V691.089H914.123L914.282 690.69L913.694 690.456ZM931.305 669.569L931.641 670.105L931.642 670.104L931.305 669.569ZM1010.04 821V821.632H1010.67V821H1010.04ZM972.874 821H972.242V821.632H972.874V821ZM965.093 699.773L964.674 700.248L964.678 700.251L965.093 699.773ZM925.059 701.309L924.59 700.886L924.589 700.886L925.059 701.309ZM917.585 821V821.632H918.217V821H917.585ZM881.237 821H880.605V821.632H881.237V821ZM873.866 700.183L873.418 700.63L873.422 700.633L873.866 700.183ZM840.283 697.009L840.612 697.549L840.618 697.545L840.283 697.009ZM829.839 708.374L830.396 708.672L830.398 708.669L829.839 708.374ZM825.948 821V821.632H826.581V821H825.948ZM788.884 821H789.516V663.733H788.884H788.252V821H788.884ZM788.884 663.733V664.365H824.31V663.733V663.101H788.884V663.733ZM824.31 663.733H823.678V690.456H824.31H824.942V663.733H824.31ZM824.31 690.456V691.089H826.153V690.456V689.824H824.31V690.456ZM826.153 690.456L826.747 690.672C829.98 681.782 835.325 674.863 842.783 669.891L842.433 669.364L842.082 668.838C834.387 673.968 828.879 681.111 825.559 690.24L826.153 690.456ZM842.433 669.364L842.787 669.888C850.244 664.85 859.16 662.318 869.565 662.318V661.685V661.053C858.947 661.053 849.775 663.64 842.079 668.841L842.433 669.364ZM869.565 661.685V662.318C880.108 662.318 888.949 664.884 896.127 669.982L896.493 669.467L896.859 668.951C889.43 663.674 880.319 661.053 869.565 661.053V661.685ZM896.493 669.467L896.132 669.986C903.388 675.025 908.495 681.908 911.457 690.659L912.056 690.456L912.655 690.254C909.61 681.258 904.342 674.148 896.854 668.948L896.493 669.467ZM912.056 690.456V691.089H913.694V690.456V689.824H912.056V690.456ZM913.694 690.456L914.282 690.69C917.711 682.083 923.491 675.224 931.641 670.105L931.305 669.569L930.968 669.034C922.6 674.29 916.64 681.356 913.107 690.222L913.694 690.456ZM931.305 669.569L931.642 670.104C939.854 664.921 949.596 662.318 960.895 662.318V661.685V661.053C949.395 661.053 939.411 663.705 930.967 669.035L931.305 669.569ZM960.895 661.685V662.318C975.22 662.318 986.86 666.839 995.874 675.852L996.321 675.405L996.768 674.958C987.488 665.679 975.511 661.053 960.895 661.053V661.685ZM996.321 675.405L995.874 675.852C1004.86 684.843 1009.41 698.003 1009.41 715.439H1010.04H1010.67C1010.67 697.79 1006.07 684.261 996.768 674.958L996.321 675.405ZM1010.04 715.439H1009.41V821H1010.04H1010.67V715.439H1010.04ZM1010.04 821V820.368H972.874V821V821.632H1010.04V821ZM972.874 821H973.506V721.172H972.874H972.242V821H972.874ZM972.874 721.172H973.506C973.506 711.308 970.884 703.965 965.507 699.296L965.093 699.773L964.678 700.251C969.677 704.592 972.242 711.515 972.242 721.172H972.874ZM965.093 699.773L965.511 699.299C960.197 694.615 953.697 692.281 946.049 692.281V692.914V693.546C953.417 693.546 959.613 695.785 964.674 700.248L965.093 699.773ZM946.049 692.914V692.281C936.964 692.281 929.783 695.131 924.59 700.886L925.059 701.309L925.529 701.733C930.437 696.293 937.249 693.546 946.049 693.546V692.914ZM925.059 701.309L924.589 700.886C919.483 706.553 916.953 713.915 916.953 722.913H917.585H918.217C918.217 714.164 920.67 707.124 925.529 701.733L925.059 701.309ZM917.585 722.913H916.953V821H917.585H918.217V722.913H917.585ZM917.585 821V820.368H881.237V821V821.632H917.585V821ZM881.237 821H881.87V719.637H881.237H880.605V821H881.237ZM881.237 719.637H881.87C881.87 711.377 879.366 704.719 874.309 699.733L873.866 700.183L873.422 700.633C878.194 705.34 880.605 711.651 880.605 719.637H881.237ZM873.866 700.183L874.313 699.736C869.33 694.754 862.812 692.281 854.822 692.281V692.914V693.546C862.53 693.546 868.708 695.92 873.418 700.63L873.866 700.183ZM854.822 692.914V692.281C849.383 692.281 844.42 693.678 839.947 696.473L840.283 697.009L840.618 697.545C844.882 694.88 849.612 693.546 854.822 693.546V692.914ZM840.283 697.009L839.953 696.469C835.479 699.196 831.922 703.072 829.28 708.079L829.839 708.374L830.398 708.669C832.944 703.846 836.349 700.147 840.612 697.549L840.283 697.009ZM829.839 708.374L829.282 708.076C826.63 713.029 825.316 718.8 825.316 725.37H825.948H826.581C826.581 718.971 827.86 713.412 830.396 708.672L829.839 708.374ZM825.948 725.37H825.316V821H825.948H826.581V725.37H825.948ZM825.948 821V820.368H788.884V821V821.632H825.948V821ZM1050.46 814.242L1050.15 814.789L1050.15 814.791L1050.46 814.242ZM1024.15 786.188L1023.59 786.474L1023.59 786.475L1024.15 786.188ZM1024.15 700.695L1023.59 700.41L1023.59 700.411L1024.15 700.695ZM1050.16 672.027L1050.49 672.565L1050.49 672.564L1050.16 672.027ZM1116.81 666.395L1116.59 666.989L1116.6 666.991L1116.81 666.395ZM1139.75 680.729L1139.3 681.181L1139.31 681.183L1139.75 680.729ZM1155.51 705.507L1154.92 705.732L1154.92 705.734L1155.51 705.507ZM1161.25 752.503V753.135H1161.88V752.503H1161.25ZM1032.34 752.503H1031.71V753.135H1032.34V752.503ZM1032.34 727.52V726.888H1031.71V727.52H1032.34ZM1125.72 727.52V728.153H1126.36L1126.35 727.514L1125.72 727.52ZM1121.11 708.579L1120.55 708.878L1120.56 708.881L1121.11 708.579ZM1108.52 695.371L1108.19 695.912L1108.19 695.914L1108.52 695.371ZM1069.92 696.088L1070.26 696.622L1070.26 696.619L1069.92 696.088ZM1056.5 710.422L1055.95 710.121L1055.95 710.124L1056.5 710.422ZM1051.69 729.773L1051.06 729.767V729.773H1051.69ZM1056.71 775.131L1056.15 775.418L1056.15 775.42L1056.71 775.131ZM1070.74 790.079L1070.42 790.626L1070.42 790.629L1070.74 790.079ZM1106.47 792.946L1106.68 793.544L1106.68 793.541L1106.47 792.946ZM1117.83 786.086L1117.4 785.624L1117.83 786.086ZM1125.1 774.926L1125.17 774.297L1124.68 774.242L1124.51 774.707L1125.1 774.926ZM1159.71 778.816L1160.33 778.963L1160.49 778.268L1159.78 778.188L1159.71 778.816ZM1147.22 802.775L1146.75 802.352L1146.75 802.352L1147.22 802.775ZM1123.88 818.543L1124.1 819.132L1124.11 819.131L1123.88 818.543ZM1091.32 824.072V823.439C1075.64 823.439 1062.13 820.182 1050.78 813.693L1050.46 814.242L1050.15 814.791C1061.73 821.408 1075.46 824.704 1091.32 824.704V824.072ZM1050.46 814.242L1050.78 813.696C1039.49 807.138 1030.8 797.878 1024.71 785.902L1024.15 786.188L1023.59 786.475C1029.78 798.662 1038.64 808.105 1050.15 814.789L1050.46 814.242ZM1024.15 786.188L1024.71 785.903C1018.62 773.858 1015.57 759.66 1015.57 743.288H1014.94H1014.3C1014.3 759.817 1017.39 774.219 1023.59 786.474L1024.15 786.188ZM1014.94 743.288H1015.57C1015.57 727.192 1018.62 713.094 1024.72 700.979L1024.15 700.695L1023.59 700.411C1017.39 712.732 1014.3 727.03 1014.3 743.288H1014.94ZM1024.15 700.695L1024.71 700.98C1030.88 688.792 1039.47 679.327 1050.49 672.565L1050.16 672.027L1049.83 671.488C1038.59 678.378 1029.85 688.025 1023.59 700.41L1024.15 700.695ZM1050.16 672.027L1050.49 672.564C1061.5 665.741 1074.45 662.318 1089.37 662.318V661.685V661.053C1074.25 661.053 1061.06 664.524 1049.82 671.489L1050.16 672.027ZM1089.37 661.685V662.318C1098.99 662.318 1108.07 663.876 1116.59 666.989L1116.81 666.395L1117.03 665.801C1108.35 662.635 1099.13 661.053 1089.37 661.053V661.685ZM1116.81 666.395L1116.6 666.991C1125.18 670.032 1132.75 674.76 1139.3 681.181L1139.75 680.729L1140.19 680.278C1133.5 673.729 1125.78 668.902 1117.02 665.799L1116.81 666.395ZM1139.75 680.729L1139.31 681.183C1145.92 687.594 1151.13 695.772 1154.92 705.732L1155.51 705.507L1156.1 705.282C1152.25 695.175 1146.95 686.833 1140.19 680.275L1139.75 680.729ZM1155.51 705.507L1154.92 705.734C1158.71 715.609 1160.61 727.406 1160.61 741.138H1161.25H1161.88C1161.88 727.294 1159.96 715.336 1156.1 705.281L1155.51 705.507ZM1161.25 741.138H1160.61V752.503H1161.25H1161.88V741.138H1161.25ZM1161.25 752.503V751.871H1032.34V752.503V753.135H1161.25V752.503ZM1032.34 752.503H1032.97V727.52H1032.34H1031.71V752.503H1032.34ZM1032.34 727.52V728.153H1125.72V727.52V726.888H1032.34V727.52ZM1125.72 727.52L1126.35 727.514C1126.28 720.326 1124.73 713.908 1121.67 708.277L1121.11 708.579L1120.56 708.881C1123.5 714.308 1125.02 720.518 1125.09 727.527L1125.72 727.52ZM1121.11 708.579L1121.67 708.28C1118.61 702.583 1114.33 698.095 1108.84 694.827L1108.52 695.371L1108.19 695.914C1113.49 699.063 1117.6 703.38 1120.55 708.878L1121.11 708.579ZM1108.52 695.371L1108.84 694.829C1103.41 691.554 1097.08 689.926 1089.88 689.926V690.559V691.191C1096.88 691.191 1102.98 692.772 1108.19 695.912L1108.52 695.371ZM1089.88 690.559V689.926C1082.2 689.926 1075.42 691.797 1069.58 695.556L1069.92 696.088L1070.26 696.619C1075.88 693.006 1082.41 691.191 1089.88 691.191V690.559ZM1069.92 696.088L1069.58 695.553C1063.76 699.228 1059.21 704.087 1055.95 710.121L1056.5 710.422L1057.06 710.722C1060.22 704.88 1064.61 700.182 1070.25 696.622L1069.92 696.088ZM1056.5 710.422L1055.95 710.124C1052.76 716.089 1051.13 722.64 1051.06 729.767L1051.69 729.773L1052.32 729.779C1052.39 722.845 1053.97 716.495 1057.06 710.72L1056.5 710.422ZM1051.69 729.773H1051.06V751.581H1051.69H1052.32V729.773H1051.69ZM1051.69 751.581H1051.06C1051.06 760.804 1052.75 768.757 1056.15 775.418L1056.71 775.131L1057.27 774.843C1053.98 768.398 1052.32 760.652 1052.32 751.581H1051.69ZM1056.71 775.131L1056.15 775.42C1059.54 782.007 1064.3 787.081 1070.42 790.626L1070.74 790.079L1071.05 789.532C1065.16 786.115 1060.56 781.224 1057.27 774.841L1056.71 775.131ZM1070.74 790.079L1070.42 790.629C1076.54 794.104 1083.68 795.831 1091.83 795.831V795.198V794.566C1083.87 794.566 1076.95 792.88 1071.05 789.529L1070.74 790.079ZM1091.83 795.198V795.831C1097.28 795.831 1102.23 795.072 1106.68 793.544L1106.47 792.946L1106.26 792.348C1101.97 793.823 1097.16 794.566 1091.83 794.566V795.198ZM1106.47 792.946L1106.68 793.541C1111.13 791.944 1114.99 789.613 1118.27 786.548L1117.83 786.086L1117.4 785.624C1114.26 788.566 1110.55 790.808 1106.26 792.351L1106.47 792.946ZM1117.83 786.086L1118.27 786.548C1121.55 783.472 1124.03 779.667 1125.7 775.145L1125.1 774.926L1124.51 774.707C1122.9 779.058 1120.53 782.693 1117.4 785.624L1117.83 786.086ZM1125.1 774.926L1125.03 775.554L1159.64 779.445L1159.71 778.816L1159.78 778.188L1125.17 774.297L1125.1 774.926ZM1159.71 778.816L1159.1 778.67C1156.94 787.716 1152.82 795.607 1146.75 802.352L1147.22 802.775L1147.69 803.198C1153.91 796.292 1158.12 788.21 1160.33 778.963L1159.71 778.816ZM1147.22 802.775L1146.75 802.352C1140.75 809.029 1133.05 814.232 1123.64 817.955L1123.88 818.543L1124.11 819.131C1133.68 815.345 1141.54 810.037 1147.69 803.198L1147.22 802.775ZM1123.88 818.543L1123.65 817.953C1114.24 821.606 1103.47 823.439 1091.32 823.439V824.072V824.704C1103.6 824.704 1114.53 822.851 1124.1 819.132L1123.88 818.543ZM1200.75 877.825L1200.97 877.234L1200.97 877.232L1200.75 877.825ZM1177.71 863.491L1178.17 863.051L1178.17 863.051L1177.71 863.491ZM1165.63 843.525L1165.48 842.911L1164.83 843.069L1165.03 843.712L1165.63 843.525ZM1199.01 835.437L1199.58 835.159L1199.35 834.702L1198.86 834.822L1199.01 835.437ZM1205.56 844.549L1206.02 844.118L1206.02 844.112L1205.56 844.549ZM1217.13 852.126L1217.37 851.542L1217.37 851.54L1217.13 852.126ZM1261.77 847.518L1261.4 847.008L1261.39 847.011L1261.77 847.518ZM1272.11 792.741H1272.75V792.109H1272.11V792.741ZM1270.27 792.741V792.109H1269.88L1269.7 792.458L1270.27 792.741ZM1261.87 804.516L1261.41 804.089L1261.4 804.093L1261.87 804.516ZM1247.44 814.652L1247.18 814.076L1247.17 814.078L1247.44 814.652ZM1192.15 810.249L1191.83 810.795L1191.83 810.797L1192.15 810.249ZM1168.8 784.653L1168.24 784.937L1168.24 784.941L1168.8 784.653ZM1168.8 698.135L1168.24 697.859L1168.23 697.86L1168.8 698.135ZM1192.25 671.003L1192.59 671.539L1192.59 671.537L1192.25 671.003ZM1247.85 666.395L1247.55 666.954L1247.56 666.958L1247.85 666.395ZM1262.18 677.555L1261.69 677.954L1261.69 677.958L1262.18 677.555ZM1270.27 689.74L1269.7 690.014L1269.87 690.372H1270.27V689.74ZM1272.32 689.74V690.372H1272.95V689.74H1272.32ZM1272.32 663.733V663.101H1271.69V663.733H1272.32ZM1308.87 663.733H1309.5V663.101H1308.87V663.733ZM1299.25 856.938L1299.76 857.31L1299.76 857.31L1299.25 856.938ZM1272.93 876.699L1273.16 877.287L1273.16 877.287L1272.93 876.699ZM1255.42 783.936L1255.06 783.416L1255.06 783.416L1255.42 783.936ZM1268.02 715.644L1267.43 715.866L1267.43 715.871L1268.02 715.644ZM1255.53 698.34L1255.14 698.843L1255.15 698.848L1255.53 698.34ZM1214.67 698.545L1214.29 698.046L1214.29 698.046L1214.67 698.545ZM1202.18 716.258L1202.77 716.48L1202.77 716.479L1202.18 716.258ZM1202.18 766.94L1201.59 767.168L1201.6 767.174L1202.18 766.94ZM1214.78 783.731L1214.4 784.242L1214.41 784.247L1214.78 783.731ZM1235.05 883.251V882.619C1221.79 882.619 1210.44 880.817 1200.97 877.234L1200.75 877.825L1200.53 878.416C1210.17 882.068 1221.68 883.884 1235.05 883.884V883.251ZM1200.75 877.825L1200.97 877.232C1191.48 873.709 1183.89 868.977 1178.17 863.051L1177.71 863.491L1177.26 863.93C1183.14 870.018 1190.9 874.842 1200.53 878.418L1200.75 877.825ZM1177.71 863.491L1178.17 863.051C1172.43 857.109 1168.46 850.539 1166.23 843.339L1165.63 843.525L1165.03 843.712C1167.31 851.119 1171.39 857.859 1177.26 863.93L1177.71 863.491ZM1165.63 843.525L1165.78 844.14L1199.16 836.051L1199.01 835.437L1198.86 834.822L1165.48 842.911L1165.63 843.525ZM1199.01 835.437L1198.44 835.714C1199.98 838.855 1202.2 841.945 1205.1 844.986L1205.56 844.549L1206.02 844.112C1203.19 841.146 1201.04 838.161 1199.58 835.159L1199.01 835.437ZM1205.56 844.549L1205.1 844.98C1208.04 848.133 1211.98 850.705 1216.89 852.711L1217.13 852.126L1217.37 851.54C1212.59 849.587 1208.81 847.108 1206.02 844.118L1205.56 844.549ZM1217.13 852.126L1216.89 852.709C1221.9 854.799 1228.17 855.83 1235.66 855.83V855.197V854.565C1228.28 854.565 1222.19 853.548 1217.37 851.542L1217.13 852.126ZM1235.66 855.197V855.83C1246.28 855.83 1255.12 853.243 1262.15 848.026L1261.77 847.518L1261.39 847.011C1254.63 852.032 1246.07 854.565 1235.66 854.565V855.197ZM1261.77 847.518L1262.15 848.028C1269.26 842.819 1272.75 834.263 1272.75 822.536H1272.11H1271.48C1271.48 834.016 1268.08 842.116 1261.4 847.008L1261.77 847.518ZM1272.11 822.536H1272.75V792.741H1272.11H1271.48V822.536H1272.11ZM1272.11 792.741V792.109H1270.27V792.741V793.373H1272.11V792.741ZM1270.27 792.741L1269.7 792.458C1267.83 796.216 1265.06 800.093 1261.41 804.089L1261.87 804.516L1262.34 804.943C1266.06 800.883 1268.89 796.911 1270.84 793.024L1270.27 792.741ZM1261.87 804.516L1261.4 804.093C1257.86 808.043 1253.12 811.374 1247.18 814.076L1247.44 814.652L1247.7 815.228C1253.77 812.469 1258.66 809.043 1262.34 804.938L1261.87 804.516ZM1247.44 814.652L1247.17 814.078C1241.34 816.758 1233.97 818.115 1225.01 818.115V818.747V819.38C1234.08 819.38 1241.66 818.006 1247.7 815.226L1247.44 814.652ZM1225.01 818.747V818.115C1213.04 818.115 1202.19 815.308 1192.46 809.702L1192.15 810.249L1191.83 810.797C1201.76 816.522 1212.83 819.38 1225.01 819.38V818.747ZM1192.15 810.249L1192.47 809.704C1182.82 804.039 1175.12 795.602 1169.37 784.364L1168.8 784.653L1168.24 784.941C1174.09 796.365 1181.95 804.993 1191.83 810.795L1192.15 810.249ZM1168.8 784.653L1169.37 784.368C1163.69 773.082 1160.84 758.921 1160.84 741.855H1160.2H1159.57C1159.57 759.054 1162.45 773.424 1168.24 784.937L1168.8 784.653ZM1160.2 741.855H1160.84C1160.84 724.652 1163.69 710.179 1169.37 698.41L1168.8 698.135L1168.23 697.86C1162.45 709.845 1159.57 724.518 1159.57 741.855H1160.2ZM1168.8 698.135L1169.37 698.412C1175.13 686.557 1182.87 677.61 1192.59 671.539L1192.25 671.003L1191.92 670.466C1181.97 676.681 1174.08 685.823 1168.24 697.859L1168.8 698.135ZM1192.25 671.003L1192.59 671.537C1202.31 665.392 1213.15 662.318 1225.12 662.318V661.685V661.053C1212.92 661.053 1201.85 664.19 1191.91 670.468L1192.25 671.003ZM1225.12 661.685V662.318C1234.27 662.318 1241.73 663.877 1247.55 666.954L1247.85 666.395L1248.14 665.836C1242.09 662.634 1234.4 661.053 1225.12 661.053V661.685ZM1247.85 666.395L1247.56 666.958C1253.5 669.998 1258.21 673.666 1261.69 677.954L1262.18 677.555L1262.67 677.157C1259.06 672.708 1254.2 668.936 1248.14 665.832L1247.85 666.395ZM1262.18 677.555L1261.69 677.958C1265.22 682.231 1267.89 686.249 1269.7 690.014L1270.27 689.74L1270.84 689.465C1268.97 685.585 1266.24 681.481 1262.67 677.153L1262.18 677.555ZM1270.27 689.74V690.372H1272.32V689.74V689.107H1270.27V689.74ZM1272.32 689.74H1272.95V663.733H1272.32H1271.69V689.74H1272.32ZM1272.32 663.733V664.365H1308.87V663.733V663.101H1272.32V663.733ZM1308.87 663.733H1308.24V823.56H1308.87H1309.5V663.733H1308.87ZM1308.87 823.56H1308.24C1308.24 836.905 1305.06 847.892 1298.73 856.566L1299.25 856.938L1299.76 857.31C1306.27 848.374 1309.5 837.109 1309.5 823.56H1308.87ZM1299.25 856.938L1298.73 856.566C1292.4 865.264 1283.73 871.781 1272.7 876.11L1272.93 876.699L1273.16 877.287C1284.39 872.879 1293.26 866.222 1299.76 857.31L1299.25 856.938ZM1272.93 876.699L1272.7 876.11C1261.66 880.445 1249.11 882.619 1235.05 882.619V883.251V883.884C1249.24 883.884 1261.95 881.689 1273.16 877.287L1272.93 876.699ZM1235.36 789.669V790.302C1243.31 790.302 1250.13 788.363 1255.78 784.456L1255.42 783.936L1255.06 783.416C1249.66 787.153 1243.1 789.037 1235.36 789.037V789.669ZM1255.42 783.936L1255.78 784.456C1261.43 780.553 1265.7 774.951 1268.6 767.686L1268.02 767.451L1267.43 767.217C1264.6 774.286 1260.48 779.674 1255.06 783.416L1255.42 783.936ZM1268.02 767.451L1268.6 767.686C1271.51 760.426 1272.95 751.741 1272.95 741.65H1272.32H1271.69C1271.69 751.626 1270.26 760.143 1267.43 767.217L1268.02 767.451ZM1272.32 741.65H1272.95C1272.95 731.693 1271.51 722.944 1268.61 715.416L1268.02 715.644L1267.43 715.871C1270.26 723.223 1271.69 731.812 1271.69 741.65H1272.32ZM1268.02 715.644L1268.61 715.421C1265.77 707.885 1261.54 702.011 1255.9 697.832L1255.53 698.34L1255.15 698.848C1260.57 702.86 1264.66 708.522 1267.43 715.866L1268.02 715.644ZM1255.53 698.34L1255.91 697.837C1250.32 693.576 1243.46 691.462 1235.36 691.462V692.094V692.727C1243.23 692.727 1249.81 694.776 1255.14 698.843L1255.53 698.34ZM1235.36 692.094V691.462C1226.98 691.462 1219.94 693.644 1214.29 698.046L1214.67 698.545L1215.06 699.044C1220.46 694.845 1227.21 692.727 1235.36 692.727V692.094ZM1214.67 698.545L1214.29 698.046C1208.65 702.428 1204.42 708.435 1201.59 716.037L1202.18 716.258L1202.77 716.479C1205.54 709.064 1209.64 703.262 1215.06 699.044L1214.67 698.545ZM1202.18 716.258L1201.59 716.035C1198.76 723.559 1197.35 732.1 1197.35 741.65H1197.98H1198.62C1198.62 732.224 1200.01 723.837 1202.77 716.48L1202.18 716.258ZM1197.98 741.65H1197.35C1197.35 751.334 1198.76 759.844 1201.59 767.168L1202.18 766.94L1202.77 766.711C1200.01 759.564 1198.62 751.214 1198.62 741.65H1197.98ZM1202.18 766.94L1201.6 767.174C1204.5 774.437 1208.77 780.136 1214.4 784.242L1214.78 783.731L1215.15 783.22C1209.73 779.271 1205.6 773.776 1202.77 766.705L1202.18 766.94ZM1214.78 783.731L1214.41 784.247C1220.13 788.295 1227.13 790.302 1235.36 790.302V789.669V789.037C1227.34 789.037 1220.61 787.085 1215.14 783.215L1214.78 783.731ZM1339.23 818.85L1338.97 819.425L1338.98 819.428L1339.23 818.85ZM1320.39 802.877L1319.86 803.222L1319.87 803.226L1320.39 802.877ZM1318.45 754.858L1317.9 754.547L1317.9 754.547L1318.45 754.858ZM1331.86 740.933L1331.53 740.394L1331.53 740.394L1331.86 740.933ZM1351.01 733.049L1351.16 733.663L1351.17 733.662L1351.01 733.049ZM1373.23 729.056L1373.16 728.427L1373.16 728.428L1373.23 729.056ZM1395.65 726.497L1395.73 727.124L1395.74 727.122L1395.65 726.497ZM1408.14 722.811L1408.48 723.345L1408.48 723.343L1408.14 722.811ZM1405.27 696.395L1405.7 695.931L1405.7 695.931L1405.27 696.395ZM1363.91 695.985L1363.53 695.478L1363.53 695.48L1363.91 695.985ZM1353.26 710.012L1353.17 710.638L1353.69 710.712L1353.86 710.217L1353.26 710.012ZM1318.65 705.098L1318.05 704.924L1317.85 705.622L1318.57 705.724L1318.65 705.098ZM1332.17 681.139L1332.62 681.581L1332.62 681.579L1332.17 681.139ZM1355.21 666.6L1355.42 667.196L1355.42 667.195L1355.21 666.6ZM1428.52 673.153L1428.17 673.681L1428.17 673.683L1428.52 673.153ZM1443.46 689.637L1442.91 689.937L1442.91 689.941L1443.46 689.637ZM1449.2 821V821.632H1449.83V821H1449.2ZM1413.57 821H1412.93V821.632H1413.57V821ZM1413.57 799.396H1414.2V798.764H1413.57V799.396ZM1412.34 799.396V798.764H1411.95L1411.78 799.107L1412.34 799.396ZM1402.82 811.683L1403.25 812.145L1403.25 812.145L1402.82 811.683ZM1387.56 820.795L1387.78 821.388L1387.78 821.387L1387.56 820.795ZM1395.14 792.536L1395.44 793.093L1395.44 793.09L1395.14 792.536ZM1407.73 780.659L1407.19 780.33L1407.19 780.335L1407.73 780.659ZM1412.24 746.053H1412.87V744.713L1411.83 745.564L1412.24 746.053ZM1406.3 748.715L1406.12 748.108L1406.12 748.109L1406.3 748.715ZM1397.08 750.865L1397.19 751.487L1397.19 751.487L1397.08 750.865ZM1378.24 753.732L1378.33 754.358L1378.33 754.358L1378.24 753.732ZM1363.4 757.418L1363.17 756.829L1363.17 756.829L1363.4 757.418ZM1353.06 764.585L1353.54 764.992L1353.54 764.986L1353.06 764.585ZM1356.74 791.717L1356.38 792.236L1356.38 792.236L1356.74 791.717ZM1366.16 824.174V823.542C1356.27 823.542 1347.39 821.781 1339.49 818.272L1339.23 818.85L1338.98 819.428C1347.05 823.018 1356.12 824.806 1366.16 824.806V824.174ZM1339.23 818.85L1339.5 818.275C1331.68 814.705 1325.5 809.457 1320.92 802.529L1320.39 802.877L1319.87 803.226C1324.58 810.359 1330.95 815.76 1338.97 819.425L1339.23 818.85ZM1320.39 802.877L1320.92 802.533C1316.43 795.626 1314.17 787.084 1314.17 776.871H1313.53H1312.9C1312.9 787.272 1315.21 796.068 1319.86 803.222L1320.39 802.877ZM1313.53 776.871H1314.17C1314.17 768.072 1315.79 760.849 1319 755.169L1318.45 754.858L1317.9 754.547C1314.55 760.47 1312.9 767.923 1312.9 776.871H1313.53ZM1318.45 754.858L1319 755.169C1322.22 749.46 1326.62 744.897 1332.19 741.472L1331.86 740.933L1331.53 740.394C1325.77 743.932 1321.23 748.652 1317.9 754.547L1318.45 754.858ZM1331.86 740.933L1332.19 741.472C1337.8 738.028 1344.12 735.423 1351.16 733.663L1351.01 733.049L1350.86 732.436C1343.7 734.225 1337.26 736.876 1331.53 740.394L1331.86 740.933ZM1351.01 733.049L1351.17 733.662C1358.3 731.827 1365.68 730.501 1373.29 729.685L1373.23 729.056L1373.16 728.428C1365.49 729.25 1358.05 730.586 1350.85 732.437L1351.01 733.049ZM1373.23 729.056L1373.29 729.685C1382.51 728.729 1389.99 727.875 1395.73 727.123L1395.65 726.497L1395.57 725.87C1389.84 726.619 1382.37 727.472 1373.16 728.427L1373.23 729.056ZM1395.65 726.497L1395.74 727.122C1401.5 726.3 1405.77 725.057 1408.48 723.345L1408.14 722.811L1407.8 722.276C1405.33 723.841 1401.27 725.055 1395.56 725.871L1395.65 726.497ZM1408.14 722.811L1408.48 723.343C1411.35 721.504 1412.77 718.66 1412.77 714.927H1412.13H1411.5C1411.5 718.292 1410.26 720.704 1407.8 722.278L1408.14 722.811ZM1412.13 714.927H1412.77V714.312H1412.13H1411.5V714.927H1412.13ZM1412.13 714.312H1412.77C1412.77 706.468 1410.44 700.31 1405.7 695.931L1405.27 696.395L1404.84 696.859C1409.26 700.944 1411.5 706.731 1411.5 714.312H1412.13ZM1405.27 696.395L1405.7 695.931C1400.97 691.555 1394.21 689.414 1385.51 689.414V690.047V690.679C1394.02 690.679 1400.43 692.77 1404.84 696.859L1405.27 696.395ZM1385.51 690.047V689.414C1376.35 689.414 1369 691.413 1363.53 695.478L1363.91 695.985L1364.29 696.493C1369.47 692.64 1376.52 690.679 1385.51 690.679V690.047ZM1363.91 695.985L1363.53 695.48C1358.19 699.503 1354.55 704.278 1352.66 709.808L1353.26 710.012L1353.86 710.217C1355.66 704.962 1359.12 700.385 1364.29 696.49L1363.91 695.985ZM1353.26 710.012L1353.35 709.386L1318.74 704.472L1318.65 705.098L1318.57 705.724L1353.17 710.638L1353.26 710.012ZM1318.65 705.098L1319.26 705.271C1321.97 695.805 1326.42 687.915 1332.62 681.581L1332.17 681.139L1331.72 680.697C1325.36 687.196 1320.8 695.278 1318.05 704.924L1318.65 705.098ZM1332.17 681.139L1332.62 681.579C1338.83 675.169 1346.42 670.374 1355.42 667.196L1355.21 666.6L1355 666.004C1345.83 669.242 1338.07 674.14 1331.72 680.699L1332.17 681.139ZM1355.21 666.6L1355.42 667.195C1364.42 663.946 1374.38 662.318 1385.31 662.318V661.685V661.053C1374.26 661.053 1364.15 662.701 1354.99 666.005L1355.21 666.6ZM1385.31 661.685V662.318C1392.84 662.318 1400.33 663.199 1407.79 664.963L1407.94 664.347L1408.08 663.732C1400.53 661.946 1392.93 661.053 1385.31 661.053V661.685ZM1407.94 664.347L1407.79 664.963C1415.23 666.721 1422.02 669.627 1428.17 673.681L1428.52 673.153L1428.86 672.625C1422.59 668.487 1415.66 665.523 1408.08 663.732L1407.94 664.347ZM1428.52 673.153L1428.17 673.683C1434.29 677.649 1439.2 683.062 1442.91 689.937L1443.46 689.637L1444.02 689.337C1440.22 682.288 1435.17 676.711 1428.86 672.622L1428.52 673.153ZM1443.46 689.637L1442.91 689.941C1446.67 696.786 1448.57 705.376 1448.57 715.746H1449.2H1449.83C1449.83 705.228 1447.91 696.413 1444.02 689.333L1443.46 689.637ZM1449.2 715.746H1448.57V821H1449.2H1449.83V715.746H1449.2ZM1449.2 821V820.368H1413.57V821V821.632H1449.2V821ZM1413.57 821H1414.2V799.396H1413.57H1412.93V821H1413.57ZM1413.57 799.396V798.764H1412.34V799.396V800.029H1413.57V799.396ZM1412.34 799.396L1411.78 799.107C1409.56 803.402 1406.43 807.441 1402.39 811.221L1402.82 811.683L1403.25 812.145C1407.39 808.28 1410.61 804.127 1412.9 799.686L1412.34 799.396ZM1402.82 811.683L1402.39 811.22C1398.43 814.909 1393.42 817.907 1387.34 820.204L1387.56 820.795L1387.78 821.387C1393.99 819.042 1399.15 815.965 1403.25 812.145L1402.82 811.683ZM1387.56 820.795L1387.34 820.202C1381.35 822.423 1374.3 823.542 1366.16 823.542V824.174V824.806C1374.41 824.806 1381.62 823.673 1387.78 821.388L1387.56 820.795ZM1375.79 796.939V797.571C1383.31 797.571 1389.87 796.087 1395.44 793.093L1395.14 792.536L1394.84 791.979C1389.49 794.856 1383.14 796.307 1375.79 796.307V796.939ZM1395.14 792.536L1395.44 793.09C1400.99 790.038 1405.28 786.003 1408.27 780.984L1407.73 780.659L1407.19 780.335C1404.32 785.145 1400.2 789.028 1394.83 791.982L1395.14 792.536ZM1407.73 780.659L1408.27 780.989C1411.34 775.974 1412.87 770.502 1412.87 764.585H1412.24H1411.6C1411.6 770.271 1410.13 775.515 1407.19 780.33L1407.73 780.659ZM1412.24 764.585H1412.87V746.053H1412.24H1411.6V764.585H1412.24ZM1412.24 746.053L1411.83 745.564C1410.78 746.436 1408.9 747.294 1406.12 748.108L1406.3 748.715L1406.48 749.321C1409.29 748.497 1411.38 747.581 1412.64 746.541L1412.24 746.053ZM1406.3 748.715L1406.12 748.109C1403.41 748.92 1400.37 749.631 1396.97 750.242L1397.08 750.865L1397.19 751.487C1400.63 750.869 1403.72 750.147 1406.48 749.32L1406.3 748.715ZM1397.08 750.865L1396.97 750.242C1393.57 750.855 1390.19 751.4 1386.86 751.877L1386.95 752.503L1387.04 753.129C1390.39 752.65 1393.77 752.103 1397.19 751.487L1397.08 750.865ZM1386.95 752.503L1386.86 751.877C1383.51 752.355 1380.61 752.764 1378.16 753.105L1378.24 753.732L1378.33 754.358C1380.79 754.016 1383.69 753.607 1387.04 753.129L1386.95 752.503ZM1378.24 753.732L1378.16 753.105C1372.59 753.861 1367.59 755.101 1363.17 756.829L1363.4 757.418L1363.63 758.006C1367.94 756.321 1372.84 755.103 1378.33 754.358L1378.24 753.732ZM1363.4 757.418L1363.17 756.829C1358.72 758.567 1355.17 761.014 1352.57 764.183L1353.06 764.585L1353.54 764.986C1355.99 762.012 1359.34 759.681 1363.63 758.006L1363.4 757.418ZM1353.06 764.585L1352.57 764.178C1349.93 767.318 1348.64 771.363 1348.64 776.257H1349.27H1349.9C1349.9 771.594 1351.13 767.858 1353.54 764.992L1353.06 764.585ZM1349.27 776.257H1348.64C1348.64 783.26 1351.21 788.62 1356.38 792.236L1356.74 791.717L1357.1 791.199C1352.31 787.852 1349.9 782.906 1349.9 776.257H1349.27ZM1356.74 791.717L1356.38 792.236C1361.49 795.809 1367.98 797.571 1375.79 797.571V796.939V796.307C1368.17 796.307 1361.96 794.588 1357.1 791.199L1356.74 791.717Z" fill="#343434" mask="url(#path-3-outside-1_527_2214)"/>
</g>
</g>
<defs>
<filter id="filter0_f_527_2214" x="-1097.4" y="-1138.4" width="3635.8" height="1571.8" filterUnits="userSpaceOnUse" color-interpolation-filters="sRGB">
<feFlood flood-opacity="0" result="BackgroundImageFix"/>
<feBlend mode="normal" in="SourceGraphic" in2="BackgroundImageFix" result="shape"/>
<feGaussianBlur stdDeviation="100.7" result="effect1_foregroundBlur_527_2214"/>
</filter>
<filter id="filter1_f_527_2214" x="-411.4" y="-509.4" width="2263.8" height="1067.8" filterUnits="userSpaceOnUse" color-interpolation-filters="sRGB">
<feFlood flood-opacity="0" result="BackgroundImageFix"/>
<feBlend mode="normal" in="SourceGraphic" in2="BackgroundImageFix" result="shape"/>
<feGaussianBlur stdDeviation="100.7" result="effect1_foregroundBlur_527_2214"/>
</filter>
<radialGradient id="paint0_radial_527_2214" cx="0" cy="0" r="1" gradientUnits="userSpaceOnUse" gradientTransform="translate(1616.5 189.166) rotate(-90) scale(189.166 3047.26)">
<stop offset="0.347401" stop-color="#FCFCFC"/>
<stop offset="1" stop-color="#FCFCFC" stop-opacity="0"/>
</radialGradient>
<radialGradient id="paint1_radial_527_2214" cx="0" cy="0" r="1" gradientUnits="userSpaceOnUse" gradientTransform="translate(720.5 -75.0708) rotate(90) scale(365.52 2832.1)">
<stop offset="0.187016" stop-color="#FCFCFC"/>
<stop offset="0.54104" stop-color="#379BFD"/>
</radialGradient>
<linearGradient id="paint2_linear_527_2214" x1="564.53" y1="676.821" x2="563.999" y2="821.002" gradientUnits="userSpaceOnUse">
<stop stop-color="#1D1D1D"/>
<stop offset="1" stop-color="#161616"/>
</linearGradient>
<clipPath id="clip0_527_2214">
<rect width="1440" height="865" fill="white"/>
</clipPath>
<clipPath id="clip1_527_2214">
<rect width="1440" height="865" fill="white"/>
</clipPath>
<clipPath id="clip2_527_2214">
<rect width="1440" height="957" fill="white" transform="matrix(1 0 0 -1 0 865)"/>
</clipPath>
<clipPath id="clip3_527_2214">
<rect width="1440" height="906" fill="white" transform="matrix(1 0 0 -1 0 906)"/>
</clipPath>
</defs>
</svg>
