<svg width="1362" height="247" viewBox="0 0 1362 247" fill="none" xmlns="http://www.w3.org/2000/svg">
<mask id="path-1-outside-1_475_431" maskUnits="userSpaceOnUse" x="0" y="0" width="1362" height="274" fill="black">
<rect fill="white" width="1362" height="274"/>
<path d="M0.682225 211V1.3109H38.6679V90.0806H135.833V1.3109H173.921V211H135.833V121.923H38.6679V211H0.682225ZM256.247 214.072C240.889 214.072 227.579 210.693 216.316 203.935C205.053 197.178 196.316 187.724 190.105 175.574C183.962 163.424 180.89 149.226 180.89 132.981C180.89 116.735 183.962 102.504 190.105 90.2854C196.316 78.0672 205.053 68.5793 216.316 61.8218C227.579 55.0642 240.889 51.6854 256.247 51.6854C271.605 51.6854 284.915 55.0642 296.178 61.8218C307.441 68.5793 316.144 78.0672 322.287 90.2854C328.498 102.504 331.604 116.735 331.604 132.981C331.604 149.226 328.498 163.424 322.287 175.574C316.144 187.724 307.441 197.178 296.178 203.935C284.915 210.693 271.605 214.072 256.247 214.072ZM256.452 184.379C264.779 184.379 271.742 182.093 277.339 177.519C282.936 172.878 287.1 166.666 289.83 158.885C292.629 151.103 294.028 142.435 294.028 132.879C294.028 123.254 292.629 114.551 289.83 106.77C287.1 98.9201 282.936 92.6745 277.339 88.0329C271.742 83.3913 264.779 81.0706 256.452 81.0706C247.919 81.0706 240.821 83.3913 235.155 88.0329C229.558 92.6745 225.36 98.9201 222.562 106.77C219.831 114.551 218.466 123.254 218.466 132.879C218.466 142.435 219.831 151.103 222.562 158.885C225.36 166.666 229.558 172.878 235.155 177.519C240.821 182.093 247.919 184.379 256.452 184.379ZM461.412 95.3024L427.624 98.9883C426.668 95.5754 424.996 92.3673 422.607 89.3639C420.286 86.3606 417.146 83.9374 413.187 82.0944C409.228 80.2515 404.382 79.33 398.648 79.33C390.935 79.33 384.45 81.0023 379.195 84.347C374.007 87.6916 371.447 92.026 371.516 97.3501C371.447 101.923 373.12 105.644 376.533 108.51C380.014 111.377 385.747 113.732 393.734 115.575L420.559 121.309C435.439 124.517 446.497 129.602 453.733 136.564C461.036 143.527 464.722 152.639 464.79 163.902C464.722 173.799 461.821 182.536 456.087 190.113C450.422 197.621 442.538 203.492 432.436 207.724C422.334 211.956 410.73 214.072 397.624 214.072C378.375 214.072 362.881 210.044 351.14 201.99C339.4 193.867 332.404 182.57 330.151 168.1L366.294 164.619C367.932 171.717 371.413 177.076 376.737 180.693C382.061 184.311 388.99 186.12 397.522 186.12C406.327 186.12 413.392 184.311 418.716 180.693C424.108 177.076 426.805 172.605 426.805 167.281C426.805 162.776 425.064 159.056 421.583 156.12C418.17 153.185 412.846 150.933 405.61 149.363L378.785 143.732C363.7 140.592 352.54 135.302 345.304 127.862C338.069 120.353 334.485 110.865 334.554 99.3979C334.485 89.7052 337.113 81.3095 342.438 74.2106C347.83 67.0435 355.304 61.5146 364.86 57.6239C374.485 53.6649 385.577 51.6854 398.136 51.6854C416.566 51.6854 431.071 55.6103 441.651 63.46C452.299 71.3097 458.886 81.9238 461.412 95.3024ZM547.935 53.7332V82.4016H457.527V53.7332H547.935ZM479.847 16.0547H516.912V163.697C516.912 168.68 517.662 172.502 519.164 175.164C520.734 177.758 522.782 179.533 525.307 180.489C527.833 181.444 530.631 181.922 533.703 181.922C536.024 181.922 538.14 181.751 540.051 181.41C542.031 181.069 543.532 180.762 544.556 180.489L550.802 209.464C548.822 210.147 545.99 210.898 542.304 211.717C538.686 212.536 534.249 213.014 528.993 213.15C519.71 213.423 511.349 212.024 503.908 208.952C496.468 205.812 490.564 200.966 486.195 194.413C481.895 187.86 479.779 179.669 479.847 169.84V16.0547ZM619.894 214.072C604.536 214.072 591.225 210.693 579.963 203.935C568.7 197.178 559.963 187.724 553.752 175.574C547.608 163.424 544.537 149.226 544.537 132.981C544.537 116.735 547.608 102.504 553.752 90.2854C559.963 78.0672 568.7 68.5793 579.963 61.8218C591.225 55.0642 604.536 51.6854 619.894 51.6854C635.252 51.6854 648.562 55.0642 659.825 61.8218C671.087 68.5793 679.79 78.0672 685.934 90.2854C692.145 102.504 695.251 116.735 695.251 132.981C695.251 149.226 692.145 163.424 685.934 175.574C679.79 187.724 671.087 197.178 659.825 203.935C648.562 210.693 635.252 214.072 619.894 214.072ZM620.099 184.379C628.426 184.379 635.388 182.093 640.986 177.519C646.583 172.878 650.746 166.666 653.477 158.885C656.275 151.103 657.675 142.435 657.675 132.879C657.675 123.254 656.275 114.551 653.477 106.77C650.746 98.9201 646.583 92.6745 640.986 88.0329C635.388 83.3913 628.426 81.0706 620.099 81.0706C611.566 81.0706 604.467 83.3913 598.802 88.0329C593.205 92.6745 589.007 98.9201 586.208 106.77C583.478 114.551 582.113 123.254 582.113 132.879C582.113 142.435 583.478 151.103 586.208 158.885C589.007 166.666 593.205 172.878 598.802 177.519C604.467 182.093 611.566 184.379 620.099 184.379ZM700.76 211V53.7332H736.186V80.4562H738.029C741.306 71.4462 746.732 64.4156 754.309 59.3645C761.885 54.2451 770.93 51.6854 781.441 51.6854C792.09 51.6854 801.066 54.2792 808.369 59.4669C815.741 64.5862 820.929 71.5827 823.932 80.4562H825.57C829.051 71.7192 834.922 64.7569 843.181 59.5693C851.508 54.3134 861.372 51.6854 872.771 51.6854C887.242 51.6854 899.05 56.2587 908.197 65.4053C917.343 74.5519 921.917 87.8964 921.917 105.439V211H884.75V111.172C884.75 101.412 882.156 94.2785 876.969 89.7735C871.781 85.2002 865.433 82.9135 857.925 82.9135C848.983 82.9135 841.986 85.7121 836.935 91.3093C831.952 96.8382 829.461 104.039 829.461 112.913V211H793.114V109.637C793.114 101.514 790.656 95.0294 785.742 90.183C780.895 85.3367 774.547 82.9135 766.698 82.9135C761.373 82.9135 756.527 84.2787 752.159 87.009C747.79 89.6711 744.309 93.4594 741.715 98.374C739.121 103.22 737.824 108.886 737.824 115.37V211H700.76ZM1003.19 214.072C987.425 214.072 973.808 210.795 962.34 204.242C950.941 197.621 942.17 188.27 936.027 176.188C929.883 164.038 926.812 149.738 926.812 133.288C926.812 117.111 929.883 102.913 936.027 90.695C942.238 78.4085 950.907 68.8524 962.033 62.0265C973.159 55.1325 986.231 51.6854 1001.25 51.6854C1010.94 51.6854 1020.09 53.2554 1028.69 56.3952C1037.36 59.4669 1045 64.2449 1051.62 70.7295C1058.31 77.214 1063.57 85.4732 1067.39 95.5072C1071.21 105.473 1073.12 117.35 1073.12 131.138V142.503H944.218V117.52H1037.59C1037.53 110.422 1035.99 104.108 1032.99 98.5788C1029.98 92.9816 1025.79 88.579 1020.39 85.3708C1015.07 82.1627 1008.86 80.5586 1001.76 80.5586C994.183 80.5586 987.527 82.4016 981.794 86.0875C976.06 89.7052 971.589 94.4833 968.381 100.422C965.241 106.292 963.637 112.742 963.569 119.773V141.581C963.569 150.728 965.241 158.578 968.586 165.131C971.93 171.615 976.606 176.598 982.613 180.079C988.62 183.492 995.65 185.198 1003.7 185.198C1009.1 185.198 1013.98 184.448 1018.35 182.946C1022.71 181.376 1026.5 179.089 1029.71 176.086C1032.92 173.083 1035.34 169.363 1036.98 164.926L1071.59 168.816C1069.4 177.963 1065.24 185.949 1059.1 192.775C1053.02 199.533 1045.24 204.789 1035.75 208.543C1026.26 212.229 1015.41 214.072 1003.19 214.072ZM1146.92 273.251C1133.61 273.251 1122.18 271.443 1112.63 267.825C1103.07 264.276 1095.39 259.497 1089.59 253.491C1083.79 247.484 1079.76 240.829 1077.51 233.525L1110.88 225.437C1112.39 228.508 1114.57 231.546 1117.44 234.549C1120.3 237.621 1124.16 240.146 1129.01 242.126C1133.92 244.173 1140.1 245.197 1147.54 245.197C1158.05 245.197 1166.75 242.638 1173.65 237.518C1180.54 232.467 1183.99 224.14 1183.99 212.536V182.741H1182.15C1180.23 186.564 1177.44 190.488 1173.75 194.516C1170.13 198.543 1165.32 201.922 1159.31 204.652C1153.38 207.382 1145.9 208.747 1136.89 208.747C1124.81 208.747 1113.85 205.915 1104.02 200.249C1094.26 194.516 1086.48 185.983 1080.68 174.653C1074.95 163.253 1072.08 148.987 1072.08 131.855C1072.08 114.585 1074.95 100.012 1080.68 88.1353C1086.48 76.1901 1094.3 67.1459 1104.13 61.0027C1113.96 54.7912 1124.91 51.6854 1136.99 51.6854C1146.21 51.6854 1153.78 53.2554 1159.72 56.3952C1165.73 59.4669 1170.51 63.1869 1174.06 67.5555C1177.61 71.8557 1180.3 75.9171 1182.15 79.7395H1184.19V53.7332H1220.75V213.56C1220.75 227.007 1217.54 238.133 1211.12 246.938C1204.71 255.743 1195.93 262.33 1184.81 266.699C1173.68 271.067 1161.05 273.251 1146.92 273.251ZM1147.23 179.669C1155.08 179.669 1161.77 177.758 1167.3 173.936C1172.83 170.113 1177.03 164.619 1179.89 157.451C1182.76 150.284 1184.19 141.684 1184.19 131.65C1184.19 121.752 1182.76 113.084 1179.89 105.644C1177.1 98.2034 1172.93 92.4356 1167.4 88.3401C1161.94 84.1763 1155.22 82.0944 1147.23 82.0944C1138.97 82.0944 1132.08 84.2446 1126.55 88.5448C1121.02 92.8451 1116.86 98.7494 1114.06 106.258C1111.26 113.698 1109.86 122.162 1109.86 131.65C1109.86 141.274 1111.26 149.704 1114.06 156.94C1116.93 164.107 1121.12 169.704 1126.65 173.731C1132.25 177.69 1139.11 179.669 1147.23 179.669ZM1278.04 214.174C1268.07 214.174 1259.1 212.399 1251.11 208.85C1243.19 205.232 1236.91 199.908 1232.27 192.877C1227.7 185.847 1225.41 177.178 1225.41 166.871C1225.41 157.998 1227.05 150.66 1230.33 144.858C1233.6 139.056 1238.07 134.414 1243.74 130.933C1249.4 127.452 1255.79 124.824 1262.88 123.049C1270.05 121.206 1277.46 119.875 1285.1 119.056C1294.32 118.101 1301.79 117.247 1307.53 116.497C1313.26 115.677 1317.42 114.449 1320.02 112.811C1322.68 111.104 1324.01 108.476 1324.01 104.927V104.312C1324.01 96.5993 1321.72 90.6267 1317.15 86.3947C1312.58 82.1627 1305.99 80.0467 1297.39 80.0467C1288.31 80.0467 1281.11 82.0262 1275.79 85.9852C1270.53 89.9441 1266.98 94.6198 1265.14 100.012L1230.53 95.0976C1233.26 85.5415 1237.77 77.5553 1244.05 71.139C1250.33 64.6545 1258 59.8081 1267.08 56.6C1276.16 53.3236 1286.19 51.6854 1297.18 51.6854C1304.76 51.6854 1312.3 52.5728 1319.81 54.3475C1327.32 56.1222 1334.18 59.0573 1340.39 63.1528C1346.6 67.18 1351.59 72.6748 1355.34 79.6371C1359.16 86.5995 1361.07 95.3024 1361.07 105.746V211H1325.44V189.396H1324.21C1321.96 193.765 1318.79 197.86 1314.69 201.683C1310.67 205.437 1305.58 208.474 1299.44 210.795C1293.36 213.048 1286.23 214.174 1278.04 214.174ZM1287.66 186.939C1295.1 186.939 1301.55 185.471 1307.01 182.536C1312.47 179.533 1316.67 175.574 1319.61 170.659C1322.61 165.745 1324.11 160.387 1324.11 154.585V136.053C1322.95 137.008 1320.97 137.895 1318.17 138.715C1315.44 139.534 1312.37 140.25 1308.96 140.865C1305.55 141.479 1302.17 142.025 1298.82 142.503C1295.48 142.981 1292.58 143.39 1290.12 143.732C1284.59 144.482 1279.64 145.711 1275.27 147.418C1270.9 149.124 1267.46 151.513 1264.93 154.585C1262.41 157.588 1261.14 161.479 1261.14 166.257C1261.14 173.083 1263.64 178.236 1268.62 181.717C1273.6 185.198 1279.95 186.939 1287.66 186.939Z"/>
</mask>
<path d="M0.682225 211V1.3109H38.6679V90.0806H135.833V1.3109H173.921V211H135.833V121.923H38.6679V211H0.682225ZM256.247 214.072C240.889 214.072 227.579 210.693 216.316 203.935C205.053 197.178 196.316 187.724 190.105 175.574C183.962 163.424 180.89 149.226 180.89 132.981C180.89 116.735 183.962 102.504 190.105 90.2854C196.316 78.0672 205.053 68.5793 216.316 61.8218C227.579 55.0642 240.889 51.6854 256.247 51.6854C271.605 51.6854 284.915 55.0642 296.178 61.8218C307.441 68.5793 316.144 78.0672 322.287 90.2854C328.498 102.504 331.604 116.735 331.604 132.981C331.604 149.226 328.498 163.424 322.287 175.574C316.144 187.724 307.441 197.178 296.178 203.935C284.915 210.693 271.605 214.072 256.247 214.072ZM256.452 184.379C264.779 184.379 271.742 182.093 277.339 177.519C282.936 172.878 287.1 166.666 289.83 158.885C292.629 151.103 294.028 142.435 294.028 132.879C294.028 123.254 292.629 114.551 289.83 106.77C287.1 98.9201 282.936 92.6745 277.339 88.0329C271.742 83.3913 264.779 81.0706 256.452 81.0706C247.919 81.0706 240.821 83.3913 235.155 88.0329C229.558 92.6745 225.36 98.9201 222.562 106.77C219.831 114.551 218.466 123.254 218.466 132.879C218.466 142.435 219.831 151.103 222.562 158.885C225.36 166.666 229.558 172.878 235.155 177.519C240.821 182.093 247.919 184.379 256.452 184.379ZM461.412 95.3024L427.624 98.9883C426.668 95.5754 424.996 92.3673 422.607 89.3639C420.286 86.3606 417.146 83.9374 413.187 82.0944C409.228 80.2515 404.382 79.33 398.648 79.33C390.935 79.33 384.45 81.0023 379.195 84.347C374.007 87.6916 371.447 92.026 371.516 97.3501C371.447 101.923 373.12 105.644 376.533 108.51C380.014 111.377 385.747 113.732 393.734 115.575L420.559 121.309C435.439 124.517 446.497 129.602 453.733 136.564C461.036 143.527 464.722 152.639 464.79 163.902C464.722 173.799 461.821 182.536 456.087 190.113C450.422 197.621 442.538 203.492 432.436 207.724C422.334 211.956 410.73 214.072 397.624 214.072C378.375 214.072 362.881 210.044 351.14 201.99C339.4 193.867 332.404 182.57 330.151 168.1L366.294 164.619C367.932 171.717 371.413 177.076 376.737 180.693C382.061 184.311 388.99 186.12 397.522 186.12C406.327 186.12 413.392 184.311 418.716 180.693C424.108 177.076 426.805 172.605 426.805 167.281C426.805 162.776 425.064 159.056 421.583 156.12C418.17 153.185 412.846 150.933 405.61 149.363L378.785 143.732C363.7 140.592 352.54 135.302 345.304 127.862C338.069 120.353 334.485 110.865 334.554 99.3979C334.485 89.7052 337.113 81.3095 342.438 74.2106C347.83 67.0435 355.304 61.5146 364.86 57.6239C374.485 53.6649 385.577 51.6854 398.136 51.6854C416.566 51.6854 431.071 55.6103 441.651 63.46C452.299 71.3097 458.886 81.9238 461.412 95.3024ZM547.935 53.7332V82.4016H457.527V53.7332H547.935ZM479.847 16.0547H516.912V163.697C516.912 168.68 517.662 172.502 519.164 175.164C520.734 177.758 522.782 179.533 525.307 180.489C527.833 181.444 530.631 181.922 533.703 181.922C536.024 181.922 538.14 181.751 540.051 181.41C542.031 181.069 543.532 180.762 544.556 180.489L550.802 209.464C548.822 210.147 545.99 210.898 542.304 211.717C538.686 212.536 534.249 213.014 528.993 213.15C519.71 213.423 511.349 212.024 503.908 208.952C496.468 205.812 490.564 200.966 486.195 194.413C481.895 187.86 479.779 179.669 479.847 169.84V16.0547ZM619.894 214.072C604.536 214.072 591.225 210.693 579.963 203.935C568.7 197.178 559.963 187.724 553.752 175.574C547.608 163.424 544.537 149.226 544.537 132.981C544.537 116.735 547.608 102.504 553.752 90.2854C559.963 78.0672 568.7 68.5793 579.963 61.8218C591.225 55.0642 604.536 51.6854 619.894 51.6854C635.252 51.6854 648.562 55.0642 659.825 61.8218C671.087 68.5793 679.79 78.0672 685.934 90.2854C692.145 102.504 695.251 116.735 695.251 132.981C695.251 149.226 692.145 163.424 685.934 175.574C679.79 187.724 671.087 197.178 659.825 203.935C648.562 210.693 635.252 214.072 619.894 214.072ZM620.099 184.379C628.426 184.379 635.388 182.093 640.986 177.519C646.583 172.878 650.746 166.666 653.477 158.885C656.275 151.103 657.675 142.435 657.675 132.879C657.675 123.254 656.275 114.551 653.477 106.77C650.746 98.9201 646.583 92.6745 640.986 88.0329C635.388 83.3913 628.426 81.0706 620.099 81.0706C611.566 81.0706 604.467 83.3913 598.802 88.0329C593.205 92.6745 589.007 98.9201 586.208 106.77C583.478 114.551 582.113 123.254 582.113 132.879C582.113 142.435 583.478 151.103 586.208 158.885C589.007 166.666 593.205 172.878 598.802 177.519C604.467 182.093 611.566 184.379 620.099 184.379ZM700.76 211V53.7332H736.186V80.4562H738.029C741.306 71.4462 746.732 64.4156 754.309 59.3645C761.885 54.2451 770.93 51.6854 781.441 51.6854C792.09 51.6854 801.066 54.2792 808.369 59.4669C815.741 64.5862 820.929 71.5827 823.932 80.4562H825.57C829.051 71.7192 834.922 64.7569 843.181 59.5693C851.508 54.3134 861.372 51.6854 872.771 51.6854C887.242 51.6854 899.05 56.2587 908.197 65.4053C917.343 74.5519 921.917 87.8964 921.917 105.439V211H884.75V111.172C884.75 101.412 882.156 94.2785 876.969 89.7735C871.781 85.2002 865.433 82.9135 857.925 82.9135C848.983 82.9135 841.986 85.7121 836.935 91.3093C831.952 96.8382 829.461 104.039 829.461 112.913V211H793.114V109.637C793.114 101.514 790.656 95.0294 785.742 90.183C780.895 85.3367 774.547 82.9135 766.698 82.9135C761.373 82.9135 756.527 84.2787 752.159 87.009C747.79 89.6711 744.309 93.4594 741.715 98.374C739.121 103.22 737.824 108.886 737.824 115.37V211H700.76ZM1003.19 214.072C987.425 214.072 973.808 210.795 962.34 204.242C950.941 197.621 942.17 188.27 936.027 176.188C929.883 164.038 926.812 149.738 926.812 133.288C926.812 117.111 929.883 102.913 936.027 90.695C942.238 78.4085 950.907 68.8524 962.033 62.0265C973.159 55.1325 986.231 51.6854 1001.25 51.6854C1010.94 51.6854 1020.09 53.2554 1028.69 56.3952C1037.36 59.4669 1045 64.2449 1051.62 70.7295C1058.31 77.214 1063.57 85.4732 1067.39 95.5072C1071.21 105.473 1073.12 117.35 1073.12 131.138V142.503H944.218V117.52H1037.59C1037.53 110.422 1035.99 104.108 1032.99 98.5788C1029.98 92.9816 1025.79 88.579 1020.39 85.3708C1015.07 82.1627 1008.86 80.5586 1001.76 80.5586C994.183 80.5586 987.527 82.4016 981.794 86.0875C976.06 89.7052 971.589 94.4833 968.381 100.422C965.241 106.292 963.637 112.742 963.569 119.773V141.581C963.569 150.728 965.241 158.578 968.586 165.131C971.93 171.615 976.606 176.598 982.613 180.079C988.62 183.492 995.65 185.198 1003.7 185.198C1009.1 185.198 1013.98 184.448 1018.35 182.946C1022.71 181.376 1026.5 179.089 1029.71 176.086C1032.92 173.083 1035.34 169.363 1036.98 164.926L1071.59 168.816C1069.4 177.963 1065.24 185.949 1059.1 192.775C1053.02 199.533 1045.24 204.789 1035.75 208.543C1026.26 212.229 1015.41 214.072 1003.19 214.072ZM1146.92 273.251C1133.61 273.251 1122.18 271.443 1112.63 267.825C1103.07 264.276 1095.39 259.497 1089.59 253.491C1083.79 247.484 1079.76 240.829 1077.51 233.525L1110.88 225.437C1112.39 228.508 1114.57 231.546 1117.44 234.549C1120.3 237.621 1124.16 240.146 1129.01 242.126C1133.92 244.173 1140.1 245.197 1147.54 245.197C1158.05 245.197 1166.75 242.638 1173.65 237.518C1180.54 232.467 1183.99 224.14 1183.99 212.536V182.741H1182.15C1180.23 186.564 1177.44 190.488 1173.75 194.516C1170.13 198.543 1165.32 201.922 1159.31 204.652C1153.38 207.382 1145.9 208.747 1136.89 208.747C1124.81 208.747 1113.85 205.915 1104.02 200.249C1094.26 194.516 1086.48 185.983 1080.68 174.653C1074.95 163.253 1072.08 148.987 1072.08 131.855C1072.08 114.585 1074.95 100.012 1080.68 88.1353C1086.48 76.1901 1094.3 67.1459 1104.13 61.0027C1113.96 54.7912 1124.91 51.6854 1136.99 51.6854C1146.21 51.6854 1153.78 53.2554 1159.72 56.3952C1165.73 59.4669 1170.51 63.1869 1174.06 67.5555C1177.61 71.8557 1180.3 75.9171 1182.15 79.7395H1184.19V53.7332H1220.75V213.56C1220.75 227.007 1217.54 238.133 1211.12 246.938C1204.71 255.743 1195.93 262.33 1184.81 266.699C1173.68 271.067 1161.05 273.251 1146.92 273.251ZM1147.23 179.669C1155.08 179.669 1161.77 177.758 1167.3 173.936C1172.83 170.113 1177.03 164.619 1179.89 157.451C1182.76 150.284 1184.19 141.684 1184.19 131.65C1184.19 121.752 1182.76 113.084 1179.89 105.644C1177.1 98.2034 1172.93 92.4356 1167.4 88.3401C1161.94 84.1763 1155.22 82.0944 1147.23 82.0944C1138.97 82.0944 1132.08 84.2446 1126.55 88.5448C1121.02 92.8451 1116.86 98.7494 1114.06 106.258C1111.26 113.698 1109.86 122.162 1109.86 131.65C1109.86 141.274 1111.26 149.704 1114.06 156.94C1116.93 164.107 1121.12 169.704 1126.65 173.731C1132.25 177.69 1139.11 179.669 1147.23 179.669ZM1278.04 214.174C1268.07 214.174 1259.1 212.399 1251.11 208.85C1243.19 205.232 1236.91 199.908 1232.27 192.877C1227.7 185.847 1225.41 177.178 1225.41 166.871C1225.41 157.998 1227.05 150.66 1230.33 144.858C1233.6 139.056 1238.07 134.414 1243.74 130.933C1249.4 127.452 1255.79 124.824 1262.88 123.049C1270.05 121.206 1277.46 119.875 1285.1 119.056C1294.32 118.101 1301.79 117.247 1307.53 116.497C1313.26 115.677 1317.42 114.449 1320.02 112.811C1322.68 111.104 1324.01 108.476 1324.01 104.927V104.312C1324.01 96.5993 1321.72 90.6267 1317.15 86.3947C1312.58 82.1627 1305.99 80.0467 1297.39 80.0467C1288.31 80.0467 1281.11 82.0262 1275.79 85.9852C1270.53 89.9441 1266.98 94.6198 1265.14 100.012L1230.53 95.0976C1233.26 85.5415 1237.77 77.5553 1244.05 71.139C1250.33 64.6545 1258 59.8081 1267.08 56.6C1276.16 53.3236 1286.19 51.6854 1297.18 51.6854C1304.76 51.6854 1312.3 52.5728 1319.81 54.3475C1327.32 56.1222 1334.18 59.0573 1340.39 63.1528C1346.6 67.18 1351.59 72.6748 1355.34 79.6371C1359.16 86.5995 1361.07 95.3024 1361.07 105.746V211H1325.44V189.396H1324.21C1321.96 193.765 1318.79 197.86 1314.69 201.683C1310.67 205.437 1305.58 208.474 1299.44 210.795C1293.36 213.048 1286.23 214.174 1278.04 214.174ZM1287.66 186.939C1295.1 186.939 1301.55 185.471 1307.01 182.536C1312.47 179.533 1316.67 175.574 1319.61 170.659C1322.61 165.745 1324.11 160.387 1324.11 154.585V136.053C1322.95 137.008 1320.97 137.895 1318.17 138.715C1315.44 139.534 1312.37 140.25 1308.96 140.865C1305.55 141.479 1302.17 142.025 1298.82 142.503C1295.48 142.981 1292.58 143.39 1290.12 143.732C1284.59 144.482 1279.64 145.711 1275.27 147.418C1270.9 149.124 1267.46 151.513 1264.93 154.585C1262.41 157.588 1261.14 161.479 1261.14 166.257C1261.14 173.083 1263.64 178.236 1268.62 181.717C1273.6 185.198 1279.95 186.939 1287.66 186.939Z" fill="url(#paint0_linear_475_431)" fill-opacity="0.5"/>
<path d="M0.682225 211H0.0499389V211.632H0.682225V211ZM0.682225 1.3109V0.67861H0.0499389V1.3109H0.682225ZM38.6679 1.3109H39.3002V0.67861H38.6679V1.3109ZM38.6679 90.0806H38.0356V90.7129H38.6679V90.0806ZM135.833 90.0806V90.7129H136.466V90.0806H135.833ZM135.833 1.3109V0.67861H135.201V1.3109H135.833ZM173.921 1.3109H174.554V0.67861H173.921V1.3109ZM173.921 211V211.632H174.554V211H173.921ZM135.833 211H135.201V211.632H135.833V211ZM135.833 121.923H136.466V121.291H135.833V121.923ZM38.6679 121.923V121.291H38.0356V121.923H38.6679ZM38.6679 211V211.632H39.3002V211H38.6679ZM0.682225 211H1.31451V1.3109H0.682225H0.0499389V211H0.682225ZM0.682225 1.3109V1.94318H38.6679V1.3109V0.67861H0.682225V1.3109ZM38.6679 1.3109H38.0356V90.0806H38.6679H39.3002V1.3109H38.6679ZM38.6679 90.0806V90.7129H135.833V90.0806V89.4484H38.6679V90.0806ZM135.833 90.0806H136.466V1.3109H135.833H135.201V90.0806H135.833ZM135.833 1.3109V1.94318H173.921V1.3109V0.67861H135.833V1.3109ZM173.921 1.3109H173.289V211H173.921H174.554V1.3109H173.921ZM173.921 211V210.368H135.833V211V211.632H173.921V211ZM135.833 211H136.466V121.923H135.833H135.201V211H135.833ZM135.833 121.923V121.291H38.6679V121.923V122.555H135.833V121.923ZM38.6679 121.923H38.0356V211H38.6679H39.3002V121.923H38.6679ZM38.6679 211V210.368H0.682225V211V211.632H38.6679V211ZM216.316 203.935L215.991 204.477L215.991 204.477L216.316 203.935ZM190.105 175.574L189.541 175.859L189.542 175.862L190.105 175.574ZM190.105 90.2854L189.541 89.9989L189.54 90.0014L190.105 90.2854ZM216.316 61.8218L216.641 62.364L216.641 62.364L216.316 61.8218ZM296.178 61.8218L295.853 62.364L295.853 62.364L296.178 61.8218ZM322.287 90.2854L321.722 90.5695L321.723 90.572L322.287 90.2854ZM322.287 175.574L321.724 175.286L321.722 175.289L322.287 175.574ZM296.178 203.935L295.853 203.393L295.853 203.393L296.178 203.935ZM277.339 177.519L277.739 178.009L277.742 178.006L277.339 177.519ZM289.83 158.885L289.235 158.671L289.233 158.676L289.83 158.885ZM289.83 106.77L289.233 106.978L289.235 106.984L289.83 106.77ZM277.339 88.0329L277.742 87.5462L277.742 87.5462L277.339 88.0329ZM235.155 88.0329L234.754 87.5438L234.752 87.5462L235.155 88.0329ZM222.562 106.77L221.966 106.557L221.965 106.56L222.562 106.77ZM222.562 158.885L221.965 159.094L221.967 159.099L222.562 158.885ZM235.155 177.519L234.752 178.006L234.758 178.011L235.155 177.519ZM256.247 214.072V213.439C240.984 213.439 227.79 210.082 216.641 203.393L216.316 203.935L215.991 204.477C227.367 211.303 240.794 214.704 256.247 214.704V214.072ZM216.316 203.935L216.641 203.393C205.484 196.699 196.828 187.335 190.668 175.286L190.105 175.574L189.542 175.862C195.805 188.113 204.622 197.657 215.991 204.477L216.316 203.935ZM190.105 175.574L190.669 175.289C184.578 163.243 181.522 149.146 181.522 132.981H180.89H180.258C180.258 149.306 183.345 163.605 189.541 175.859L190.105 175.574ZM180.89 132.981H181.522C181.522 116.816 184.578 102.684 190.67 90.5694L190.105 90.2854L189.54 90.0014C183.345 102.323 180.258 116.655 180.258 132.981H180.89ZM190.105 90.2854L190.668 90.572C196.829 78.4548 205.485 69.0576 216.641 62.364L216.316 61.8218L215.991 61.2796C204.622 68.101 195.804 77.6796 189.541 89.9989L190.105 90.2854ZM216.316 61.8218L216.641 62.364C227.79 55.6747 240.984 52.3177 256.247 52.3177V51.6854V51.0531C240.794 51.0531 227.367 54.4537 215.991 61.2796L216.316 61.8218ZM256.247 51.6854V52.3177C271.51 52.3177 284.704 55.6747 295.853 62.364L296.178 61.8218L296.503 61.2796C285.127 54.4537 271.7 51.0531 256.247 51.0531V51.6854ZM296.178 61.8218L295.853 62.364C307.008 69.0573 315.63 78.4536 321.722 90.5694L322.287 90.2854L322.852 90.0014C316.657 77.6808 307.873 68.1014 296.503 61.2796L296.178 61.8218ZM322.287 90.2854L321.723 90.572C327.882 102.686 330.972 116.817 330.972 132.981H331.604H332.236C332.236 116.654 329.115 102.321 322.85 89.9989L322.287 90.2854ZM331.604 132.981H330.972C330.972 149.145 327.882 163.241 321.724 175.286L322.287 175.574L322.85 175.862C329.115 163.607 332.236 149.307 332.236 132.981H331.604ZM322.287 175.574L321.722 175.289C315.631 187.336 307.009 196.699 295.853 203.393L296.178 203.935L296.503 204.477C307.872 197.656 316.656 188.112 322.851 175.859L322.287 175.574ZM296.178 203.935L295.853 203.393C284.704 210.082 271.51 213.439 256.247 213.439V214.072V214.704C271.7 214.704 285.127 211.303 296.503 204.477L296.178 203.935ZM256.452 184.379V185.012C264.902 185.012 272.012 182.688 277.739 178.009L277.339 177.519L276.939 177.03C271.471 181.497 264.657 183.747 256.452 183.747V184.379ZM277.339 177.519L277.742 178.006C283.439 173.282 287.664 166.969 290.427 159.094L289.83 158.885L289.233 158.676C286.536 166.364 282.433 172.474 276.935 177.033L277.339 177.519ZM289.83 158.885L290.425 159.099C293.252 151.239 294.66 142.496 294.66 132.879H294.028H293.396C293.396 142.373 292.005 150.968 289.235 158.671L289.83 158.885ZM294.028 132.879H294.66C294.66 123.193 293.252 114.416 290.425 106.556L289.83 106.77L289.235 106.984C292.005 114.686 293.396 123.315 293.396 132.879H294.028ZM289.83 106.77L290.427 106.562C287.664 98.6193 283.44 92.2714 277.742 87.5462L277.339 88.0329L276.935 88.5196C282.431 93.0775 286.535 99.2208 289.233 106.977L289.83 106.77ZM277.339 88.0329L277.742 87.5462C272.015 82.7971 264.904 80.4383 256.452 80.4383V81.0706V81.7029C264.654 81.7029 271.468 83.9856 276.935 88.5196L277.339 88.0329ZM256.452 81.0706V80.4383C247.799 80.4383 240.551 82.7948 234.754 87.5438L235.155 88.0329L235.556 88.522C241.09 83.9879 248.04 81.7029 256.452 81.7029V81.0706ZM235.155 88.0329L234.752 87.5462C229.055 92.2704 224.797 98.6166 221.966 106.557L222.562 106.77L223.157 106.982C225.923 99.2235 230.061 93.0785 235.559 88.5196L235.155 88.0329ZM222.562 106.77L221.965 106.56C219.207 114.419 217.834 123.194 217.834 132.879H218.466H219.098C219.098 123.314 220.455 114.683 223.158 106.979L222.562 106.77ZM218.466 132.879H217.834C217.834 142.495 219.208 151.236 221.965 159.094L222.562 158.885L223.158 158.676C220.455 150.971 219.098 142.374 219.098 132.879H218.466ZM222.562 158.885L221.967 159.099C224.798 166.972 229.056 173.283 234.752 178.006L235.155 177.519L235.559 177.033C230.06 172.473 225.922 166.361 223.157 158.671L222.562 158.885ZM235.155 177.519L234.758 178.011C240.555 182.691 247.801 185.012 256.452 185.012V184.379V183.747C248.038 183.747 241.087 181.495 235.552 177.027L235.155 177.519ZM461.412 95.3024L461.48 95.931L462.16 95.8568L462.033 95.1851L461.412 95.3024ZM427.624 98.9883L427.015 99.1588L427.159 99.675L427.692 99.6169L427.624 98.9883ZM422.607 89.3639L422.106 89.7506L422.112 89.7576L422.607 89.3639ZM413.187 82.0944L413.454 81.5212L413.454 81.5212L413.187 82.0944ZM379.195 84.347L378.855 83.8135L378.852 83.8155L379.195 84.347ZM371.516 97.3501L372.148 97.3596L372.148 97.3508L372.148 97.342L371.516 97.3501ZM376.533 108.51L376.126 108.995L376.131 108.998L376.533 108.51ZM393.734 115.575L393.591 116.191L393.601 116.193L393.734 115.575ZM420.559 121.309L420.692 120.691L420.691 120.69L420.559 121.309ZM453.733 136.564L453.294 137.02L453.296 137.022L453.733 136.564ZM464.79 163.902L465.423 163.906L465.423 163.898L464.79 163.902ZM456.087 190.113L455.583 189.731L455.583 189.732L456.087 190.113ZM432.436 207.724L432.68 208.307L432.68 208.307L432.436 207.724ZM351.14 201.99L350.781 202.51L350.783 202.511L351.14 201.99ZM330.151 168.1L330.09 167.47L329.423 167.535L329.526 168.197L330.151 168.1ZM366.294 164.619L366.91 164.476L366.785 163.936L366.233 163.989L366.294 164.619ZM376.737 180.693L377.093 180.17L377.093 180.17L376.737 180.693ZM418.716 180.693L418.364 180.168L418.361 180.17L418.716 180.693ZM421.583 156.12L421.171 156.6L421.175 156.604L421.583 156.12ZM405.61 149.363L405.745 148.745L405.74 148.744L405.61 149.363ZM378.785 143.732L378.915 143.113L378.914 143.113L378.785 143.732ZM345.304 127.862L344.849 128.3L344.851 128.302L345.304 127.862ZM334.554 99.3979L335.186 99.4017L335.186 99.3934L334.554 99.3979ZM342.438 74.2106L341.932 73.8305L341.932 73.8312L342.438 74.2106ZM364.86 57.6239L365.099 58.2095L365.101 58.2086L364.86 57.6239ZM441.651 63.46L441.274 63.9678L441.276 63.9689L441.651 63.46ZM461.412 95.3024L461.343 94.6738L427.555 98.3598L427.624 98.9883L427.692 99.6169L461.48 95.931L461.412 95.3024ZM427.624 98.9883L428.233 98.8179C427.252 95.3172 425.539 92.0342 423.102 88.9703L422.607 89.3639L422.112 89.7576C424.453 92.7004 426.084 95.8337 427.015 99.1588L427.624 98.9883ZM422.607 89.3639L423.107 88.9773C420.716 85.8827 417.491 83.4004 413.454 81.5212L413.187 82.0944L412.92 82.6677C416.802 84.4744 419.856 86.8384 422.106 89.7506L422.607 89.3639ZM413.187 82.0944L413.454 81.5212C409.39 79.6292 404.446 78.6977 398.648 78.6977V79.33V79.9623C404.317 79.9623 409.067 80.8738 412.92 82.6677L413.187 82.0944ZM398.648 79.33V78.6977C390.843 78.6977 384.234 80.3905 378.855 83.8135L379.195 84.347L379.534 84.8804C384.667 81.6141 391.027 79.9623 398.648 79.9623V79.33ZM379.195 84.347L378.852 83.8155C373.516 87.2561 370.812 91.7786 370.883 97.3582L371.516 97.3501L372.148 97.342C372.083 92.2734 374.498 88.1271 379.537 84.8784L379.195 84.347ZM371.516 97.3501L370.883 97.3407C370.812 102.098 372.563 106.002 376.126 108.995L376.533 108.51L376.939 108.026C373.676 105.285 372.082 101.749 372.148 97.3596L371.516 97.3501ZM376.533 108.51L376.131 108.998C379.726 111.96 385.576 114.341 393.591 116.191L393.734 115.575L393.876 114.959C385.919 113.123 380.301 110.795 376.934 108.022L376.533 108.51ZM393.734 115.575L393.601 116.193L420.427 121.927L420.559 121.309L420.691 120.69L393.866 114.957L393.734 115.575ZM420.559 121.309L420.426 121.927C435.246 125.122 446.176 130.171 453.294 137.02L453.733 136.564L454.171 136.109C446.818 129.033 435.632 123.912 420.692 120.691L420.559 121.309ZM453.733 136.564L453.296 137.022C460.461 143.852 464.091 152.793 464.158 163.906L464.79 163.902L465.423 163.898C465.353 152.486 461.612 143.202 454.169 136.107L453.733 136.564ZM464.79 163.902L464.158 163.897C464.091 173.665 461.231 182.268 455.583 189.731L456.087 190.113L456.592 190.495C462.411 182.804 465.353 173.934 465.423 163.906L464.79 163.902ZM456.087 190.113L455.583 189.732C449.995 197.138 442.208 202.944 432.192 207.14L432.436 207.724L432.68 208.307C442.868 204.039 450.849 198.105 456.592 190.494L456.087 190.113ZM432.436 207.724L432.192 207.14C422.18 211.334 410.662 213.439 397.624 213.439V214.072V214.704C410.798 214.704 422.487 212.577 432.68 208.307L432.436 207.724ZM397.624 214.072V213.439C378.459 213.439 363.102 209.429 351.498 201.469L351.14 201.99L350.783 202.511C362.66 210.659 378.292 214.704 397.624 214.704V214.072ZM351.14 201.99L351.5 201.47C339.906 193.449 333.002 182.307 330.776 168.002L330.151 168.1L329.526 168.197C331.805 182.834 338.894 194.286 350.781 202.51L351.14 201.99ZM330.151 168.1L330.212 168.729L366.354 165.248L366.294 164.619L366.233 163.989L330.09 167.47L330.151 168.1ZM366.294 164.619L365.678 164.761C367.347 171.993 370.908 177.497 376.382 181.216L376.737 180.693L377.093 180.17C371.918 176.654 368.517 171.442 366.91 164.476L366.294 164.619ZM376.737 180.693L376.382 181.216C381.84 184.925 388.904 186.752 397.522 186.752V186.12V185.488C389.076 185.488 382.283 183.697 377.093 180.17L376.737 180.693ZM397.522 186.12V186.752C406.409 186.752 413.61 184.927 419.071 181.216L418.716 180.693L418.361 180.17C413.174 183.695 406.246 185.488 397.522 185.488V186.12ZM418.716 180.693L419.068 181.218C424.592 177.513 427.437 172.863 427.437 167.281H426.805H426.172C426.172 172.346 423.625 176.639 418.364 180.168L418.716 180.693ZM426.805 167.281H427.437C427.437 162.587 425.612 158.691 421.99 155.637L421.583 156.12L421.175 156.604C424.516 159.42 426.172 162.964 426.172 167.281H426.805ZM421.583 156.12L421.995 155.641C418.467 152.607 413.024 150.324 405.745 148.745L405.61 149.363L405.476 149.981C412.668 151.541 417.873 153.764 421.171 156.6L421.583 156.12ZM405.61 149.363L405.74 148.744L378.915 143.113L378.785 143.732L378.655 144.35L405.481 149.982L405.61 149.363ZM378.785 143.732L378.914 143.113C363.896 139.987 352.872 134.736 345.758 127.421L345.304 127.862L344.851 128.302C352.208 135.867 363.504 141.197 378.656 144.351L378.785 143.732ZM345.304 127.862L345.76 127.423C338.651 120.046 335.119 110.722 335.186 99.4017L334.554 99.3979L333.921 99.3941C333.852 111.008 337.487 120.661 344.849 128.3L345.304 127.862ZM334.554 99.3979L335.186 99.3934C335.119 89.8256 337.71 81.5678 342.943 74.59L342.438 74.2106L341.932 73.8312C336.517 81.0511 333.852 89.5849 333.921 99.4023L334.554 99.3979ZM342.438 74.2106L342.943 74.5908C348.257 67.528 355.632 62.0637 365.099 58.2095L364.86 57.6239L364.622 57.0383C354.976 60.9655 347.403 66.559 341.932 73.8305L342.438 74.2106ZM364.86 57.6239L365.101 58.2086C374.635 54.2868 385.643 52.3177 398.136 52.3177V51.6854V51.0531C385.511 51.0531 374.335 53.043 364.62 57.0391L364.86 57.6239ZM398.136 51.6854V52.3177C416.483 52.3177 430.839 56.2255 441.274 63.9678L441.651 63.46L442.028 62.9522C431.303 54.995 416.649 51.0531 398.136 51.0531V51.6854ZM441.651 63.46L441.276 63.9689C451.791 71.7208 458.293 82.193 460.79 95.4197L461.412 95.3024L462.033 95.1851C459.479 81.6546 452.807 70.8985 442.026 62.951L441.651 63.46ZM547.935 53.7332H548.567V53.1009H547.935V53.7332ZM547.935 82.4016V83.0339H548.567V82.4016H547.935ZM457.527 82.4016H456.895V83.0339H457.527V82.4016ZM457.527 53.7332V53.1009H456.895V53.7332H457.527ZM479.847 16.0547V15.4224H479.215V16.0547H479.847ZM516.912 16.0547H517.544V15.4224H516.912V16.0547ZM519.164 175.164L518.613 175.475L518.618 175.484L518.623 175.492L519.164 175.164ZM525.307 180.489L525.084 181.08L525.084 181.08L525.307 180.489ZM540.051 181.41L539.944 180.787L539.94 180.788L540.051 181.41ZM544.556 180.489L545.174 180.355L545.034 179.707L544.393 179.878L544.556 180.489ZM550.802 209.464L551.008 210.062L551.538 209.879L551.42 209.331L550.802 209.464ZM542.304 211.717L542.166 211.099L542.164 211.1L542.304 211.717ZM528.993 213.15L528.977 212.518L528.975 212.518L528.993 213.15ZM503.908 208.952L503.663 209.535L503.667 209.537L503.908 208.952ZM486.195 194.413L485.667 194.76L485.669 194.764L486.195 194.413ZM479.847 169.84L480.48 169.845V169.84H479.847ZM547.935 53.7332H547.303V82.4016H547.935H548.567V53.7332H547.935ZM547.935 82.4016V81.7693H457.527V82.4016V83.0339H547.935V82.4016ZM457.527 82.4016H458.159V53.7332H457.527H456.895V82.4016H457.527ZM457.527 53.7332V54.3655H547.935V53.7332V53.1009H457.527V53.7332ZM479.847 16.0547V16.6869H516.912V16.0547V15.4224H479.847V16.0547ZM516.912 16.0547H516.279V163.697H516.912H517.544V16.0547H516.912ZM516.912 163.697H516.279C516.279 168.727 517.035 172.676 518.613 175.475L519.164 175.164L519.715 174.854C518.29 172.329 517.544 168.632 517.544 163.697H516.912ZM519.164 175.164L518.623 175.492C520.257 178.191 522.41 180.068 525.084 181.08L525.307 180.489L525.531 179.897C523.154 178.998 521.211 177.326 519.705 174.837L519.164 175.164ZM525.307 180.489L525.084 181.08C527.69 182.066 530.565 182.554 533.703 182.554V181.922V181.29C530.698 181.29 527.976 180.822 525.531 179.897L525.307 180.489ZM533.703 181.922V182.554C536.054 182.554 538.208 182.381 540.162 182.033L540.051 181.41L539.94 180.788C538.072 181.121 535.994 181.29 533.703 181.29V181.922ZM540.051 181.41L540.159 182.033C542.143 181.691 543.667 181.38 544.719 181.1L544.556 180.489L544.393 179.878C543.397 180.143 541.918 180.447 539.944 180.787L540.051 181.41ZM544.556 180.489L543.938 180.622L550.184 209.597L550.802 209.464L551.42 209.331L545.174 180.355L544.556 180.489ZM550.802 209.464L550.596 208.866C548.65 209.537 545.844 210.282 542.166 211.099L542.304 211.717L542.441 212.334C546.135 211.513 548.995 210.756 551.008 210.062L550.802 209.464ZM542.304 211.717L542.164 211.1C538.6 211.907 534.207 212.382 528.977 212.518L528.993 213.15L529.01 213.782C534.291 213.645 538.772 213.165 542.443 212.333L542.304 211.717ZM528.993 213.15L528.975 212.518C519.767 212.789 511.496 211.401 504.15 208.368L503.908 208.952L503.667 209.537C511.201 212.647 519.653 214.057 529.012 213.782L528.993 213.15ZM503.908 208.952L504.154 208.37C496.825 205.277 491.019 200.51 486.721 194.063L486.195 194.413L485.669 194.764C490.108 201.423 496.111 206.348 503.663 209.535L503.908 208.952ZM486.195 194.413L486.724 194.066C482.508 187.642 480.412 179.581 480.48 169.845L479.847 169.84L479.215 169.836C479.146 179.758 481.283 188.079 485.667 194.76L486.195 194.413ZM479.847 169.84H480.48V16.0547H479.847H479.215V169.84H479.847ZM579.963 203.935L579.637 204.477L579.637 204.477L579.963 203.935ZM553.752 175.574L553.187 175.859L553.189 175.862L553.752 175.574ZM553.752 90.2854L553.188 89.9989L553.187 90.0014L553.752 90.2854ZM579.963 61.8218L580.288 62.364L580.288 62.364L579.963 61.8218ZM659.825 61.8218L659.499 62.364L659.499 62.364L659.825 61.8218ZM685.934 90.2854L685.369 90.5695L685.37 90.572L685.934 90.2854ZM685.934 175.574L685.371 175.286L685.369 175.289L685.934 175.574ZM659.825 203.935L659.499 203.393L659.499 203.393L659.825 203.935ZM640.986 177.519L641.386 178.009L641.389 178.006L640.986 177.519ZM653.477 158.885L652.882 158.671L652.88 158.676L653.477 158.885ZM653.477 106.77L652.88 106.978L652.882 106.984L653.477 106.77ZM640.986 88.0329L641.389 87.5462L641.389 87.5462L640.986 88.0329ZM598.802 88.0329L598.401 87.5438L598.398 87.5462L598.802 88.0329ZM586.208 106.77L585.613 106.557L585.612 106.56L586.208 106.77ZM586.208 158.885L585.612 159.094L585.613 159.099L586.208 158.885ZM598.802 177.519L598.398 178.006L598.405 178.011L598.802 177.519ZM619.894 214.072V213.439C604.631 213.439 591.437 210.082 580.288 203.393L579.963 203.935L579.637 204.477C591.014 211.303 604.441 214.704 619.894 214.704V214.072ZM579.963 203.935L580.288 203.393C569.131 196.699 560.474 187.335 554.315 175.286L553.752 175.574L553.189 175.862C559.452 188.113 568.269 197.657 579.637 204.477L579.963 203.935ZM553.752 175.574L554.316 175.289C548.225 163.243 545.169 149.146 545.169 132.981H544.537H543.904C543.904 149.306 546.991 163.605 553.187 175.859L553.752 175.574ZM544.537 132.981H545.169C545.169 116.816 548.225 102.684 554.316 90.5694L553.752 90.2854L553.187 90.0014C546.992 102.323 543.904 116.655 543.904 132.981H544.537ZM553.752 90.2854L554.315 90.572C560.475 78.4548 569.132 69.0576 580.288 62.364L579.963 61.8218L579.637 61.2796C568.268 68.101 559.451 77.6796 553.188 89.9989L553.752 90.2854ZM579.963 61.8218L580.288 62.364C591.437 55.6747 604.631 52.3177 619.894 52.3177V51.6854V51.0531C604.441 51.0531 591.014 54.4537 579.637 61.2796L579.963 61.8218ZM619.894 51.6854V52.3177C635.157 52.3177 648.351 55.6747 659.499 62.364L659.825 61.8218L660.15 61.2796C648.774 54.4537 635.347 51.0531 619.894 51.0531V51.6854ZM659.825 61.8218L659.499 62.364C670.655 69.0573 679.277 78.4536 685.369 90.5694L685.934 90.2854L686.498 90.0014C680.304 77.6808 671.52 68.1014 660.15 61.2796L659.825 61.8218ZM685.934 90.2854L685.37 90.572C691.529 102.686 694.618 116.817 694.618 132.981H695.251H695.883C695.883 116.654 692.761 102.321 686.497 89.9989L685.934 90.2854ZM695.251 132.981H694.618C694.618 149.145 691.529 163.241 685.371 175.286L685.934 175.574L686.496 175.862C692.761 163.607 695.883 149.307 695.883 132.981H695.251ZM685.934 175.574L685.369 175.289C679.278 187.336 670.656 196.699 659.499 203.393L659.825 203.935L660.15 204.477C671.519 197.656 680.303 188.112 686.498 175.859L685.934 175.574ZM659.825 203.935L659.499 203.393C648.351 210.082 635.157 213.439 619.894 213.439V214.072V214.704C635.347 214.704 648.774 211.303 660.15 204.477L659.825 203.935ZM620.099 184.379V185.012C628.548 185.012 635.659 182.688 641.386 178.009L640.986 177.519L640.585 177.03C635.118 181.497 628.304 183.747 620.099 183.747V184.379ZM640.986 177.519L641.389 178.006C647.086 173.282 651.31 166.969 654.073 159.094L653.477 158.885L652.88 158.676C650.183 166.364 646.079 172.474 640.582 177.033L640.986 177.519ZM653.477 158.885L654.072 159.099C656.899 151.239 658.307 142.496 658.307 132.879H657.675H657.042C657.042 142.373 655.652 150.968 652.882 158.671L653.477 158.885ZM657.675 132.879H658.307C658.307 123.193 656.899 114.416 654.072 106.556L653.477 106.77L652.882 106.984C655.652 114.686 657.042 123.315 657.042 132.879H657.675ZM653.477 106.77L654.074 106.562C651.311 98.6193 647.087 92.2714 641.389 87.5462L640.986 88.0329L640.582 88.5196C646.078 93.0775 650.182 99.2208 652.88 106.977L653.477 106.77ZM640.986 88.0329L641.389 87.5462C635.662 82.7971 628.551 80.4383 620.099 80.4383V81.0706V81.7029C628.301 81.7029 635.114 83.9856 640.582 88.5196L640.986 88.0329ZM620.099 81.0706V80.4383C611.445 80.4383 604.198 82.7948 598.401 87.5438L598.802 88.0329L599.203 88.522C604.737 83.9879 611.687 81.7029 620.099 81.7029V81.0706ZM598.802 88.0329L598.398 87.5462C592.702 92.2704 588.444 98.6166 585.613 106.557L586.208 106.77L586.804 106.982C589.57 99.2235 593.708 93.0785 599.206 88.5196L598.802 88.0329ZM586.208 106.77L585.612 106.56C582.854 114.419 581.481 123.194 581.481 132.879H582.113H582.745C582.745 123.314 584.102 114.683 586.805 106.979L586.208 106.77ZM582.113 132.879H581.481C581.481 142.495 582.854 151.236 585.612 159.094L586.208 158.885L586.805 158.676C584.102 150.971 582.745 142.374 582.745 132.879H582.113ZM586.208 158.885L585.613 159.099C588.445 166.972 592.703 173.283 598.398 178.006L598.802 177.519L599.206 177.033C593.707 172.473 589.569 166.361 586.803 158.671L586.208 158.885ZM598.802 177.519L598.405 178.011C604.201 182.691 611.448 185.012 620.099 185.012V184.379V183.747C611.685 183.747 604.733 181.495 599.199 177.027L598.802 177.519ZM700.76 211H700.128V211.632H700.76V211ZM700.76 53.7332V53.1009H700.128V53.7332H700.76ZM736.186 53.7332H736.818V53.1009H736.186V53.7332ZM736.186 80.4562H735.554V81.0885H736.186V80.4562ZM738.029 80.4562V81.0885H738.472L738.623 80.6723L738.029 80.4562ZM754.309 59.3645L754.659 59.8906L754.663 59.8884L754.309 59.3645ZM808.369 59.4669L808.003 59.9824L808.009 59.9862L808.369 59.4669ZM823.932 80.4562L823.333 80.659L823.479 81.0885H823.932V80.4562ZM825.57 80.4562V81.0885H825.999L826.158 80.6903L825.57 80.4562ZM843.181 59.5693L843.517 60.1047L843.518 60.1039L843.181 59.5693ZM921.917 211V211.632H922.549V211H921.917ZM884.75 211H884.118V211.632H884.75V211ZM876.969 89.7735L876.551 90.2478L876.554 90.2509L876.969 89.7735ZM836.935 91.3093L836.466 90.8857L836.466 90.886L836.935 91.3093ZM829.461 211V211.632H830.093V211H829.461ZM793.114 211H792.481V211.632H793.114V211ZM785.742 90.183L785.295 90.6301L785.298 90.6332L785.742 90.183ZM752.159 87.009L752.488 87.549L752.494 87.5452L752.159 87.009ZM741.715 98.374L742.273 98.6724L742.274 98.6691L741.715 98.374ZM737.824 211V211.632H738.457V211H737.824ZM700.76 211H701.393V53.7332H700.76H700.128V211H700.76ZM700.76 53.7332V54.3655H736.186V53.7332V53.1009H700.76V53.7332ZM736.186 53.7332H735.554V80.4562H736.186H736.818V53.7332H736.186ZM736.186 80.4562V81.0885H738.029V80.4562V79.824H736.186V80.4562ZM738.029 80.4562L738.623 80.6723C741.856 71.7818 747.201 64.8628 754.659 59.8906L754.309 59.3645L753.958 58.8384C746.263 63.9683 740.755 71.1106 737.435 80.2402L738.029 80.4562ZM754.309 59.3645L754.663 59.8884C762.12 54.8498 771.036 52.3177 781.441 52.3177V51.6854V51.0531C770.823 51.0531 761.651 53.6404 753.955 58.8406L754.309 59.3645ZM781.441 51.6854V52.3177C791.984 52.3177 800.825 54.8842 808.003 59.9823L808.369 59.4669L808.735 58.9514C801.306 53.6743 792.195 51.0531 781.441 51.0531V51.6854ZM808.369 59.4669L808.009 59.9862C815.264 65.0247 820.371 71.9077 823.333 80.659L823.932 80.4562L824.531 80.2535C821.486 71.2576 816.218 64.1477 808.73 58.9475L808.369 59.4669ZM823.932 80.4562V81.0885H825.57V80.4562V79.824H823.932V80.4562ZM825.57 80.4562L826.158 80.6903C829.587 72.0826 835.367 65.2238 843.517 60.1047L843.181 59.5693L842.845 59.0338C834.476 64.2899 828.516 71.3558 824.983 80.2222L825.57 80.4562ZM843.181 59.5693L843.518 60.1039C851.73 54.9214 861.472 52.3177 872.771 52.3177V51.6854V51.0531C861.271 51.0531 851.287 53.7054 842.843 59.0346L843.181 59.5693ZM872.771 51.6854V52.3177C887.096 52.3177 898.736 56.8389 907.75 65.8524L908.197 65.4053L908.644 64.9582C899.364 55.6785 887.387 51.0531 872.771 51.0531V51.6854ZM908.197 65.4053L907.75 65.8524C916.74 74.8432 921.284 88.0028 921.284 105.439H921.917H922.549C922.549 87.79 917.946 74.2607 908.644 64.9582L908.197 65.4053ZM921.917 105.439H921.284V211H921.917H922.549V105.439H921.917ZM921.917 211V210.368H884.75V211V211.632H921.917V211ZM884.75 211H885.382V111.172H884.75H884.118V211H884.75ZM884.75 111.172H885.382C885.382 101.308 882.76 93.965 877.383 89.2961L876.969 89.7735L876.554 90.2509C881.553 94.592 884.118 101.515 884.118 111.172H884.75ZM876.969 89.7735L877.387 89.2992C872.073 84.615 865.573 82.2813 857.925 82.2813V82.9135V83.5458C865.293 83.5458 871.489 85.7854 876.551 90.2478L876.969 89.7735ZM857.925 82.9135V82.2813C848.84 82.2813 841.659 85.1309 836.466 90.8857L836.935 91.3093L837.405 91.7329C842.314 86.2934 849.125 83.5458 857.925 83.5458V82.9135ZM836.935 91.3093L836.466 90.886C831.359 96.5526 828.829 103.915 828.829 112.913H829.461H830.093C830.093 104.164 832.546 97.1238 837.405 91.7326L836.935 91.3093ZM829.461 112.913H828.829V211H829.461H830.093V112.913H829.461ZM829.461 211V210.368H793.114V211V211.632H829.461V211ZM793.114 211H793.746V109.637H793.114H792.481V211H793.114ZM793.114 109.637H793.746C793.746 101.377 791.242 94.7189 786.186 89.7328L785.742 90.183L785.298 90.6332C790.071 95.3398 792.481 101.651 792.481 109.637H793.114ZM785.742 90.183L786.189 89.7359C781.206 84.7535 774.689 82.2813 766.698 82.2813V82.9135V83.5458C774.406 83.5458 780.584 85.9199 785.295 90.6301L785.742 90.183ZM766.698 82.9135V82.2813C761.259 82.2813 756.296 83.6775 751.824 86.4729L752.159 87.009L752.494 87.5452C756.758 84.8799 761.488 83.5458 766.698 83.5458V82.9135ZM752.159 87.009L751.83 86.4691C747.355 89.1956 743.798 93.0724 741.156 98.0789L741.715 98.374L742.274 98.6691C744.82 93.8464 748.225 90.1466 752.488 87.549L752.159 87.009ZM741.715 98.374L741.158 98.0757C738.507 103.029 737.192 108.8 737.192 115.37H737.824H738.457C738.457 108.971 739.736 103.412 742.273 98.6724L741.715 98.374ZM737.824 115.37H737.192V211H737.824H738.457V115.37H737.824ZM737.824 211V210.368H700.76V211V211.632H737.824V211ZM962.34 204.242L962.023 204.789L962.026 204.791L962.34 204.242ZM936.027 176.188L935.462 176.474L935.463 176.475L936.027 176.188ZM936.027 90.695L935.462 90.4097L935.462 90.4109L936.027 90.695ZM962.033 62.0265L962.364 62.5655L962.366 62.564L962.033 62.0265ZM1028.69 56.3952L1028.47 56.9892L1028.48 56.9912L1028.69 56.3952ZM1051.62 70.7295L1051.18 71.1812L1051.18 71.1834L1051.62 70.7295ZM1067.39 95.5072L1066.8 95.7323L1066.8 95.7336L1067.39 95.5072ZM1073.12 142.503V143.135H1073.76V142.503H1073.12ZM944.218 142.503H943.585V143.135H944.218V142.503ZM944.218 117.52V116.888H943.585V117.52H944.218ZM1037.59 117.52V118.153H1038.23L1038.23 117.514L1037.59 117.52ZM1032.99 98.5788L1032.43 98.8778L1032.43 98.8806L1032.99 98.5788ZM1020.39 85.3708L1020.07 85.9124L1020.07 85.9142L1020.39 85.3708ZM981.794 86.0875L982.131 86.6223L982.136 86.6194L981.794 86.0875ZM968.381 100.422L967.825 100.121L967.823 100.124L968.381 100.422ZM963.569 119.773L962.937 119.767V119.773H963.569ZM968.586 165.131L968.023 165.418L968.024 165.42L968.586 165.131ZM982.613 180.079L982.296 180.626L982.301 180.629L982.613 180.079ZM1018.35 182.946L1018.55 183.544L1018.56 183.541L1018.35 182.946ZM1029.71 176.086L1029.28 175.624L1029.71 176.086ZM1036.98 164.926L1037.05 164.297L1036.56 164.242L1036.39 164.707L1036.98 164.926ZM1071.59 168.816L1072.2 168.963L1072.37 168.268L1071.66 168.188L1071.59 168.816ZM1059.1 192.775L1058.63 192.352L1058.63 192.352L1059.1 192.775ZM1035.75 208.543L1035.98 209.132L1035.98 209.131L1035.75 208.543ZM1003.19 214.072V213.439C987.514 213.439 974.009 210.182 962.654 203.693L962.34 204.242L962.026 204.791C973.606 211.408 987.336 214.704 1003.19 214.704V214.072ZM962.34 204.242L962.658 203.696C951.367 197.138 942.68 187.878 936.59 175.902L936.027 176.188L935.463 176.475C941.66 188.662 950.515 198.105 962.023 204.789L962.34 204.242ZM936.027 176.188L936.591 175.903C930.501 163.858 927.444 149.66 927.444 133.288H926.812H926.18C926.18 149.817 929.266 164.219 935.462 176.474L936.027 176.188ZM926.812 133.288H927.444C927.444 117.192 930.5 103.094 936.592 90.979L936.027 90.695L935.462 90.4109C929.267 102.732 926.18 117.03 926.18 133.288H926.812ZM936.027 90.695L936.591 90.9802C942.753 78.7924 951.343 69.3266 962.364 62.5655L962.033 62.0265L961.702 61.4876C950.471 68.3781 941.724 78.0246 935.462 90.4097L936.027 90.695ZM962.033 62.0265L962.366 62.564C973.378 55.7406 986.331 52.3177 1001.25 52.3177V51.6854V51.0531C986.131 51.0531 972.94 54.5243 961.7 61.4891L962.033 62.0265ZM1001.25 51.6854V52.3177C1010.87 52.3177 1019.94 53.8761 1028.47 56.9892L1028.69 56.3952L1028.9 55.8013C1020.23 52.6346 1011.01 51.0531 1001.25 51.0531V51.6854ZM1028.69 56.3952L1028.48 56.9912C1037.06 60.0319 1044.62 64.7605 1051.18 71.1812L1051.62 70.7295L1052.06 70.2777C1045.38 63.7294 1037.65 58.9018 1028.9 55.7993L1028.69 56.3952ZM1051.62 70.7295L1051.18 71.1834C1057.8 77.5945 1063 85.7716 1066.8 95.7323L1067.39 95.5072L1067.98 95.2821C1064.13 85.1749 1058.83 76.8335 1052.06 70.2755L1051.62 70.7295ZM1067.39 95.5072L1066.8 95.7336C1070.59 105.609 1072.49 117.406 1072.49 131.138H1073.12H1073.76C1073.76 117.294 1071.84 105.336 1067.98 95.2807L1067.39 95.5072ZM1073.12 131.138H1072.49V142.503H1073.12H1073.76V131.138H1073.12ZM1073.12 142.503V141.871H944.218V142.503V143.135H1073.12V142.503ZM944.218 142.503H944.85V117.52H944.218H943.585V142.503H944.218ZM944.218 117.52V118.153H1037.59V117.52V116.888H944.218V117.52ZM1037.59 117.52L1038.23 117.514C1038.16 110.326 1036.6 103.908 1033.54 98.277L1032.99 98.5788L1032.43 98.8806C1035.38 104.308 1036.9 110.518 1036.96 117.527L1037.59 117.52ZM1032.99 98.5788L1033.54 98.2798C1030.49 92.5828 1026.21 88.0951 1020.72 84.8274L1020.39 85.3708L1020.07 85.9142C1025.36 89.0629 1029.48 93.3805 1032.43 98.8777L1032.99 98.5788ZM1020.39 85.3708L1020.72 84.8293C1015.28 81.5537 1008.96 79.9263 1001.76 79.9263V80.5586V81.1909C1008.76 81.1909 1014.86 82.7717 1020.07 85.9124L1020.39 85.3708ZM1001.76 80.5586V79.9263C994.075 79.9263 987.299 81.797 981.452 85.5557L981.794 86.0875L982.136 86.6194C987.756 83.0062 994.29 81.1909 1001.76 81.1909V80.5586ZM981.794 86.0875L981.456 85.5528C975.631 89.2282 971.085 94.0867 967.825 100.121L968.381 100.422L968.937 100.722C972.094 94.8799 976.489 90.1823 982.131 86.6223L981.794 86.0875ZM968.381 100.422L967.823 100.124C964.633 106.089 963.006 112.64 962.937 119.767L963.569 119.773L964.201 119.779C964.268 112.845 965.849 106.495 968.939 100.72L968.381 100.422ZM963.569 119.773H962.937V141.581H963.569H964.201V119.773H963.569ZM963.569 141.581H962.937C962.937 150.804 964.623 158.757 968.023 165.418L968.586 165.131L969.149 164.843C965.859 158.398 964.201 150.652 964.201 141.581H963.569ZM968.586 165.131L968.024 165.42C971.421 172.007 976.179 177.081 982.296 180.626L982.613 180.079L982.93 179.532C977.033 176.115 972.44 171.224 969.148 164.841L968.586 165.131ZM982.613 180.079L982.301 180.629C988.417 184.104 995.559 185.831 1003.7 185.831V185.198V184.566C995.741 184.566 988.822 182.88 982.925 179.529L982.613 180.079ZM1003.7 185.198V185.831C1009.16 185.831 1014.11 185.072 1018.55 183.544L1018.35 182.946L1018.14 182.348C1013.85 183.823 1009.04 184.566 1003.7 184.566V185.198ZM1018.35 182.946L1018.56 183.541C1023 181.944 1026.87 179.613 1030.14 176.548L1029.71 176.086L1029.28 175.624C1026.14 178.566 1022.42 180.808 1018.13 182.351L1018.35 182.946ZM1029.71 176.086L1030.14 176.548C1033.43 173.472 1035.9 169.667 1037.57 165.145L1036.98 164.926L1036.39 164.707C1034.78 169.058 1032.41 172.693 1029.28 175.624L1029.71 176.086ZM1036.98 164.926L1036.91 165.554L1071.52 169.445L1071.59 168.816L1071.66 168.188L1037.05 164.297L1036.98 164.926ZM1071.59 168.816L1070.97 168.67C1068.81 177.716 1064.7 185.607 1058.63 192.352L1059.1 192.775L1059.57 193.198C1065.78 186.292 1069.99 178.21 1072.2 168.963L1071.59 168.816ZM1059.1 192.775L1058.63 192.352C1052.62 199.029 1044.93 204.232 1035.52 207.955L1035.75 208.543L1035.98 209.131C1045.55 205.345 1053.42 200.037 1059.57 193.198L1059.1 192.775ZM1035.75 208.543L1035.52 207.953C1026.12 211.606 1015.35 213.439 1003.19 213.439V214.072V214.704C1015.47 214.704 1026.41 212.851 1035.98 209.132L1035.75 208.543ZM1112.63 267.825L1112.85 267.234L1112.85 267.232L1112.63 267.825ZM1089.59 253.491L1090.04 253.051L1090.04 253.051L1089.59 253.491ZM1077.51 233.525L1077.36 232.911L1076.7 233.069L1076.9 233.712L1077.51 233.525ZM1110.88 225.437L1111.45 225.159L1111.23 224.702L1110.74 224.822L1110.88 225.437ZM1117.44 234.549L1117.9 234.118L1117.89 234.112L1117.44 234.549ZM1129.01 242.126L1129.25 241.542L1129.25 241.54L1129.01 242.126ZM1173.65 237.518L1173.27 237.008L1173.27 237.011L1173.65 237.518ZM1183.99 182.741H1184.62V182.109H1183.99V182.741ZM1182.15 182.741V182.109H1181.76L1181.58 182.458L1182.15 182.741ZM1173.75 194.516L1173.28 194.089L1173.28 194.093L1173.75 194.516ZM1159.31 204.652L1159.05 204.076L1159.05 204.078L1159.31 204.652ZM1104.02 200.249L1103.7 200.795L1103.71 200.797L1104.02 200.249ZM1080.68 174.653L1080.12 174.937L1080.12 174.941L1080.68 174.653ZM1080.68 88.1353L1080.11 87.859L1080.11 87.8604L1080.68 88.1353ZM1104.13 61.0027L1104.46 61.5388L1104.46 61.5372L1104.13 61.0027ZM1159.72 56.3952L1159.43 56.9543L1159.44 56.9582L1159.72 56.3952ZM1174.06 67.5555L1173.57 67.9542L1173.57 67.9579L1174.06 67.5555ZM1182.15 79.7395L1181.58 80.0141L1181.75 80.3718H1182.15V79.7395ZM1184.19 79.7395V80.3718H1184.83V79.7395H1184.19ZM1184.19 53.7332V53.1009H1183.56V53.7332H1184.19ZM1220.75 53.7332H1221.38V53.1009H1220.75V53.7332ZM1211.12 246.938L1211.63 247.31L1211.63 247.31L1211.12 246.938ZM1184.81 266.699L1185.04 267.287L1185.04 267.287L1184.81 266.699ZM1167.3 173.936L1166.94 173.416L1166.94 173.416L1167.3 173.936ZM1179.89 105.644L1179.3 105.866L1179.3 105.871L1179.89 105.644ZM1167.4 88.3401L1167.02 88.8429L1167.03 88.8481L1167.4 88.3401ZM1126.55 88.5448L1126.16 88.0457L1126.16 88.0457L1126.55 88.5448ZM1114.06 106.258L1114.65 106.48L1114.65 106.479L1114.06 106.258ZM1114.06 156.94L1113.47 157.168L1113.47 157.174L1114.06 156.94ZM1126.65 173.731L1126.28 174.242L1126.29 174.247L1126.65 173.731ZM1146.92 273.251V272.619C1133.67 272.619 1122.32 270.817 1112.85 267.234L1112.63 267.825L1112.4 268.416C1122.05 272.068 1133.56 273.884 1146.92 273.884V273.251ZM1112.63 267.825L1112.85 267.232C1103.36 263.709 1095.77 258.977 1090.04 253.051L1089.59 253.491L1089.13 253.93C1095.01 260.018 1102.78 264.842 1112.41 268.418L1112.63 267.825ZM1089.59 253.491L1090.04 253.051C1084.3 247.109 1080.33 240.539 1078.11 233.339L1077.51 233.525L1076.9 233.712C1079.19 241.119 1083.27 247.859 1089.13 253.93L1089.59 253.491ZM1077.51 233.525L1077.66 234.14L1111.03 226.051L1110.88 225.437L1110.74 224.822L1077.36 232.911L1077.51 233.525ZM1110.88 225.437L1110.32 225.714C1111.85 228.855 1114.08 231.945 1116.98 234.986L1117.44 234.549L1117.89 234.112C1115.06 231.146 1112.92 228.161 1111.45 225.159L1110.88 225.437ZM1117.44 234.549L1116.98 234.98C1119.92 238.133 1123.86 240.705 1128.77 242.711L1129.01 242.126L1129.25 241.54C1124.46 239.587 1120.69 237.108 1117.9 234.118L1117.44 234.549ZM1129.01 242.126L1128.76 242.709C1133.78 244.799 1140.05 245.83 1147.54 245.83V245.197V244.565C1140.15 244.565 1134.06 243.548 1129.25 241.542L1129.01 242.126ZM1147.54 245.197V245.83C1158.16 245.83 1167 243.243 1174.02 238.026L1173.65 237.518L1173.27 237.011C1166.51 242.032 1157.95 244.565 1147.54 244.565V245.197ZM1173.65 237.518L1174.02 238.028C1181.13 232.819 1184.62 224.263 1184.62 212.536H1183.99H1183.36C1183.36 224.016 1179.95 232.116 1173.27 237.008L1173.65 237.518ZM1183.99 212.536H1184.62V182.741H1183.99H1183.36V212.536H1183.99ZM1183.99 182.741V182.109H1182.15V182.741V183.373H1183.99V182.741ZM1182.15 182.741L1181.58 182.458C1179.7 186.216 1176.94 190.093 1173.28 194.089L1173.75 194.516L1174.22 194.943C1177.93 190.883 1180.77 186.911 1182.71 183.024L1182.15 182.741ZM1173.75 194.516L1173.28 194.093C1169.73 198.043 1165 201.374 1159.05 204.076L1159.31 204.652L1159.58 205.228C1165.64 202.469 1170.53 199.043 1174.22 194.938L1173.75 194.516ZM1159.31 204.652L1159.05 204.078C1153.22 206.758 1145.84 208.115 1136.89 208.115V208.747V209.38C1145.96 209.38 1153.53 208.006 1159.58 205.226L1159.31 204.652ZM1136.89 208.747V208.115C1124.91 208.115 1114.07 205.308 1104.34 199.702L1104.02 200.249L1103.71 200.797C1113.64 206.522 1124.71 209.38 1136.89 209.38V208.747ZM1104.02 200.249L1104.34 199.704C1094.7 194.039 1087 185.602 1081.24 174.364L1080.68 174.653L1080.12 174.941C1085.97 186.365 1093.83 194.993 1103.7 200.795L1104.02 200.249ZM1080.68 174.653L1081.25 174.368C1075.57 163.082 1072.71 148.921 1072.71 131.855H1072.08H1071.45C1071.45 149.054 1074.32 163.424 1080.12 174.937L1080.68 174.653ZM1072.08 131.855H1072.71C1072.71 114.652 1075.57 100.179 1081.25 88.4102L1080.68 88.1353L1080.11 87.8604C1074.33 99.8453 1071.45 114.518 1071.45 131.855H1072.08ZM1080.68 88.1353L1081.25 88.4115C1087.01 76.5573 1094.75 67.6103 1104.46 61.5388L1104.13 61.0027L1103.79 60.4665C1093.85 66.6815 1085.96 75.8229 1080.11 87.859L1080.68 88.1353ZM1104.13 61.0027L1104.46 61.5372C1114.19 55.3921 1125.03 52.3177 1136.99 52.3177V51.6854V51.0531C1124.8 51.0531 1113.72 54.1902 1103.79 60.4682L1104.13 61.0027ZM1136.99 51.6854V52.3177C1146.14 52.3177 1153.61 53.877 1159.43 56.9542L1159.72 56.3952L1160.02 55.8363C1153.96 52.6337 1146.27 51.0531 1136.99 51.0531V51.6854ZM1159.72 56.3952L1159.44 56.9582C1165.38 59.9976 1170.08 63.6661 1173.57 67.9542L1174.06 67.5555L1174.55 67.1567C1170.93 62.7078 1166.08 58.9361 1160.01 55.8323L1159.72 56.3952ZM1174.06 67.5555L1173.57 67.9579C1177.1 72.2305 1179.76 76.2491 1181.58 80.0141L1182.15 79.7395L1182.72 79.4649C1180.85 75.585 1178.12 71.4809 1174.55 67.153L1174.06 67.5555ZM1182.15 79.7395V80.3718H1184.19V79.7395V79.1073H1182.15V79.7395ZM1184.19 79.7395H1184.83V53.7332H1184.19H1183.56V79.7395H1184.19ZM1184.19 53.7332V54.3655H1220.75V53.7332V53.1009H1184.19V53.7332ZM1220.75 53.7332H1220.11V213.56H1220.75H1221.38V53.7332H1220.75ZM1220.75 213.56H1220.11C1220.11 226.905 1216.93 237.892 1210.61 246.566L1211.12 246.938L1211.63 247.31C1218.14 238.374 1221.38 227.109 1221.38 213.56H1220.75ZM1211.12 246.938L1210.61 246.566C1204.27 255.264 1195.6 261.781 1184.58 266.11L1184.81 266.699L1185.04 267.287C1196.27 262.879 1205.14 256.222 1211.63 247.31L1211.12 246.938ZM1184.81 266.699L1184.58 266.11C1173.54 270.445 1160.99 272.619 1146.92 272.619V273.251V273.884C1161.12 273.884 1173.83 271.689 1185.04 267.287L1184.81 266.699ZM1147.23 179.669V180.302C1155.19 180.302 1162.01 178.363 1167.66 174.456L1167.3 173.936L1166.94 173.416C1161.53 177.153 1154.98 179.037 1147.23 179.037V179.669ZM1167.3 173.936L1167.66 174.456C1173.31 170.553 1177.57 164.951 1180.48 157.686L1179.89 157.451L1179.31 157.217C1176.48 164.286 1172.35 169.674 1166.94 173.416L1167.3 173.936ZM1179.89 157.451L1180.48 157.686C1183.38 150.426 1184.83 141.741 1184.83 131.65H1184.19H1183.56C1183.56 141.626 1182.14 150.143 1179.31 157.217L1179.89 157.451ZM1184.19 131.65H1184.83C1184.83 121.693 1183.38 112.944 1180.48 105.416L1179.89 105.644L1179.3 105.871C1182.14 113.223 1183.56 121.812 1183.56 131.65H1184.19ZM1179.89 105.644L1180.49 105.421C1177.65 97.885 1173.42 92.0106 1167.78 87.832L1167.4 88.3401L1167.03 88.8481C1172.44 92.8605 1176.54 98.5218 1179.3 105.866L1179.89 105.644ZM1167.4 88.3401L1167.79 87.8373C1162.2 83.5763 1155.33 81.4622 1147.23 81.4622V82.0944V82.7267C1155.1 82.7267 1161.69 84.7763 1167.02 88.8429L1167.4 88.3401ZM1147.23 82.0944V81.4622C1138.86 81.4622 1131.82 83.6444 1126.16 88.0457L1126.55 88.5448L1126.94 89.0439C1132.34 84.8448 1139.09 82.7267 1147.23 82.7267V82.0944ZM1126.55 88.5448L1126.16 88.0457C1120.53 92.4279 1116.3 98.4349 1113.47 106.037L1114.06 106.258L1114.65 106.479C1117.41 99.064 1121.51 93.2623 1126.94 89.0439L1126.55 88.5448ZM1114.06 106.258L1113.47 106.035C1110.64 113.559 1109.23 122.1 1109.23 131.65H1109.86H1110.49C1110.49 122.224 1111.88 113.837 1114.65 106.48L1114.06 106.258ZM1109.86 131.65H1109.23C1109.23 141.334 1110.64 149.844 1113.47 157.168L1114.06 156.94L1114.65 156.711C1111.88 149.564 1110.49 141.214 1110.49 131.65H1109.86ZM1114.06 156.94L1113.47 157.174C1116.38 164.437 1120.64 170.136 1126.28 174.242L1126.65 173.731L1127.02 173.22C1121.6 169.271 1117.47 163.776 1114.65 156.705L1114.06 156.94ZM1126.65 173.731L1126.29 174.247C1132.01 178.295 1139 180.302 1147.23 180.302V179.669V179.037C1139.22 179.037 1132.49 177.085 1127.02 173.215L1126.65 173.731ZM1251.11 208.85L1250.85 209.425L1250.85 209.428L1251.11 208.85ZM1232.27 192.877L1231.74 193.222L1231.74 193.226L1232.27 192.877ZM1230.33 144.858L1229.77 144.547L1229.77 144.547L1230.33 144.858ZM1243.74 130.933L1243.41 130.394L1243.41 130.394L1243.74 130.933ZM1262.88 123.049L1263.04 123.663L1263.04 123.662L1262.88 123.049ZM1285.1 119.056L1285.04 118.427L1285.04 118.428L1285.1 119.056ZM1307.53 116.497L1307.61 117.124L1307.61 117.122L1307.53 116.497ZM1320.02 112.811L1320.35 113.345L1320.36 113.343L1320.02 112.811ZM1317.15 86.3947L1317.58 85.9306L1317.58 85.9306L1317.15 86.3947ZM1275.79 85.9852L1275.41 85.4778L1275.41 85.4801L1275.79 85.9852ZM1265.14 100.012L1265.05 100.638L1265.57 100.712L1265.74 100.217L1265.14 100.012ZM1230.53 95.0976L1229.92 94.9239L1229.72 95.6216L1230.44 95.7236L1230.53 95.0976ZM1244.05 71.139L1244.5 71.5813L1244.5 71.5789L1244.05 71.139ZM1267.08 56.6L1267.29 57.1962L1267.3 57.1948L1267.08 56.6ZM1340.39 63.1528L1340.04 63.6807L1340.05 63.6833L1340.39 63.1528ZM1355.34 79.6371L1354.78 79.9372L1354.79 79.9414L1355.34 79.6371ZM1361.07 211V211.632H1361.71V211H1361.07ZM1325.44 211H1324.81V211.632H1325.44V211ZM1325.44 189.396H1326.08V188.764H1325.44V189.396ZM1324.21 189.396V188.764H1323.83L1323.65 189.107L1324.21 189.396ZM1314.69 201.683L1315.12 202.145L1315.12 202.145L1314.69 201.683ZM1299.44 210.795L1299.66 211.388L1299.66 211.387L1299.44 210.795ZM1307.01 182.536L1307.31 183.093L1307.32 183.09L1307.01 182.536ZM1319.61 170.659L1319.07 170.33L1319.06 170.335L1319.61 170.659ZM1324.11 136.053H1324.74V134.713L1323.71 135.564L1324.11 136.053ZM1318.17 138.715L1318 138.108L1317.99 138.109L1318.17 138.715ZM1308.96 140.865L1309.07 141.487L1309.07 141.487L1308.96 140.865ZM1290.12 143.732L1290.2 144.358L1290.21 144.358L1290.12 143.732ZM1275.27 147.418L1275.04 146.829L1275.04 146.829L1275.27 147.418ZM1264.93 154.585L1265.42 154.992L1265.42 154.986L1264.93 154.585ZM1268.62 181.717L1268.26 182.236L1268.26 182.236L1268.62 181.717ZM1278.04 214.174V213.542C1268.15 213.542 1259.26 211.781 1251.37 208.272L1251.11 208.85L1250.85 209.428C1258.93 213.018 1268 214.806 1278.04 214.806V214.174ZM1251.11 208.85L1251.37 208.275C1243.56 204.705 1237.37 199.457 1232.8 192.529L1232.27 192.877L1231.74 193.226C1236.45 200.359 1242.83 205.76 1250.85 209.425L1251.11 208.85ZM1232.27 192.877L1232.8 192.533C1228.31 185.626 1226.04 177.084 1226.04 166.871H1225.41H1224.78C1224.78 177.272 1227.09 186.068 1231.74 193.222L1232.27 192.877ZM1225.41 166.871H1226.04C1226.04 158.072 1227.67 150.849 1230.88 145.169L1230.33 144.858L1229.77 144.547C1226.43 150.47 1224.78 157.923 1224.78 166.871H1225.41ZM1230.33 144.858L1230.88 145.169C1234.1 139.46 1238.5 134.897 1244.07 131.472L1243.74 130.933L1243.41 130.394C1237.65 133.932 1233.1 138.652 1229.77 144.547L1230.33 144.858ZM1243.74 130.933L1244.07 131.472C1249.67 128.028 1256 125.423 1263.04 123.663L1262.88 123.049L1262.73 122.436C1255.58 124.225 1249.13 126.876 1243.41 130.394L1243.74 130.933ZM1262.88 123.049L1263.04 123.662C1270.18 121.827 1277.55 120.501 1285.17 119.685L1285.1 119.056L1285.04 118.428C1277.36 119.25 1269.93 120.586 1262.73 122.437L1262.88 123.049ZM1285.1 119.056L1285.17 119.685C1294.39 118.729 1301.87 117.875 1307.61 117.123L1307.53 116.497L1307.44 115.87C1301.72 116.619 1294.25 117.472 1285.04 118.427L1285.1 119.056ZM1307.53 116.497L1307.61 117.122C1313.37 116.3 1317.64 115.057 1320.35 113.345L1320.02 112.811L1319.68 112.276C1317.2 113.841 1313.15 115.055 1307.44 115.871L1307.53 116.497ZM1320.02 112.811L1320.36 113.343C1323.23 111.504 1324.64 108.66 1324.64 104.927H1324.01H1323.38C1323.38 108.292 1322.13 110.704 1319.68 112.278L1320.02 112.811ZM1324.01 104.927H1324.64V104.312H1324.01H1323.38V104.927H1324.01ZM1324.01 104.312H1324.64C1324.64 96.4681 1322.31 90.3098 1317.58 85.9306L1317.15 86.3947L1316.72 86.8588C1321.13 90.9437 1323.38 96.7305 1323.38 104.312H1324.01ZM1317.15 86.3947L1317.58 85.9306C1312.85 81.5551 1306.09 79.4144 1297.39 79.4144V80.0467V80.679C1305.89 80.679 1312.3 82.7703 1316.72 86.8588L1317.15 86.3947ZM1297.39 80.0467V79.4144C1288.22 79.4144 1280.88 81.4126 1275.41 85.4778L1275.79 85.9852L1276.16 86.4925C1281.34 82.6398 1288.4 80.679 1297.39 80.679V80.0467ZM1275.79 85.9852L1275.41 85.4801C1270.06 89.5031 1266.43 94.2779 1264.54 99.8077L1265.14 100.012L1265.74 100.217C1267.53 94.9618 1270.99 90.3852 1276.17 86.4902L1275.79 85.9852ZM1265.14 100.012L1265.23 99.3862L1230.62 94.4716L1230.53 95.0976L1230.44 95.7236L1265.05 100.638L1265.14 100.012ZM1230.53 95.0976L1231.14 95.2713C1233.84 85.8053 1238.3 77.9146 1244.5 71.5813L1244.05 71.139L1243.59 70.6967C1237.23 77.196 1232.68 85.2777 1229.92 94.9239L1230.53 95.0976ZM1244.05 71.139L1244.5 71.5789C1250.71 65.1692 1258.3 60.374 1267.29 57.1962L1267.08 56.6L1266.87 56.0039C1257.71 59.2423 1249.94 64.1397 1243.59 70.6991L1244.05 71.139ZM1267.08 56.6L1267.3 57.1948C1276.3 53.9464 1286.26 52.3177 1297.18 52.3177V51.6854V51.0531C1286.13 51.0531 1276.02 52.7009 1266.87 56.0053L1267.08 56.6ZM1297.18 51.6854V52.3177C1304.71 52.3177 1312.2 53.1992 1319.67 54.9628L1319.81 54.3475L1319.96 53.7322C1312.4 51.9464 1304.81 51.0531 1297.18 51.0531V51.6854ZM1319.81 54.3475L1319.67 54.9628C1327.11 56.7211 1333.9 59.6275 1340.04 63.6807L1340.39 63.1528L1340.74 62.6249C1334.46 58.4871 1327.54 55.5233 1319.96 53.7322L1319.81 54.3475ZM1340.39 63.1528L1340.05 63.6833C1346.16 67.6489 1351.08 73.0617 1354.78 79.9372L1355.34 79.6371L1355.9 79.3371C1352.1 72.2879 1347.04 66.7112 1340.74 62.6223L1340.39 63.1528ZM1355.34 79.6371L1354.79 79.9414C1358.54 86.7857 1360.44 95.3764 1360.44 105.746H1361.07H1361.71C1361.71 95.2284 1359.78 86.4132 1355.89 79.3329L1355.34 79.6371ZM1361.07 105.746H1360.44V211H1361.07H1361.71V105.746H1361.07ZM1361.07 211V210.368H1325.44V211V211.632H1361.07V211ZM1325.44 211H1326.08V189.396H1325.44H1324.81V211H1325.44ZM1325.44 189.396V188.764H1324.21V189.396V190.029H1325.44V189.396ZM1324.21 189.396L1323.65 189.107C1321.44 193.402 1318.31 197.441 1314.26 201.221L1314.69 201.683L1315.12 202.145C1319.27 198.28 1322.49 194.127 1324.78 189.686L1324.21 189.396ZM1314.69 201.683L1314.26 201.22C1310.3 204.909 1305.29 207.907 1299.21 210.204L1299.44 210.795L1299.66 211.387C1305.87 209.042 1311.03 205.965 1315.12 202.145L1314.69 201.683ZM1299.44 210.795L1299.22 210.202C1293.23 212.423 1286.17 213.542 1278.04 213.542V214.174V214.806C1286.29 214.806 1293.5 213.673 1299.66 211.388L1299.44 210.795ZM1287.66 186.939V187.571C1295.19 187.571 1301.74 186.087 1307.31 183.093L1307.01 182.536L1306.71 181.979C1301.36 184.856 1295.02 186.307 1287.66 186.307V186.939ZM1307.01 182.536L1307.32 183.09C1312.87 180.038 1317.15 176.003 1320.15 170.984L1319.61 170.659L1319.06 170.335C1316.19 175.145 1312.08 179.028 1306.71 181.982L1307.01 182.536ZM1319.61 170.659L1320.15 170.989C1323.21 165.974 1324.74 160.502 1324.74 154.585H1324.11H1323.48C1323.48 160.271 1322.01 165.515 1319.07 170.33L1319.61 170.659ZM1324.11 154.585H1324.74V136.053H1324.11H1323.48V154.585H1324.11ZM1324.11 136.053L1323.71 135.564C1322.65 136.436 1320.78 137.294 1318 138.108L1318.17 138.715L1318.35 139.321C1321.17 138.497 1323.25 137.581 1324.51 136.541L1324.11 136.053ZM1318.17 138.715L1317.99 138.109C1315.29 138.92 1312.24 139.631 1308.85 140.242L1308.96 140.865L1309.07 141.487C1312.5 140.869 1315.6 140.147 1318.36 139.32L1318.17 138.715ZM1308.96 140.865L1308.85 140.242C1305.44 140.855 1302.07 141.4 1298.73 141.877L1298.82 142.503L1298.91 143.129C1302.26 142.65 1305.65 142.103 1309.07 141.487L1308.96 140.865ZM1298.82 142.503L1298.73 141.877C1295.39 142.355 1292.49 142.764 1290.03 143.105L1290.12 143.732L1290.21 144.358C1292.66 144.016 1295.57 143.607 1298.91 143.129L1298.82 142.503ZM1290.12 143.732L1290.03 143.105C1284.47 143.861 1279.47 145.101 1275.04 146.829L1275.27 147.418L1275.5 148.006C1279.82 146.321 1284.72 145.103 1290.2 144.358L1290.12 143.732ZM1275.27 147.418L1275.04 146.829C1270.59 148.567 1267.05 151.014 1264.44 154.183L1264.93 154.585L1265.42 154.986C1267.87 152.012 1271.22 149.681 1275.5 148.006L1275.27 147.418ZM1264.93 154.585L1264.45 154.178C1261.81 157.318 1260.51 161.363 1260.51 166.257H1261.14H1261.78C1261.78 161.594 1263.01 157.858 1265.42 154.992L1264.93 154.585ZM1261.14 166.257H1260.51C1260.51 173.26 1263.08 178.62 1268.26 182.236L1268.62 181.717L1268.98 181.199C1264.19 177.852 1261.78 172.906 1261.78 166.257H1261.14ZM1268.62 181.717L1268.26 182.236C1273.37 185.809 1279.85 187.571 1287.66 187.571V186.939V186.307C1280.04 186.307 1273.83 184.588 1268.98 181.199L1268.62 181.717Z" fill="#343434" mask="url(#path-1-outside-1_475_431)"/>
<defs>
<linearGradient id="paint0_linear_475_431" x1="533.941" y1="66.8209" x2="533.374" y2="211.002" gradientUnits="userSpaceOnUse">
<stop stop-color="#1D1D1D"/>
<stop offset="1" stop-color="#161616"/>
</linearGradient>
</defs>
</svg>
