<svg width="1326" height="259" viewBox="0 0 1326 259" fill="none" xmlns="http://www.w3.org/2000/svg">
<mask id="path-1-outside-1_475_605" maskUnits="userSpaceOnUse" x="0" y="0" width="1326" height="274" fill="black">
<rect fill="white" width="1326" height="274"/>
<path d="M38.1082 118.851V211H1.04403V1.3109H37.2891V80.4562H39.1321C42.818 71.5827 48.5176 64.5862 56.2308 59.4669C64.0122 54.2792 73.9096 51.6854 85.9231 51.6854C96.8444 51.6854 106.366 53.9721 114.489 58.5454C122.612 63.1187 128.892 69.808 133.328 78.6133C137.833 87.4186 140.086 98.1692 140.086 110.865V211H103.022V116.599C103.022 106.019 100.291 97.7938 94.8308 91.9236C89.4384 85.9852 81.8617 83.0159 72.1008 83.0159C65.548 83.0159 59.6778 84.4493 54.4902 87.3162C49.3708 90.1148 45.3436 94.1761 42.4085 99.5003C39.5416 104.824 38.1082 111.275 38.1082 118.851ZM220.517 214.072C205.159 214.072 191.849 210.693 180.586 203.935C169.324 197.178 160.587 187.724 154.375 175.574C148.232 163.424 145.16 149.226 145.16 132.981C145.16 116.735 148.232 102.504 154.375 90.2854C160.587 78.0672 169.324 68.5793 180.586 61.8218C191.849 55.0642 205.159 51.6854 220.517 51.6854C235.875 51.6854 249.186 55.0642 260.448 61.8218C271.711 68.5793 280.414 78.0672 286.557 90.2854C292.769 102.504 295.874 116.735 295.874 132.981C295.874 149.226 292.769 163.424 286.557 175.574C280.414 187.724 271.711 197.178 260.448 203.935C249.186 210.693 235.875 214.072 220.517 214.072ZM220.722 184.379C229.05 184.379 236.012 182.093 241.609 177.519C247.206 172.878 251.37 166.666 254.1 158.885C256.899 151.103 258.298 142.435 258.298 132.879C258.298 123.254 256.899 114.551 254.1 106.77C251.37 98.9201 247.206 92.6745 241.609 88.0329C236.012 83.3913 229.05 81.0706 220.722 81.0706C212.19 81.0706 205.091 83.3913 199.425 88.0329C193.828 92.6745 189.63 98.9201 186.832 106.77C184.102 114.551 182.736 123.254 182.736 132.879C182.736 142.435 184.102 151.103 186.832 158.885C189.63 166.666 193.828 172.878 199.425 177.519C205.091 182.093 212.19 184.379 220.722 184.379ZM425.682 95.3024L391.894 98.9883C390.938 95.5754 389.266 92.3673 386.877 89.3639C384.556 86.3606 381.416 83.9374 377.457 82.0944C373.498 80.2515 368.652 79.33 362.918 79.33C355.205 79.33 348.721 81.0023 343.465 84.347C338.277 87.6916 335.718 92.026 335.786 97.3501C335.718 101.923 337.39 105.644 340.803 108.51C344.284 111.377 350.018 113.732 358.004 115.575L384.829 121.309C399.71 124.517 410.767 129.602 418.003 136.564C425.306 143.527 428.992 152.639 429.061 163.902C428.992 173.799 426.091 182.536 420.358 190.113C414.692 197.621 406.808 203.492 396.706 207.724C386.604 211.956 375 214.072 361.895 214.072C342.646 214.072 327.151 210.044 315.411 201.99C303.67 193.867 296.674 182.57 294.421 168.1L330.564 164.619C332.202 171.717 335.683 177.076 341.008 180.693C346.332 184.311 353.26 186.12 361.792 186.12C370.598 186.12 377.662 184.311 382.986 180.693C388.379 177.076 391.075 172.605 391.075 167.281C391.075 162.776 389.334 159.056 385.853 156.12C382.44 153.185 377.116 150.933 369.881 149.363L343.055 143.732C327.97 140.592 316.81 135.302 309.575 127.862C302.339 120.353 298.756 110.865 298.824 99.3979C298.756 89.7052 301.384 81.3095 306.708 74.2106C312.1 67.0435 319.575 61.5146 329.131 57.6239C338.755 53.6649 349.847 51.6854 362.407 51.6854C380.836 51.6854 395.341 55.6103 405.921 63.46C416.569 71.3097 423.156 81.9238 425.682 95.3024ZM512.205 53.7332V82.4016H421.797V53.7332H512.205ZM444.118 16.0547H481.182V163.697C481.182 168.68 481.933 172.502 483.434 175.164C485.004 177.758 487.052 179.533 489.578 180.489C492.103 181.444 494.902 181.922 497.973 181.922C500.294 181.922 502.41 181.751 504.321 181.41C506.301 181.069 507.803 180.762 508.826 180.489L515.072 209.464C513.093 210.147 510.26 210.898 506.574 211.717C502.956 212.536 498.519 213.014 493.264 213.15C483.98 213.423 475.619 212.024 468.179 208.952C460.739 205.812 454.834 200.966 450.466 194.413C446.165 187.86 444.049 179.669 444.118 169.84V16.0547ZM584.164 214.072C568.806 214.072 555.496 210.693 544.233 203.935C532.97 197.178 524.233 187.724 518.022 175.574C511.879 163.424 508.807 149.226 508.807 132.981C508.807 116.735 511.879 102.504 518.022 90.2854C524.233 78.0672 532.97 68.5793 544.233 61.8218C555.496 55.0642 568.806 51.6854 584.164 51.6854C599.522 51.6854 612.832 55.0642 624.095 61.8218C635.358 68.5793 644.061 78.0672 650.204 90.2854C656.415 102.504 659.521 116.735 659.521 132.981C659.521 149.226 656.415 163.424 650.204 175.574C644.061 187.724 635.358 197.178 624.095 203.935C612.832 210.693 599.522 214.072 584.164 214.072ZM584.369 184.379C592.696 184.379 599.659 182.093 605.256 177.519C610.853 172.878 615.017 166.666 617.747 158.885C620.546 151.103 621.945 142.435 621.945 132.879C621.945 123.254 620.546 114.551 617.747 106.77C615.017 98.9201 610.853 92.6745 605.256 88.0329C599.659 83.3913 592.696 81.0706 584.369 81.0706C575.837 81.0706 568.738 83.3913 563.072 88.0329C557.475 92.6745 553.277 98.9201 550.479 106.77C547.748 114.551 546.383 123.254 546.383 132.879C546.383 142.435 547.748 151.103 550.479 158.885C553.277 166.666 557.475 172.878 563.072 177.519C568.738 182.093 575.837 184.379 584.369 184.379ZM665.03 211V53.7332H700.456V80.4562H702.299C705.576 71.4462 711.002 64.4156 718.579 59.3645C726.156 54.2451 735.2 51.6854 745.712 51.6854C756.36 51.6854 765.336 54.2792 772.639 59.4669C780.011 64.5862 785.199 71.5827 788.202 80.4562H789.841C793.322 71.7192 799.192 64.7569 807.451 59.5693C815.779 54.3134 825.642 51.6854 837.041 51.6854C851.512 51.6854 863.32 56.2587 872.467 65.4053C881.614 74.5519 886.187 87.8964 886.187 105.439V211H849.02V111.172C849.02 101.412 846.427 94.2785 841.239 89.7735C836.051 85.2002 829.703 82.9135 822.195 82.9135C813.253 82.9135 806.257 85.7121 801.206 91.3093C796.223 96.8382 793.731 104.039 793.731 112.913V211H757.384V109.637C757.384 101.514 754.926 95.0294 750.012 90.183C745.166 85.3367 738.818 82.9135 730.968 82.9135C725.644 82.9135 720.797 84.2787 716.429 87.009C712.06 89.6711 708.579 93.4594 705.985 98.374C703.392 103.22 702.095 108.886 702.095 115.37V211H665.03ZM967.463 214.072C951.695 214.072 938.078 210.795 926.61 204.242C915.211 197.621 906.44 188.27 900.297 176.188C894.154 164.038 891.082 149.738 891.082 133.288C891.082 117.111 894.154 102.913 900.297 90.695C906.508 78.4085 915.177 68.8524 926.303 62.0265C937.429 55.1325 950.501 51.6854 965.518 51.6854C975.21 51.6854 984.357 53.2554 992.957 56.3952C1001.63 59.4669 1009.27 64.2449 1015.89 70.7295C1022.58 77.214 1027.84 85.4732 1031.66 95.5072C1035.48 105.473 1037.39 117.35 1037.39 131.138V142.503H908.488V117.52H1001.87C1001.8 110.422 1000.26 104.108 997.258 98.5788C994.254 92.9816 990.056 88.579 984.664 85.3708C979.34 82.1627 973.128 80.5586 966.03 80.5586C958.453 80.5586 951.798 82.4016 946.064 86.0875C940.33 89.7052 935.859 94.4833 932.651 100.422C929.511 106.292 927.907 112.742 927.839 119.773V141.581C927.839 150.728 929.511 158.578 932.856 165.131C936.201 171.615 940.876 176.598 946.883 180.079C952.89 183.492 959.92 185.198 967.975 185.198C973.367 185.198 978.248 184.448 982.616 182.946C986.985 181.376 990.773 179.089 993.981 176.086C997.189 173.083 999.613 169.363 1001.25 164.926L1035.86 168.816C1033.67 177.963 1029.51 185.949 1023.37 192.775C1017.29 199.533 1009.51 204.789 1000.02 208.543C990.534 212.229 979.681 214.072 967.463 214.072ZM1111.2 273.251C1097.88 273.251 1086.45 271.443 1076.9 267.825C1067.34 264.276 1059.66 259.497 1053.86 253.491C1048.06 247.484 1044.03 240.829 1041.78 233.525L1075.15 225.437C1076.66 228.508 1078.84 231.546 1081.71 234.549C1084.57 237.621 1088.43 240.146 1093.28 242.126C1098.19 244.173 1104.37 245.197 1111.81 245.197C1122.32 245.197 1131.02 242.638 1137.92 237.518C1144.81 232.467 1148.26 224.14 1148.26 212.536V182.741H1146.42C1144.51 186.564 1141.71 190.488 1138.02 194.516C1134.4 198.543 1129.59 201.922 1123.58 204.652C1117.65 207.382 1110.17 208.747 1101.16 208.747C1089.08 208.747 1078.12 205.915 1068.29 200.249C1058.53 194.516 1050.75 185.983 1044.95 174.653C1039.22 163.253 1036.35 148.987 1036.35 131.855C1036.35 114.585 1039.22 100.012 1044.95 88.1353C1050.75 76.1901 1058.57 67.1459 1068.4 61.0027C1078.23 54.7912 1089.18 51.6854 1101.26 51.6854C1110.48 51.6854 1118.06 53.2554 1123.99 56.3952C1130 59.4669 1134.78 63.1869 1138.33 67.5555C1141.88 71.8557 1144.57 75.9171 1146.42 79.7395H1148.46V53.7332H1185.02V213.56C1185.02 227.007 1181.81 238.133 1175.39 246.938C1168.98 255.743 1160.2 262.33 1149.08 266.699C1137.95 271.067 1125.32 273.251 1111.2 273.251ZM1111.5 179.669C1119.35 179.669 1126.04 177.758 1131.57 173.936C1137.1 170.113 1141.3 164.619 1144.16 157.451C1147.03 150.284 1148.46 141.684 1148.46 131.65C1148.46 121.752 1147.03 113.084 1144.16 105.644C1141.37 98.2034 1137.2 92.4356 1131.67 88.3401C1126.21 84.1763 1119.49 82.0944 1111.5 82.0944C1103.24 82.0944 1096.35 84.2446 1090.82 88.5448C1085.29 92.8451 1081.13 98.7494 1078.33 106.258C1075.53 113.698 1074.13 122.162 1074.13 131.65C1074.13 141.274 1075.53 149.704 1078.33 156.94C1081.2 164.107 1085.39 169.704 1090.92 173.731C1096.52 177.69 1103.38 179.669 1111.5 179.669ZM1242.31 214.174C1232.34 214.174 1223.37 212.399 1215.38 208.85C1207.46 205.232 1201.18 199.908 1196.54 192.877C1191.97 185.847 1189.68 177.178 1189.68 166.871C1189.68 157.998 1191.32 150.66 1194.6 144.858C1197.87 139.056 1202.34 134.414 1208.01 130.933C1213.67 127.452 1220.06 124.824 1227.15 123.049C1234.32 121.206 1241.73 119.875 1249.37 119.056C1258.59 118.101 1266.06 117.247 1271.8 116.497C1277.53 115.677 1281.69 114.449 1284.29 112.811C1286.95 111.104 1288.28 108.476 1288.28 104.927V104.312C1288.28 96.5993 1285.99 90.6267 1281.42 86.3947C1276.85 82.1627 1270.26 80.0467 1261.66 80.0467C1252.58 80.0467 1245.38 82.0262 1240.06 85.9852C1234.8 89.9441 1231.25 94.6198 1229.41 100.012L1194.8 95.0976C1197.53 85.5415 1202.04 77.5553 1208.32 71.139C1214.6 64.6545 1222.27 59.8081 1231.35 56.6C1240.43 53.3236 1250.47 51.6854 1261.45 51.6854C1269.03 51.6854 1276.57 52.5728 1284.08 54.3475C1291.59 56.1222 1298.45 59.0573 1304.66 63.1528C1310.87 67.18 1315.86 72.6748 1319.61 79.6371C1323.43 86.5995 1325.34 95.3024 1325.34 105.746V211H1289.71V189.396H1288.48C1286.23 193.765 1283.06 197.86 1278.96 201.683C1274.94 205.437 1269.85 208.474 1263.71 210.795C1257.63 213.048 1250.5 214.174 1242.31 214.174ZM1251.93 186.939C1259.37 186.939 1265.82 185.471 1271.28 182.536C1276.74 179.533 1280.94 175.574 1283.88 170.659C1286.88 165.745 1288.38 160.387 1288.38 154.585V136.053C1287.22 137.008 1285.24 137.895 1282.44 138.715C1279.71 139.534 1276.64 140.25 1273.23 140.865C1269.82 141.479 1266.44 142.025 1263.09 142.503C1259.75 142.981 1256.85 143.39 1254.39 143.732C1248.86 144.482 1243.91 145.711 1239.54 147.418C1235.18 149.124 1231.73 151.513 1229.2 154.585C1226.68 157.588 1225.41 161.479 1225.41 166.257C1225.41 173.083 1227.91 178.236 1232.89 181.717C1237.87 185.198 1244.22 186.939 1251.93 186.939Z"/>
</mask>
<path d="M38.1082 118.851V211H1.04403V1.3109H37.2891V80.4562H39.1321C42.818 71.5827 48.5176 64.5862 56.2308 59.4669C64.0122 54.2792 73.9096 51.6854 85.9231 51.6854C96.8444 51.6854 106.366 53.9721 114.489 58.5454C122.612 63.1187 128.892 69.808 133.328 78.6133C137.833 87.4186 140.086 98.1692 140.086 110.865V211H103.022V116.599C103.022 106.019 100.291 97.7938 94.8308 91.9236C89.4384 85.9852 81.8617 83.0159 72.1008 83.0159C65.548 83.0159 59.6778 84.4493 54.4902 87.3162C49.3708 90.1148 45.3436 94.1761 42.4085 99.5003C39.5416 104.824 38.1082 111.275 38.1082 118.851ZM220.517 214.072C205.159 214.072 191.849 210.693 180.586 203.935C169.324 197.178 160.587 187.724 154.375 175.574C148.232 163.424 145.16 149.226 145.16 132.981C145.16 116.735 148.232 102.504 154.375 90.2854C160.587 78.0672 169.324 68.5793 180.586 61.8218C191.849 55.0642 205.159 51.6854 220.517 51.6854C235.875 51.6854 249.186 55.0642 260.448 61.8218C271.711 68.5793 280.414 78.0672 286.557 90.2854C292.769 102.504 295.874 116.735 295.874 132.981C295.874 149.226 292.769 163.424 286.557 175.574C280.414 187.724 271.711 197.178 260.448 203.935C249.186 210.693 235.875 214.072 220.517 214.072ZM220.722 184.379C229.05 184.379 236.012 182.093 241.609 177.519C247.206 172.878 251.37 166.666 254.1 158.885C256.899 151.103 258.298 142.435 258.298 132.879C258.298 123.254 256.899 114.551 254.1 106.77C251.37 98.9201 247.206 92.6745 241.609 88.0329C236.012 83.3913 229.05 81.0706 220.722 81.0706C212.19 81.0706 205.091 83.3913 199.425 88.0329C193.828 92.6745 189.63 98.9201 186.832 106.77C184.102 114.551 182.736 123.254 182.736 132.879C182.736 142.435 184.102 151.103 186.832 158.885C189.63 166.666 193.828 172.878 199.425 177.519C205.091 182.093 212.19 184.379 220.722 184.379ZM425.682 95.3024L391.894 98.9883C390.938 95.5754 389.266 92.3673 386.877 89.3639C384.556 86.3606 381.416 83.9374 377.457 82.0944C373.498 80.2515 368.652 79.33 362.918 79.33C355.205 79.33 348.721 81.0023 343.465 84.347C338.277 87.6916 335.718 92.026 335.786 97.3501C335.718 101.923 337.39 105.644 340.803 108.51C344.284 111.377 350.018 113.732 358.004 115.575L384.829 121.309C399.71 124.517 410.767 129.602 418.003 136.564C425.306 143.527 428.992 152.639 429.061 163.902C428.992 173.799 426.091 182.536 420.358 190.113C414.692 197.621 406.808 203.492 396.706 207.724C386.604 211.956 375 214.072 361.895 214.072C342.646 214.072 327.151 210.044 315.411 201.99C303.67 193.867 296.674 182.57 294.421 168.1L330.564 164.619C332.202 171.717 335.683 177.076 341.008 180.693C346.332 184.311 353.26 186.12 361.792 186.12C370.598 186.12 377.662 184.311 382.986 180.693C388.379 177.076 391.075 172.605 391.075 167.281C391.075 162.776 389.334 159.056 385.853 156.12C382.44 153.185 377.116 150.933 369.881 149.363L343.055 143.732C327.97 140.592 316.81 135.302 309.575 127.862C302.339 120.353 298.756 110.865 298.824 99.3979C298.756 89.7052 301.384 81.3095 306.708 74.2106C312.1 67.0435 319.575 61.5146 329.131 57.6239C338.755 53.6649 349.847 51.6854 362.407 51.6854C380.836 51.6854 395.341 55.6103 405.921 63.46C416.569 71.3097 423.156 81.9238 425.682 95.3024ZM512.205 53.7332V82.4016H421.797V53.7332H512.205ZM444.118 16.0547H481.182V163.697C481.182 168.68 481.933 172.502 483.434 175.164C485.004 177.758 487.052 179.533 489.578 180.489C492.103 181.444 494.902 181.922 497.973 181.922C500.294 181.922 502.41 181.751 504.321 181.41C506.301 181.069 507.803 180.762 508.826 180.489L515.072 209.464C513.093 210.147 510.26 210.898 506.574 211.717C502.956 212.536 498.519 213.014 493.264 213.15C483.98 213.423 475.619 212.024 468.179 208.952C460.739 205.812 454.834 200.966 450.466 194.413C446.165 187.86 444.049 179.669 444.118 169.84V16.0547ZM584.164 214.072C568.806 214.072 555.496 210.693 544.233 203.935C532.97 197.178 524.233 187.724 518.022 175.574C511.879 163.424 508.807 149.226 508.807 132.981C508.807 116.735 511.879 102.504 518.022 90.2854C524.233 78.0672 532.97 68.5793 544.233 61.8218C555.496 55.0642 568.806 51.6854 584.164 51.6854C599.522 51.6854 612.832 55.0642 624.095 61.8218C635.358 68.5793 644.061 78.0672 650.204 90.2854C656.415 102.504 659.521 116.735 659.521 132.981C659.521 149.226 656.415 163.424 650.204 175.574C644.061 187.724 635.358 197.178 624.095 203.935C612.832 210.693 599.522 214.072 584.164 214.072ZM584.369 184.379C592.696 184.379 599.659 182.093 605.256 177.519C610.853 172.878 615.017 166.666 617.747 158.885C620.546 151.103 621.945 142.435 621.945 132.879C621.945 123.254 620.546 114.551 617.747 106.77C615.017 98.9201 610.853 92.6745 605.256 88.0329C599.659 83.3913 592.696 81.0706 584.369 81.0706C575.837 81.0706 568.738 83.3913 563.072 88.0329C557.475 92.6745 553.277 98.9201 550.479 106.77C547.748 114.551 546.383 123.254 546.383 132.879C546.383 142.435 547.748 151.103 550.479 158.885C553.277 166.666 557.475 172.878 563.072 177.519C568.738 182.093 575.837 184.379 584.369 184.379ZM665.03 211V53.7332H700.456V80.4562H702.299C705.576 71.4462 711.002 64.4156 718.579 59.3645C726.156 54.2451 735.2 51.6854 745.712 51.6854C756.36 51.6854 765.336 54.2792 772.639 59.4669C780.011 64.5862 785.199 71.5827 788.202 80.4562H789.841C793.322 71.7192 799.192 64.7569 807.451 59.5693C815.779 54.3134 825.642 51.6854 837.041 51.6854C851.512 51.6854 863.32 56.2587 872.467 65.4053C881.614 74.5519 886.187 87.8964 886.187 105.439V211H849.02V111.172C849.02 101.412 846.427 94.2785 841.239 89.7735C836.051 85.2002 829.703 82.9135 822.195 82.9135C813.253 82.9135 806.257 85.7121 801.206 91.3093C796.223 96.8382 793.731 104.039 793.731 112.913V211H757.384V109.637C757.384 101.514 754.926 95.0294 750.012 90.183C745.166 85.3367 738.818 82.9135 730.968 82.9135C725.644 82.9135 720.797 84.2787 716.429 87.009C712.06 89.6711 708.579 93.4594 705.985 98.374C703.392 103.22 702.095 108.886 702.095 115.37V211H665.03ZM967.463 214.072C951.695 214.072 938.078 210.795 926.61 204.242C915.211 197.621 906.44 188.27 900.297 176.188C894.154 164.038 891.082 149.738 891.082 133.288C891.082 117.111 894.154 102.913 900.297 90.695C906.508 78.4085 915.177 68.8524 926.303 62.0265C937.429 55.1325 950.501 51.6854 965.518 51.6854C975.21 51.6854 984.357 53.2554 992.957 56.3952C1001.63 59.4669 1009.27 64.2449 1015.89 70.7295C1022.58 77.214 1027.84 85.4732 1031.66 95.5072C1035.48 105.473 1037.39 117.35 1037.39 131.138V142.503H908.488V117.52H1001.87C1001.8 110.422 1000.26 104.108 997.258 98.5788C994.254 92.9816 990.056 88.579 984.664 85.3708C979.34 82.1627 973.128 80.5586 966.03 80.5586C958.453 80.5586 951.798 82.4016 946.064 86.0875C940.33 89.7052 935.859 94.4833 932.651 100.422C929.511 106.292 927.907 112.742 927.839 119.773V141.581C927.839 150.728 929.511 158.578 932.856 165.131C936.201 171.615 940.876 176.598 946.883 180.079C952.89 183.492 959.92 185.198 967.975 185.198C973.367 185.198 978.248 184.448 982.616 182.946C986.985 181.376 990.773 179.089 993.981 176.086C997.189 173.083 999.613 169.363 1001.25 164.926L1035.86 168.816C1033.67 177.963 1029.51 185.949 1023.37 192.775C1017.29 199.533 1009.51 204.789 1000.02 208.543C990.534 212.229 979.681 214.072 967.463 214.072ZM1111.2 273.251C1097.88 273.251 1086.45 271.443 1076.9 267.825C1067.34 264.276 1059.66 259.497 1053.86 253.491C1048.06 247.484 1044.03 240.829 1041.78 233.525L1075.15 225.437C1076.66 228.508 1078.84 231.546 1081.71 234.549C1084.57 237.621 1088.43 240.146 1093.28 242.126C1098.19 244.173 1104.37 245.197 1111.81 245.197C1122.32 245.197 1131.02 242.638 1137.92 237.518C1144.81 232.467 1148.26 224.14 1148.26 212.536V182.741H1146.42C1144.51 186.564 1141.71 190.488 1138.02 194.516C1134.4 198.543 1129.59 201.922 1123.58 204.652C1117.65 207.382 1110.17 208.747 1101.16 208.747C1089.08 208.747 1078.12 205.915 1068.29 200.249C1058.53 194.516 1050.75 185.983 1044.95 174.653C1039.22 163.253 1036.35 148.987 1036.35 131.855C1036.35 114.585 1039.22 100.012 1044.95 88.1353C1050.75 76.1901 1058.57 67.1459 1068.4 61.0027C1078.23 54.7912 1089.18 51.6854 1101.26 51.6854C1110.48 51.6854 1118.06 53.2554 1123.99 56.3952C1130 59.4669 1134.78 63.1869 1138.33 67.5555C1141.88 71.8557 1144.57 75.9171 1146.42 79.7395H1148.46V53.7332H1185.02V213.56C1185.02 227.007 1181.81 238.133 1175.39 246.938C1168.98 255.743 1160.2 262.33 1149.08 266.699C1137.95 271.067 1125.32 273.251 1111.2 273.251ZM1111.5 179.669C1119.35 179.669 1126.04 177.758 1131.57 173.936C1137.1 170.113 1141.3 164.619 1144.16 157.451C1147.03 150.284 1148.46 141.684 1148.46 131.65C1148.46 121.752 1147.03 113.084 1144.16 105.644C1141.37 98.2034 1137.2 92.4356 1131.67 88.3401C1126.21 84.1763 1119.49 82.0944 1111.5 82.0944C1103.24 82.0944 1096.35 84.2446 1090.82 88.5448C1085.29 92.8451 1081.13 98.7494 1078.33 106.258C1075.53 113.698 1074.13 122.162 1074.13 131.65C1074.13 141.274 1075.53 149.704 1078.33 156.94C1081.2 164.107 1085.39 169.704 1090.92 173.731C1096.52 177.69 1103.38 179.669 1111.5 179.669ZM1242.31 214.174C1232.34 214.174 1223.37 212.399 1215.38 208.85C1207.46 205.232 1201.18 199.908 1196.54 192.877C1191.97 185.847 1189.68 177.178 1189.68 166.871C1189.68 157.998 1191.32 150.66 1194.6 144.858C1197.87 139.056 1202.34 134.414 1208.01 130.933C1213.67 127.452 1220.06 124.824 1227.15 123.049C1234.32 121.206 1241.73 119.875 1249.37 119.056C1258.59 118.101 1266.06 117.247 1271.8 116.497C1277.53 115.677 1281.69 114.449 1284.29 112.811C1286.95 111.104 1288.28 108.476 1288.28 104.927V104.312C1288.28 96.5993 1285.99 90.6267 1281.42 86.3947C1276.85 82.1627 1270.26 80.0467 1261.66 80.0467C1252.58 80.0467 1245.38 82.0262 1240.06 85.9852C1234.8 89.9441 1231.25 94.6198 1229.41 100.012L1194.8 95.0976C1197.53 85.5415 1202.04 77.5553 1208.32 71.139C1214.6 64.6545 1222.27 59.8081 1231.35 56.6C1240.43 53.3236 1250.47 51.6854 1261.45 51.6854C1269.03 51.6854 1276.57 52.5728 1284.08 54.3475C1291.59 56.1222 1298.45 59.0573 1304.66 63.1528C1310.87 67.18 1315.86 72.6748 1319.61 79.6371C1323.43 86.5995 1325.34 95.3024 1325.34 105.746V211H1289.71V189.396H1288.48C1286.23 193.765 1283.06 197.86 1278.96 201.683C1274.94 205.437 1269.85 208.474 1263.71 210.795C1257.63 213.048 1250.5 214.174 1242.31 214.174ZM1251.93 186.939C1259.37 186.939 1265.82 185.471 1271.28 182.536C1276.74 179.533 1280.94 175.574 1283.88 170.659C1286.88 165.745 1288.38 160.387 1288.38 154.585V136.053C1287.22 137.008 1285.24 137.895 1282.44 138.715C1279.71 139.534 1276.64 140.25 1273.23 140.865C1269.82 141.479 1266.44 142.025 1263.09 142.503C1259.75 142.981 1256.85 143.39 1254.39 143.732C1248.86 144.482 1243.91 145.711 1239.54 147.418C1235.18 149.124 1231.73 151.513 1229.2 154.585C1226.68 157.588 1225.41 161.479 1225.41 166.257C1225.41 173.083 1227.91 178.236 1232.89 181.717C1237.87 185.198 1244.22 186.939 1251.93 186.939Z" fill="url(#paint0_linear_475_605)" fill-opacity="0.5"/>
<path d="M38.1082 211V211.632H38.7405V211H38.1082ZM1.04403 211H0.411744V211.632H1.04403V211ZM1.04403 1.3109V0.67861H0.411744V1.3109H1.04403ZM37.2891 1.3109H37.9214V0.67861H37.2891V1.3109ZM37.2891 80.4562H36.6568V81.0885H37.2891V80.4562ZM39.1321 80.4562V81.0885H39.5541L39.716 80.6988L39.1321 80.4562ZM56.2308 59.4669L56.5804 59.9937L56.5815 59.993L56.2308 59.4669ZM114.489 58.5454L114.799 57.9944L114.799 57.9944L114.489 58.5454ZM133.328 78.6133L132.764 78.8978L132.765 78.9013L133.328 78.6133ZM140.086 211V211.632H140.718V211H140.086ZM103.022 211H102.389V211.632H103.022V211ZM94.8308 91.9236L94.3626 92.3487L94.3678 92.3543L94.8308 91.9236ZM54.4902 87.3162L54.7935 87.871L54.796 87.8696L54.4902 87.3162ZM42.4085 99.5003L41.8547 99.195L41.8518 99.2005L42.4085 99.5003ZM38.1082 118.851H37.4759V211H38.1082H38.7405V118.851H38.1082ZM38.1082 211V210.368H1.04403V211V211.632H38.1082V211ZM1.04403 211H1.67632V1.3109H1.04403H0.411744V211H1.04403ZM1.04403 1.3109V1.94318H37.2891V1.3109V0.67861H1.04403V1.3109ZM37.2891 1.3109H36.6568V80.4562H37.2891H37.9214V1.3109H37.2891ZM37.2891 80.4562V81.0885H39.1321V80.4562V79.824H37.2891V80.4562ZM39.1321 80.4562L39.716 80.6988C43.3557 71.9365 48.9759 65.0409 56.5804 59.9937L56.2308 59.4669L55.8811 58.9401C48.0592 64.1315 42.2803 71.2289 38.5482 80.2137L39.1321 80.4562ZM56.2308 59.4669L56.5815 59.993C64.2332 54.8918 73.9992 52.3177 85.9231 52.3177V51.6854V51.0531C73.8201 51.0531 63.7912 53.6666 55.88 58.9408L56.2308 59.4669ZM85.9231 51.6854V52.3177C96.7545 52.3177 106.166 54.5849 114.179 59.0963L114.489 58.5454L114.799 57.9944C106.567 53.3593 96.9343 51.0531 85.9231 51.0531V51.6854ZM114.489 58.5454L114.179 59.0963C122.186 63.6044 128.38 70.1978 132.764 78.8978L133.328 78.6133L133.893 78.3288C129.403 69.4182 123.038 62.6329 114.799 57.9944L114.489 58.5454ZM133.328 78.6133L132.765 78.9013C137.214 87.5958 139.454 98.2418 139.454 110.865H140.086H140.718C140.718 98.0967 138.453 87.2414 133.891 78.3253L133.328 78.6133ZM140.086 110.865H139.454V211H140.086H140.718V110.865H140.086ZM140.086 211V210.368H103.022V211V211.632H140.086V211ZM103.022 211H103.654V116.599H103.022H102.389V211H103.022ZM103.022 116.599H103.654C103.654 105.912 100.894 97.5136 95.2937 91.493L94.8308 91.9236L94.3678 92.3543C99.6885 98.0741 102.389 106.126 102.389 116.599H103.022ZM94.8308 91.9236L95.2989 91.4986C89.7611 85.4 81.9981 82.3836 72.1008 82.3836V83.0159V83.6482C81.7253 83.6482 89.1156 86.5703 94.3627 92.3487L94.8308 91.9236ZM72.1008 83.0159V82.3836C65.4526 82.3836 59.4752 83.8389 54.1844 86.7628L54.4902 87.3162L54.796 87.8696C59.8804 85.0598 65.6434 83.6482 72.1008 83.6482V83.0159ZM54.4902 87.3162L54.1869 86.7614C48.9575 89.6202 44.8453 93.7702 41.8548 99.195L42.4085 99.5003L42.9622 99.8055C45.8418 94.582 49.7842 90.6094 54.7935 87.871L54.4902 87.3162ZM42.4085 99.5003L41.8518 99.2005C38.9243 104.637 37.4759 111.196 37.4759 118.851H38.1082H38.7405C38.7405 111.353 40.159 105.012 42.9652 99.8L42.4085 99.5003ZM180.586 203.935L180.261 204.477L180.261 204.477L180.586 203.935ZM154.375 175.574L153.811 175.859L153.812 175.862L154.375 175.574ZM154.375 90.2854L153.811 89.9989L153.81 90.0014L154.375 90.2854ZM180.586 61.8218L180.912 62.364L180.912 62.364L180.586 61.8218ZM260.448 61.8218L260.123 62.364L260.123 62.364L260.448 61.8218ZM286.557 90.2854L285.992 90.5695L285.993 90.572L286.557 90.2854ZM286.557 175.574L285.994 175.286L285.993 175.289L286.557 175.574ZM260.448 203.935L260.123 203.393L260.123 203.393L260.448 203.935ZM241.609 177.519L242.009 178.009L242.013 178.006L241.609 177.519ZM254.1 158.885L253.505 158.671L253.504 158.676L254.1 158.885ZM254.1 106.77L253.503 106.978L253.505 106.984L254.1 106.77ZM241.609 88.0329L242.013 87.5462L242.013 87.5462L241.609 88.0329ZM199.425 88.0329L199.025 87.5438L199.022 87.5462L199.425 88.0329ZM186.832 106.77L186.236 106.557L186.235 106.56L186.832 106.77ZM186.832 158.885L186.235 159.094L186.237 159.099L186.832 158.885ZM199.425 177.519L199.022 178.006L199.028 178.011L199.425 177.519ZM220.517 214.072V213.439C205.254 213.439 192.06 210.082 180.912 203.393L180.586 203.935L180.261 204.477C191.637 211.303 205.064 214.704 220.517 214.704V214.072ZM180.586 203.935L180.912 203.393C169.754 196.699 161.098 187.335 154.938 175.286L154.375 175.574L153.812 175.862C160.075 188.113 168.893 197.657 180.261 204.477L180.586 203.935ZM154.375 175.574L154.939 175.289C148.849 163.243 145.793 149.146 145.793 132.981H145.16H144.528C144.528 149.306 147.615 163.605 153.811 175.859L154.375 175.574ZM145.16 132.981H145.793C145.793 116.816 148.849 102.684 154.94 90.5694L154.375 90.2854L153.81 90.0014C147.615 102.323 144.528 116.655 144.528 132.981H145.16ZM154.375 90.2854L154.939 90.572C161.099 78.4548 169.755 69.0576 180.912 62.364L180.586 61.8218L180.261 61.2796C168.892 68.101 160.074 77.6796 153.811 89.9989L154.375 90.2854ZM180.586 61.8218L180.912 62.364C192.06 55.6747 205.254 52.3177 220.517 52.3177V51.6854V51.0531C205.064 51.0531 191.637 54.4537 180.261 61.2796L180.586 61.8218ZM220.517 51.6854V52.3177C235.78 52.3177 248.974 55.6747 260.123 62.364L260.448 61.8218L260.774 61.2796C249.397 54.4537 235.97 51.0531 220.517 51.0531V51.6854ZM260.448 61.8218L260.123 62.364C271.279 69.0573 279.9 78.4536 285.992 90.5694L286.557 90.2854L287.122 90.0014C280.927 77.6808 272.143 68.1014 260.774 61.2796L260.448 61.8218ZM286.557 90.2854L285.993 90.572C292.152 102.686 295.242 116.817 295.242 132.981H295.874H296.507C296.507 116.654 293.385 102.321 287.121 89.9989L286.557 90.2854ZM295.874 132.981H295.242C295.242 149.145 292.152 163.241 285.994 175.286L286.557 175.574L287.12 175.862C293.385 163.607 296.507 149.307 296.507 132.981H295.874ZM286.557 175.574L285.993 175.289C279.901 187.336 271.279 196.699 260.123 203.393L260.448 203.935L260.774 204.477C272.142 197.656 280.926 188.112 287.121 175.859L286.557 175.574ZM260.448 203.935L260.123 203.393C248.974 210.082 235.78 213.439 220.517 213.439V214.072V214.704C235.97 214.704 249.397 211.303 260.774 204.477L260.448 203.935ZM220.722 184.379V185.012C229.172 185.012 236.282 182.688 242.009 178.009L241.609 177.519L241.209 177.03C235.742 181.497 228.927 183.747 220.722 183.747V184.379ZM241.609 177.519L242.013 178.006C247.709 173.282 251.934 166.969 254.697 159.094L254.1 158.885L253.504 158.676C250.806 166.364 246.703 172.474 241.205 177.033L241.609 177.519ZM254.1 158.885L254.695 159.099C257.522 151.239 258.93 142.496 258.93 132.879H258.298H257.666C257.666 142.373 256.276 150.968 253.505 158.671L254.1 158.885ZM258.298 132.879H258.93C258.93 123.193 257.522 114.416 254.695 106.556L254.1 106.77L253.505 106.984C256.276 114.686 257.666 123.315 257.666 132.879H258.298ZM254.1 106.77L254.697 106.562C251.935 98.6193 247.711 92.2714 242.013 87.5462L241.609 88.0329L241.205 88.5196C246.702 93.0775 250.805 99.2208 253.503 106.977L254.1 106.77ZM241.609 88.0329L242.013 87.5462C236.286 82.7971 229.174 80.4383 220.722 80.4383V81.0706V81.7029C228.925 81.7029 235.738 83.9856 241.205 88.5196L241.609 88.0329ZM220.722 81.0706V80.4383C212.069 80.4383 204.821 82.7948 199.025 87.5438L199.425 88.0329L199.826 88.522C205.36 83.9879 212.311 81.7029 220.722 81.7029V81.0706ZM199.425 88.0329L199.022 87.5462C193.325 92.2704 189.067 98.6166 186.236 106.557L186.832 106.77L187.427 106.982C190.194 99.2235 194.332 93.0785 199.829 88.5196L199.425 88.0329ZM186.832 106.77L186.235 106.56C183.478 114.419 182.104 123.194 182.104 132.879H182.736H183.369C183.369 123.314 184.725 114.683 187.428 106.979L186.832 106.77ZM182.736 132.879H182.104C182.104 142.495 183.478 151.236 186.235 159.094L186.832 158.885L187.428 158.676C184.725 150.971 183.369 142.374 183.369 132.879H182.736ZM186.832 158.885L186.237 159.099C189.068 166.972 193.326 173.283 199.022 178.006L199.425 177.519L199.829 177.033C194.33 172.473 190.193 166.361 187.427 158.671L186.832 158.885ZM199.425 177.519L199.028 178.011C204.825 182.691 212.071 185.012 220.722 185.012V184.379V183.747C212.308 183.747 205.357 181.495 199.823 177.027L199.425 177.519ZM425.682 95.3024L425.75 95.931L426.43 95.8568L426.303 95.1851L425.682 95.3024ZM391.894 98.9883L391.285 99.1588L391.43 99.675L391.963 99.6169L391.894 98.9883ZM386.877 89.3639L386.377 89.7506L386.382 89.7576L386.877 89.3639ZM377.457 82.0944L377.724 81.5212L377.724 81.5212L377.457 82.0944ZM343.465 84.347L343.125 83.8135L343.122 83.8155L343.465 84.347ZM335.786 97.3501L336.418 97.3596L336.418 97.3508L336.418 97.342L335.786 97.3501ZM340.803 108.51L340.396 108.995L340.401 108.998L340.803 108.51ZM358.004 115.575L357.862 116.191L357.872 116.193L358.004 115.575ZM384.829 121.309L384.963 120.691L384.961 120.69L384.829 121.309ZM418.003 136.564L417.564 137.02L417.567 137.022L418.003 136.564ZM429.061 163.902L429.693 163.906L429.693 163.898L429.061 163.902ZM420.358 190.113L419.854 189.731L419.853 189.732L420.358 190.113ZM396.706 207.724L396.951 208.307L396.951 208.307L396.706 207.724ZM315.411 201.99L315.051 202.51L315.053 202.511L315.411 201.99ZM294.421 168.1L294.361 167.47L293.694 167.535L293.797 168.197L294.421 168.1ZM330.564 164.619L331.18 164.476L331.055 163.936L330.503 163.989L330.564 164.619ZM341.008 180.693L341.363 180.17L341.363 180.17L341.008 180.693ZM382.986 180.693L382.634 180.168L382.631 180.17L382.986 180.693ZM385.853 156.12L385.441 156.6L385.446 156.604L385.853 156.12ZM369.881 149.363L370.015 148.745L370.011 148.744L369.881 149.363ZM343.055 143.732L343.185 143.113L343.184 143.113L343.055 143.732ZM309.575 127.862L309.119 128.3L309.121 128.302L309.575 127.862ZM298.824 99.3979L299.456 99.4017L299.456 99.3934L298.824 99.3979ZM306.708 74.2106L306.203 73.8305L306.202 73.8312L306.708 74.2106ZM329.131 57.6239L329.369 58.2095L329.371 58.2086L329.131 57.6239ZM405.921 63.46L405.544 63.9678L405.546 63.9689L405.921 63.46ZM425.682 95.3024L425.613 94.6738L391.825 98.3598L391.894 98.9883L391.963 99.6169L425.75 95.931L425.682 95.3024ZM391.894 98.9883L392.503 98.8179C391.523 95.3172 389.809 92.0342 387.372 88.9703L386.877 89.3639L386.382 89.7576C388.723 92.7004 390.354 95.8337 391.285 99.1588L391.894 98.9883ZM386.877 89.3639L387.377 88.9773C384.986 85.8827 381.761 83.4004 377.724 81.5212L377.457 82.0944L377.191 82.6677C381.072 84.4744 384.126 86.8384 386.377 89.7506L386.877 89.3639ZM377.457 82.0944L377.724 81.5212C373.66 79.6292 368.717 78.6977 362.918 78.6977V79.33V79.9623C368.588 79.9623 373.337 80.8738 377.191 82.6677L377.457 82.0944ZM362.918 79.33V78.6977C355.114 78.6977 348.504 80.3905 343.125 83.8135L343.465 84.347L343.804 84.8804C348.937 81.6141 355.297 79.9623 362.918 79.9623V79.33ZM343.465 84.347L343.122 83.8155C337.786 87.2561 335.082 91.7786 335.154 97.3582L335.786 97.3501L336.418 97.342C336.353 92.2734 338.769 88.1271 343.808 84.8784L343.465 84.347ZM335.786 97.3501L335.154 97.3407C335.083 102.098 336.833 106.002 340.396 108.995L340.803 108.51L341.209 108.026C337.946 105.285 336.353 101.749 336.418 97.3596L335.786 97.3501ZM340.803 108.51L340.401 108.998C343.996 111.96 349.846 114.341 357.862 116.191L358.004 115.575L358.146 114.959C350.189 113.123 344.571 110.795 341.205 108.022L340.803 108.51ZM358.004 115.575L357.872 116.193L384.697 121.927L384.829 121.309L384.961 120.69L358.136 114.957L358.004 115.575ZM384.829 121.309L384.696 121.927C399.516 125.122 410.447 130.171 417.564 137.02L418.003 136.564L418.441 136.109C411.088 129.033 399.903 123.912 384.963 120.691L384.829 121.309ZM418.003 136.564L417.567 137.022C424.731 143.852 428.361 152.793 428.428 163.906L429.061 163.902L429.693 163.898C429.624 152.486 425.882 143.202 418.439 136.107L418.003 136.564ZM429.061 163.902L428.428 163.897C428.361 173.665 425.501 182.268 419.854 189.731L420.358 190.113L420.862 190.495C426.681 182.804 429.624 173.934 429.693 163.906L429.061 163.902ZM420.358 190.113L419.853 189.732C414.265 197.138 406.478 202.944 396.462 207.14L396.706 207.724L396.951 208.307C407.139 204.039 415.119 198.105 420.862 190.494L420.358 190.113ZM396.706 207.724L396.462 207.14C386.451 211.334 374.932 213.439 361.895 213.439V214.072V214.704C375.068 214.704 386.757 212.577 396.951 208.307L396.706 207.724ZM361.895 214.072V213.439C342.73 213.439 327.372 209.429 315.768 201.469L315.411 201.99L315.053 202.511C326.93 210.659 342.562 214.704 361.895 214.704V214.072ZM315.411 201.99L315.771 201.47C304.177 193.449 297.273 182.307 295.046 168.002L294.421 168.1L293.797 168.197C296.075 182.834 303.164 194.286 315.051 202.51L315.411 201.99ZM294.421 168.1L294.482 168.729L330.625 165.248L330.564 164.619L330.503 163.989L294.361 167.47L294.421 168.1ZM330.564 164.619L329.948 164.761C331.617 171.993 335.179 177.497 340.652 181.216L341.008 180.693L341.363 180.17C336.188 176.654 332.788 171.442 331.18 164.476L330.564 164.619ZM341.008 180.693L340.652 181.216C346.11 184.925 353.174 186.752 361.792 186.752V186.12V185.488C353.346 185.488 346.553 183.697 341.363 180.17L341.008 180.693ZM361.792 186.12V186.752C370.679 186.752 377.881 184.927 383.342 181.216L382.986 180.693L382.631 180.17C377.444 183.695 370.516 185.488 361.792 185.488V186.12ZM382.986 180.693L383.339 181.218C388.862 177.513 391.707 172.863 391.707 167.281H391.075H390.443C390.443 172.346 387.895 176.639 382.634 180.168L382.986 180.693ZM391.075 167.281H391.707C391.707 162.587 389.883 158.691 386.261 155.637L385.853 156.12L385.446 156.604C388.786 159.42 390.443 162.964 390.443 167.281H391.075ZM385.853 156.12L386.265 155.641C382.737 152.607 377.294 150.324 370.015 148.745L369.881 149.363L369.747 149.981C376.938 151.541 382.144 153.764 385.441 156.6L385.853 156.12ZM369.881 149.363L370.011 148.744L343.185 143.113L343.055 143.732L342.925 144.35L369.751 149.982L369.881 149.363ZM343.055 143.732L343.184 143.113C328.166 139.987 317.142 134.736 310.028 127.421L309.575 127.862L309.121 128.302C316.478 135.867 327.774 141.197 342.926 144.351L343.055 143.732ZM309.575 127.862L310.03 127.423C302.921 120.046 299.389 110.722 299.456 99.4017L298.824 99.3979L298.192 99.3941C298.123 111.008 301.758 120.661 309.119 128.3L309.575 127.862ZM298.824 99.3979L299.456 99.3934C299.389 89.8256 301.98 81.5678 307.214 74.59L306.708 74.2106L306.202 73.8312C300.787 81.0511 298.123 89.5849 298.192 99.4023L298.824 99.3979ZM306.708 74.2106L307.213 74.5908C312.527 67.528 319.903 62.0637 329.369 58.2095L329.131 57.6239L328.892 57.0383C319.246 60.9655 311.674 66.559 306.203 73.8305L306.708 74.2106ZM329.131 57.6239L329.371 58.2086C338.905 54.2868 349.913 52.3177 362.407 52.3177V51.6854V51.0531C349.781 51.0531 338.605 53.043 328.89 57.0391L329.131 57.6239ZM362.407 51.6854V52.3177C380.753 52.3177 395.109 56.2255 405.544 63.9678L405.921 63.46L406.298 62.9522C395.573 54.995 380.919 51.0531 362.407 51.0531V51.6854ZM405.921 63.46L405.546 63.9689C416.062 71.7208 422.564 82.193 425.061 95.4197L425.682 95.3024L426.303 95.1851C423.749 81.6546 417.077 70.8985 406.296 62.951L405.921 63.46ZM512.205 53.7332H512.838V53.1009H512.205V53.7332ZM512.205 82.4016V83.0339H512.838V82.4016H512.205ZM421.797 82.4016H421.165V83.0339H421.797V82.4016ZM421.797 53.7332V53.1009H421.165V53.7332H421.797ZM444.118 16.0547V15.4224H443.485V16.0547H444.118ZM481.182 16.0547H481.814V15.4224H481.182V16.0547ZM483.434 175.164L482.884 175.475L482.888 175.484L482.893 175.492L483.434 175.164ZM489.578 180.489L489.354 181.08L489.354 181.08L489.578 180.489ZM504.321 181.41L504.214 180.787L504.21 180.788L504.321 181.41ZM508.826 180.489L509.445 180.355L509.305 179.707L508.664 179.878L508.826 180.489ZM515.072 209.464L515.278 210.062L515.808 209.879L515.69 209.331L515.072 209.464ZM506.574 211.717L506.437 211.099L506.434 211.1L506.574 211.717ZM493.264 213.15L493.247 212.518L493.245 212.518L493.264 213.15ZM468.179 208.952L467.933 209.535L467.937 209.537L468.179 208.952ZM450.466 194.413L449.937 194.76L449.94 194.764L450.466 194.413ZM444.118 169.84L444.75 169.845V169.84H444.118ZM512.205 53.7332H511.573V82.4016H512.205H512.838V53.7332H512.205ZM512.205 82.4016V81.7693H421.797V82.4016V83.0339H512.205V82.4016ZM421.797 82.4016H422.43V53.7332H421.797H421.165V82.4016H421.797ZM421.797 53.7332V54.3655H512.205V53.7332V53.1009H421.797V53.7332ZM444.118 16.0547V16.6869H481.182V16.0547V15.4224H444.118V16.0547ZM481.182 16.0547H480.55V163.697H481.182H481.814V16.0547H481.182ZM481.182 163.697H480.55C480.55 168.727 481.305 172.676 482.884 175.475L483.434 175.164L483.985 174.854C482.561 172.329 481.814 168.632 481.814 163.697H481.182ZM483.434 175.164L482.893 175.492C484.527 178.191 486.68 180.068 489.354 181.08L489.578 180.489L489.801 179.897C487.424 178.998 485.482 177.326 483.975 174.837L483.434 175.164ZM489.578 180.489L489.354 181.08C491.96 182.066 494.836 182.554 497.973 182.554V181.922V181.29C494.968 181.29 492.246 180.822 489.801 179.897L489.578 180.489ZM497.973 181.922V182.554C500.324 182.554 502.478 182.381 504.433 182.033L504.321 181.41L504.21 180.788C502.342 181.121 500.264 181.29 497.973 181.29V181.922ZM504.321 181.41L504.429 182.033C506.414 181.691 507.938 181.38 508.989 181.1L508.826 180.489L508.664 179.878C507.668 180.143 506.188 180.447 504.214 180.787L504.321 181.41ZM508.826 180.489L508.208 180.622L514.454 209.597L515.072 209.464L515.69 209.331L509.445 180.355L508.826 180.489ZM515.072 209.464L514.866 208.866C512.92 209.537 510.115 210.282 506.437 211.099L506.574 211.717L506.711 212.334C510.405 211.513 513.265 210.756 515.278 210.062L515.072 209.464ZM506.574 211.717L506.434 211.1C502.87 211.907 498.477 212.382 493.247 212.518L493.264 213.15L493.28 213.782C498.562 213.645 503.043 213.165 506.714 212.333L506.574 211.717ZM493.264 213.15L493.245 212.518C484.037 212.789 475.766 211.401 468.42 208.368L468.179 208.952L467.937 209.537C475.472 212.647 483.924 214.057 493.282 213.782L493.264 213.15ZM468.179 208.952L468.425 208.37C461.095 205.277 455.29 200.51 450.992 194.063L450.466 194.413L449.94 194.764C454.379 201.423 460.382 206.348 467.933 209.535L468.179 208.952ZM450.466 194.413L450.994 194.066C446.778 187.642 444.682 179.581 444.75 169.845L444.118 169.84L443.485 169.836C443.417 179.758 445.553 188.079 449.937 194.76L450.466 194.413ZM444.118 169.84H444.75V16.0547H444.118H443.485V169.84H444.118ZM544.233 203.935L543.908 204.477L543.908 204.477L544.233 203.935ZM518.022 175.574L517.458 175.859L517.459 175.862L518.022 175.574ZM518.022 90.2854L517.458 89.9989L517.457 90.0014L518.022 90.2854ZM544.233 61.8218L544.558 62.364L544.558 62.364L544.233 61.8218ZM624.095 61.8218L623.77 62.364L623.77 62.364L624.095 61.8218ZM650.204 90.2854L649.639 90.5695L649.64 90.572L650.204 90.2854ZM650.204 175.574L649.641 175.286L649.64 175.289L650.204 175.574ZM624.095 203.935L623.77 203.393L623.77 203.393L624.095 203.935ZM605.256 177.519L605.656 178.009L605.659 178.006L605.256 177.519ZM617.747 158.885L617.152 158.671L617.15 158.676L617.747 158.885ZM617.747 106.77L617.15 106.978L617.152 106.984L617.747 106.77ZM605.256 88.0329L605.659 87.5462L605.659 87.5462L605.256 88.0329ZM563.072 88.0329L562.672 87.5438L562.669 87.5462L563.072 88.0329ZM550.479 106.77L549.883 106.557L549.882 106.56L550.479 106.77ZM550.479 158.885L549.882 159.094L549.884 159.099L550.479 158.885ZM563.072 177.519L562.669 178.006L562.675 178.011L563.072 177.519ZM584.164 214.072V213.439C568.901 213.439 555.707 210.082 544.558 203.393L544.233 203.935L543.908 204.477C555.284 211.303 568.711 214.704 584.164 214.704V214.072ZM544.233 203.935L544.558 203.393C533.401 196.699 524.745 187.335 518.585 175.286L518.022 175.574L517.459 175.862C523.722 188.113 532.54 197.657 543.908 204.477L544.233 203.935ZM518.022 175.574L518.586 175.289C512.495 163.243 509.439 149.146 509.439 132.981H508.807H508.175C508.175 149.306 511.262 163.605 517.458 175.859L518.022 175.574ZM508.807 132.981H509.439C509.439 116.816 512.495 102.684 518.587 90.5694L518.022 90.2854L517.457 90.0014C511.262 102.323 508.175 116.655 508.175 132.981H508.807ZM518.022 90.2854L518.585 90.572C524.746 78.4548 533.402 69.0576 544.558 62.364L544.233 61.8218L543.908 61.2796C532.539 68.101 523.721 77.6796 517.458 89.9989L518.022 90.2854ZM544.233 61.8218L544.558 62.364C555.707 55.6747 568.901 52.3177 584.164 52.3177V51.6854V51.0531C568.711 51.0531 555.284 54.4537 543.908 61.2796L544.233 61.8218ZM584.164 51.6854V52.3177C599.427 52.3177 612.621 55.6747 623.77 62.364L624.095 61.8218L624.42 61.2796C613.044 54.4537 599.617 51.0531 584.164 51.0531V51.6854ZM624.095 61.8218L623.77 62.364C634.925 69.0573 643.547 78.4536 649.639 90.5694L650.204 90.2854L650.769 90.0014C644.574 77.6808 635.79 68.1014 624.42 61.2796L624.095 61.8218ZM650.204 90.2854L649.64 90.572C655.799 102.686 658.889 116.817 658.889 132.981H659.521H660.153C660.153 116.654 657.032 102.321 650.767 89.9989L650.204 90.2854ZM659.521 132.981H658.889C658.889 149.145 655.799 163.241 649.641 175.286L650.204 175.574L650.767 175.862C657.032 163.607 660.153 149.307 660.153 132.981H659.521ZM650.204 175.574L649.64 175.289C643.548 187.336 634.926 196.699 623.77 203.393L624.095 203.935L624.42 204.477C635.789 197.656 644.573 188.112 650.768 175.859L650.204 175.574ZM624.095 203.935L623.77 203.393C612.621 210.082 599.427 213.439 584.164 213.439V214.072V214.704C599.617 214.704 613.044 211.303 624.42 204.477L624.095 203.935ZM584.369 184.379V185.012C592.819 185.012 599.929 182.688 605.656 178.009L605.256 177.519L604.856 177.03C599.388 181.497 592.574 183.747 584.369 183.747V184.379ZM605.256 177.519L605.659 178.006C611.356 173.282 615.581 166.969 618.344 159.094L617.747 158.885L617.15 158.676C614.453 166.364 610.35 172.474 604.852 177.033L605.256 177.519ZM617.747 158.885L618.342 159.099C621.169 151.239 622.577 142.496 622.577 132.879H621.945H621.313C621.313 142.373 619.922 150.968 617.152 158.671L617.747 158.885ZM621.945 132.879H622.577C622.577 123.193 621.169 114.416 618.342 106.556L617.747 106.77L617.152 106.984C619.922 114.686 621.313 123.315 621.313 132.879H621.945ZM617.747 106.77L618.344 106.562C615.582 98.6193 611.357 92.2714 605.659 87.5462L605.256 88.0329L604.852 88.5196C610.348 93.0775 614.452 99.2208 617.15 106.977L617.747 106.77ZM605.256 88.0329L605.659 87.5462C599.932 82.7971 592.821 80.4383 584.369 80.4383V81.0706V81.7029C592.571 81.7029 599.385 83.9856 604.852 88.5196L605.256 88.0329ZM584.369 81.0706V80.4383C575.716 80.4383 568.468 82.7948 562.672 87.5438L563.072 88.0329L563.473 88.522C569.007 83.9879 575.957 81.7029 584.369 81.7029V81.0706ZM563.072 88.0329L562.669 87.5462C556.972 92.2704 552.714 98.6166 549.883 106.557L550.479 106.77L551.074 106.982C553.84 99.2235 557.978 93.0785 563.476 88.5196L563.072 88.0329ZM550.479 106.77L549.882 106.56C547.124 114.419 545.751 123.194 545.751 132.879H546.383H547.015C547.015 123.314 548.372 114.683 551.075 106.979L550.479 106.77ZM546.383 132.879H545.751C545.751 142.495 547.125 151.236 549.882 159.094L550.479 158.885L551.075 158.676C548.372 150.971 547.015 142.374 547.015 132.879H546.383ZM550.479 158.885L549.884 159.099C552.715 166.972 556.973 173.283 562.669 178.006L563.072 177.519L563.476 177.033C557.977 172.473 553.839 166.361 551.074 158.671L550.479 158.885ZM563.072 177.519L562.675 178.011C568.472 182.691 575.718 185.012 584.369 185.012V184.379V183.747C575.955 183.747 569.004 181.495 563.469 177.027L563.072 177.519ZM665.03 211H664.398V211.632H665.03V211ZM665.03 53.7332V53.1009H664.398V53.7332H665.03ZM700.456 53.7332H701.089V53.1009H700.456V53.7332ZM700.456 80.4562H699.824V81.0885H700.456V80.4562ZM702.299 80.4562V81.0885H702.742L702.894 80.6723L702.299 80.4562ZM718.579 59.3645L718.93 59.8906L718.933 59.8884L718.579 59.3645ZM772.639 59.4669L772.273 59.9824L772.279 59.9862L772.639 59.4669ZM788.202 80.4562L787.603 80.659L787.749 81.0885H788.202V80.4562ZM789.841 80.4562V81.0885H790.269L790.428 80.6903L789.841 80.4562ZM807.451 59.5693L807.787 60.1047L807.789 60.1039L807.451 59.5693ZM886.187 211V211.632H886.819V211H886.187ZM849.02 211H848.388V211.632H849.02V211ZM841.239 89.7735L840.821 90.2478L840.824 90.2509L841.239 89.7735ZM801.206 91.3093L800.736 90.8857L800.736 90.886L801.206 91.3093ZM793.731 211V211.632H794.364V211H793.731ZM757.384 211H756.752V211.632H757.384V211ZM750.012 90.183L749.565 90.6301L749.568 90.6332L750.012 90.183ZM716.429 87.009L716.758 87.549L716.764 87.5452L716.429 87.009ZM705.985 98.374L706.543 98.6724L706.545 98.6691L705.985 98.374ZM702.095 211V211.632H702.727V211H702.095ZM665.03 211H665.663V53.7332H665.03H664.398V211H665.03ZM665.03 53.7332V54.3655H700.456V53.7332V53.1009H665.03V53.7332ZM700.456 53.7332H699.824V80.4562H700.456H701.089V53.7332H700.456ZM700.456 80.4562V81.0885H702.299V80.4562V79.824H700.456V80.4562ZM702.299 80.4562L702.894 80.6723C706.127 71.7818 711.471 64.8628 718.93 59.8906L718.579 59.3645L718.228 58.8384C710.533 63.9683 705.025 71.1106 701.705 80.2402L702.299 80.4562ZM718.579 59.3645L718.933 59.8884C726.39 54.8498 735.307 52.3177 745.712 52.3177V51.6854V51.0531C735.093 51.0531 725.921 53.6404 718.225 58.8406L718.579 59.3645ZM745.712 51.6854V52.3177C756.254 52.3177 765.096 54.8842 772.273 59.9823L772.639 59.4669L773.006 58.9514C765.576 53.6743 756.466 51.0531 745.712 51.0531V51.6854ZM772.639 59.4669L772.279 59.9862C779.534 65.0247 784.641 71.9077 787.603 80.659L788.202 80.4562L788.801 80.2535C785.756 71.2576 780.488 64.1477 773 58.9475L772.639 59.4669ZM788.202 80.4562V81.0885H789.841V80.4562V79.824H788.202V80.4562ZM789.841 80.4562L790.428 80.6903C793.858 72.0826 799.637 65.2238 807.787 60.1047L807.451 59.5693L807.115 59.0338C798.747 64.2899 792.786 71.3558 789.253 80.2222L789.841 80.4562ZM807.451 59.5693L807.789 60.1039C816 54.9214 825.742 52.3177 837.041 52.3177V51.6854V51.0531C825.542 51.0531 815.557 53.7054 807.114 59.0346L807.451 59.5693ZM837.041 51.6854V52.3177C851.366 52.3177 863.007 56.8389 872.02 65.8524L872.467 65.4053L872.914 64.9582C863.634 55.6785 851.658 51.0531 837.041 51.0531V51.6854ZM872.467 65.4053L872.02 65.8524C881.011 74.8432 885.555 88.0028 885.555 105.439H886.187H886.819C886.819 87.79 882.217 74.2607 872.914 64.9582L872.467 65.4053ZM886.187 105.439H885.555V211H886.187H886.819V105.439H886.187ZM886.187 211V210.368H849.02V211V211.632H886.187V211ZM849.02 211H849.653V111.172H849.02H848.388V211H849.02ZM849.02 111.172H849.653C849.653 101.308 847.03 93.965 841.654 89.2961L841.239 89.7735L840.824 90.2509C845.823 94.592 848.388 101.515 848.388 111.172H849.02ZM841.239 89.7735L841.657 89.2992C836.344 84.615 829.843 82.2813 822.195 82.2813V82.9135V83.5458C829.564 83.5458 835.759 85.7854 840.821 90.2478L841.239 89.7735ZM822.195 82.9135V82.2813C813.111 82.2813 805.929 85.1309 800.736 90.8857L801.206 91.3093L801.675 91.7329C806.584 86.2934 813.396 83.5458 822.195 83.5458V82.9135ZM801.206 91.3093L800.736 90.886C795.629 96.5526 793.099 103.915 793.099 112.913H793.731H794.364C794.364 104.164 796.817 97.1238 801.675 91.7326L801.206 91.3093ZM793.731 112.913H793.099V211H793.731H794.364V112.913H793.731ZM793.731 211V210.368H757.384V211V211.632H793.731V211ZM757.384 211H758.016V109.637H757.384H756.752V211H757.384ZM757.384 109.637H758.016C758.016 101.377 755.512 94.7189 750.456 89.7328L750.012 90.183L749.568 90.6332C754.341 95.3398 756.752 101.651 756.752 109.637H757.384ZM750.012 90.183L750.459 89.7359C745.477 84.7535 738.959 82.2813 730.968 82.2813V82.9135V83.5458C738.676 83.5458 744.855 85.9199 749.565 90.6301L750.012 90.183ZM730.968 82.9135V82.2813C725.529 82.2813 720.566 83.6775 716.094 86.4729L716.429 87.009L716.764 87.5452C721.029 84.8799 725.758 83.5458 730.968 83.5458V82.9135ZM716.429 87.009L716.1 86.4691C711.626 89.1956 708.068 93.0724 705.426 98.0789L705.985 98.374L706.545 98.6691C709.09 93.8464 712.495 90.1466 716.758 87.549L716.429 87.009ZM705.985 98.374L705.428 98.0757C702.777 103.029 701.462 108.8 701.462 115.37H702.095H702.727C702.727 108.971 704.006 103.412 706.543 98.6724L705.985 98.374ZM702.095 115.37H701.462V211H702.095H702.727V115.37H702.095ZM702.095 211V210.368H665.03V211V211.632H702.095V211ZM926.61 204.242L926.293 204.789L926.297 204.791L926.61 204.242ZM900.297 176.188L899.733 176.474L899.733 176.475L900.297 176.188ZM900.297 90.695L899.733 90.4097L899.732 90.4109L900.297 90.695ZM926.303 62.0265L926.634 62.5655L926.636 62.564L926.303 62.0265ZM992.957 56.3952L992.741 56.9892L992.746 56.9912L992.957 56.3952ZM1015.89 70.7295L1015.45 71.1812L1015.45 71.1834L1015.89 70.7295ZM1031.66 95.5072L1031.07 95.7323L1031.07 95.7336L1031.66 95.5072ZM1037.39 142.503V143.135H1038.03V142.503H1037.39ZM908.488 142.503H907.856V143.135H908.488V142.503ZM908.488 117.52V116.888H907.856V117.52H908.488ZM1001.87 117.52V118.153H1002.5L1002.5 117.514L1001.87 117.52ZM997.258 98.5788L996.701 98.8778L996.702 98.8806L997.258 98.5788ZM984.664 85.3708L984.338 85.9124L984.341 85.9142L984.664 85.3708ZM946.064 86.0875L946.401 86.6223L946.406 86.6194L946.064 86.0875ZM932.651 100.422L932.095 100.121L932.094 100.124L932.651 100.422ZM927.839 119.773L927.207 119.767V119.773H927.839ZM932.856 165.131L932.293 165.418L932.294 165.42L932.856 165.131ZM946.883 180.079L946.566 180.626L946.571 180.629L946.883 180.079ZM982.616 182.946L982.822 183.544L982.83 183.541L982.616 182.946ZM993.981 176.086L993.549 175.624L993.981 176.086ZM1001.25 164.926L1001.32 164.297L1000.83 164.242L1000.66 164.707L1001.25 164.926ZM1035.86 168.816L1036.47 168.963L1036.64 168.268L1035.93 168.188L1035.86 168.816ZM1023.37 192.775L1022.9 192.352L1022.9 192.352L1023.37 192.775ZM1000.02 208.543L1000.25 209.132L1000.25 209.131L1000.02 208.543ZM967.463 214.072V213.439C951.784 213.439 938.279 210.182 926.924 203.693L926.61 204.242L926.297 204.791C937.877 211.408 951.607 214.704 967.463 214.704V214.072ZM926.61 204.242L926.928 203.696C915.637 197.138 906.95 187.878 900.861 175.902L900.297 176.188L899.733 176.475C905.93 188.662 914.785 198.105 926.293 204.789L926.61 204.242ZM900.297 176.188L900.861 175.903C894.771 163.858 891.714 149.66 891.714 133.288H891.082H890.45C890.45 149.817 893.536 164.219 899.733 176.474L900.297 176.188ZM891.082 133.288H891.714C891.714 117.192 894.77 103.094 900.862 90.979L900.297 90.695L899.732 90.4109C893.537 102.732 890.45 117.03 890.45 133.288H891.082ZM900.297 90.695L900.861 90.9802C907.023 78.7924 915.613 69.3266 926.634 62.5655L926.303 62.0265L925.973 61.4876C914.741 68.3781 905.994 78.0246 899.733 90.4097L900.297 90.695ZM926.303 62.0265L926.636 62.564C937.648 55.7406 950.601 52.3177 965.518 52.3177V51.6854V51.0531C950.401 51.0531 937.21 54.5243 925.97 61.4891L926.303 62.0265ZM965.518 51.6854V52.3177C975.141 52.3177 984.213 53.8761 992.741 56.9892L992.957 56.3952L993.174 55.8013C984.5 52.6346 975.28 51.0531 965.518 51.0531V51.6854ZM992.957 56.3952L992.746 56.9912C1001.33 60.0319 1008.89 64.7605 1015.45 71.1812L1015.89 70.7295L1016.33 70.2777C1009.65 63.7294 1001.92 58.9018 993.169 55.7993L992.957 56.3952ZM1015.89 70.7295L1015.45 71.1834C1022.07 77.5945 1027.27 85.7716 1031.07 95.7323L1031.66 95.5072L1032.25 95.2821C1028.4 85.1749 1023.1 76.8335 1016.33 70.2755L1015.89 70.7295ZM1031.66 95.5072L1031.07 95.7336C1034.86 105.609 1036.76 117.406 1036.76 131.138H1037.39H1038.03C1038.03 117.294 1036.11 105.336 1032.25 95.2807L1031.66 95.5072ZM1037.39 131.138H1036.76V142.503H1037.39H1038.03V131.138H1037.39ZM1037.39 142.503V141.871H908.488V142.503V143.135H1037.39V142.503ZM908.488 142.503H909.12V117.52H908.488H907.856V142.503H908.488ZM908.488 117.52V118.153H1001.87V117.52V116.888H908.488V117.52ZM1001.87 117.52L1002.5 117.514C1002.43 110.326 1000.87 103.908 997.813 98.277L997.258 98.5788L996.702 98.8806C999.65 104.308 1001.17 110.518 1001.23 117.527L1001.87 117.52ZM997.258 98.5788L997.815 98.2798C994.758 92.5828 990.48 88.0951 984.987 84.8274L984.664 85.3708L984.341 85.9142C989.633 89.0629 993.751 93.3805 996.701 98.8777L997.258 98.5788ZM984.664 85.3708L984.99 84.8293C979.554 81.5537 973.227 79.9263 966.03 79.9263V80.5586V81.1909C973.03 81.1909 979.125 82.7717 984.338 85.9124L984.664 85.3708ZM966.03 80.5586V79.9263C958.346 79.9263 951.569 81.797 945.722 85.5557L946.064 86.0875L946.406 86.6194C952.026 83.0062 958.56 81.1909 966.03 81.1909V80.5586ZM946.064 86.0875L945.727 85.5528C939.901 89.2282 935.355 94.0867 932.095 100.121L932.651 100.422L933.208 100.722C936.364 94.8799 940.759 90.1823 946.401 86.6223L946.064 86.0875ZM932.651 100.422L932.094 100.124C928.903 106.089 927.276 112.64 927.207 119.767L927.839 119.773L928.471 119.779C928.539 112.845 930.12 106.495 933.209 100.72L932.651 100.422ZM927.839 119.773H927.207V141.581H927.839H928.471V119.773H927.839ZM927.839 141.581H927.207C927.207 150.804 928.893 158.757 932.293 165.418L932.856 165.131L933.419 164.843C930.13 158.398 928.471 150.652 928.471 141.581H927.839ZM932.856 165.131L932.294 165.42C935.691 172.007 940.449 177.081 946.566 180.626L946.883 180.079L947.2 179.532C941.303 176.115 936.71 171.224 933.418 164.841L932.856 165.131ZM946.883 180.079L946.571 180.629C952.687 184.104 959.829 185.831 967.975 185.831V185.198V184.566C960.012 184.566 953.092 182.88 947.195 179.529L946.883 180.079ZM967.975 185.198V185.831C973.426 185.831 978.377 185.072 982.822 183.544L982.616 182.946L982.411 182.348C978.118 183.823 973.309 184.566 967.975 184.566V185.198ZM982.616 182.946L982.83 183.541C987.275 181.944 991.139 179.613 994.413 176.548L993.981 176.086L993.549 175.624C990.407 178.566 986.695 180.808 982.402 182.351L982.616 182.946ZM993.981 176.086L994.413 176.548C997.699 173.472 1000.17 169.667 1001.84 165.145L1001.25 164.926L1000.66 164.707C999.051 169.058 996.68 172.693 993.549 175.624L993.981 176.086ZM1001.25 164.926L1001.18 165.554L1035.79 169.445L1035.86 168.816L1035.93 168.188L1001.32 164.297L1001.25 164.926ZM1035.86 168.816L1035.24 168.67C1033.08 177.716 1028.97 185.607 1022.9 192.352L1023.37 192.775L1023.84 193.198C1030.05 186.292 1034.26 178.21 1036.47 168.963L1035.86 168.816ZM1023.37 192.775L1022.9 192.352C1016.89 199.029 1009.2 204.232 999.789 207.955L1000.02 208.543L1000.25 209.131C1009.82 205.345 1017.69 200.037 1023.84 193.198L1023.37 192.775ZM1000.02 208.543L999.793 207.953C990.391 211.606 979.618 213.439 967.463 213.439V214.072V214.704C979.744 214.704 990.677 212.851 1000.25 209.132L1000.02 208.543ZM1076.9 267.825L1077.12 267.234L1077.12 267.232L1076.9 267.825ZM1053.86 253.491L1054.31 253.051L1054.31 253.051L1053.86 253.491ZM1041.78 233.525L1041.63 232.911L1040.97 233.069L1041.17 233.712L1041.78 233.525ZM1075.15 225.437L1075.72 225.159L1075.5 224.702L1075.01 224.822L1075.15 225.437ZM1081.71 234.549L1082.17 234.118L1082.17 234.112L1081.71 234.549ZM1093.28 242.126L1093.52 241.542L1093.52 241.54L1093.28 242.126ZM1137.92 237.518L1137.54 237.008L1137.54 237.011L1137.92 237.518ZM1148.26 182.741H1148.89V182.109H1148.26V182.741ZM1146.42 182.741V182.109H1146.03L1145.85 182.458L1146.42 182.741ZM1138.02 194.516L1137.55 194.089L1137.55 194.093L1138.02 194.516ZM1123.58 204.652L1123.32 204.076L1123.32 204.078L1123.58 204.652ZM1068.29 200.249L1067.97 200.795L1067.98 200.797L1068.29 200.249ZM1044.95 174.653L1044.39 174.937L1044.39 174.941L1044.95 174.653ZM1044.95 88.1353L1044.38 87.859L1044.38 87.8604L1044.95 88.1353ZM1068.4 61.0027L1068.73 61.5388L1068.74 61.5372L1068.4 61.0027ZM1123.99 56.3952L1123.7 56.9543L1123.71 56.9582L1123.99 56.3952ZM1138.33 67.5555L1137.84 67.9542L1137.84 67.9579L1138.33 67.5555ZM1146.42 79.7395L1145.85 80.0141L1146.02 80.3718H1146.42V79.7395ZM1148.46 79.7395V80.3718H1149.1V79.7395H1148.46ZM1148.46 53.7332V53.1009H1147.83V53.7332H1148.46ZM1185.02 53.7332H1185.65V53.1009H1185.02V53.7332ZM1175.39 246.938L1175.9 247.31L1175.9 247.31L1175.39 246.938ZM1149.08 266.699L1149.31 267.287L1149.31 267.287L1149.08 266.699ZM1131.57 173.936L1131.21 173.416L1131.21 173.416L1131.57 173.936ZM1144.16 105.644L1143.57 105.866L1143.57 105.871L1144.16 105.644ZM1131.67 88.3401L1131.29 88.8429L1131.3 88.8481L1131.67 88.3401ZM1090.82 88.5448L1090.43 88.0457L1090.43 88.0457L1090.82 88.5448ZM1078.33 106.258L1078.92 106.48L1078.92 106.479L1078.33 106.258ZM1078.33 156.94L1077.74 157.168L1077.74 157.174L1078.33 156.94ZM1090.92 173.731L1090.55 174.242L1090.56 174.247L1090.92 173.731ZM1111.2 273.251V272.619C1097.94 272.619 1086.59 270.817 1077.12 267.234L1076.9 267.825L1076.67 268.416C1086.32 272.068 1097.83 273.884 1111.2 273.884V273.251ZM1076.9 267.825L1077.12 267.232C1067.63 263.709 1060.04 258.977 1054.31 253.051L1053.86 253.491L1053.4 253.93C1059.28 260.018 1067.05 264.842 1076.68 268.418L1076.9 267.825ZM1053.86 253.491L1054.31 253.051C1048.57 247.109 1044.6 240.539 1042.38 233.339L1041.78 233.525L1041.17 233.712C1043.46 241.119 1047.54 247.859 1053.4 253.93L1053.86 253.491ZM1041.78 233.525L1041.93 234.14L1075.3 226.051L1075.15 225.437L1075.01 224.822L1041.63 232.911L1041.78 233.525ZM1075.15 225.437L1074.59 225.714C1076.12 228.855 1078.35 231.945 1081.25 234.986L1081.71 234.549L1082.17 234.112C1079.33 231.146 1077.19 228.161 1075.72 225.159L1075.15 225.437ZM1081.71 234.549L1081.25 234.98C1084.19 238.133 1088.13 240.705 1093.04 242.711L1093.28 242.126L1093.52 241.54C1088.73 239.587 1084.96 237.108 1082.17 234.118L1081.71 234.549ZM1093.28 242.126L1093.03 242.709C1098.05 244.799 1104.32 245.83 1111.81 245.83V245.197V244.565C1104.42 244.565 1098.33 243.548 1093.52 241.542L1093.28 242.126ZM1111.81 245.197V245.83C1122.43 245.83 1131.27 243.243 1138.3 238.026L1137.92 237.518L1137.54 237.011C1130.78 242.032 1122.22 244.565 1111.81 244.565V245.197ZM1137.92 237.518L1138.29 238.028C1145.4 232.819 1148.89 224.263 1148.89 212.536H1148.26H1147.63C1147.63 224.016 1144.22 232.116 1137.54 237.008L1137.92 237.518ZM1148.26 212.536H1148.89V182.741H1148.26H1147.63V212.536H1148.26ZM1148.26 182.741V182.109H1146.42V182.741V183.373H1148.26V182.741ZM1146.42 182.741L1145.85 182.458C1143.97 186.216 1141.21 190.093 1137.55 194.089L1138.02 194.516L1138.49 194.943C1142.2 190.883 1145.04 186.911 1146.98 183.024L1146.42 182.741ZM1138.02 194.516L1137.55 194.093C1134 198.043 1129.27 201.374 1123.32 204.076L1123.58 204.652L1123.85 205.228C1129.91 202.469 1134.8 199.043 1138.49 194.938L1138.02 194.516ZM1123.58 204.652L1123.32 204.078C1117.49 206.758 1110.11 208.115 1101.16 208.115V208.747V209.38C1110.23 209.38 1117.8 208.006 1123.85 205.226L1123.58 204.652ZM1101.16 208.747V208.115C1089.18 208.115 1078.34 205.308 1068.61 199.702L1068.29 200.249L1067.98 200.797C1077.91 206.522 1088.98 209.38 1101.16 209.38V208.747ZM1068.29 200.249L1068.62 199.704C1058.97 194.039 1051.27 185.602 1045.51 174.364L1044.95 174.653L1044.39 174.941C1050.24 186.365 1058.1 194.993 1067.97 200.795L1068.29 200.249ZM1044.95 174.653L1045.52 174.368C1039.84 163.082 1036.98 148.921 1036.98 131.855H1036.35H1035.72C1035.72 149.054 1038.6 163.424 1044.39 174.937L1044.95 174.653ZM1036.35 131.855H1036.98C1036.98 114.652 1039.84 100.179 1045.52 88.4102L1044.95 88.1353L1044.38 87.8604C1038.6 99.8453 1035.72 114.518 1035.72 131.855H1036.35ZM1044.95 88.1353L1045.52 88.4115C1051.28 76.5573 1059.02 67.6103 1068.73 61.5388L1068.4 61.0027L1068.06 60.4665C1058.12 66.6815 1050.23 75.8229 1044.38 87.859L1044.95 88.1353ZM1068.4 61.0027L1068.74 61.5372C1078.46 55.3921 1089.3 52.3177 1101.26 52.3177V51.6854V51.0531C1089.07 51.0531 1077.99 54.1902 1068.06 60.4682L1068.4 61.0027ZM1101.26 51.6854V52.3177C1110.41 52.3177 1117.88 53.877 1123.7 56.9542L1123.99 56.3952L1124.29 55.8363C1118.23 52.6337 1110.55 51.0531 1101.26 51.0531V51.6854ZM1123.99 56.3952L1123.71 56.9582C1129.65 59.9976 1134.35 63.6661 1137.84 67.9542L1138.33 67.5555L1138.82 67.1567C1135.2 62.7078 1130.35 58.9361 1124.28 55.8323L1123.99 56.3952ZM1138.33 67.5555L1137.84 67.9579C1141.37 72.2305 1144.03 76.2491 1145.85 80.0141L1146.42 79.7395L1146.99 79.4649C1145.12 75.585 1142.39 71.4809 1138.82 67.153L1138.33 67.5555ZM1146.42 79.7395V80.3718H1148.46V79.7395V79.1073H1146.42V79.7395ZM1148.46 79.7395H1149.1V53.7332H1148.46H1147.83V79.7395H1148.46ZM1148.46 53.7332V54.3655H1185.02V53.7332V53.1009H1148.46V53.7332ZM1185.02 53.7332H1184.38V213.56H1185.02H1185.65V53.7332H1185.02ZM1185.02 213.56H1184.38C1184.38 226.905 1181.2 237.892 1174.88 246.566L1175.39 246.938L1175.9 247.31C1182.41 238.374 1185.65 227.109 1185.65 213.56H1185.02ZM1175.39 246.938L1174.88 246.566C1168.54 255.264 1159.87 261.781 1148.85 266.11L1149.08 266.699L1149.31 267.287C1160.54 262.879 1169.41 256.222 1175.9 247.31L1175.39 246.938ZM1149.08 266.699L1148.85 266.11C1137.81 270.445 1125.26 272.619 1111.2 272.619V273.251V273.884C1125.39 273.884 1138.1 271.689 1149.31 267.287L1149.08 266.699ZM1111.5 179.669V180.302C1119.46 180.302 1126.28 178.363 1131.93 174.456L1131.57 173.936L1131.21 173.416C1125.8 177.153 1119.25 179.037 1111.5 179.037V179.669ZM1131.57 173.936L1131.93 174.456C1137.58 170.553 1141.84 164.951 1144.75 157.686L1144.16 157.451L1143.58 157.217C1140.75 164.286 1136.62 169.674 1131.21 173.416L1131.57 173.936ZM1144.16 157.451L1144.75 157.686C1147.66 150.426 1149.1 141.741 1149.1 131.65H1148.46H1147.83C1147.83 141.626 1146.41 150.143 1143.58 157.217L1144.16 157.451ZM1148.46 131.65H1149.1C1149.1 121.693 1147.65 112.944 1144.75 105.416L1144.16 105.644L1143.57 105.871C1146.41 113.223 1147.83 121.812 1147.83 131.65H1148.46ZM1144.16 105.644L1144.76 105.421C1141.92 97.885 1137.69 92.0106 1132.05 87.832L1131.67 88.3401L1131.3 88.8481C1136.71 92.8605 1140.81 98.5218 1143.57 105.866L1144.16 105.644ZM1131.67 88.3401L1132.06 87.8373C1126.47 83.5763 1119.6 81.4622 1111.5 81.4622V82.0944V82.7267C1119.37 82.7267 1125.96 84.7763 1131.29 88.8429L1131.67 88.3401ZM1111.5 82.0944V81.4622C1103.13 81.4622 1096.09 83.6444 1090.43 88.0457L1090.82 88.5448L1091.21 89.0439C1096.61 84.8448 1103.36 82.7267 1111.5 82.7267V82.0944ZM1090.82 88.5448L1090.43 88.0457C1084.8 92.4279 1080.57 98.4349 1077.74 106.037L1078.33 106.258L1078.92 106.479C1081.68 99.064 1085.78 93.2623 1091.21 89.0439L1090.82 88.5448ZM1078.33 106.258L1077.74 106.035C1074.91 113.559 1073.5 122.1 1073.5 131.65H1074.13H1074.76C1074.76 122.224 1076.15 113.837 1078.92 106.48L1078.33 106.258ZM1074.13 131.65H1073.5C1073.5 141.334 1074.91 149.844 1077.74 157.168L1078.33 156.94L1078.92 156.711C1076.15 149.564 1074.76 141.214 1074.76 131.65H1074.13ZM1078.33 156.94L1077.74 157.174C1080.65 164.437 1084.91 170.136 1090.55 174.242L1090.92 173.731L1091.29 173.22C1085.87 169.271 1081.74 163.776 1078.92 156.705L1078.33 156.94ZM1090.92 173.731L1090.56 174.247C1096.28 178.295 1103.27 180.302 1111.5 180.302V179.669V179.037C1103.49 179.037 1096.76 177.085 1091.29 173.215L1090.92 173.731ZM1215.38 208.85L1215.12 209.425L1215.12 209.428L1215.38 208.85ZM1196.54 192.877L1196.01 193.222L1196.01 193.226L1196.54 192.877ZM1194.6 144.858L1194.05 144.547L1194.05 144.547L1194.6 144.858ZM1208.01 130.933L1207.68 130.394L1207.68 130.394L1208.01 130.933ZM1227.15 123.049L1227.31 123.663L1227.31 123.662L1227.15 123.049ZM1249.37 119.056L1249.31 118.427L1249.31 118.428L1249.37 119.056ZM1271.8 116.497L1271.88 117.124L1271.89 117.122L1271.8 116.497ZM1284.29 112.811L1284.62 113.345L1284.63 113.343L1284.29 112.811ZM1281.42 86.3947L1281.85 85.9306L1281.85 85.9306L1281.42 86.3947ZM1240.06 85.9852L1239.68 85.4778L1239.68 85.4801L1240.06 85.9852ZM1229.41 100.012L1229.32 100.638L1229.84 100.712L1230.01 100.217L1229.41 100.012ZM1194.8 95.0976L1194.19 94.9239L1193.99 95.6216L1194.71 95.7236L1194.8 95.0976ZM1208.32 71.139L1208.77 71.5813L1208.77 71.5789L1208.32 71.139ZM1231.35 56.6L1231.56 57.1962L1231.57 57.1948L1231.35 56.6ZM1304.66 63.1528L1304.31 63.6807L1304.32 63.6833L1304.66 63.1528ZM1319.61 79.6371L1319.05 79.9372L1319.06 79.9414L1319.61 79.6371ZM1325.34 211V211.632H1325.98V211H1325.34ZM1289.71 211H1289.08V211.632H1289.71V211ZM1289.71 189.396H1290.35V188.764H1289.71V189.396ZM1288.48 189.396V188.764H1288.1L1287.92 189.107L1288.48 189.396ZM1278.96 201.683L1279.39 202.145L1279.39 202.145L1278.96 201.683ZM1263.71 210.795L1263.93 211.388L1263.93 211.387L1263.71 210.795ZM1271.28 182.536L1271.58 183.093L1271.59 183.09L1271.28 182.536ZM1283.88 170.659L1283.34 170.33L1283.33 170.335L1283.88 170.659ZM1288.38 136.053H1289.01V134.713L1287.98 135.564L1288.38 136.053ZM1282.44 138.715L1282.27 138.108L1282.26 138.109L1282.44 138.715ZM1273.23 140.865L1273.34 141.487L1273.34 141.487L1273.23 140.865ZM1254.39 143.732L1254.48 144.358L1254.48 144.358L1254.39 143.732ZM1239.54 147.418L1239.31 146.829L1239.31 146.829L1239.54 147.418ZM1229.2 154.585L1229.69 154.992L1229.69 154.986L1229.2 154.585ZM1232.89 181.717L1232.53 182.236L1232.53 182.236L1232.89 181.717ZM1242.31 214.174V213.542C1232.42 213.542 1223.53 211.781 1215.64 208.272L1215.38 208.85L1215.12 209.428C1223.2 213.018 1232.27 214.806 1242.31 214.806V214.174ZM1215.38 208.85L1215.64 208.275C1207.83 204.705 1201.64 199.457 1197.07 192.529L1196.54 192.877L1196.01 193.226C1200.72 200.359 1207.1 205.76 1215.12 209.425L1215.38 208.85ZM1196.54 192.877L1197.07 192.533C1192.58 185.626 1190.31 177.084 1190.31 166.871H1189.68H1189.05C1189.05 177.272 1191.36 186.068 1196.01 193.222L1196.54 192.877ZM1189.68 166.871H1190.31C1190.31 158.072 1191.94 150.849 1195.15 145.169L1194.6 144.858L1194.05 144.547C1190.7 150.47 1189.05 157.923 1189.05 166.871H1189.68ZM1194.6 144.858L1195.15 145.169C1198.37 139.46 1202.77 134.897 1208.34 131.472L1208.01 130.933L1207.68 130.394C1201.92 133.932 1197.37 138.652 1194.05 144.547L1194.6 144.858ZM1208.01 130.933L1208.34 131.472C1213.94 128.028 1220.27 125.423 1227.31 123.663L1227.15 123.049L1227 122.436C1219.85 124.225 1213.4 126.876 1207.68 130.394L1208.01 130.933ZM1227.15 123.049L1227.31 123.662C1234.45 121.827 1241.82 120.501 1249.44 119.685L1249.37 119.056L1249.31 118.428C1241.63 119.25 1234.2 120.586 1227 122.437L1227.15 123.049ZM1249.37 119.056L1249.44 119.685C1258.66 118.729 1266.14 117.875 1271.88 117.123L1271.8 116.497L1271.71 115.87C1265.99 116.619 1258.52 117.472 1249.31 118.427L1249.37 119.056ZM1271.8 116.497L1271.89 117.122C1277.64 116.3 1281.91 115.057 1284.62 113.345L1284.29 112.811L1283.95 112.276C1281.47 113.841 1277.42 115.055 1271.71 115.871L1271.8 116.497ZM1284.29 112.811L1284.63 113.343C1287.5 111.504 1288.91 108.66 1288.91 104.927H1288.28H1287.65C1287.65 108.292 1286.4 110.704 1283.95 112.278L1284.29 112.811ZM1288.28 104.927H1288.91V104.312H1288.28H1287.65V104.927H1288.28ZM1288.28 104.312H1288.91C1288.91 96.4681 1286.58 90.3098 1281.85 85.9306L1281.42 86.3947L1280.99 86.8588C1285.41 90.9437 1287.65 96.7305 1287.65 104.312H1288.28ZM1281.42 86.3947L1281.85 85.9306C1277.12 81.5551 1270.36 79.4144 1261.66 79.4144V80.0467V80.679C1270.16 80.679 1276.57 82.7703 1280.99 86.8588L1281.42 86.3947ZM1261.66 80.0467V79.4144C1252.49 79.4144 1245.15 81.4126 1239.68 85.4778L1240.06 85.9852L1240.43 86.4925C1245.61 82.6398 1252.67 80.679 1261.66 80.679V80.0467ZM1240.06 85.9852L1239.68 85.4801C1234.33 89.5031 1230.7 94.2779 1228.81 99.8077L1229.41 100.012L1230.01 100.217C1231.8 94.9618 1235.27 90.3852 1240.44 86.4902L1240.06 85.9852ZM1229.41 100.012L1229.5 99.3862L1194.89 94.4716L1194.8 95.0976L1194.71 95.7236L1229.32 100.638L1229.41 100.012ZM1194.8 95.0976L1195.41 95.2713C1198.11 85.8053 1202.57 77.9146 1208.77 71.5813L1208.32 71.139L1207.86 70.6967C1201.5 77.196 1196.95 85.2777 1194.19 94.9239L1194.8 95.0976ZM1208.32 71.139L1208.77 71.5789C1214.98 65.1692 1222.57 60.374 1231.56 57.1962L1231.35 56.6L1231.14 56.0039C1221.98 59.2423 1214.21 64.1397 1207.86 70.6991L1208.32 71.139ZM1231.35 56.6L1231.57 57.1948C1240.57 53.9464 1250.53 52.3177 1261.45 52.3177V51.6854V51.0531C1250.4 51.0531 1240.29 52.7009 1231.14 56.0053L1231.35 56.6ZM1261.45 51.6854V52.3177C1268.98 52.3177 1276.48 53.1992 1283.94 54.9628L1284.08 54.3475L1284.23 53.7322C1276.67 51.9464 1269.08 51.0531 1261.45 51.0531V51.6854ZM1284.08 54.3475L1283.94 54.9628C1291.38 56.7211 1298.17 59.6275 1304.31 63.6807L1304.66 63.1528L1305.01 62.6249C1298.73 58.4871 1291.81 55.5233 1284.23 53.7322L1284.08 54.3475ZM1304.66 63.1528L1304.32 63.6833C1310.43 67.6489 1315.35 73.0617 1319.05 79.9372L1319.61 79.6371L1320.17 79.3371C1316.37 72.2879 1311.31 66.7112 1305.01 62.6223L1304.66 63.1528ZM1319.61 79.6371L1319.06 79.9414C1322.81 86.7857 1324.71 95.3764 1324.71 105.746H1325.34H1325.98C1325.98 95.2284 1324.05 86.4132 1320.16 79.3329L1319.61 79.6371ZM1325.34 105.746H1324.71V211H1325.34H1325.98V105.746H1325.34ZM1325.34 211V210.368H1289.71V211V211.632H1325.34V211ZM1289.71 211H1290.35V189.396H1289.71H1289.08V211H1289.71ZM1289.71 189.396V188.764H1288.48V189.396V190.029H1289.71V189.396ZM1288.48 189.396L1287.92 189.107C1285.71 193.402 1282.58 197.441 1278.53 201.221L1278.96 201.683L1279.39 202.145C1283.54 198.28 1286.76 194.127 1289.05 189.686L1288.48 189.396ZM1278.96 201.683L1278.53 201.22C1274.58 204.909 1269.56 207.907 1263.48 210.204L1263.71 210.795L1263.93 211.387C1270.14 209.042 1275.3 205.965 1279.39 202.145L1278.96 201.683ZM1263.71 210.795L1263.49 210.202C1257.5 212.423 1250.44 213.542 1242.31 213.542V214.174V214.806C1250.56 214.806 1257.77 213.673 1263.93 211.388L1263.71 210.795ZM1251.93 186.939V187.571C1259.46 187.571 1266.01 186.087 1271.58 183.093L1271.28 182.536L1270.98 181.979C1265.63 184.856 1259.29 186.307 1251.93 186.307V186.939ZM1271.28 182.536L1271.59 183.09C1277.14 180.038 1281.42 176.003 1284.42 170.984L1283.88 170.659L1283.33 170.335C1280.46 175.145 1276.35 179.028 1270.98 181.982L1271.28 182.536ZM1283.88 170.659L1284.42 170.989C1287.48 165.974 1289.01 160.502 1289.01 154.585H1288.38H1287.75C1287.75 160.271 1286.28 165.515 1283.34 170.33L1283.88 170.659ZM1288.38 154.585H1289.01V136.053H1288.38H1287.75V154.585H1288.38ZM1288.38 136.053L1287.98 135.564C1286.92 136.436 1285.05 137.294 1282.27 138.108L1282.44 138.715L1282.62 139.321C1285.44 138.497 1287.52 137.581 1288.78 136.541L1288.38 136.053ZM1282.44 138.715L1282.26 138.109C1279.56 138.92 1276.51 139.631 1273.12 140.242L1273.23 140.865L1273.34 141.487C1276.77 140.869 1279.87 140.147 1282.63 139.32L1282.44 138.715ZM1273.23 140.865L1273.12 140.242C1269.71 140.855 1266.34 141.4 1263 141.877L1263.09 142.503L1263.18 143.129C1266.53 142.65 1269.92 142.103 1273.34 141.487L1273.23 140.865ZM1263.09 142.503L1263 141.877C1259.66 142.355 1256.76 142.764 1254.3 143.105L1254.39 143.732L1254.48 144.358C1256.94 144.016 1259.84 143.607 1263.18 143.129L1263.09 142.503ZM1254.39 143.732L1254.3 143.105C1248.74 143.861 1243.74 145.101 1239.31 146.829L1239.54 147.418L1239.77 148.006C1244.09 146.321 1248.99 145.103 1254.48 144.358L1254.39 143.732ZM1239.54 147.418L1239.31 146.829C1234.86 148.567 1231.32 151.014 1228.71 154.183L1229.2 154.585L1229.69 154.986C1232.14 152.012 1235.49 149.681 1239.77 148.006L1239.54 147.418ZM1229.2 154.585L1228.72 154.178C1226.08 157.318 1224.78 161.363 1224.78 166.257H1225.41H1226.05C1226.05 161.594 1227.28 157.858 1229.69 154.992L1229.2 154.585ZM1225.41 166.257H1224.78C1224.78 173.26 1227.35 178.62 1232.53 182.236L1232.89 181.717L1233.25 181.199C1228.46 177.852 1226.05 172.906 1226.05 166.257H1225.41ZM1232.89 181.717L1232.53 182.236C1237.64 185.809 1244.12 187.571 1251.93 187.571V186.939V186.307C1244.31 186.307 1238.1 184.588 1233.25 181.199L1232.89 181.717Z" fill="#343434" mask="url(#path-1-outside-1_475_605)"/>
<defs>
<linearGradient id="paint0_linear_475_605" x1="520.906" y1="66.8209" x2="520.322" y2="211.002" gradientUnits="userSpaceOnUse">
<stop stop-color="#1D1D1D"/>
<stop offset="1" stop-color="#161616"/>
</linearGradient>
</defs>
</svg>
