<svg width="1440" height="258" viewBox="0 0 1440 258" fill="none" xmlns="http://www.w3.org/2000/svg">
<mask id="path-1-outside-1_527_3500" maskUnits="userSpaceOnUse" x="-7" y="0" width="1457" height="277" fill="black">
<rect fill="white" x="-7" width="1457" height="277"/>
<path d="M-6.31777 214V4.3109H31.6679V93.0806H128.833V4.3109H166.921V214H128.833V124.923H31.6679V214H-6.31777ZM249.247 217.072C233.889 217.072 220.579 213.693 209.316 206.935C198.053 200.178 189.316 190.724 183.105 178.574C176.962 166.424 173.89 152.226 173.89 135.981C173.89 119.735 176.962 105.504 183.105 93.2854C189.316 81.0672 198.053 71.5793 209.316 64.8218C220.579 58.0642 233.889 54.6854 249.247 54.6854C264.605 54.6854 277.915 58.0642 289.178 64.8218C300.441 71.5793 309.144 81.0672 315.287 93.2854C321.498 105.504 324.604 119.735 324.604 135.981C324.604 152.226 321.498 166.424 315.287 178.574C309.144 190.724 300.441 200.178 289.178 206.935C277.915 213.693 264.605 217.072 249.247 217.072ZM249.452 187.379C257.779 187.379 264.742 185.093 270.339 180.519C275.936 175.878 280.1 169.666 282.83 161.885C285.629 154.103 287.028 145.435 287.028 135.879C287.028 126.254 285.629 117.551 282.83 109.77C280.1 101.92 275.936 95.6745 270.339 91.0329C264.742 86.3913 257.779 84.0706 249.452 84.0706C240.919 84.0706 233.821 86.3913 228.155 91.0329C222.558 95.6745 218.36 101.92 215.562 109.77C212.831 117.551 211.466 126.254 211.466 135.879C211.466 145.435 212.831 154.103 215.562 161.885C218.36 169.666 222.558 175.878 228.155 180.519C233.821 185.093 240.919 187.379 249.452 187.379ZM454.412 98.3024L420.624 101.988C419.668 98.5754 417.996 95.3673 415.607 92.3639C413.286 89.3606 410.146 86.9374 406.187 85.0944C402.228 83.2515 397.382 82.33 391.648 82.33C383.935 82.33 377.45 84.0023 372.195 87.347C367.007 90.6916 364.447 95.026 364.516 100.35C364.447 104.923 366.12 108.644 369.533 111.51C373.014 114.377 378.747 116.732 386.734 118.575L413.559 124.309C428.439 127.517 439.497 132.602 446.733 139.564C454.036 146.527 457.722 155.639 457.79 166.902C457.722 176.799 454.821 185.536 449.087 193.113C443.422 200.621 435.538 206.492 425.436 210.724C415.334 214.956 403.73 217.072 390.624 217.072C371.375 217.072 355.881 213.044 344.14 204.99C332.4 196.867 325.404 185.57 323.151 171.1L359.294 167.619C360.932 174.717 364.413 180.076 369.737 183.693C375.061 187.311 381.99 189.12 390.522 189.12C399.327 189.12 406.392 187.311 411.716 183.693C417.108 180.076 419.805 175.605 419.805 170.281C419.805 165.776 418.064 162.056 414.583 159.12C411.17 156.185 405.846 153.933 398.61 152.363L371.785 146.732C356.7 143.592 345.54 138.302 338.304 130.862C331.069 123.353 327.485 113.865 327.554 102.398C327.485 92.7052 330.113 84.3095 335.438 77.2106C340.83 70.0435 348.304 64.5146 357.86 60.6239C367.485 56.6649 378.577 54.6854 391.136 54.6854C409.566 54.6854 424.071 58.6103 434.651 66.46C445.299 74.3097 451.886 84.9238 454.412 98.3024ZM540.935 56.7332V85.4016H450.527V56.7332H540.935ZM472.847 19.0547H509.912V166.697C509.912 171.68 510.662 175.502 512.164 178.164C513.734 180.758 515.782 182.533 518.307 183.489C520.833 184.444 523.631 184.922 526.703 184.922C529.024 184.922 531.14 184.751 533.051 184.41C535.031 184.069 536.532 183.762 537.556 183.489L543.802 212.464C541.822 213.147 538.99 213.898 535.304 214.717C531.686 215.536 527.249 216.014 521.993 216.15C512.71 216.423 504.349 215.024 496.908 211.952C489.468 208.812 483.564 203.966 479.195 197.413C474.895 190.86 472.779 182.669 472.847 172.84V19.0547ZM780.559 109.155C780.559 131.749 776.327 151.1 767.863 167.209C759.467 183.25 748 195.536 733.461 204.068C718.99 212.601 702.574 216.867 684.213 216.867C665.851 216.867 649.401 212.601 634.862 204.068C620.391 195.468 608.924 183.147 600.46 167.107C592.064 150.998 587.866 131.681 587.866 109.155C587.866 86.562 592.064 67.2449 600.46 51.2043C608.924 35.0953 620.391 22.7747 634.862 14.2425C649.401 5.71019 665.851 1.44405 684.213 1.44405C702.574 1.44405 718.99 5.71019 733.461 14.2425C748 22.7747 759.467 35.0953 767.863 51.2043C776.327 67.2449 780.559 86.562 780.559 109.155ZM742.369 109.155C742.369 93.2513 739.877 79.8386 734.894 68.9172C729.98 57.9277 723.154 49.6343 714.417 44.0372C705.68 38.3717 695.612 35.539 684.213 35.539C672.813 35.539 662.745 38.3717 654.008 44.0372C645.271 49.6343 638.411 57.9277 633.428 68.9172C628.514 79.8386 626.057 93.2513 626.057 109.155C626.057 125.06 628.514 138.506 633.428 149.496C638.411 160.417 645.271 168.711 654.008 174.376C662.745 179.973 672.813 182.772 684.213 182.772C695.612 182.772 705.68 179.973 714.417 174.376C723.154 168.711 729.98 160.417 734.894 149.496C739.877 138.506 742.369 125.06 742.369 109.155ZM788.884 214V56.7332H824.31V83.4562H826.153C829.429 74.4462 834.856 67.4156 842.433 62.3645C850.009 57.2451 859.054 54.6854 869.565 54.6854C880.214 54.6854 889.189 57.2792 896.493 62.4669C903.865 67.5862 909.053 74.5827 912.056 83.4562H913.694C917.175 74.7192 923.046 67.7569 931.305 62.5693C939.632 57.3134 949.496 54.6854 960.895 54.6854C975.365 54.6854 987.174 59.2587 996.321 68.4053C1005.47 77.5519 1010.04 90.8964 1010.04 108.439V214H972.874V114.172C972.874 104.412 970.28 97.2785 965.093 92.7735C959.905 88.2002 953.557 85.9135 946.049 85.9135C937.107 85.9135 930.11 88.7121 925.059 94.3093C920.076 99.8382 917.585 107.039 917.585 115.913V214H881.237V112.637C881.237 104.514 878.78 98.0294 873.866 93.183C869.019 88.3367 862.671 85.9135 854.822 85.9135C849.497 85.9135 844.651 87.2787 840.283 90.009C835.914 92.6711 832.433 96.4594 829.839 101.374C827.245 106.22 825.948 111.886 825.948 118.37V214H788.884ZM1091.32 217.072C1075.55 217.072 1061.93 213.795 1050.46 207.242C1039.06 200.621 1030.29 191.27 1024.15 179.188C1018.01 167.038 1014.94 152.738 1014.94 136.288C1014.94 120.111 1018.01 105.913 1024.15 93.695C1030.36 81.4085 1039.03 71.8524 1050.16 65.0265C1061.28 58.1325 1074.35 54.6854 1089.37 54.6854C1099.06 54.6854 1108.21 56.2554 1116.81 59.3952C1125.48 62.4669 1133.12 67.2449 1139.75 73.7295C1146.44 80.214 1151.69 88.4732 1155.51 98.5072C1159.34 108.473 1161.25 120.35 1161.25 134.138V145.503H1032.34V120.52H1125.72C1125.65 113.422 1124.11 107.108 1121.11 101.579C1118.11 95.9816 1113.91 91.579 1108.52 88.3708C1103.19 85.1627 1096.98 83.5586 1089.88 83.5586C1082.31 83.5586 1075.65 85.4016 1069.92 89.0875C1064.18 92.7052 1059.71 97.4833 1056.5 103.422C1053.36 109.292 1051.76 115.742 1051.69 122.773V144.581C1051.69 153.728 1053.36 161.578 1056.71 168.131C1060.05 174.615 1064.73 179.598 1070.74 183.079C1076.74 186.492 1083.77 188.198 1091.83 188.198C1097.22 188.198 1102.1 187.448 1106.47 185.946C1110.84 184.376 1114.63 182.089 1117.83 179.086C1121.04 176.083 1123.47 172.363 1125.1 167.926L1159.71 171.816C1157.53 180.963 1153.36 188.949 1147.22 195.775C1141.15 202.533 1133.36 207.789 1123.88 211.543C1114.39 215.229 1103.53 217.072 1091.32 217.072ZM1235.05 276.251C1221.74 276.251 1210.31 274.443 1200.75 270.825C1191.19 267.276 1183.51 262.497 1177.71 256.491C1171.91 250.484 1167.88 243.829 1165.63 236.525L1199.01 228.437C1200.51 231.508 1202.69 234.546 1205.56 237.549C1208.43 240.621 1212.28 243.146 1217.13 245.126C1222.05 247.173 1228.22 248.197 1235.66 248.197C1246.17 248.197 1254.88 245.638 1261.77 240.518C1268.67 235.467 1272.11 227.14 1272.11 215.536V185.741H1270.27C1268.36 189.564 1265.56 193.488 1261.87 197.516C1258.26 201.543 1253.44 204.922 1247.44 207.652C1241.5 210.382 1234.02 211.747 1225.01 211.747C1212.93 211.747 1201.98 208.915 1192.15 203.249C1182.39 197.516 1174.61 188.983 1168.8 177.653C1163.07 166.253 1160.2 151.987 1160.2 134.855C1160.2 117.585 1163.07 103.012 1168.8 91.1353C1174.61 79.1901 1182.42 70.1459 1192.25 64.0027C1202.08 57.7912 1213.04 54.6854 1225.12 54.6854C1234.33 54.6854 1241.91 56.2554 1247.85 59.3952C1253.85 62.4669 1258.63 66.1869 1262.18 70.5555C1265.73 74.8557 1268.43 78.9171 1270.27 82.7395H1272.32V56.7332H1308.87V216.56C1308.87 230.007 1305.66 241.133 1299.25 249.938C1292.83 258.743 1284.06 265.33 1272.93 269.699C1261.81 274.067 1249.18 276.251 1235.05 276.251ZM1235.36 182.669C1243.21 182.669 1249.89 180.758 1255.42 176.936C1260.95 173.113 1265.15 167.619 1268.02 160.451C1270.88 153.284 1272.32 144.684 1272.32 134.65C1272.32 124.752 1270.88 116.084 1268.02 108.644C1265.22 101.203 1261.06 95.4356 1255.53 91.3401C1250.07 87.1763 1243.34 85.0944 1235.36 85.0944C1227.1 85.0944 1220.2 87.2446 1214.67 91.5448C1209.14 95.8451 1204.98 101.749 1202.18 109.258C1199.38 116.698 1197.98 125.162 1197.98 134.65C1197.98 144.274 1199.38 152.704 1202.18 159.94C1205.05 167.107 1209.25 172.704 1214.78 176.731C1220.37 180.69 1227.23 182.669 1235.36 182.669ZM1366.16 217.174C1356.2 217.174 1347.22 215.399 1339.23 211.85C1331.32 208.232 1325.04 202.908 1320.39 195.877C1315.82 188.847 1313.53 180.178 1313.53 169.871C1313.53 160.998 1315.17 153.66 1318.45 147.858C1321.73 142.056 1326.2 137.414 1331.86 133.933C1337.53 130.452 1343.91 127.824 1351.01 126.049C1358.18 124.206 1365.58 122.875 1373.23 122.056C1382.44 121.101 1389.92 120.247 1395.65 119.497C1401.38 118.677 1405.55 117.449 1408.14 115.811C1410.8 114.104 1412.13 111.476 1412.13 107.927V107.312C1412.13 99.5993 1409.85 93.6267 1405.27 89.3947C1400.7 85.1627 1394.11 83.0467 1385.51 83.0467C1376.43 83.0467 1369.23 85.0262 1363.91 88.9852C1358.65 92.9441 1355.1 97.6198 1353.26 103.012L1318.65 98.0976C1321.38 88.5415 1325.89 80.5553 1332.17 74.139C1338.45 67.6545 1346.13 62.8081 1355.21 59.6C1364.28 56.3236 1374.32 54.6854 1385.31 54.6854C1392.88 54.6854 1400.43 55.5728 1407.94 57.3475C1415.44 59.1222 1422.3 62.0573 1428.52 66.1528C1434.73 70.18 1439.71 75.6748 1443.46 82.6371C1447.29 89.5995 1449.2 98.3024 1449.2 108.746V214H1413.57V192.396H1412.34C1410.09 196.765 1406.91 200.86 1402.82 204.683C1398.79 208.437 1393.7 211.474 1387.56 213.795C1381.49 216.048 1374.35 217.174 1366.16 217.174ZM1375.79 189.939C1383.23 189.939 1389.68 188.471 1395.14 185.536C1400.6 182.533 1404.8 178.574 1407.73 173.659C1410.73 168.745 1412.24 163.387 1412.24 157.585V139.053C1411.08 140.008 1409.1 140.895 1406.3 141.715C1403.57 142.534 1400.5 143.25 1397.08 143.865C1393.67 144.479 1390.29 145.025 1386.95 145.503C1383.6 145.981 1380.7 146.39 1378.24 146.732C1372.71 147.482 1367.77 148.711 1363.4 150.418C1359.03 152.124 1355.58 154.513 1353.06 157.585C1350.53 160.588 1349.27 164.479 1349.27 169.257C1349.27 176.083 1351.76 181.236 1356.74 184.717C1361.73 188.198 1368.07 189.939 1375.79 189.939Z"/>
</mask>
<path d="M-6.31777 214V4.3109H31.6679V93.0806H128.833V4.3109H166.921V214H128.833V124.923H31.6679V214H-6.31777ZM249.247 217.072C233.889 217.072 220.579 213.693 209.316 206.935C198.053 200.178 189.316 190.724 183.105 178.574C176.962 166.424 173.89 152.226 173.89 135.981C173.89 119.735 176.962 105.504 183.105 93.2854C189.316 81.0672 198.053 71.5793 209.316 64.8218C220.579 58.0642 233.889 54.6854 249.247 54.6854C264.605 54.6854 277.915 58.0642 289.178 64.8218C300.441 71.5793 309.144 81.0672 315.287 93.2854C321.498 105.504 324.604 119.735 324.604 135.981C324.604 152.226 321.498 166.424 315.287 178.574C309.144 190.724 300.441 200.178 289.178 206.935C277.915 213.693 264.605 217.072 249.247 217.072ZM249.452 187.379C257.779 187.379 264.742 185.093 270.339 180.519C275.936 175.878 280.1 169.666 282.83 161.885C285.629 154.103 287.028 145.435 287.028 135.879C287.028 126.254 285.629 117.551 282.83 109.77C280.1 101.92 275.936 95.6745 270.339 91.0329C264.742 86.3913 257.779 84.0706 249.452 84.0706C240.919 84.0706 233.821 86.3913 228.155 91.0329C222.558 95.6745 218.36 101.92 215.562 109.77C212.831 117.551 211.466 126.254 211.466 135.879C211.466 145.435 212.831 154.103 215.562 161.885C218.36 169.666 222.558 175.878 228.155 180.519C233.821 185.093 240.919 187.379 249.452 187.379ZM454.412 98.3024L420.624 101.988C419.668 98.5754 417.996 95.3673 415.607 92.3639C413.286 89.3606 410.146 86.9374 406.187 85.0944C402.228 83.2515 397.382 82.33 391.648 82.33C383.935 82.33 377.45 84.0023 372.195 87.347C367.007 90.6916 364.447 95.026 364.516 100.35C364.447 104.923 366.12 108.644 369.533 111.51C373.014 114.377 378.747 116.732 386.734 118.575L413.559 124.309C428.439 127.517 439.497 132.602 446.733 139.564C454.036 146.527 457.722 155.639 457.79 166.902C457.722 176.799 454.821 185.536 449.087 193.113C443.422 200.621 435.538 206.492 425.436 210.724C415.334 214.956 403.73 217.072 390.624 217.072C371.375 217.072 355.881 213.044 344.14 204.99C332.4 196.867 325.404 185.57 323.151 171.1L359.294 167.619C360.932 174.717 364.413 180.076 369.737 183.693C375.061 187.311 381.99 189.12 390.522 189.12C399.327 189.12 406.392 187.311 411.716 183.693C417.108 180.076 419.805 175.605 419.805 170.281C419.805 165.776 418.064 162.056 414.583 159.12C411.17 156.185 405.846 153.933 398.61 152.363L371.785 146.732C356.7 143.592 345.54 138.302 338.304 130.862C331.069 123.353 327.485 113.865 327.554 102.398C327.485 92.7052 330.113 84.3095 335.438 77.2106C340.83 70.0435 348.304 64.5146 357.86 60.6239C367.485 56.6649 378.577 54.6854 391.136 54.6854C409.566 54.6854 424.071 58.6103 434.651 66.46C445.299 74.3097 451.886 84.9238 454.412 98.3024ZM540.935 56.7332V85.4016H450.527V56.7332H540.935ZM472.847 19.0547H509.912V166.697C509.912 171.68 510.662 175.502 512.164 178.164C513.734 180.758 515.782 182.533 518.307 183.489C520.833 184.444 523.631 184.922 526.703 184.922C529.024 184.922 531.14 184.751 533.051 184.41C535.031 184.069 536.532 183.762 537.556 183.489L543.802 212.464C541.822 213.147 538.99 213.898 535.304 214.717C531.686 215.536 527.249 216.014 521.993 216.15C512.71 216.423 504.349 215.024 496.908 211.952C489.468 208.812 483.564 203.966 479.195 197.413C474.895 190.86 472.779 182.669 472.847 172.84V19.0547ZM780.559 109.155C780.559 131.749 776.327 151.1 767.863 167.209C759.467 183.25 748 195.536 733.461 204.068C718.99 212.601 702.574 216.867 684.213 216.867C665.851 216.867 649.401 212.601 634.862 204.068C620.391 195.468 608.924 183.147 600.46 167.107C592.064 150.998 587.866 131.681 587.866 109.155C587.866 86.562 592.064 67.2449 600.46 51.2043C608.924 35.0953 620.391 22.7747 634.862 14.2425C649.401 5.71019 665.851 1.44405 684.213 1.44405C702.574 1.44405 718.99 5.71019 733.461 14.2425C748 22.7747 759.467 35.0953 767.863 51.2043C776.327 67.2449 780.559 86.562 780.559 109.155ZM742.369 109.155C742.369 93.2513 739.877 79.8386 734.894 68.9172C729.98 57.9277 723.154 49.6343 714.417 44.0372C705.68 38.3717 695.612 35.539 684.213 35.539C672.813 35.539 662.745 38.3717 654.008 44.0372C645.271 49.6343 638.411 57.9277 633.428 68.9172C628.514 79.8386 626.057 93.2513 626.057 109.155C626.057 125.06 628.514 138.506 633.428 149.496C638.411 160.417 645.271 168.711 654.008 174.376C662.745 179.973 672.813 182.772 684.213 182.772C695.612 182.772 705.68 179.973 714.417 174.376C723.154 168.711 729.98 160.417 734.894 149.496C739.877 138.506 742.369 125.06 742.369 109.155ZM788.884 214V56.7332H824.31V83.4562H826.153C829.429 74.4462 834.856 67.4156 842.433 62.3645C850.009 57.2451 859.054 54.6854 869.565 54.6854C880.214 54.6854 889.189 57.2792 896.493 62.4669C903.865 67.5862 909.053 74.5827 912.056 83.4562H913.694C917.175 74.7192 923.046 67.7569 931.305 62.5693C939.632 57.3134 949.496 54.6854 960.895 54.6854C975.365 54.6854 987.174 59.2587 996.321 68.4053C1005.47 77.5519 1010.04 90.8964 1010.04 108.439V214H972.874V114.172C972.874 104.412 970.28 97.2785 965.093 92.7735C959.905 88.2002 953.557 85.9135 946.049 85.9135C937.107 85.9135 930.11 88.7121 925.059 94.3093C920.076 99.8382 917.585 107.039 917.585 115.913V214H881.237V112.637C881.237 104.514 878.78 98.0294 873.866 93.183C869.019 88.3367 862.671 85.9135 854.822 85.9135C849.497 85.9135 844.651 87.2787 840.283 90.009C835.914 92.6711 832.433 96.4594 829.839 101.374C827.245 106.22 825.948 111.886 825.948 118.37V214H788.884ZM1091.32 217.072C1075.55 217.072 1061.93 213.795 1050.46 207.242C1039.06 200.621 1030.29 191.27 1024.15 179.188C1018.01 167.038 1014.94 152.738 1014.94 136.288C1014.94 120.111 1018.01 105.913 1024.15 93.695C1030.36 81.4085 1039.03 71.8524 1050.16 65.0265C1061.28 58.1325 1074.35 54.6854 1089.37 54.6854C1099.06 54.6854 1108.21 56.2554 1116.81 59.3952C1125.48 62.4669 1133.12 67.2449 1139.75 73.7295C1146.44 80.214 1151.69 88.4732 1155.51 98.5072C1159.34 108.473 1161.25 120.35 1161.25 134.138V145.503H1032.34V120.52H1125.72C1125.65 113.422 1124.11 107.108 1121.11 101.579C1118.11 95.9816 1113.91 91.579 1108.52 88.3708C1103.19 85.1627 1096.98 83.5586 1089.88 83.5586C1082.31 83.5586 1075.65 85.4016 1069.92 89.0875C1064.18 92.7052 1059.71 97.4833 1056.5 103.422C1053.36 109.292 1051.76 115.742 1051.69 122.773V144.581C1051.69 153.728 1053.36 161.578 1056.71 168.131C1060.05 174.615 1064.73 179.598 1070.74 183.079C1076.74 186.492 1083.77 188.198 1091.83 188.198C1097.22 188.198 1102.1 187.448 1106.47 185.946C1110.84 184.376 1114.63 182.089 1117.83 179.086C1121.04 176.083 1123.47 172.363 1125.1 167.926L1159.71 171.816C1157.53 180.963 1153.36 188.949 1147.22 195.775C1141.15 202.533 1133.36 207.789 1123.88 211.543C1114.39 215.229 1103.53 217.072 1091.32 217.072ZM1235.05 276.251C1221.74 276.251 1210.31 274.443 1200.75 270.825C1191.19 267.276 1183.51 262.497 1177.71 256.491C1171.91 250.484 1167.88 243.829 1165.63 236.525L1199.01 228.437C1200.51 231.508 1202.69 234.546 1205.56 237.549C1208.43 240.621 1212.28 243.146 1217.13 245.126C1222.05 247.173 1228.22 248.197 1235.66 248.197C1246.17 248.197 1254.88 245.638 1261.77 240.518C1268.67 235.467 1272.11 227.14 1272.11 215.536V185.741H1270.27C1268.36 189.564 1265.56 193.488 1261.87 197.516C1258.26 201.543 1253.44 204.922 1247.44 207.652C1241.5 210.382 1234.02 211.747 1225.01 211.747C1212.93 211.747 1201.98 208.915 1192.15 203.249C1182.39 197.516 1174.61 188.983 1168.8 177.653C1163.07 166.253 1160.2 151.987 1160.2 134.855C1160.2 117.585 1163.07 103.012 1168.8 91.1353C1174.61 79.1901 1182.42 70.1459 1192.25 64.0027C1202.08 57.7912 1213.04 54.6854 1225.12 54.6854C1234.33 54.6854 1241.91 56.2554 1247.85 59.3952C1253.85 62.4669 1258.63 66.1869 1262.18 70.5555C1265.73 74.8557 1268.43 78.9171 1270.27 82.7395H1272.32V56.7332H1308.87V216.56C1308.87 230.007 1305.66 241.133 1299.25 249.938C1292.83 258.743 1284.06 265.33 1272.93 269.699C1261.81 274.067 1249.18 276.251 1235.05 276.251ZM1235.36 182.669C1243.21 182.669 1249.89 180.758 1255.42 176.936C1260.95 173.113 1265.15 167.619 1268.02 160.451C1270.88 153.284 1272.32 144.684 1272.32 134.65C1272.32 124.752 1270.88 116.084 1268.02 108.644C1265.22 101.203 1261.06 95.4356 1255.53 91.3401C1250.07 87.1763 1243.34 85.0944 1235.36 85.0944C1227.1 85.0944 1220.2 87.2446 1214.67 91.5448C1209.14 95.8451 1204.98 101.749 1202.18 109.258C1199.38 116.698 1197.98 125.162 1197.98 134.65C1197.98 144.274 1199.38 152.704 1202.18 159.94C1205.05 167.107 1209.25 172.704 1214.78 176.731C1220.37 180.69 1227.23 182.669 1235.36 182.669ZM1366.16 217.174C1356.2 217.174 1347.22 215.399 1339.23 211.85C1331.32 208.232 1325.04 202.908 1320.39 195.877C1315.82 188.847 1313.53 180.178 1313.53 169.871C1313.53 160.998 1315.17 153.66 1318.45 147.858C1321.73 142.056 1326.2 137.414 1331.86 133.933C1337.53 130.452 1343.91 127.824 1351.01 126.049C1358.18 124.206 1365.58 122.875 1373.23 122.056C1382.44 121.101 1389.92 120.247 1395.65 119.497C1401.38 118.677 1405.55 117.449 1408.14 115.811C1410.8 114.104 1412.13 111.476 1412.13 107.927V107.312C1412.13 99.5993 1409.85 93.6267 1405.27 89.3947C1400.7 85.1627 1394.11 83.0467 1385.51 83.0467C1376.43 83.0467 1369.23 85.0262 1363.91 88.9852C1358.65 92.9441 1355.1 97.6198 1353.26 103.012L1318.65 98.0976C1321.38 88.5415 1325.89 80.5553 1332.17 74.139C1338.45 67.6545 1346.13 62.8081 1355.21 59.6C1364.28 56.3236 1374.32 54.6854 1385.31 54.6854C1392.88 54.6854 1400.43 55.5728 1407.94 57.3475C1415.44 59.1222 1422.3 62.0573 1428.52 66.1528C1434.73 70.18 1439.71 75.6748 1443.46 82.6371C1447.29 89.5995 1449.2 98.3024 1449.2 108.746V214H1413.57V192.396H1412.34C1410.09 196.765 1406.91 200.86 1402.82 204.683C1398.79 208.437 1393.7 211.474 1387.56 213.795C1381.49 216.048 1374.35 217.174 1366.16 217.174ZM1375.79 189.939C1383.23 189.939 1389.68 188.471 1395.14 185.536C1400.6 182.533 1404.8 178.574 1407.73 173.659C1410.73 168.745 1412.24 163.387 1412.24 157.585V139.053C1411.08 140.008 1409.1 140.895 1406.3 141.715C1403.57 142.534 1400.5 143.25 1397.08 143.865C1393.67 144.479 1390.29 145.025 1386.95 145.503C1383.6 145.981 1380.7 146.39 1378.24 146.732C1372.71 147.482 1367.77 148.711 1363.4 150.418C1359.03 152.124 1355.58 154.513 1353.06 157.585C1350.53 160.588 1349.27 164.479 1349.27 169.257C1349.27 176.083 1351.76 181.236 1356.74 184.717C1361.73 188.198 1368.07 189.939 1375.79 189.939Z" fill="url(#paint0_linear_527_3500)" fill-opacity="0.5"/>
<path d="M-6.31777 214H-6.95006V214.632H-6.31777V214ZM-6.31777 4.3109V3.67861H-6.95006V4.3109H-6.31777ZM31.6679 4.3109H32.3002V3.67861H31.6679V4.3109ZM31.6679 93.0806H31.0356V93.7129H31.6679V93.0806ZM128.833 93.0806V93.7129H129.466V93.0806H128.833ZM128.833 4.3109V3.67861H128.201V4.3109H128.833ZM166.921 4.3109H167.554V3.67861H166.921V4.3109ZM166.921 214V214.632H167.554V214H166.921ZM128.833 214H128.201V214.632H128.833V214ZM128.833 124.923H129.466V124.291H128.833V124.923ZM31.6679 124.923V124.291H31.0356V124.923H31.6679ZM31.6679 214V214.632H32.3002V214H31.6679ZM-6.31777 214H-5.68549V4.3109H-6.31777H-6.95006V214H-6.31777ZM-6.31777 4.3109V4.94318H31.6679V4.3109V3.67861H-6.31777V4.3109ZM31.6679 4.3109H31.0356V93.0806H31.6679H32.3002V4.3109H31.6679ZM31.6679 93.0806V93.7129H128.833V93.0806V92.4484H31.6679V93.0806ZM128.833 93.0806H129.466V4.3109H128.833H128.201V93.0806H128.833ZM128.833 4.3109V4.94318H166.921V4.3109V3.67861H128.833V4.3109ZM166.921 4.3109H166.289V214H166.921H167.554V4.3109H166.921ZM166.921 214V213.368H128.833V214V214.632H166.921V214ZM128.833 214H129.466V124.923H128.833H128.201V214H128.833ZM128.833 124.923V124.291H31.6679V124.923V125.555H128.833V124.923ZM31.6679 124.923H31.0356V214H31.6679H32.3002V124.923H31.6679ZM31.6679 214V213.368H-6.31777V214V214.632H31.6679V214ZM209.316 206.935L208.991 207.477L208.991 207.477L209.316 206.935ZM183.105 178.574L182.541 178.859L182.542 178.862L183.105 178.574ZM183.105 93.2854L182.541 92.9989L182.54 93.0014L183.105 93.2854ZM209.316 64.8218L209.641 65.364L209.641 65.364L209.316 64.8218ZM289.178 64.8218L288.853 65.364L288.853 65.364L289.178 64.8218ZM315.287 93.2854L314.722 93.5695L314.723 93.572L315.287 93.2854ZM315.287 178.574L314.724 178.286L314.722 178.289L315.287 178.574ZM289.178 206.935L288.853 206.393L288.853 206.393L289.178 206.935ZM270.339 180.519L270.739 181.009L270.742 181.006L270.339 180.519ZM282.83 161.885L282.235 161.671L282.233 161.676L282.83 161.885ZM282.83 109.77L282.233 109.978L282.235 109.984L282.83 109.77ZM270.339 91.0329L270.742 90.5462L270.742 90.5462L270.339 91.0329ZM228.155 91.0329L227.754 90.5438L227.752 90.5462L228.155 91.0329ZM215.562 109.77L214.966 109.557L214.965 109.56L215.562 109.77ZM215.562 161.885L214.965 162.094L214.967 162.099L215.562 161.885ZM228.155 180.519L227.752 181.006L227.758 181.011L228.155 180.519ZM249.247 217.072V216.439C233.984 216.439 220.79 213.082 209.641 206.393L209.316 206.935L208.991 207.477C220.367 214.303 233.794 217.704 249.247 217.704V217.072ZM209.316 206.935L209.641 206.393C198.484 199.699 189.828 190.335 183.668 178.286L183.105 178.574L182.542 178.862C188.805 191.113 197.622 200.657 208.991 207.477L209.316 206.935ZM183.105 178.574L183.669 178.289C177.578 166.243 174.522 152.146 174.522 135.981H173.89H173.258C173.258 152.306 176.345 166.605 182.541 178.859L183.105 178.574ZM173.89 135.981H174.522C174.522 119.816 177.578 105.684 183.67 93.5694L183.105 93.2854L182.54 93.0014C176.345 105.323 173.258 119.655 173.258 135.981H173.89ZM183.105 93.2854L183.668 93.572C189.829 81.4548 198.485 72.0576 209.641 65.364L209.316 64.8218L208.991 64.2796C197.622 71.101 188.804 80.6796 182.541 92.9989L183.105 93.2854ZM209.316 64.8218L209.641 65.364C220.79 58.6747 233.984 55.3177 249.247 55.3177V54.6854V54.0531C233.794 54.0531 220.367 57.4537 208.991 64.2796L209.316 64.8218ZM249.247 54.6854V55.3177C264.51 55.3177 277.704 58.6747 288.853 65.364L289.178 64.8218L289.503 64.2796C278.127 57.4537 264.7 54.0531 249.247 54.0531V54.6854ZM289.178 64.8218L288.853 65.364C300.008 72.0573 308.63 81.4536 314.722 93.5694L315.287 93.2854L315.852 93.0014C309.657 80.6808 300.873 71.1014 289.503 64.2796L289.178 64.8218ZM315.287 93.2854L314.723 93.572C320.882 105.686 323.972 119.817 323.972 135.981H324.604H325.236C325.236 119.654 322.115 105.321 315.85 92.9989L315.287 93.2854ZM324.604 135.981H323.972C323.972 152.145 320.882 166.241 314.724 178.286L315.287 178.574L315.85 178.862C322.115 166.607 325.236 152.307 325.236 135.981H324.604ZM315.287 178.574L314.722 178.289C308.631 190.336 300.009 199.699 288.853 206.393L289.178 206.935L289.503 207.477C300.872 200.656 309.656 191.112 315.851 178.859L315.287 178.574ZM289.178 206.935L288.853 206.393C277.704 213.082 264.51 216.439 249.247 216.439V217.072V217.704C264.7 217.704 278.127 214.303 289.503 207.477L289.178 206.935ZM249.452 187.379V188.012C257.902 188.012 265.012 185.688 270.739 181.009L270.339 180.519L269.939 180.03C264.471 184.497 257.657 186.747 249.452 186.747V187.379ZM270.339 180.519L270.742 181.006C276.439 176.282 280.664 169.969 283.427 162.094L282.83 161.885L282.233 161.676C279.536 169.364 275.433 175.474 269.935 180.033L270.339 180.519ZM282.83 161.885L283.425 162.099C286.252 154.239 287.66 145.496 287.66 135.879H287.028H286.396C286.396 145.373 285.005 153.968 282.235 161.671L282.83 161.885ZM287.028 135.879H287.66C287.66 126.193 286.252 117.416 283.425 109.556L282.83 109.77L282.235 109.984C285.005 117.686 286.396 126.315 286.396 135.879H287.028ZM282.83 109.77L283.427 109.562C280.664 101.619 276.44 95.2714 270.742 90.5462L270.339 91.0329L269.935 91.5196C275.431 96.0775 279.535 102.221 282.233 109.977L282.83 109.77ZM270.339 91.0329L270.742 90.5462C265.015 85.7971 257.904 83.4383 249.452 83.4383V84.0706V84.7029C257.654 84.7029 264.468 86.9856 269.935 91.5196L270.339 91.0329ZM249.452 84.0706V83.4383C240.799 83.4383 233.551 85.7948 227.754 90.5438L228.155 91.0329L228.556 91.522C234.09 86.9879 241.04 84.7029 249.452 84.7029V84.0706ZM228.155 91.0329L227.752 90.5462C222.055 95.2704 217.797 101.617 214.966 109.557L215.562 109.77L216.157 109.982C218.923 102.224 223.061 96.0785 228.559 91.5196L228.155 91.0329ZM215.562 109.77L214.965 109.56C212.207 117.419 210.834 126.194 210.834 135.879H211.466H212.098C212.098 126.314 213.455 117.683 216.158 109.979L215.562 109.77ZM211.466 135.879H210.834C210.834 145.495 212.208 154.236 214.965 162.094L215.562 161.885L216.158 161.676C213.455 153.971 212.098 145.374 212.098 135.879H211.466ZM215.562 161.885L214.967 162.099C217.798 169.972 222.056 176.283 227.752 181.006L228.155 180.519L228.559 180.033C223.06 175.473 218.922 169.361 216.157 161.671L215.562 161.885ZM228.155 180.519L227.758 181.011C233.555 185.691 240.801 188.012 249.452 188.012V187.379V186.747C241.038 186.747 234.087 184.495 228.552 180.027L228.155 180.519ZM454.412 98.3024L454.48 98.931L455.16 98.8568L455.033 98.1851L454.412 98.3024ZM420.624 101.988L420.015 102.159L420.159 102.675L420.692 102.617L420.624 101.988ZM415.607 92.3639L415.106 92.7506L415.112 92.7576L415.607 92.3639ZM406.187 85.0944L406.454 84.5212L406.454 84.5212L406.187 85.0944ZM372.195 87.347L371.855 86.8135L371.852 86.8155L372.195 87.347ZM364.516 100.35L365.148 100.36L365.148 100.351L365.148 100.342L364.516 100.35ZM369.533 111.51L369.126 111.995L369.131 111.998L369.533 111.51ZM386.734 118.575L386.591 119.191L386.601 119.193L386.734 118.575ZM413.559 124.309L413.692 123.691L413.691 123.69L413.559 124.309ZM446.733 139.564L446.294 140.02L446.296 140.022L446.733 139.564ZM457.79 166.902L458.423 166.906L458.423 166.898L457.79 166.902ZM449.087 193.113L448.583 192.731L448.583 192.732L449.087 193.113ZM425.436 210.724L425.68 211.307L425.68 211.307L425.436 210.724ZM344.14 204.99L343.781 205.51L343.783 205.511L344.14 204.99ZM323.151 171.1L323.09 170.47L322.423 170.535L322.526 171.197L323.151 171.1ZM359.294 167.619L359.91 167.476L359.785 166.936L359.233 166.989L359.294 167.619ZM369.737 183.693L370.093 183.17L370.093 183.17L369.737 183.693ZM411.716 183.693L411.364 183.168L411.361 183.17L411.716 183.693ZM414.583 159.12L414.171 159.6L414.175 159.604L414.583 159.12ZM398.61 152.363L398.745 151.745L398.74 151.744L398.61 152.363ZM371.785 146.732L371.915 146.113L371.914 146.113L371.785 146.732ZM338.304 130.862L337.849 131.3L337.851 131.302L338.304 130.862ZM327.554 102.398L328.186 102.402L328.186 102.393L327.554 102.398ZM335.438 77.2106L334.932 76.8305L334.932 76.8312L335.438 77.2106ZM357.86 60.6239L358.099 61.2095L358.101 61.2086L357.86 60.6239ZM434.651 66.46L434.274 66.9678L434.276 66.9689L434.651 66.46ZM454.412 98.3024L454.343 97.6738L420.555 101.36L420.624 101.988L420.692 102.617L454.48 98.931L454.412 98.3024ZM420.624 101.988L421.233 101.818C420.252 98.3172 418.539 95.0342 416.102 91.9703L415.607 92.3639L415.112 92.7576C417.453 95.7004 419.084 98.8337 420.015 102.159L420.624 101.988ZM415.607 92.3639L416.107 91.9773C413.716 88.8827 410.491 86.4004 406.454 84.5212L406.187 85.0944L405.92 85.6677C409.802 87.4744 412.856 89.8384 415.106 92.7506L415.607 92.3639ZM406.187 85.0944L406.454 84.5212C402.39 82.6292 397.446 81.6977 391.648 81.6977V82.33V82.9623C397.317 82.9623 402.067 83.8738 405.92 85.6677L406.187 85.0944ZM391.648 82.33V81.6977C383.843 81.6977 377.234 83.3905 371.855 86.8135L372.195 87.347L372.534 87.8804C377.667 84.6141 384.027 82.9623 391.648 82.9623V82.33ZM372.195 87.347L371.852 86.8155C366.516 90.2561 363.812 94.7786 363.883 100.358L364.516 100.35L365.148 100.342C365.083 95.2734 367.498 91.1271 372.537 87.8784L372.195 87.347ZM364.516 100.35L363.883 100.341C363.812 105.098 365.563 109.002 369.126 111.995L369.533 111.51L369.939 111.026C366.676 108.285 365.082 104.749 365.148 100.36L364.516 100.35ZM369.533 111.51L369.131 111.998C372.726 114.96 378.576 117.341 386.591 119.191L386.734 118.575L386.876 117.959C378.919 116.123 373.301 113.795 369.934 111.022L369.533 111.51ZM386.734 118.575L386.601 119.193L413.427 124.927L413.559 124.309L413.691 123.69L386.866 117.957L386.734 118.575ZM413.559 124.309L413.426 124.927C428.246 128.122 439.176 133.171 446.294 140.02L446.733 139.564L447.171 139.109C439.818 132.033 428.632 126.912 413.692 123.691L413.559 124.309ZM446.733 139.564L446.296 140.022C453.461 146.852 457.091 155.793 457.158 166.906L457.79 166.902L458.423 166.898C458.353 155.486 454.612 146.202 447.169 139.107L446.733 139.564ZM457.79 166.902L457.158 166.897C457.091 176.665 454.231 185.268 448.583 192.731L449.087 193.113L449.592 193.495C455.411 185.804 458.353 176.934 458.423 166.906L457.79 166.902ZM449.087 193.113L448.583 192.732C442.995 200.138 435.208 205.944 425.192 210.14L425.436 210.724L425.68 211.307C435.868 207.039 443.849 201.105 449.592 193.494L449.087 193.113ZM425.436 210.724L425.192 210.14C415.18 214.334 403.662 216.439 390.624 216.439V217.072V217.704C403.798 217.704 415.487 215.577 425.68 211.307L425.436 210.724ZM390.624 217.072V216.439C371.459 216.439 356.102 212.429 344.498 204.469L344.14 204.99L343.783 205.511C355.66 213.659 371.292 217.704 390.624 217.704V217.072ZM344.14 204.99L344.5 204.47C332.906 196.449 326.002 185.307 323.776 171.002L323.151 171.1L322.526 171.197C324.805 185.834 331.894 197.286 343.781 205.51L344.14 204.99ZM323.151 171.1L323.212 171.729L359.354 168.248L359.294 167.619L359.233 166.989L323.09 170.47L323.151 171.1ZM359.294 167.619L358.678 167.761C360.347 174.993 363.908 180.497 369.382 184.216L369.737 183.693L370.093 183.17C364.918 179.654 361.517 174.442 359.91 167.476L359.294 167.619ZM369.737 183.693L369.382 184.216C374.84 187.925 381.904 189.752 390.522 189.752V189.12V188.488C382.076 188.488 375.283 186.697 370.093 183.17L369.737 183.693ZM390.522 189.12V189.752C399.409 189.752 406.61 187.927 412.071 184.216L411.716 183.693L411.361 183.17C406.174 186.695 399.246 188.488 390.522 188.488V189.12ZM411.716 183.693L412.068 184.218C417.592 180.513 420.437 175.863 420.437 170.281H419.805H419.172C419.172 175.346 416.625 179.639 411.364 183.168L411.716 183.693ZM419.805 170.281H420.437C420.437 165.587 418.612 161.691 414.99 158.637L414.583 159.12L414.175 159.604C417.516 162.42 419.172 165.964 419.172 170.281H419.805ZM414.583 159.12L414.995 158.641C411.467 155.607 406.024 153.324 398.745 151.745L398.61 152.363L398.476 152.981C405.668 154.541 410.873 156.764 414.171 159.6L414.583 159.12ZM398.61 152.363L398.74 151.744L371.915 146.113L371.785 146.732L371.655 147.35L398.481 152.982L398.61 152.363ZM371.785 146.732L371.914 146.113C356.896 142.987 345.872 137.736 338.758 130.421L338.304 130.862L337.851 131.302C345.208 138.867 356.504 144.197 371.656 147.351L371.785 146.732ZM338.304 130.862L338.76 130.423C331.651 123.046 328.119 113.722 328.186 102.402L327.554 102.398L326.921 102.394C326.852 114.008 330.487 123.661 337.849 131.3L338.304 130.862ZM327.554 102.398L328.186 102.393C328.119 92.8256 330.71 84.5678 335.943 77.59L335.438 77.2106L334.932 76.8312C329.517 84.0511 326.852 92.5849 326.921 102.402L327.554 102.398ZM335.438 77.2106L335.943 77.5908C341.257 70.528 348.632 65.0637 358.099 61.2095L357.86 60.6239L357.622 60.0383C347.976 63.9655 340.403 69.559 334.932 76.8305L335.438 77.2106ZM357.86 60.6239L358.101 61.2086C367.635 57.2868 378.643 55.3177 391.136 55.3177V54.6854V54.0531C378.511 54.0531 367.335 56.043 357.62 60.0391L357.86 60.6239ZM391.136 54.6854V55.3177C409.483 55.3177 423.839 59.2255 434.274 66.9678L434.651 66.46L435.028 65.9522C424.303 57.995 409.649 54.0531 391.136 54.0531V54.6854ZM434.651 66.46L434.276 66.9689C444.791 74.7208 451.293 85.193 453.79 98.4197L454.412 98.3024L455.033 98.1851C452.479 84.6546 445.807 73.8985 435.026 65.951L434.651 66.46ZM540.935 56.7332H541.567V56.1009H540.935V56.7332ZM540.935 85.4016V86.0339H541.567V85.4016H540.935ZM450.527 85.4016H449.895V86.0339H450.527V85.4016ZM450.527 56.7332V56.1009H449.895V56.7332H450.527ZM472.847 19.0547V18.4224H472.215V19.0547H472.847ZM509.912 19.0547H510.544V18.4224H509.912V19.0547ZM512.164 178.164L511.613 178.475L511.618 178.484L511.623 178.492L512.164 178.164ZM518.307 183.489L518.084 184.08L518.084 184.08L518.307 183.489ZM533.051 184.41L532.944 183.787L532.94 183.788L533.051 184.41ZM537.556 183.489L538.174 183.355L538.034 182.707L537.393 182.878L537.556 183.489ZM543.802 212.464L544.008 213.062L544.538 212.879L544.42 212.331L543.802 212.464ZM535.304 214.717L535.166 214.099L535.164 214.1L535.304 214.717ZM521.993 216.15L521.977 215.518L521.975 215.518L521.993 216.15ZM496.908 211.952L496.663 212.535L496.667 212.537L496.908 211.952ZM479.195 197.413L478.667 197.76L478.669 197.764L479.195 197.413ZM472.847 172.84L473.48 172.845V172.84H472.847ZM540.935 56.7332H540.303V85.4016H540.935H541.567V56.7332H540.935ZM540.935 85.4016V84.7693H450.527V85.4016V86.0339H540.935V85.4016ZM450.527 85.4016H451.159V56.7332H450.527H449.895V85.4016H450.527ZM450.527 56.7332V57.3655H540.935V56.7332V56.1009H450.527V56.7332ZM472.847 19.0547V19.6869H509.912V19.0547V18.4224H472.847V19.0547ZM509.912 19.0547H509.279V166.697H509.912H510.544V19.0547H509.912ZM509.912 166.697H509.279C509.279 171.727 510.035 175.676 511.613 178.475L512.164 178.164L512.715 177.854C511.29 175.329 510.544 171.632 510.544 166.697H509.912ZM512.164 178.164L511.623 178.492C513.257 181.191 515.41 183.068 518.084 184.08L518.307 183.489L518.531 182.897C516.154 181.998 514.211 180.326 512.705 177.837L512.164 178.164ZM518.307 183.489L518.084 184.08C520.69 185.066 523.565 185.554 526.703 185.554V184.922V184.29C523.698 184.29 520.976 183.822 518.531 182.897L518.307 183.489ZM526.703 184.922V185.554C529.054 185.554 531.208 185.381 533.162 185.033L533.051 184.41L532.94 183.788C531.072 184.121 528.994 184.29 526.703 184.29V184.922ZM533.051 184.41L533.159 185.033C535.143 184.691 536.667 184.38 537.719 184.1L537.556 183.489L537.393 182.878C536.397 183.143 534.918 183.447 532.944 183.787L533.051 184.41ZM537.556 183.489L536.938 183.622L543.184 212.597L543.802 212.464L544.42 212.331L538.174 183.355L537.556 183.489ZM543.802 212.464L543.596 211.866C541.65 212.537 538.844 213.282 535.166 214.099L535.304 214.717L535.441 215.334C539.135 214.513 541.995 213.756 544.008 213.062L543.802 212.464ZM535.304 214.717L535.164 214.1C531.6 214.907 527.207 215.382 521.977 215.518L521.993 216.15L522.01 216.782C527.291 216.645 531.772 216.165 535.443 215.333L535.304 214.717ZM521.993 216.15L521.975 215.518C512.767 215.789 504.496 214.401 497.15 211.368L496.908 211.952L496.667 212.537C504.201 215.647 512.653 217.057 522.012 216.782L521.993 216.15ZM496.908 211.952L497.154 211.37C489.825 208.277 484.019 203.51 479.721 197.063L479.195 197.413L478.669 197.764C483.108 204.423 489.111 209.348 496.663 212.535L496.908 211.952ZM479.195 197.413L479.724 197.066C475.508 190.642 473.412 182.581 473.48 172.845L472.847 172.84L472.215 172.836C472.146 182.758 474.283 191.079 478.667 197.76L479.195 197.413ZM472.847 172.84H473.48V19.0547H472.847H472.215V172.84H472.847ZM767.863 167.209L767.303 166.915L767.303 166.916L767.863 167.209ZM733.461 204.068L733.141 203.523L733.14 203.524L733.461 204.068ZM634.862 204.068L634.539 204.612L634.542 204.614L634.862 204.068ZM600.46 167.107L599.899 167.399L599.901 167.402L600.46 167.107ZM600.46 51.2043L599.9 50.9102L599.9 50.9111L600.46 51.2043ZM634.862 14.2425L634.542 13.6971L634.541 13.6978L634.862 14.2425ZM733.461 14.2425L733.14 14.7871L733.141 14.7878L733.461 14.2425ZM767.863 51.2043L767.302 51.4965L767.304 51.4993L767.863 51.2043ZM734.894 68.9172L734.317 69.1754L734.319 69.1797L734.894 68.9172ZM714.417 44.0372L714.073 44.5677L714.076 44.5696L714.417 44.0372ZM654.008 44.0372L654.349 44.5696L654.352 44.5677L654.008 44.0372ZM633.428 68.9172L632.853 68.6561L632.852 68.6578L633.428 68.9172ZM633.428 149.496L632.851 149.754L632.853 149.758L633.428 149.496ZM654.008 174.376L653.664 174.907L653.667 174.909L654.008 174.376ZM714.417 174.376L714.758 174.909L714.761 174.907L714.417 174.376ZM734.894 149.496L734.318 149.235L734.318 149.237L734.894 149.496ZM780.559 109.155H779.927C779.927 131.671 775.709 150.916 767.303 166.915L767.863 167.209L768.423 167.503C776.944 151.284 781.191 131.827 781.191 109.155H780.559ZM767.863 167.209L767.303 166.916C758.958 182.86 747.57 195.055 733.141 203.523L733.461 204.068L733.781 204.614C748.43 196.017 759.977 183.64 768.423 167.502L767.863 167.209ZM733.461 204.068L733.14 203.524C718.775 211.993 702.472 216.235 684.213 216.235V216.867V217.499C702.676 217.499 719.205 213.208 733.782 204.613L733.461 204.068ZM684.213 216.867V216.235C665.953 216.235 649.615 211.993 635.182 203.523L634.862 204.068L634.542 204.614C649.186 213.208 665.749 217.499 684.213 217.499V216.867ZM634.862 204.068L635.185 203.525C620.822 194.988 609.433 182.758 601.019 166.812L600.46 167.107L599.901 167.402C608.415 183.537 619.96 195.947 634.539 204.612L634.862 204.068ZM600.46 167.107L601.02 166.814C592.682 150.815 588.498 131.603 588.498 109.155H587.866H587.234C587.234 131.758 591.446 151.181 599.899 167.399L600.46 167.107ZM587.866 109.155H588.498C588.498 86.6393 592.682 67.428 601.02 51.4975L600.46 51.2043L599.9 50.9111C591.446 67.0619 587.234 86.4847 587.234 109.155H587.866ZM600.46 51.2043L601.02 51.4984C609.434 35.4845 620.822 23.2547 635.183 14.7871L634.862 14.2425L634.541 13.6978C619.96 22.2947 608.414 34.7062 599.9 50.9102L600.46 51.2043ZM634.862 14.2425L635.182 14.7878C649.615 6.31747 665.953 2.07634 684.213 2.07634V1.44405V0.811765C665.749 0.811765 649.186 5.1029 634.542 13.6971L634.862 14.2425ZM684.213 1.44405V2.07634C702.472 2.07634 718.775 6.31748 733.14 14.7871L733.461 14.2425L733.782 13.6978C719.205 5.10289 702.676 0.811765 684.213 0.811765V1.44405ZM733.461 14.2425L733.141 14.7878C747.569 23.2553 758.957 35.4844 767.302 51.4965L767.863 51.2043L768.424 50.912C759.977 34.7063 748.43 22.2942 733.781 13.6971L733.461 14.2425ZM767.863 51.2043L767.304 51.4993C775.709 67.4294 779.927 86.64 779.927 109.155H780.559H781.191C781.191 86.484 776.945 67.0605 768.422 50.9092L767.863 51.2043ZM742.369 109.155H743.001C743.001 93.1888 740.5 79.6807 735.469 68.6548L734.894 68.9172L734.319 69.1797C739.254 79.9965 741.736 93.3138 741.736 109.155H742.369ZM734.894 68.9172L735.471 68.6591C730.515 57.5755 723.614 49.1785 714.758 43.5048L714.417 44.0372L714.076 44.5696C722.693 50.0901 729.445 58.2799 734.317 69.1754L734.894 68.9172ZM714.417 44.0372L714.761 43.5066C705.912 37.7685 695.722 34.9067 684.213 34.9067V35.539V36.1713C695.502 36.1713 705.448 38.9749 714.073 44.5677L714.417 44.0372ZM684.213 35.539V34.9067C672.703 34.9067 662.513 37.7685 653.664 43.5066L654.008 44.0372L654.352 44.5677C662.977 38.9749 672.924 36.1713 684.213 36.1713V35.539ZM654.008 44.0372L653.667 43.5048C644.812 49.178 637.877 57.5739 632.853 68.6561L633.428 68.9172L634.004 69.1784C638.945 58.2815 645.731 50.0907 654.349 44.5696L654.008 44.0372ZM633.428 68.9172L632.852 68.6578C627.891 79.6828 625.424 93.1897 625.424 109.155H626.057H626.689C626.689 93.3129 629.137 79.9944 634.005 69.1767L633.428 68.9172ZM626.057 109.155H625.424C625.424 125.121 627.891 138.662 632.851 149.754L633.428 149.496L634.006 149.238C629.137 138.351 626.689 124.998 626.689 109.155H626.057ZM633.428 149.496L632.853 149.758C637.878 160.772 644.812 169.166 653.664 174.907L654.008 174.376L654.352 173.846C645.731 168.255 638.944 160.062 634.004 149.234L633.428 149.496ZM654.008 174.376L653.667 174.909C662.516 180.577 672.705 183.404 684.213 183.404V182.772V182.14C672.922 182.14 662.975 179.369 654.349 173.844L654.008 174.376ZM684.213 182.772V183.404C695.72 183.404 705.909 180.577 714.758 174.909L714.417 174.376L714.076 173.844C705.45 179.369 695.503 182.14 684.213 182.14V182.772ZM714.417 174.376L714.761 174.907C723.614 169.166 730.514 160.771 735.471 149.755L734.894 149.496L734.318 149.237C729.445 160.064 722.693 168.256 714.073 173.846L714.417 174.376ZM734.894 149.496L735.47 149.757C740.5 138.664 743.001 125.122 743.001 109.155H742.369H741.736C741.736 124.997 739.254 138.349 734.318 149.235L734.894 149.496ZM788.884 214H788.252V214.632H788.884V214ZM788.884 56.7332V56.1009H788.252V56.7332H788.884ZM824.31 56.7332H824.942V56.1009H824.31V56.7332ZM824.31 83.4562H823.678V84.0885H824.31V83.4562ZM826.153 83.4562V84.0885H826.596L826.747 83.6723L826.153 83.4562ZM842.433 62.3645L842.783 62.8906L842.787 62.8884L842.433 62.3645ZM896.493 62.4669L896.127 62.9824L896.132 62.9862L896.493 62.4669ZM912.056 83.4562L911.457 83.659L911.602 84.0885H912.056V83.4562ZM913.694 83.4562V84.0885H914.123L914.282 83.6903L913.694 83.4562ZM931.305 62.5693L931.641 63.1047L931.642 63.1039L931.305 62.5693ZM1010.04 214V214.632H1010.67V214H1010.04ZM972.874 214H972.242V214.632H972.874V214ZM965.093 92.7735L964.674 93.2478L964.678 93.2509L965.093 92.7735ZM925.059 94.3093L924.59 93.8857L924.589 93.886L925.059 94.3093ZM917.585 214V214.632H918.217V214H917.585ZM881.237 214H880.605V214.632H881.237V214ZM873.866 93.183L873.418 93.6301L873.422 93.6332L873.866 93.183ZM840.283 90.009L840.612 90.549L840.618 90.5452L840.283 90.009ZM829.839 101.374L830.396 101.672L830.398 101.669L829.839 101.374ZM825.948 214V214.632H826.581V214H825.948ZM788.884 214H789.516V56.7332H788.884H788.252V214H788.884ZM788.884 56.7332V57.3655H824.31V56.7332V56.1009H788.884V56.7332ZM824.31 56.7332H823.678V83.4562H824.31H824.942V56.7332H824.31ZM824.31 83.4562V84.0885H826.153V83.4562V82.824H824.31V83.4562ZM826.153 83.4562L826.747 83.6723C829.98 74.7818 835.325 67.8628 842.783 62.8906L842.433 62.3645L842.082 61.8384C834.387 66.9683 828.879 74.1106 825.559 83.2402L826.153 83.4562ZM842.433 62.3645L842.787 62.8884C850.244 57.8498 859.16 55.3177 869.565 55.3177V54.6854V54.0531C858.947 54.0531 849.775 56.6404 842.079 61.8406L842.433 62.3645ZM869.565 54.6854V55.3177C880.108 55.3177 888.949 57.8842 896.127 62.9823L896.493 62.4669L896.859 61.9514C889.43 56.6743 880.319 54.0531 869.565 54.0531V54.6854ZM896.493 62.4669L896.132 62.9862C903.388 68.0247 908.495 74.9077 911.457 83.659L912.056 83.4562L912.655 83.2535C909.61 74.2576 904.342 67.1477 896.854 61.9475L896.493 62.4669ZM912.056 83.4562V84.0885H913.694V83.4562V82.824H912.056V83.4562ZM913.694 83.4562L914.282 83.6903C917.711 75.0826 923.491 68.2238 931.641 63.1047L931.305 62.5693L930.968 62.0338C922.6 67.2899 916.64 74.3558 913.107 83.2222L913.694 83.4562ZM931.305 62.5693L931.642 63.1039C939.854 57.9214 949.596 55.3177 960.895 55.3177V54.6854V54.0531C949.395 54.0531 939.411 56.7054 930.967 62.0346L931.305 62.5693ZM960.895 54.6854V55.3177C975.22 55.3177 986.86 59.8389 995.874 68.8524L996.321 68.4053L996.768 67.9582C987.488 58.6785 975.511 54.0531 960.895 54.0531V54.6854ZM996.321 68.4053L995.874 68.8524C1004.86 77.8432 1009.41 91.0028 1009.41 108.439H1010.04H1010.67C1010.67 90.79 1006.07 77.2607 996.768 67.9582L996.321 68.4053ZM1010.04 108.439H1009.41V214H1010.04H1010.67V108.439H1010.04ZM1010.04 214V213.368H972.874V214V214.632H1010.04V214ZM972.874 214H973.506V114.172H972.874H972.242V214H972.874ZM972.874 114.172H973.506C973.506 104.308 970.884 96.965 965.507 92.2961L965.093 92.7735L964.678 93.2509C969.677 97.592 972.242 104.515 972.242 114.172H972.874ZM965.093 92.7735L965.511 92.2992C960.197 87.615 953.697 85.2813 946.049 85.2813V85.9135V86.5458C953.417 86.5458 959.613 88.7854 964.674 93.2478L965.093 92.7735ZM946.049 85.9135V85.2813C936.964 85.2813 929.783 88.1309 924.59 93.8857L925.059 94.3093L925.529 94.7329C930.437 89.2934 937.249 86.5458 946.049 86.5458V85.9135ZM925.059 94.3093L924.589 93.886C919.483 99.5526 916.953 106.915 916.953 115.913H917.585H918.217C918.217 107.164 920.67 100.124 925.529 94.7326L925.059 94.3093ZM917.585 115.913H916.953V214H917.585H918.217V115.913H917.585ZM917.585 214V213.368H881.237V214V214.632H917.585V214ZM881.237 214H881.87V112.637H881.237H880.605V214H881.237ZM881.237 112.637H881.87C881.87 104.377 879.366 97.7189 874.309 92.7328L873.866 93.183L873.422 93.6332C878.194 98.3398 880.605 104.651 880.605 112.637H881.237ZM873.866 93.183L874.313 92.7359C869.33 87.7535 862.812 85.2813 854.822 85.2813V85.9135V86.5458C862.53 86.5458 868.708 88.9199 873.418 93.6301L873.866 93.183ZM854.822 85.9135V85.2813C849.383 85.2813 844.42 86.6775 839.947 89.4729L840.283 90.009L840.618 90.5452C844.882 87.8799 849.612 86.5458 854.822 86.5458V85.9135ZM840.283 90.009L839.953 89.4691C835.479 92.1956 831.922 96.0724 829.28 101.079L829.839 101.374L830.398 101.669C832.944 96.8464 836.349 93.1466 840.612 90.549L840.283 90.009ZM829.839 101.374L829.282 101.076C826.63 106.029 825.316 111.8 825.316 118.37H825.948H826.581C826.581 111.971 827.86 106.412 830.396 101.672L829.839 101.374ZM825.948 118.37H825.316V214H825.948H826.581V118.37H825.948ZM825.948 214V213.368H788.884V214V214.632H825.948V214ZM1050.46 207.242L1050.15 207.789L1050.15 207.791L1050.46 207.242ZM1024.15 179.188L1023.59 179.474L1023.59 179.475L1024.15 179.188ZM1024.15 93.695L1023.59 93.4097L1023.59 93.4109L1024.15 93.695ZM1050.16 65.0265L1050.49 65.5655L1050.49 65.564L1050.16 65.0265ZM1116.81 59.3952L1116.59 59.9892L1116.6 59.9912L1116.81 59.3952ZM1139.75 73.7295L1139.3 74.1812L1139.31 74.1834L1139.75 73.7295ZM1155.51 98.5072L1154.92 98.7323L1154.92 98.7336L1155.51 98.5072ZM1161.25 145.503V146.135H1161.88V145.503H1161.25ZM1032.34 145.503H1031.71V146.135H1032.34V145.503ZM1032.34 120.52V119.888H1031.71V120.52H1032.34ZM1125.72 120.52V121.153H1126.36L1126.35 120.514L1125.72 120.52ZM1121.11 101.579L1120.55 101.878L1120.56 101.881L1121.11 101.579ZM1108.52 88.3708L1108.19 88.9124L1108.19 88.9142L1108.52 88.3708ZM1069.92 89.0875L1070.26 89.6223L1070.26 89.6194L1069.92 89.0875ZM1056.5 103.422L1055.95 103.121L1055.95 103.124L1056.5 103.422ZM1051.69 122.773L1051.06 122.767V122.773H1051.69ZM1056.71 168.131L1056.15 168.418L1056.15 168.42L1056.71 168.131ZM1070.74 183.079L1070.42 183.626L1070.42 183.629L1070.74 183.079ZM1106.47 185.946L1106.68 186.544L1106.68 186.541L1106.47 185.946ZM1117.83 179.086L1117.4 178.624L1117.83 179.086ZM1125.1 167.926L1125.17 167.297L1124.68 167.242L1124.51 167.707L1125.1 167.926ZM1159.71 171.816L1160.33 171.963L1160.49 171.268L1159.78 171.188L1159.71 171.816ZM1147.22 195.775L1146.75 195.352L1146.75 195.352L1147.22 195.775ZM1123.88 211.543L1124.1 212.132L1124.11 212.131L1123.88 211.543ZM1091.32 217.072V216.439C1075.64 216.439 1062.13 213.182 1050.78 206.693L1050.46 207.242L1050.15 207.791C1061.73 214.408 1075.46 217.704 1091.32 217.704V217.072ZM1050.46 207.242L1050.78 206.696C1039.49 200.138 1030.8 190.878 1024.71 178.902L1024.15 179.188L1023.59 179.475C1029.78 191.662 1038.64 201.105 1050.15 207.789L1050.46 207.242ZM1024.15 179.188L1024.71 178.903C1018.62 166.858 1015.57 152.66 1015.57 136.288H1014.94H1014.3C1014.3 152.817 1017.39 167.219 1023.59 179.474L1024.15 179.188ZM1014.94 136.288H1015.57C1015.57 120.192 1018.62 106.094 1024.72 93.979L1024.15 93.695L1023.59 93.4109C1017.39 105.732 1014.3 120.03 1014.3 136.288H1014.94ZM1024.15 93.695L1024.71 93.9802C1030.88 81.7924 1039.47 72.3266 1050.49 65.5655L1050.16 65.0265L1049.83 64.4876C1038.59 71.3781 1029.85 81.0246 1023.59 93.4097L1024.15 93.695ZM1050.16 65.0265L1050.49 65.564C1061.5 58.7406 1074.45 55.3177 1089.37 55.3177V54.6854V54.0531C1074.25 54.0531 1061.06 57.5243 1049.82 64.4891L1050.16 65.0265ZM1089.37 54.6854V55.3177C1098.99 55.3177 1108.07 56.8761 1116.59 59.9892L1116.81 59.3952L1117.03 58.8013C1108.35 55.6346 1099.13 54.0531 1089.37 54.0531V54.6854ZM1116.81 59.3952L1116.6 59.9912C1125.18 63.0319 1132.75 67.7605 1139.3 74.1812L1139.75 73.7295L1140.19 73.2777C1133.5 66.7294 1125.78 61.9018 1117.02 58.7993L1116.81 59.3952ZM1139.75 73.7295L1139.31 74.1834C1145.92 80.5945 1151.13 88.7716 1154.92 98.7323L1155.51 98.5072L1156.1 98.2821C1152.25 88.1749 1146.95 79.8335 1140.19 73.2755L1139.75 73.7295ZM1155.51 98.5072L1154.92 98.7336C1158.71 108.609 1160.61 120.406 1160.61 134.138H1161.25H1161.88C1161.88 120.294 1159.96 108.336 1156.1 98.2807L1155.51 98.5072ZM1161.25 134.138H1160.61V145.503H1161.25H1161.88V134.138H1161.25ZM1161.25 145.503V144.871H1032.34V145.503V146.135H1161.25V145.503ZM1032.34 145.503H1032.97V120.52H1032.34H1031.71V145.503H1032.34ZM1032.34 120.52V121.153H1125.72V120.52V119.888H1032.34V120.52ZM1125.72 120.52L1126.35 120.514C1126.28 113.326 1124.73 106.908 1121.67 101.277L1121.11 101.579L1120.56 101.881C1123.5 107.308 1125.02 113.518 1125.09 120.527L1125.72 120.52ZM1121.11 101.579L1121.67 101.28C1118.61 95.5828 1114.33 91.0951 1108.84 87.8274L1108.52 88.3708L1108.19 88.9142C1113.49 92.0629 1117.6 96.3805 1120.55 101.878L1121.11 101.579ZM1108.52 88.3708L1108.84 87.8293C1103.41 84.5537 1097.08 82.9263 1089.88 82.9263V83.5586V84.1909C1096.88 84.1909 1102.98 85.7717 1108.19 88.9124L1108.52 88.3708ZM1089.88 83.5586V82.9263C1082.2 82.9263 1075.42 84.797 1069.58 88.5557L1069.92 89.0875L1070.26 89.6194C1075.88 86.0062 1082.41 84.1909 1089.88 84.1909V83.5586ZM1069.92 89.0875L1069.58 88.5528C1063.76 92.2282 1059.21 97.0867 1055.95 103.121L1056.5 103.422L1057.06 103.722C1060.22 97.8799 1064.61 93.1823 1070.25 89.6223L1069.92 89.0875ZM1056.5 103.422L1055.95 103.124C1052.76 109.089 1051.13 115.64 1051.06 122.767L1051.69 122.773L1052.32 122.779C1052.39 115.845 1053.97 109.495 1057.06 103.72L1056.5 103.422ZM1051.69 122.773H1051.06V144.581H1051.69H1052.32V122.773H1051.69ZM1051.69 144.581H1051.06C1051.06 153.804 1052.75 161.757 1056.15 168.418L1056.71 168.131L1057.27 167.843C1053.98 161.398 1052.32 153.652 1052.32 144.581H1051.69ZM1056.71 168.131L1056.15 168.42C1059.54 175.007 1064.3 180.081 1070.42 183.626L1070.74 183.079L1071.05 182.532C1065.16 179.115 1060.56 174.224 1057.27 167.841L1056.71 168.131ZM1070.74 183.079L1070.42 183.629C1076.54 187.104 1083.68 188.831 1091.83 188.831V188.198V187.566C1083.87 187.566 1076.95 185.88 1071.05 182.529L1070.74 183.079ZM1091.83 188.198V188.831C1097.28 188.831 1102.23 188.072 1106.68 186.544L1106.47 185.946L1106.26 185.348C1101.97 186.823 1097.16 187.566 1091.83 187.566V188.198ZM1106.47 185.946L1106.68 186.541C1111.13 184.944 1114.99 182.613 1118.27 179.548L1117.83 179.086L1117.4 178.624C1114.26 181.566 1110.55 183.808 1106.26 185.351L1106.47 185.946ZM1117.83 179.086L1118.27 179.548C1121.55 176.472 1124.03 172.667 1125.7 168.145L1125.1 167.926L1124.51 167.707C1122.9 172.058 1120.53 175.693 1117.4 178.624L1117.83 179.086ZM1125.1 167.926L1125.03 168.554L1159.64 172.445L1159.71 171.816L1159.78 171.188L1125.17 167.297L1125.1 167.926ZM1159.71 171.816L1159.1 171.67C1156.94 180.716 1152.82 188.607 1146.75 195.352L1147.22 195.775L1147.69 196.198C1153.91 189.292 1158.12 181.21 1160.33 171.963L1159.71 171.816ZM1147.22 195.775L1146.75 195.352C1140.75 202.029 1133.05 207.232 1123.64 210.955L1123.88 211.543L1124.11 212.131C1133.68 208.345 1141.54 203.037 1147.69 196.198L1147.22 195.775ZM1123.88 211.543L1123.65 210.953C1114.24 214.606 1103.47 216.439 1091.32 216.439V217.072V217.704C1103.6 217.704 1114.53 215.851 1124.1 212.132L1123.88 211.543ZM1200.75 270.825L1200.97 270.234L1200.97 270.232L1200.75 270.825ZM1177.71 256.491L1178.17 256.051L1178.17 256.051L1177.71 256.491ZM1165.63 236.525L1165.48 235.911L1164.83 236.069L1165.03 236.712L1165.63 236.525ZM1199.01 228.437L1199.58 228.159L1199.35 227.702L1198.86 227.822L1199.01 228.437ZM1205.56 237.549L1206.02 237.118L1206.02 237.112L1205.56 237.549ZM1217.13 245.126L1217.37 244.542L1217.37 244.54L1217.13 245.126ZM1261.77 240.518L1261.4 240.008L1261.39 240.011L1261.77 240.518ZM1272.11 185.741H1272.75V185.109H1272.11V185.741ZM1270.27 185.741V185.109H1269.88L1269.7 185.458L1270.27 185.741ZM1261.87 197.516L1261.41 197.089L1261.4 197.093L1261.87 197.516ZM1247.44 207.652L1247.18 207.076L1247.17 207.078L1247.44 207.652ZM1192.15 203.249L1191.83 203.795L1191.83 203.797L1192.15 203.249ZM1168.8 177.653L1168.24 177.937L1168.24 177.941L1168.8 177.653ZM1168.8 91.1353L1168.24 90.859L1168.23 90.8604L1168.8 91.1353ZM1192.25 64.0027L1192.59 64.5388L1192.59 64.5372L1192.25 64.0027ZM1247.85 59.3952L1247.55 59.9543L1247.56 59.9582L1247.85 59.3952ZM1262.18 70.5555L1261.69 70.9542L1261.69 70.9579L1262.18 70.5555ZM1270.27 82.7395L1269.7 83.0141L1269.87 83.3718H1270.27V82.7395ZM1272.32 82.7395V83.3718H1272.95V82.7395H1272.32ZM1272.32 56.7332V56.1009H1271.69V56.7332H1272.32ZM1308.87 56.7332H1309.5V56.1009H1308.87V56.7332ZM1299.25 249.938L1299.76 250.31L1299.76 250.31L1299.25 249.938ZM1272.93 269.699L1273.16 270.287L1273.16 270.287L1272.93 269.699ZM1255.42 176.936L1255.06 176.416L1255.06 176.416L1255.42 176.936ZM1268.02 108.644L1267.43 108.866L1267.43 108.871L1268.02 108.644ZM1255.53 91.3401L1255.14 91.8429L1255.15 91.8481L1255.53 91.3401ZM1214.67 91.5448L1214.29 91.0457L1214.29 91.0457L1214.67 91.5448ZM1202.18 109.258L1202.77 109.48L1202.77 109.479L1202.18 109.258ZM1202.18 159.94L1201.59 160.168L1201.6 160.174L1202.18 159.94ZM1214.78 176.731L1214.4 177.242L1214.41 177.247L1214.78 176.731ZM1235.05 276.251V275.619C1221.79 275.619 1210.44 273.817 1200.97 270.234L1200.75 270.825L1200.53 271.416C1210.17 275.068 1221.68 276.884 1235.05 276.884V276.251ZM1200.75 270.825L1200.97 270.232C1191.48 266.709 1183.89 261.977 1178.17 256.051L1177.71 256.491L1177.26 256.93C1183.14 263.018 1190.9 267.842 1200.53 271.418L1200.75 270.825ZM1177.71 256.491L1178.17 256.051C1172.43 250.109 1168.46 243.539 1166.23 236.339L1165.63 236.525L1165.03 236.712C1167.31 244.119 1171.39 250.859 1177.26 256.93L1177.71 256.491ZM1165.63 236.525L1165.78 237.14L1199.16 229.051L1199.01 228.437L1198.86 227.822L1165.48 235.911L1165.63 236.525ZM1199.01 228.437L1198.44 228.714C1199.98 231.855 1202.2 234.945 1205.1 237.986L1205.56 237.549L1206.02 237.112C1203.19 234.146 1201.04 231.161 1199.58 228.159L1199.01 228.437ZM1205.56 237.549L1205.1 237.98C1208.04 241.133 1211.98 243.705 1216.89 245.711L1217.13 245.126L1217.37 244.54C1212.59 242.587 1208.81 240.108 1206.02 237.118L1205.56 237.549ZM1217.13 245.126L1216.89 245.709C1221.9 247.799 1228.17 248.83 1235.66 248.83V248.197V247.565C1228.28 247.565 1222.19 246.548 1217.37 244.542L1217.13 245.126ZM1235.66 248.197V248.83C1246.28 248.83 1255.12 246.243 1262.15 241.026L1261.77 240.518L1261.39 240.011C1254.63 245.032 1246.07 247.565 1235.66 247.565V248.197ZM1261.77 240.518L1262.15 241.028C1269.26 235.819 1272.75 227.263 1272.75 215.536H1272.11H1271.48C1271.48 227.016 1268.08 235.116 1261.4 240.008L1261.77 240.518ZM1272.11 215.536H1272.75V185.741H1272.11H1271.48V215.536H1272.11ZM1272.11 185.741V185.109H1270.27V185.741V186.373H1272.11V185.741ZM1270.27 185.741L1269.7 185.458C1267.83 189.216 1265.06 193.093 1261.41 197.089L1261.87 197.516L1262.34 197.943C1266.06 193.883 1268.89 189.911 1270.84 186.024L1270.27 185.741ZM1261.87 197.516L1261.4 197.093C1257.86 201.043 1253.12 204.374 1247.18 207.076L1247.44 207.652L1247.7 208.228C1253.77 205.469 1258.66 202.043 1262.34 197.938L1261.87 197.516ZM1247.44 207.652L1247.17 207.078C1241.34 209.758 1233.97 211.115 1225.01 211.115V211.747V212.38C1234.08 212.38 1241.66 211.006 1247.7 208.226L1247.44 207.652ZM1225.01 211.747V211.115C1213.04 211.115 1202.19 208.308 1192.46 202.702L1192.15 203.249L1191.83 203.797C1201.76 209.522 1212.83 212.38 1225.01 212.38V211.747ZM1192.15 203.249L1192.47 202.704C1182.82 197.039 1175.12 188.602 1169.37 177.364L1168.8 177.653L1168.24 177.941C1174.09 189.365 1181.95 197.993 1191.83 203.795L1192.15 203.249ZM1168.8 177.653L1169.37 177.368C1163.69 166.082 1160.84 151.921 1160.84 134.855H1160.2H1159.57C1159.57 152.054 1162.45 166.424 1168.24 177.937L1168.8 177.653ZM1160.2 134.855H1160.84C1160.84 117.652 1163.69 103.179 1169.37 91.4102L1168.8 91.1353L1168.23 90.8604C1162.45 102.845 1159.57 117.518 1159.57 134.855H1160.2ZM1168.8 91.1353L1169.37 91.4115C1175.13 79.5573 1182.87 70.6103 1192.59 64.5388L1192.25 64.0027L1191.92 63.4665C1181.97 69.6815 1174.08 78.8229 1168.24 90.859L1168.8 91.1353ZM1192.25 64.0027L1192.59 64.5372C1202.31 58.3921 1213.15 55.3177 1225.12 55.3177V54.6854V54.0531C1212.92 54.0531 1201.85 57.1902 1191.91 63.4682L1192.25 64.0027ZM1225.12 54.6854V55.3177C1234.27 55.3177 1241.73 56.877 1247.55 59.9542L1247.85 59.3952L1248.14 58.8363C1242.09 55.6337 1234.4 54.0531 1225.12 54.0531V54.6854ZM1247.85 59.3952L1247.56 59.9582C1253.5 62.9976 1258.21 66.6661 1261.69 70.9542L1262.18 70.5555L1262.67 70.1567C1259.06 65.7078 1254.2 61.9361 1248.14 58.8323L1247.85 59.3952ZM1262.18 70.5555L1261.69 70.9579C1265.22 75.2305 1267.89 79.2491 1269.7 83.0141L1270.27 82.7395L1270.84 82.4649C1268.97 78.585 1266.24 74.4809 1262.67 70.153L1262.18 70.5555ZM1270.27 82.7395V83.3718H1272.32V82.7395V82.1073H1270.27V82.7395ZM1272.32 82.7395H1272.95V56.7332H1272.32H1271.69V82.7395H1272.32ZM1272.32 56.7332V57.3655H1308.87V56.7332V56.1009H1272.32V56.7332ZM1308.87 56.7332H1308.24V216.56H1308.87H1309.5V56.7332H1308.87ZM1308.87 216.56H1308.24C1308.24 229.905 1305.06 240.892 1298.73 249.566L1299.25 249.938L1299.76 250.31C1306.27 241.374 1309.5 230.109 1309.5 216.56H1308.87ZM1299.25 249.938L1298.73 249.566C1292.4 258.264 1283.73 264.781 1272.7 269.11L1272.93 269.699L1273.16 270.287C1284.39 265.879 1293.26 259.222 1299.76 250.31L1299.25 249.938ZM1272.93 269.699L1272.7 269.11C1261.66 273.445 1249.11 275.619 1235.05 275.619V276.251V276.884C1249.24 276.884 1261.95 274.689 1273.16 270.287L1272.93 269.699ZM1235.36 182.669V183.302C1243.31 183.302 1250.13 181.363 1255.78 177.456L1255.42 176.936L1255.06 176.416C1249.66 180.153 1243.1 182.037 1235.36 182.037V182.669ZM1255.42 176.936L1255.78 177.456C1261.43 173.553 1265.7 167.951 1268.6 160.686L1268.02 160.451L1267.43 160.217C1264.6 167.286 1260.48 172.674 1255.06 176.416L1255.42 176.936ZM1268.02 160.451L1268.6 160.686C1271.51 153.426 1272.95 144.741 1272.95 134.65H1272.32H1271.69C1271.69 144.626 1270.26 153.143 1267.43 160.217L1268.02 160.451ZM1272.32 134.65H1272.95C1272.95 124.693 1271.51 115.944 1268.61 108.416L1268.02 108.644L1267.43 108.871C1270.26 116.223 1271.69 124.812 1271.69 134.65H1272.32ZM1268.02 108.644L1268.61 108.421C1265.77 100.885 1261.54 95.0106 1255.9 90.832L1255.53 91.3401L1255.15 91.8481C1260.57 95.8605 1264.66 101.522 1267.43 108.866L1268.02 108.644ZM1255.53 91.3401L1255.91 90.8373C1250.32 86.5763 1243.46 84.4622 1235.36 84.4622V85.0944V85.7267C1243.23 85.7267 1249.81 87.7763 1255.14 91.8429L1255.53 91.3401ZM1235.36 85.0944V84.4622C1226.98 84.4622 1219.94 86.6444 1214.29 91.0457L1214.67 91.5448L1215.06 92.0439C1220.46 87.8448 1227.21 85.7267 1235.36 85.7267V85.0944ZM1214.67 91.5448L1214.29 91.0457C1208.65 95.4279 1204.42 101.435 1201.59 109.037L1202.18 109.258L1202.77 109.479C1205.54 102.064 1209.64 96.2623 1215.06 92.0439L1214.67 91.5448ZM1202.18 109.258L1201.59 109.035C1198.76 116.559 1197.35 125.1 1197.35 134.65H1197.98H1198.62C1198.62 125.224 1200.01 116.837 1202.77 109.48L1202.18 109.258ZM1197.98 134.65H1197.35C1197.35 144.334 1198.76 152.844 1201.59 160.168L1202.18 159.94L1202.77 159.711C1200.01 152.564 1198.62 144.214 1198.62 134.65H1197.98ZM1202.18 159.94L1201.6 160.174C1204.5 167.437 1208.77 173.136 1214.4 177.242L1214.78 176.731L1215.15 176.22C1209.73 172.271 1205.6 166.776 1202.77 159.705L1202.18 159.94ZM1214.78 176.731L1214.41 177.247C1220.13 181.295 1227.13 183.302 1235.36 183.302V182.669V182.037C1227.34 182.037 1220.61 180.085 1215.14 176.215L1214.78 176.731ZM1339.23 211.85L1338.97 212.425L1338.98 212.428L1339.23 211.85ZM1320.39 195.877L1319.86 196.222L1319.87 196.226L1320.39 195.877ZM1318.45 147.858L1317.9 147.547L1317.9 147.547L1318.45 147.858ZM1331.86 133.933L1331.53 133.394L1331.53 133.394L1331.86 133.933ZM1351.01 126.049L1351.16 126.663L1351.17 126.662L1351.01 126.049ZM1373.23 122.056L1373.16 121.427L1373.16 121.428L1373.23 122.056ZM1395.65 119.497L1395.73 120.124L1395.74 120.122L1395.65 119.497ZM1408.14 115.811L1408.48 116.345L1408.48 116.343L1408.14 115.811ZM1405.27 89.3947L1405.7 88.9306L1405.7 88.9306L1405.27 89.3947ZM1363.91 88.9852L1363.53 88.4778L1363.53 88.4801L1363.91 88.9852ZM1353.26 103.012L1353.17 103.638L1353.69 103.712L1353.86 103.217L1353.26 103.012ZM1318.65 98.0976L1318.05 97.9239L1317.85 98.6216L1318.57 98.7236L1318.65 98.0976ZM1332.17 74.139L1332.62 74.5813L1332.62 74.5789L1332.17 74.139ZM1355.21 59.6L1355.42 60.1962L1355.42 60.1948L1355.21 59.6ZM1428.52 66.1528L1428.17 66.6807L1428.17 66.6833L1428.52 66.1528ZM1443.46 82.6371L1442.91 82.9372L1442.91 82.9414L1443.46 82.6371ZM1449.2 214V214.632H1449.83V214H1449.2ZM1413.57 214H1412.93V214.632H1413.57V214ZM1413.57 192.396H1414.2V191.764H1413.57V192.396ZM1412.34 192.396V191.764H1411.95L1411.78 192.107L1412.34 192.396ZM1402.82 204.683L1403.25 205.145L1403.25 205.145L1402.82 204.683ZM1387.56 213.795L1387.78 214.388L1387.78 214.387L1387.56 213.795ZM1395.14 185.536L1395.44 186.093L1395.44 186.09L1395.14 185.536ZM1407.73 173.659L1407.19 173.33L1407.19 173.335L1407.73 173.659ZM1412.24 139.053H1412.87V137.713L1411.83 138.564L1412.24 139.053ZM1406.3 141.715L1406.12 141.108L1406.12 141.109L1406.3 141.715ZM1397.08 143.865L1397.19 144.487L1397.19 144.487L1397.08 143.865ZM1378.24 146.732L1378.33 147.358L1378.33 147.358L1378.24 146.732ZM1363.4 150.418L1363.17 149.829L1363.17 149.829L1363.4 150.418ZM1353.06 157.585L1353.54 157.992L1353.54 157.986L1353.06 157.585ZM1356.74 184.717L1356.38 185.236L1356.38 185.236L1356.74 184.717ZM1366.16 217.174V216.542C1356.27 216.542 1347.39 214.781 1339.49 211.272L1339.23 211.85L1338.98 212.428C1347.05 216.018 1356.12 217.806 1366.16 217.806V217.174ZM1339.23 211.85L1339.5 211.275C1331.68 207.705 1325.5 202.457 1320.92 195.529L1320.39 195.877L1319.87 196.226C1324.58 203.359 1330.95 208.76 1338.97 212.425L1339.23 211.85ZM1320.39 195.877L1320.92 195.533C1316.43 188.626 1314.17 180.084 1314.17 169.871H1313.53H1312.9C1312.9 180.272 1315.21 189.068 1319.86 196.222L1320.39 195.877ZM1313.53 169.871H1314.17C1314.17 161.072 1315.79 153.849 1319 148.169L1318.45 147.858L1317.9 147.547C1314.55 153.47 1312.9 160.923 1312.9 169.871H1313.53ZM1318.45 147.858L1319 148.169C1322.22 142.46 1326.62 137.897 1332.19 134.472L1331.86 133.933L1331.53 133.394C1325.77 136.932 1321.23 141.652 1317.9 147.547L1318.45 147.858ZM1331.86 133.933L1332.19 134.472C1337.8 131.028 1344.12 128.423 1351.16 126.663L1351.01 126.049L1350.86 125.436C1343.7 127.225 1337.26 129.876 1331.53 133.394L1331.86 133.933ZM1351.01 126.049L1351.17 126.662C1358.3 124.827 1365.68 123.501 1373.29 122.685L1373.23 122.056L1373.16 121.428C1365.49 122.25 1358.05 123.586 1350.85 125.437L1351.01 126.049ZM1373.23 122.056L1373.29 122.685C1382.51 121.729 1389.99 120.875 1395.73 120.123L1395.65 119.497L1395.57 118.87C1389.84 119.619 1382.37 120.472 1373.16 121.427L1373.23 122.056ZM1395.65 119.497L1395.74 120.122C1401.5 119.3 1405.77 118.057 1408.48 116.345L1408.14 115.811L1407.8 115.276C1405.33 116.841 1401.27 118.055 1395.56 118.871L1395.65 119.497ZM1408.14 115.811L1408.48 116.343C1411.35 114.504 1412.77 111.66 1412.77 107.927H1412.13H1411.5C1411.5 111.292 1410.26 113.704 1407.8 115.278L1408.14 115.811ZM1412.13 107.927H1412.77V107.312H1412.13H1411.5V107.927H1412.13ZM1412.13 107.312H1412.77C1412.77 99.4681 1410.44 93.3098 1405.7 88.9306L1405.27 89.3947L1404.84 89.8588C1409.26 93.9437 1411.5 99.7305 1411.5 107.312H1412.13ZM1405.27 89.3947L1405.7 88.9306C1400.97 84.5551 1394.21 82.4144 1385.51 82.4144V83.0467V83.679C1394.02 83.679 1400.43 85.7703 1404.84 89.8588L1405.27 89.3947ZM1385.51 83.0467V82.4144C1376.35 82.4144 1369 84.4126 1363.53 88.4778L1363.91 88.9852L1364.29 89.4925C1369.47 85.6398 1376.52 83.679 1385.51 83.679V83.0467ZM1363.91 88.9852L1363.53 88.4801C1358.19 92.5031 1354.55 97.2779 1352.66 102.808L1353.26 103.012L1353.86 103.217C1355.66 97.9618 1359.12 93.3852 1364.29 89.4902L1363.91 88.9852ZM1353.26 103.012L1353.35 102.386L1318.74 97.4716L1318.65 98.0976L1318.57 98.7236L1353.17 103.638L1353.26 103.012ZM1318.65 98.0976L1319.26 98.2713C1321.97 88.8053 1326.42 80.9146 1332.62 74.5813L1332.17 74.139L1331.72 73.6967C1325.36 80.196 1320.8 88.2777 1318.05 97.9239L1318.65 98.0976ZM1332.17 74.139L1332.62 74.5789C1338.83 68.1692 1346.42 63.374 1355.42 60.1962L1355.21 59.6L1355 59.0039C1345.83 62.2423 1338.07 67.1397 1331.72 73.6991L1332.17 74.139ZM1355.21 59.6L1355.42 60.1948C1364.42 56.9464 1374.38 55.3177 1385.31 55.3177V54.6854V54.0531C1374.26 54.0531 1364.15 55.7009 1354.99 59.0053L1355.21 59.6ZM1385.31 54.6854V55.3177C1392.84 55.3177 1400.33 56.1992 1407.79 57.9628L1407.94 57.3475L1408.08 56.7322C1400.53 54.9464 1392.93 54.0531 1385.31 54.0531V54.6854ZM1407.94 57.3475L1407.79 57.9628C1415.23 59.7211 1422.02 62.6275 1428.17 66.6807L1428.52 66.1528L1428.86 65.6249C1422.59 61.4871 1415.66 58.5233 1408.08 56.7322L1407.94 57.3475ZM1428.52 66.1528L1428.17 66.6833C1434.29 70.6489 1439.2 76.0617 1442.91 82.9372L1443.46 82.6371L1444.02 82.3371C1440.22 75.2879 1435.17 69.7112 1428.86 65.6223L1428.52 66.1528ZM1443.46 82.6371L1442.91 82.9414C1446.67 89.7857 1448.57 98.3764 1448.57 108.746H1449.2H1449.83C1449.83 98.2284 1447.91 89.4132 1444.02 82.3329L1443.46 82.6371ZM1449.2 108.746H1448.57V214H1449.2H1449.83V108.746H1449.2ZM1449.2 214V213.368H1413.57V214V214.632H1449.2V214ZM1413.57 214H1414.2V192.396H1413.57H1412.93V214H1413.57ZM1413.57 192.396V191.764H1412.34V192.396V193.029H1413.57V192.396ZM1412.34 192.396L1411.78 192.107C1409.56 196.402 1406.43 200.441 1402.39 204.221L1402.82 204.683L1403.25 205.145C1407.39 201.28 1410.61 197.127 1412.9 192.686L1412.34 192.396ZM1402.82 204.683L1402.39 204.22C1398.43 207.909 1393.42 210.907 1387.34 213.204L1387.56 213.795L1387.78 214.387C1393.99 212.042 1399.15 208.965 1403.25 205.145L1402.82 204.683ZM1387.56 213.795L1387.34 213.202C1381.35 215.423 1374.3 216.542 1366.16 216.542V217.174V217.806C1374.41 217.806 1381.62 216.673 1387.78 214.388L1387.56 213.795ZM1375.79 189.939V190.571C1383.31 190.571 1389.87 189.087 1395.44 186.093L1395.14 185.536L1394.84 184.979C1389.49 187.856 1383.14 189.307 1375.79 189.307V189.939ZM1395.14 185.536L1395.44 186.09C1400.99 183.038 1405.28 179.003 1408.27 173.984L1407.73 173.659L1407.19 173.335C1404.32 178.145 1400.2 182.028 1394.83 184.982L1395.14 185.536ZM1407.73 173.659L1408.27 173.989C1411.34 168.974 1412.87 163.502 1412.87 157.585H1412.24H1411.6C1411.6 163.271 1410.13 168.515 1407.19 173.33L1407.73 173.659ZM1412.24 157.585H1412.87V139.053H1412.24H1411.6V157.585H1412.24ZM1412.24 139.053L1411.83 138.564C1410.78 139.436 1408.9 140.294 1406.12 141.108L1406.3 141.715L1406.48 142.321C1409.29 141.497 1411.38 140.581 1412.64 139.541L1412.24 139.053ZM1406.3 141.715L1406.12 141.109C1403.41 141.92 1400.37 142.631 1396.97 143.242L1397.08 143.865L1397.19 144.487C1400.63 143.869 1403.72 143.147 1406.48 142.32L1406.3 141.715ZM1397.08 143.865L1396.97 143.242C1393.57 143.855 1390.19 144.4 1386.86 144.877L1386.95 145.503L1387.04 146.129C1390.39 145.65 1393.77 145.103 1397.19 144.487L1397.08 143.865ZM1386.95 145.503L1386.86 144.877C1383.51 145.355 1380.61 145.764 1378.16 146.105L1378.24 146.732L1378.33 147.358C1380.79 147.016 1383.69 146.607 1387.04 146.129L1386.95 145.503ZM1378.24 146.732L1378.16 146.105C1372.59 146.861 1367.59 148.101 1363.17 149.829L1363.4 150.418L1363.63 151.006C1367.94 149.321 1372.84 148.103 1378.33 147.358L1378.24 146.732ZM1363.4 150.418L1363.17 149.829C1358.72 151.567 1355.17 154.014 1352.57 157.183L1353.06 157.585L1353.54 157.986C1355.99 155.012 1359.34 152.681 1363.63 151.006L1363.4 150.418ZM1353.06 157.585L1352.57 157.178C1349.93 160.318 1348.64 164.363 1348.64 169.257H1349.27H1349.9C1349.9 164.594 1351.13 160.858 1353.54 157.992L1353.06 157.585ZM1349.27 169.257H1348.64C1348.64 176.26 1351.21 181.62 1356.38 185.236L1356.74 184.717L1357.1 184.199C1352.31 180.852 1349.9 175.906 1349.9 169.257H1349.27ZM1356.74 184.717L1356.38 185.236C1361.49 188.809 1367.98 190.571 1375.79 190.571V189.939V189.307C1368.17 189.307 1361.96 187.588 1357.1 184.199L1356.74 184.717Z" fill="#343434" mask="url(#path-1-outside-1_527_3500)"/>
<defs>
<linearGradient id="paint0_linear_527_3500" x1="564.53" y1="69.8209" x2="563.999" y2="214.002" gradientUnits="userSpaceOnUse">
<stop stop-color="#1D1D1D"/>
<stop offset="1" stop-color="#161616"/>
</linearGradient>
</defs>
</svg>
