<svg width="49" height="49" viewBox="0 0 49 49" fill="none" xmlns="http://www.w3.org/2000/svg">
<path d="M44.5222 1H4.80782C2.97655 1 1.49829 2.47826 1.49829 4.30953V14.6132C1.49829 16.4445 2.97655 17.9227 4.80782 17.9227H23.5618V27.5866C18.6196 28.1382 14.7364 32.3082 14.7364 37.4048C14.7364 42.8766 19.1932 47.3334 24.665 47.3334C30.1368 47.3334 34.5936 42.8766 34.5936 37.4048C34.5936 32.3082 30.7104 28.1382 25.7682 27.5866V17.9227H44.5222C46.3535 17.9227 47.8317 16.4445 47.8317 14.6132V4.30953C47.8317 2.47826 46.3535 1 44.5222 1ZM24.665 45.1271C22.8779 45.1271 21.2452 44.4872 19.9213 43.4502C20.164 43.0531 20.4288 42.656 20.7598 42.325C22.8558 40.229 26.4742 40.229 28.5482 42.325C28.8791 42.656 29.1439 43.0531 29.3866 43.4502C28.0849 44.4872 26.4522 45.1271 24.6429 45.1271H24.665ZM22.4587 36.3017C22.4587 35.0882 23.4515 34.0953 24.665 34.0953C25.8785 34.0953 26.8714 35.0882 26.8714 36.3017C26.8714 37.5152 25.8785 38.508 24.665 38.508C23.4515 38.508 22.4587 37.5152 22.4587 36.3017ZM32.3872 37.4048C32.3872 39.0596 31.8577 40.582 30.9752 41.8396C30.7325 41.4645 30.4457 41.0894 30.1368 40.7806C29.4969 40.1407 28.7247 39.6553 27.9083 39.2802C28.6364 38.486 29.0998 37.449 29.0998 36.3017C29.0998 33.8747 27.1141 31.889 24.6871 31.889C22.2601 31.889 20.2744 33.8747 20.2744 36.3017C20.2744 37.449 20.7377 38.486 21.4658 39.2802C20.6494 39.6333 19.8772 40.1187 19.2374 40.7806C18.9064 41.1115 18.6417 41.4645 18.399 41.8396C17.5164 40.582 16.9869 39.0596 16.9869 37.4048C16.9869 33.1466 20.4509 29.6826 24.7091 29.6826C28.9674 29.6826 32.4314 33.1466 32.4314 37.4048H32.3872ZM45.6254 14.6132C45.6254 15.231 45.14 15.7164 44.5222 15.7164H4.80782C4.19004 15.7164 3.70464 15.231 3.70464 14.6132V4.30953C3.70464 3.69175 4.19004 3.20635 4.80782 3.20635H44.5222C45.14 3.20635 45.6254 3.69175 45.6254 4.30953V14.6132Z" fill="#379BFD"/>
<path d="M9.22064 11.6566C10.4392 11.6566 11.427 10.6688 11.427 9.45025C11.427 8.23171 10.4392 7.2439 9.22064 7.2439C8.0021 7.2439 7.01428 8.23171 7.01428 9.45025C7.01428 10.6688 8.0021 11.6566 9.22064 11.6566Z" fill="#379BFD"/>
<path d="M42.3159 8.34705H24.6651C24.0473 8.34705 23.5619 8.83244 23.5619 9.45022C23.5619 10.068 24.0473 10.5534 24.6651 10.5534H42.3159C42.9337 10.5534 43.4191 10.068 43.4191 9.45022C43.4191 8.83244 42.9337 8.34705 42.3159 8.34705Z" fill="#379BFD"/>
</svg>
