<svg width="49" height="49" viewBox="0 0 49 49" fill="none" xmlns="http://www.w3.org/2000/svg">
<g clip-path="url(#clip0_75_610)">
<path d="M42.5954 34.5226C39.9227 34.5226 37.6715 36.3594 37.0365 38.8367H35.9173C35.3037 38.8367 34.8048 38.3378 34.8048 37.7242V30.8137H39.176C44.2253 30.8137 48.3332 26.7058 48.3332 21.6565C48.3332 16.6071 44.2253 12.4992 39.176 12.4992C38.7231 12.4992 38.2725 12.5328 37.8271 12.5988C36.0832 6.58516 30.5575 2.36035 24.1666 2.36035C17.7757 2.36035 12.25 6.58516 10.5061 12.5988C10.0607 12.5324 9.61008 12.4992 9.15725 12.4992C4.10791 12.4992 0 16.6071 0 21.6561C0 26.7054 4.10791 30.8133 9.15725 30.8133H13.5284V37.7242C13.5284 38.3374 13.0295 38.8367 12.4159 38.8367H11.2968C10.6618 36.3594 8.41052 34.5226 5.7378 34.5226C2.5739 34.5226 0 37.0969 0 40.2608C0 43.4247 2.5739 45.9986 5.7378 45.9986C8.41052 45.9986 10.6618 44.1622 11.2968 41.6846H12.4159C14.5997 41.6846 16.3763 39.9079 16.3763 37.7242V30.8137H22.7425V34.7019C20.2652 35.3368 18.4288 37.5885 18.4288 40.2608C18.4288 43.4247 21.0027 45.9986 24.1666 45.9986C27.3305 45.9986 29.9044 43.4247 29.9044 40.2608C29.9044 37.5885 28.0677 35.3368 25.5907 34.7019V30.8137H31.9569V37.7242C31.9569 39.9079 33.7335 41.6846 35.9173 41.6846H37.0365C37.6715 44.1622 39.9227 45.9986 42.5954 45.9986C45.7593 45.9986 48.3332 43.4247 48.3332 40.2608C48.3332 37.0969 45.7593 34.5226 42.5954 34.5226ZM5.7378 43.1507C4.14442 43.1507 2.84788 41.8542 2.84788 40.2608C2.84788 38.6671 4.14442 37.3709 5.7378 37.3709C7.33155 37.3709 8.62772 38.6671 8.62772 40.2608C8.62772 41.8542 7.33155 43.1507 5.7378 43.1507ZM27.0565 40.2608C27.0565 41.8542 25.76 43.1507 24.1666 43.1507C22.5732 43.1507 21.2767 41.8542 21.2767 40.2608C21.2767 38.6671 22.5732 37.3709 24.1666 37.3709C25.76 37.3709 27.0565 38.6671 27.0565 40.2608ZM2.84788 21.6561C2.84788 18.1773 5.67806 15.3471 9.15725 15.3471C9.8258 15.3471 10.4873 15.4526 11.1231 15.6609C11.5147 15.7892 11.9424 15.7417 12.2964 15.5304C12.6501 15.3191 12.8949 14.9651 12.9679 14.5594C13.9415 9.14099 18.6512 5.20823 24.1666 5.20823C29.6821 5.20823 34.3918 9.14099 35.3653 14.5594C35.4383 14.9651 35.6831 15.3191 36.0368 15.5304C36.3904 15.7417 36.8185 15.7892 37.2101 15.6609C37.8459 15.4526 38.5074 15.3471 39.176 15.3471C42.6548 15.3471 45.4853 18.1773 45.4853 21.6561C45.4853 25.1353 42.6552 27.9655 39.176 27.9655H9.15725C5.67806 27.9655 2.84788 25.1353 2.84788 21.6561ZM42.5954 43.1507C41.0017 43.1507 39.7055 41.8542 39.7055 40.2608C39.7055 38.6671 41.0017 37.3705 42.5954 37.3705C44.1888 37.3705 45.4853 38.6671 45.4853 40.2608C45.4853 41.8542 44.1888 43.1507 42.5954 43.1507Z" fill="#379BFD"/>
</g>
<defs>
<clipPath id="clip0_75_610">
<rect width="48.3333" height="48.3333" fill="white"/>
</clipPath>
</defs>
</svg>
