<svg width="294" height="353" viewBox="0 0 294 353" fill="none" xmlns="http://www.w3.org/2000/svg">
<g clip-path="url(#clip0_75_640)">
<rect width="293.5" height="352" transform="translate(0 0.666626)" fill="white"/>
<rect width="293.5" height="352" transform="translate(0 0.666626)" fill="#02060A"/>
<g clip-path="url(#clip1_75_640)">
<g filter="url(#filter0_f_75_640)">
<ellipse cx="321.123" cy="991.384" rx="1569.89" ry="567.647" fill="url(#paint0_radial_75_640)"/>
</g>
<g style="mix-blend-mode:plus-lighter" filter="url(#filter1_f_75_640)">
<path d="M1224.79 996.24C1224.79 1309.74 820.207 1563.89 321.124 1563.89C-177.96 1563.89 -582.547 1309.74 -582.547 996.24C-582.547 682.737 -177.96 156.667 321.124 156.667C820.207 156.667 1224.79 682.737 1224.79 996.24Z" fill="url(#paint1_radial_75_640)"/>
</g>
<g opacity="0.4">
<g style="mix-blend-mode:color-dodge" opacity="0.5" filter="url(#filter2_f_75_640)">
<path d="M228.565 -243.333L417.041 -134.517L174.889 284.904L-13.5877 176.087L228.565 -243.333Z" fill="url(#paint2_linear_75_640)"/>
</g>
</g>
<g opacity="0.5">
<g style="mix-blend-mode:overlay">
<circle cx="146.388" cy="187.81" r="0.989212" transform="rotate(-162.581 146.388 187.81)" fill="white"/>
</g>
<circle cx="136.347" cy="168.591" r="0.494862" transform="rotate(-162.581 136.347 168.591)" fill="white"/>
<g style="mix-blend-mode:overlay">
<circle cx="109.401" cy="201.605" r="0.494862" transform="rotate(-162.581 109.401 201.605)" fill="white"/>
</g>
<circle cx="100.914" cy="112.88" r="0.494862" transform="rotate(-162.581 100.914 112.88)" fill="white"/>
<g style="mix-blend-mode:overlay">
<circle cx="113.253" cy="136.46" r="0.494862" transform="rotate(-162.581 113.253 136.46)" fill="white"/>
</g>
<g style="mix-blend-mode:overlay">
<circle cx="113.373" cy="160.861" r="0.989212" transform="rotate(-162.581 113.373 160.861)" fill="white"/>
</g>
<circle cx="108.604" cy="182.681" r="0.989212" transform="rotate(-162.581 108.604 182.681)" fill="white"/>
<g style="mix-blend-mode:overlay">
<circle cx="87.8508" cy="133.157" r="0.989212" transform="rotate(-162.581 87.8508 133.157)" fill="white"/>
</g>
<g style="mix-blend-mode:overlay">
<circle cx="143.454" cy="145.938" r="0.494862" transform="rotate(-162.581 143.454 145.938)" fill="white"/>
</g>
<circle cx="119.62" cy="142.605" r="0.494862" transform="rotate(-162.581 119.62 142.605)" fill="white"/>
<circle cx="98.3512" cy="158.674" r="0.494862" transform="rotate(-162.581 98.3512 158.674)" fill="white"/>
<g style="mix-blend-mode:overlay">
<circle cx="115.325" cy="182.729" r="0.494862" transform="rotate(-162.581 115.325 182.729)" fill="white"/>
</g>
<g style="mix-blend-mode:overlay">
<circle cx="145.564" cy="127.181" r="1.0029" transform="rotate(-96.01 145.564 127.181)" fill="white"/>
</g>
<g style="mix-blend-mode:overlay">
<circle cx="159.398" cy="110.09" r="0.501709" transform="rotate(-96.01 159.398 110.09)" fill="white"/>
</g>
<g style="mix-blend-mode:overlay">
<circle cx="117.819" cy="98.3336" r="0.501709" transform="rotate(-96.01 117.819 98.3336)" fill="white"/>
</g>
<g style="mix-blend-mode:overlay">
<circle cx="145.537" cy="55.0796" r="0.501709" transform="rotate(-96.01 145.537 55.0796)" fill="white"/>
</g>
<circle cx="179.973" cy="75.654" r="0.501709" transform="rotate(-96.01 179.973 75.654)" fill="white"/>
<g style="mix-blend-mode:overlay">
<circle cx="157.323" cy="85.6051" r="1.0029" transform="rotate(-96.01 157.323 85.6051)" fill="white"/>
</g>
<g style="mix-blend-mode:overlay">
<circle cx="122.886" cy="65.0288" r="1.0029" transform="rotate(-96.01 122.886 65.0288)" fill="white"/>
</g>
<circle cx="172.805" cy="50.6948" r="1.0029" transform="rotate(-96.01 172.805 50.6948)" fill="white"/>
<circle cx="183.332" cy="107.571" r="0.501709" transform="rotate(-96.01 183.332 107.571)" fill="white"/>
<circle cx="176.824" cy="84.0553" r="0.501709" transform="rotate(-96.01 176.824 84.0553)" fill="white"/>
<g style="mix-blend-mode:overlay">
<circle cx="123.279" cy="73.5592" r="0.501709" transform="rotate(-96.01 123.279 73.5592)" fill="white"/>
</g>
<g style="mix-blend-mode:overlay">
<circle cx="137.768" cy="96.234" r="0.501709" transform="rotate(-96.01 137.768 96.234)" fill="white"/>
</g>
<circle cx="230.462" cy="14.6104" r="1.09443" transform="rotate(-157.587 230.462 14.6104)" fill="white"/>
<circle cx="194.762" cy="29.1185" r="0.547496" transform="rotate(-157.587 194.762 29.1185)" fill="white"/>
<circle cx="157.864" cy="7.75517" r="1.09443" transform="rotate(-157.587 157.864 7.75517)" fill="white"/>
<circle cx="173.819" cy="11.0101" r="0.547496" transform="rotate(-157.587 173.819 11.0101)" fill="white"/>
<circle cx="203.107" cy="8.88314" r="0.547496" transform="rotate(-157.587 203.107 8.88314)" fill="white"/>
<g style="mix-blend-mode:overlay">
<circle cx="263.517" cy="136.998" r="1.21318" transform="rotate(143.542 263.517 136.998)" fill="white"/>
</g>
<g style="mix-blend-mode:overlay">
<circle cx="237.219" cy="133.047" r="0.606906" transform="rotate(143.542 237.219 133.047)" fill="white"/>
</g>
<g style="mix-blend-mode:overlay">
<circle cx="250.44" cy="183.612" r="0.606906" transform="rotate(143.542 250.44 183.612)" fill="white"/>
</g>
<g style="mix-blend-mode:overlay">
<circle cx="188.343" cy="181.224" r="0.606906" transform="rotate(143.542 188.343 181.224)" fill="white"/>
</g>
<g style="mix-blend-mode:overlay">
<circle cx="188.692" cy="132.699" r="0.606906" transform="rotate(143.542 188.692 132.699)" fill="white"/>
</g>
<g style="mix-blend-mode:overlay">
<circle cx="212.952" cy="150.221" r="1.21318" transform="rotate(143.542 212.952 150.221)" fill="white"/>
</g>
<circle cx="195.615" cy="200.899" r="1.21318" transform="rotate(143.542 195.615 200.899)" fill="white"/>
<g style="mix-blend-mode:overlay">
<circle cx="184.967" cy="153.586" r="1.21318" transform="rotate(143.542 184.967 153.586)" fill="white"/>
</g>
<g style="mix-blend-mode:overlay">
<circle cx="219.915" cy="109.631" r="0.606906" transform="rotate(143.542 219.915 109.631)" fill="white"/>
</g>
<g style="mix-blend-mode:overlay">
<circle cx="199.382" cy="130.834" r="0.606906" transform="rotate(143.542 199.382 130.834)" fill="white"/>
</g>
<circle cx="214.208" cy="174.76" r="0.606906" transform="rotate(143.542 214.208 174.76)" fill="white"/>
<g style="mix-blend-mode:overlay">
<circle cx="236.024" cy="164.099" r="0.606906" transform="rotate(143.542 236.024 164.099)" fill="white"/>
</g>
</g>
<g opacity="0.5">
<g style="mix-blend-mode:overlay">
<circle cx="146.388" cy="187.81" r="0.989212" transform="rotate(-162.581 146.388 187.81)" fill="white"/>
</g>
<circle cx="136.347" cy="168.591" r="0.494862" transform="rotate(-162.581 136.347 168.591)" fill="white"/>
<g style="mix-blend-mode:overlay">
<circle cx="109.401" cy="201.605" r="0.494862" transform="rotate(-162.581 109.401 201.605)" fill="white"/>
</g>
<circle cx="100.914" cy="112.88" r="0.494862" transform="rotate(-162.581 100.914 112.88)" fill="white"/>
<g style="mix-blend-mode:overlay">
<circle cx="113.253" cy="136.46" r="0.494862" transform="rotate(-162.581 113.253 136.46)" fill="white"/>
</g>
<g style="mix-blend-mode:overlay">
<circle cx="113.373" cy="160.861" r="0.989212" transform="rotate(-162.581 113.373 160.861)" fill="white"/>
</g>
<circle cx="108.604" cy="182.682" r="0.989212" transform="rotate(-162.581 108.604 182.682)" fill="white"/>
<g style="mix-blend-mode:overlay">
<circle cx="87.8508" cy="133.157" r="0.989212" transform="rotate(-162.581 87.8508 133.157)" fill="white"/>
</g>
<g style="mix-blend-mode:overlay">
<circle cx="143.454" cy="145.938" r="0.494862" transform="rotate(-162.581 143.454 145.938)" fill="white"/>
</g>
<circle cx="119.62" cy="142.605" r="0.494862" transform="rotate(-162.581 119.62 142.605)" fill="white"/>
<circle cx="98.3512" cy="158.674" r="0.494862" transform="rotate(-162.581 98.3512 158.674)" fill="white"/>
<g style="mix-blend-mode:overlay">
<circle cx="115.325" cy="182.729" r="0.494862" transform="rotate(-162.581 115.325 182.729)" fill="white"/>
</g>
<g style="mix-blend-mode:overlay">
<circle cx="145.564" cy="127.182" r="1.0029" transform="rotate(-96.01 145.564 127.182)" fill="white"/>
</g>
<g style="mix-blend-mode:overlay">
<circle cx="159.398" cy="110.09" r="0.501709" transform="rotate(-96.01 159.398 110.09)" fill="white"/>
</g>
<g style="mix-blend-mode:overlay">
<circle cx="117.819" cy="98.334" r="0.501709" transform="rotate(-96.01 117.819 98.334)" fill="white"/>
</g>
<g style="mix-blend-mode:overlay">
<circle cx="145.537" cy="55.08" r="0.501709" transform="rotate(-96.01 145.537 55.08)" fill="white"/>
</g>
<circle cx="179.973" cy="75.6543" r="0.501709" transform="rotate(-96.01 179.973 75.6543)" fill="white"/>
<g style="mix-blend-mode:overlay">
<circle cx="157.323" cy="85.6055" r="1.0029" transform="rotate(-96.01 157.323 85.6055)" fill="white"/>
</g>
<g style="mix-blend-mode:overlay">
<circle cx="122.886" cy="65.0292" r="1.0029" transform="rotate(-96.01 122.886 65.0292)" fill="white"/>
</g>
<circle cx="172.805" cy="50.6952" r="1.0029" transform="rotate(-96.01 172.805 50.6952)" fill="white"/>
<circle cx="183.332" cy="107.571" r="0.501709" transform="rotate(-96.01 183.332 107.571)" fill="white"/>
<circle cx="176.824" cy="84.0557" r="0.501709" transform="rotate(-96.01 176.824 84.0557)" fill="white"/>
<g style="mix-blend-mode:overlay">
<circle cx="123.279" cy="73.5596" r="0.501709" transform="rotate(-96.01 123.279 73.5596)" fill="white"/>
</g>
<g style="mix-blend-mode:overlay">
<circle cx="137.768" cy="96.2344" r="0.501709" transform="rotate(-96.01 137.768 96.2344)" fill="white"/>
</g>
<circle cx="230.462" cy="14.6108" r="1.09443" transform="rotate(-157.587 230.462 14.6108)" fill="white"/>
<circle cx="194.762" cy="29.1189" r="0.547496" transform="rotate(-157.587 194.762 29.1189)" fill="white"/>
<circle cx="157.864" cy="7.75554" r="1.09443" transform="rotate(-157.587 157.864 7.75554)" fill="white"/>
<circle cx="173.819" cy="11.0105" r="0.547496" transform="rotate(-157.587 173.819 11.0105)" fill="white"/>
<circle cx="203.107" cy="8.8835" r="0.547496" transform="rotate(-157.587 203.107 8.8835)" fill="white"/>
<g style="mix-blend-mode:overlay">
<circle cx="263.517" cy="136.999" r="1.21318" transform="rotate(143.542 263.517 136.999)" fill="white"/>
</g>
<g style="mix-blend-mode:overlay">
<circle cx="237.219" cy="133.047" r="0.606906" transform="rotate(143.542 237.219 133.047)" fill="white"/>
</g>
<g style="mix-blend-mode:overlay">
<circle cx="250.44" cy="183.613" r="0.606906" transform="rotate(143.542 250.44 183.613)" fill="white"/>
</g>
<g style="mix-blend-mode:overlay">
<circle cx="188.343" cy="181.225" r="0.606906" transform="rotate(143.542 188.343 181.225)" fill="white"/>
</g>
<g style="mix-blend-mode:overlay">
<circle cx="188.692" cy="132.699" r="0.606906" transform="rotate(143.542 188.692 132.699)" fill="white"/>
</g>
<g style="mix-blend-mode:overlay">
<circle cx="212.952" cy="150.221" r="1.21318" transform="rotate(143.542 212.952 150.221)" fill="white"/>
</g>
<circle cx="195.615" cy="200.899" r="1.21318" transform="rotate(143.542 195.615 200.899)" fill="white"/>
<g style="mix-blend-mode:overlay">
<circle cx="184.967" cy="153.587" r="1.21318" transform="rotate(143.542 184.967 153.587)" fill="white"/>
</g>
<g style="mix-blend-mode:overlay">
<circle cx="219.915" cy="109.631" r="0.606906" transform="rotate(143.542 219.915 109.631)" fill="white"/>
</g>
<g style="mix-blend-mode:overlay">
<circle cx="199.382" cy="130.834" r="0.606906" transform="rotate(143.542 199.382 130.834)" fill="white"/>
</g>
<circle cx="214.208" cy="174.761" r="0.606906" transform="rotate(143.542 214.208 174.761)" fill="white"/>
<g style="mix-blend-mode:overlay">
<circle cx="236.024" cy="164.1" r="0.606906" transform="rotate(143.542 236.024 164.1)" fill="white"/>
</g>
</g>
</g>
</g>
<defs>
<filter id="filter0_f_75_640" x="-1444.36" y="228.144" width="3530.97" height="1526.48" filterUnits="userSpaceOnUse" color-interpolation-filters="sRGB">
<feFlood flood-opacity="0" result="BackgroundImageFix"/>
<feBlend mode="normal" in="SourceGraphic" in2="BackgroundImageFix" result="shape"/>
<feGaussianBlur stdDeviation="97.7965" result="effect1_foregroundBlur_75_640"/>
</filter>
<filter id="filter1_f_75_640" x="-778.14" y="-38.9263" width="2198.53" height="1798.41" filterUnits="userSpaceOnUse" color-interpolation-filters="sRGB">
<feFlood flood-opacity="0" result="BackgroundImageFix"/>
<feBlend mode="normal" in="SourceGraphic" in2="BackgroundImageFix" result="shape"/>
<feGaussianBlur stdDeviation="97.7965" result="effect1_foregroundBlur_75_640"/>
</filter>
<filter id="filter2_f_75_640" x="-73.5877" y="-303.333" width="550.629" height="648.237" filterUnits="userSpaceOnUse" color-interpolation-filters="sRGB">
<feFlood flood-opacity="0" result="BackgroundImageFix"/>
<feBlend mode="normal" in="SourceGraphic" in2="BackgroundImageFix" result="shape"/>
<feGaussianBlur stdDeviation="30" result="effect1_foregroundBlur_75_640"/>
</filter>
<radialGradient id="paint0_radial_75_640" cx="0" cy="0" r="1" gradientUnits="userSpaceOnUse" gradientTransform="translate(321.123 607.449) rotate(-90) scale(183.712 2959.39)">
<stop offset="0.347401" stop-color="#FCFCFC"/>
<stop offset="1" stop-color="#FCFCFC" stop-opacity="0"/>
</radialGradient>
<radialGradient id="paint1_radial_75_640" cx="0" cy="0" r="1" gradientUnits="userSpaceOnUse" gradientTransform="translate(321.124 1122.01) rotate(-90) scale(693.412 2750.44)">
<stop offset="0.187016" stop-color="#17416A"/>
<stop offset="0.54104" stop-color="#2957E3"/>
</radialGradient>
<linearGradient id="paint2_linear_75_640" x1="-25.0703" y1="125.893" x2="226.893" y2="113.687" gradientUnits="userSpaceOnUse">
<stop stop-color="#22625F" stop-opacity="0"/>
<stop offset="1" stop-color="#46C8C1"/>
</linearGradient>
<clipPath id="clip0_75_640">
<rect width="293.5" height="352" fill="white" transform="translate(0 0.666626)"/>
</clipPath>
<clipPath id="clip1_75_640">
<rect width="294" height="356" fill="white" transform="translate(0 -3.33337)"/>
</clipPath>
</defs>
</svg>
