<svg width="49" height="49" viewBox="0 0 49 49" fill="none" xmlns="http://www.w3.org/2000/svg">
<path d="M13.1549 12.5252L13.7374 12.4678C14.3592 12.4065 14.9144 12.8613 14.9758 13.4839C15.0372 14.1065 14.5822 14.661 13.9597 14.7223L10.73 15.0408C10.6923 15.0446 10.6547 15.0464 10.6175 15.0464C10.042 15.0464 9.54936 14.6095 9.49159 14.0248L9.1731 10.7952C9.11175 10.1725 9.56663 9.61814 10.1893 9.55669C10.8112 9.49562 11.3663 9.95013 11.4277 10.5728L11.471 11.0122C13.4091 8.92321 15.813 7.32304 18.5444 6.32094C22.2279 4.9695 26.1606 4.83753 29.917 5.93921C30.5172 6.11526 30.8612 6.74468 30.6851 7.34503C30.5091 7.94528 29.8796 8.28926 29.2794 8.11321C23.4035 6.38976 17.2137 8.15645 13.155 12.5254L13.1549 12.5252ZM10.4877 18.2875C13.324 18.2875 15.6315 20.5938 15.6315 23.4285C15.6315 26.5616 13.8286 29.8914 10.4877 29.8914C8.83423 29.8914 7.40434 29.0487 6.46143 27.5187C5.7514 26.3665 5.34408 24.8756 5.34408 23.4284C5.34408 20.5937 7.65146 18.2874 10.4877 18.2874V18.2875ZM7.60955 23.4285C7.60955 24.798 8.31308 27.6259 10.4877 27.6259C12.473 27.6259 13.366 25.1714 13.366 23.4285C13.366 21.843 12.0748 20.553 10.4877 20.553C8.90068 20.553 7.60955 21.843 7.60955 23.4285ZM20.2205 35.3892V40.227C20.2205 41.8298 18.9165 43.1338 17.3137 43.1338H3.66197C2.05925 43.1338 0.755188 41.8298 0.755188 40.227V35.3892C0.755188 32.5633 3.19227 30.2642 6.18788 30.2642H14.7878C17.7833 30.2642 20.2205 32.5633 20.2205 35.3892ZM17.955 35.3892C17.955 33.8124 16.5342 32.5297 14.7878 32.5297H6.18788C4.44148 32.5297 3.02066 33.8124 3.02066 35.3892V40.227C3.02066 40.5806 3.30837 40.8683 3.66197 40.8683H17.3137C17.6673 40.8683 17.955 40.5806 17.955 40.227V35.3892ZM41.6465 30.3484C41.5078 29.7384 40.9012 29.3562 40.2908 29.4951L37.1254 30.2148C36.5154 30.3535 36.1333 30.9605 36.2721 31.5705C36.4107 32.1805 37.0175 32.5625 37.6278 32.424L38.1302 32.3096C34.8374 36.9038 29.2469 39.494 23.514 38.8918C22.8911 38.8274 22.3344 39.2778 22.2691 39.9C22.2038 40.5222 22.6552 41.0796 23.2774 41.1449C23.9067 41.211 24.5338 41.2433 25.1578 41.2433C31.0707 41.2433 36.6523 38.3291 40.0457 33.525L40.1574 34.0162C40.2769 34.5417 40.7438 34.8979 41.2608 34.8979C41.344 34.8979 41.4285 34.8887 41.513 34.8695C42.123 34.7308 42.5051 34.1238 42.3664 33.5138L41.6465 30.3484ZM47.5749 17.5311C47.5749 23.1353 43.0144 27.6946 37.4088 27.6946C31.8032 27.6946 27.2453 23.1353 27.2453 17.5311C27.2453 11.9269 31.8047 7.36495 37.4088 7.36495C43.0129 7.36495 47.5749 11.9254 47.5749 17.5311ZM45.3094 17.5311C45.3094 13.1746 41.7652 9.63042 37.4088 9.63042C33.0524 9.63042 29.5108 13.1746 29.5108 17.5311C29.5108 21.8876 33.0538 25.4291 37.4088 25.4291C41.7638 25.4291 45.3094 21.8861 45.3094 17.5311ZM39.635 17.1176C39.0159 16.7095 38.285 16.557 37.6402 16.4223C37.6402 16.4223 37.6401 16.4223 37.64 16.4223C36.2634 16.1311 36.2109 15.9958 36.2109 15.4708C36.2109 14.9695 36.7595 14.5459 37.4088 14.5459C37.8596 14.5459 38.2693 14.7424 38.4779 15.0589C38.8223 15.5812 39.525 15.7253 40.0471 15.3809C40.5694 15.0366 40.7136 14.334 40.3693 13.8117C39.9407 13.1619 39.2939 12.6903 38.5415 12.4533V12.1448C38.5415 11.5193 38.0343 11.0121 37.4088 11.0121C36.7832 11.0121 36.276 11.5193 36.276 12.1448V12.4566C34.9211 12.89 33.9454 14.077 33.9454 15.4708C33.9454 16.8383 34.6182 17.5693 35.1826 17.9418C35.7988 18.3484 36.5289 18.5028 37.1744 18.6393C37.1753 18.6393 37.1764 18.6398 37.1773 18.64C38.5542 18.9273 38.6066 19.0625 38.6066 19.5888C38.6066 20.0916 38.058 20.5164 37.4089 20.5164C36.959 20.5164 36.5494 20.3188 36.3397 20.0007C35.9952 19.4784 35.2926 19.3344 34.7704 19.6786C34.2482 20.023 34.1039 20.7255 34.4483 21.2478C34.8774 21.8986 35.5243 22.3709 36.2761 22.6084V22.9147C36.2761 23.5403 36.7833 24.0475 37.4089 24.0475C38.0344 24.0475 38.5416 23.5403 38.5416 22.9147V22.6055C39.8965 22.1718 40.8721 20.9837 40.8721 19.5888C40.8721 18.2203 40.1994 17.4896 39.6351 17.1175L39.635 17.1176Z" fill="#379BFD"/>
</svg>
