<svg width="49" height="49" viewBox="0 0 49 49" fill="none" xmlns="http://www.w3.org/2000/svg">
<g clip-path="url(#clip0_75_624)">
<path d="M37.8508 31.6967C43.7228 31.6967 48.5 26.9195 48.5 21.0476C48.5 15.1757 43.7228 10.3984 37.8508 10.3984H37.8402C37.5853 10.4004 37.33 10.4117 37.0752 10.4322C34.2761 3.97403 26.9248 0.61637 20.1331 2.89862C16.4613 4.13237 13.4641 6.90531 11.9262 10.4323C11.671 10.4117 11.4151 10.4004 11.1597 10.3984H11.1491C5.27722 10.3984 0.5 15.1757 0.5 21.0476C0.5 26.9195 5.27722 31.6967 11.1492 31.6967H23.0938V37.9544C21.8971 38.3788 20.9475 39.3284 20.5231 40.525H7.8125V43.3375H20.5231C21.1036 44.9743 22.6667 46.15 24.5 46.15C26.3333 46.15 27.8964 44.9743 28.4769 43.3375H41.1875V40.525H28.4769C28.0525 39.3284 27.1029 38.3788 25.9062 37.9544V31.6967H37.8508ZM24.5 43.3375C23.7246 43.3375 23.0938 42.7067 23.0938 41.9312C23.0938 41.1558 23.7246 40.525 24.5 40.525C25.2754 40.525 25.9062 41.1558 25.9062 41.9312C25.9062 42.7067 25.2754 43.3375 24.5 43.3375ZM3.3125 21.0476C3.3125 16.7283 6.82484 13.2139 11.1434 13.2109C11.62 13.2149 12.0988 13.2634 12.567 13.3551L13.7776 13.5924L14.1705 12.4231C15.2507 9.20856 17.8146 6.64468 21.029 5.56459C26.7246 3.65059 32.9157 6.72728 34.8296 12.4231L35.2225 13.5924L36.4331 13.3551C36.9013 13.2633 37.3801 13.2149 37.8567 13.2109C42.1753 13.2139 45.6876 16.7283 45.6876 21.0476C45.6876 25.3687 42.1721 28.8842 37.8509 28.8842H11.1492C6.82803 28.8842 3.3125 25.3687 3.3125 21.0476Z" fill="#379BFD"/>
<path d="M38.8438 16.5255H36.0312V20.9204L32.6934 16.4321L30.2188 16.4314V26.088H33.0312V21.5996L36.3692 26.088H38.8438V16.5255Z" fill="#379BFD"/>
<path d="M14.5447 20.8506L12.8918 16.0662L10.2334 16.9846L13.3818 26.0981H15.7655L18.7924 16.9838L16.1232 16.0974L14.5447 20.8506Z" fill="#379BFD"/>
<path d="M24.5533 16.4314H20.8418V26.0876H23.6543V23.9314H24.5622C26.6481 23.9182 28.3451 22.2341 28.3451 20.1774C28.3451 18.1118 26.6441 16.4314 24.5533 16.4314ZM24.5533 21.1189H23.6543V19.2439H24.5533C25.0841 19.2439 25.5326 19.6714 25.5326 20.1774C25.5326 20.6844 25.08 21.1154 24.5533 21.1189Z" fill="#379BFD"/>
</g>
<defs>
<clipPath id="clip0_75_624">
<rect width="48" height="48" fill="white" transform="translate(0.5 0.166626)"/>
</clipPath>
</defs>
</svg>
