<svg width="49" height="49" viewBox="0 0 49 49" fill="none" xmlns="http://www.w3.org/2000/svg">
<g clip-path="url(#clip0_75_624)">
<path d="M37.8508 31.6967C43.7228 31.6967 48.5 26.9195 48.5 21.0476C48.5 15.1757 43.7228 10.3984 37.8508 10.3984H37.8402C37.5853 10.4004 37.33 10.4117 37.0752 10.4322C34.2761 3.97403 26.9248 0.61637 20.1331 2.89862C16.4613 4.13237 13.4641 6.90531 11.9262 10.4323C11.671 10.4117 11.4151 10.4004 11.1597 10.3984H11.1491C5.27722 10.3984 0.5 15.1757 0.5 21.0476C0.5 26.9195 5.27722 31.6967 11.1492 31.6967H23.0938V37.9544C21.8971 38.3788 20.9475 39.3284 20.5231 40.525H7.8125V43.3375H20.5231C21.1036 44.9743 22.6667 46.15 24.5 46.15C26.3333 46.15 27.8964 44.9743 28.4769 43.3375H41.1875V40.525H28.4769C28.0525 39.3284 27.1029 38.3788 25.9062 37.9544V31.6967H37.8508ZM24.5 43.3375C23.7246 43.3375 23.0938 42.7067 23.0938 41.9312C23.0938 41.1558 23.7246 40.525 24.5 40.525C25.2754 40.525 25.9062 41.1558 25.9062 41.9312C25.9062 42.7067 25.2754 43.3375 24.5 43.3375ZM3.3125 21.0476C3.3125 16.7283 6.82484 13.2139 11.1434 13.2109C11.62 13.2149 12.0988 13.2634 12.567 13.3551L13.7776 13.5924L14.1705 12.4231C15.2507 9.20856 17.8146 6.64468 21.029 5.56459C26.7246 3.65059 32.9157 6.72728 34.8296 12.4231L35.2225 13.5924L36.4331 13.3551C36.9013 13.2633 37.3801 13.2149 37.8567 13.2109C42.1753 13.2139 45.6876 16.7283 45.6876 21.0476C45.6876 25.3687 42.1721 28.8842 37.8509 28.8842H11.1492C6.82803 28.8842 3.3125 25.3687 3.3125 21.0476Z" fill="#379BFD"/>
<path d="M33.1053 26.3486C32.6604 26.3486 32.2444 26.3082 31.8573 26.2273C31.476 26.1522 31.1553 26.0511 30.8953 25.924C30.6353 25.7968 30.4216 25.6755 30.254 25.56C30.0922 25.4444 29.9564 25.3288 29.8467 25.2133L30.0633 23.1073C30.3002 23.4251 30.618 23.7024 31.0167 23.9393C31.4153 24.1704 31.8458 24.286 32.308 24.286C32.7702 24.286 33.1024 24.2368 33.3047 24.1386C33.5127 24.0404 33.6167 23.8613 33.6167 23.6013C33.6167 23.324 33.4982 23.0871 33.2613 22.8906C33.0302 22.6942 32.6287 22.4573 32.0567 22.18C31.8487 22.076 31.6724 21.9835 31.528 21.9026C31.3836 21.816 31.19 21.6773 30.9473 21.4866C30.7104 21.2902 30.5169 21.088 30.3667 20.88C30.2164 20.6662 30.0836 20.3946 29.968 20.0653C29.8524 19.7302 29.7947 19.372 29.7947 18.9906C29.7947 16.928 30.9589 15.8966 33.2873 15.8966C33.6571 15.8966 34.0038 15.9371 34.3273 16.018C34.6567 16.0931 34.9138 16.1768 35.0987 16.2693C35.2836 16.3617 35.4511 16.4715 35.6013 16.5986C35.7573 16.72 35.8556 16.8066 35.896 16.8586C35.9364 16.9048 35.9653 16.9424 35.9827 16.9713L35.5493 18.644C35.324 18.3782 35.0409 18.1817 34.7 18.0546C34.3649 17.9217 34.0442 17.8553 33.738 17.8553C32.9984 17.8553 32.6287 18.0864 32.6287 18.5486C32.6287 18.67 32.6518 18.7797 32.698 18.878C32.7442 18.9762 32.8193 19.0657 32.9233 19.1466C33.0273 19.2275 33.1227 19.2968 33.2093 19.3546C33.3018 19.4124 33.426 19.4846 33.582 19.5713C33.7438 19.6522 33.8651 19.7186 33.946 19.7706C34.7896 20.1288 35.4078 20.5535 35.8007 21.0446C36.1993 21.5357 36.3987 22.1337 36.3987 22.8386C36.3987 23.9826 36.1156 24.8551 35.5493 25.456C34.9889 26.0511 34.1742 26.3486 33.1053 26.3486Z" fill="#379BFD"/>
<path d="M14.5447 20.8506L12.8918 16.0662L10.2334 16.9846L13.3818 26.0981H15.7655L18.7924 16.9838L16.1232 16.0974L14.5447 20.8506Z" fill="#379BFD"/>
<path d="M24.5533 16.4314H20.8418V26.0876H23.6543V23.9314H24.5622C26.6481 23.9182 28.3451 22.2341 28.3451 20.1774C28.3451 18.1118 26.6441 16.4314 24.5533 16.4314ZM24.5533 21.1189H23.6543V19.2439H24.5533C25.0841 19.2439 25.5326 19.6714 25.5326 20.1774C25.5326 20.6844 25.08 21.1154 24.5533 21.1189Z" fill="#379BFD"/>
</g>
<defs>
<clipPath id="clip0_75_624">
<rect width="48" height="48" fill="white" transform="translate(0.5 0.166626)"/>
</clipPath>
</defs>
</svg>
