<svg width="50" height="51" viewBox="0 0 50 51" fill="none" xmlns="http://www.w3.org/2000/svg">
<path d="M11.7741 43.653H13.4018M18.1636 43.653H26.9611M11.7741 26.7105H13.4018M32.4108 26.4945V29.5393C32.4108 31.0212 31.4135 32.2231 30.1841 32.2231H3.22673C1.99727 32.2231 1 31.0211 1 29.5393V23.712C1 22.2289 1.99727 21.0271 3.22673 21.0271H15.51C16.7405 24.2542 19.4455 26.4946 22.5856 26.4946H32.4108V26.4945ZM30.1837 49.1652C31.4137 49.1652 32.4109 47.9634 32.4109 46.4809V40.6539C32.4109 39.1714 31.4137 37.9696 30.1837 37.9696H3.22722C1.99717 37.9696 1 39.1714 1 40.6539V46.4809C1 47.9634 1.99717 49.1652 3.22722 49.1652H30.1837Z" stroke="#379BFD" stroke-width="2" stroke-miterlimit="10" stroke-linecap="round" stroke-linejoin="round"/>
<path d="M29.3118 1.1715C26.7818 2.44187 24.7329 4.82494 23.5872 7.81473C23.2549 7.76321 22.9201 7.73741 22.585 7.73748C18.2875 7.73748 14.8036 11.9364 14.8036 17.1159C14.8036 22.2955 18.2875 26.4944 22.585 26.4944H37.1699V32.2223L42.5071 26.4944H43.0731C46.3464 26.4944 49 23.2963 49 19.3512C49 15.9581 47.0365 13.1197 44.4046 12.3912C44.108 7.313 41.4219 3.03026 37.6932 1.16479M4.48096 32.2223H28.7645V37.9692H4.48096V32.2223Z" stroke="#379BFD" stroke-width="2" stroke-miterlimit="10" stroke-linecap="round" stroke-linejoin="round"/>
<path d="M40.7069 14.1458C40.7069 14.1458 39.6722 13.0976 38.4521 13.5406C37.3318 13.9474 37.175 15.5044 37.9856 16.1412C37.9856 16.1412 38.7809 16.5689 39.663 16.961C41.7865 17.9051 40.8718 20.3811 39.1623 20.3811C38.3062 20.3811 37.5878 19.9292 37.153 19.3509M22.999 13.4314L24.9704 20.2766C25.0117 20.4168 25.1766 20.4154 25.2163 20.2746L27.099 13.4442M30.7581 13.4314V20.3811M30.7581 13.4314C30.7581 13.4314 30.7621 14.9441 30.7621 15.3926C30.7621 15.9385 30.7694 17.3625 30.7694 17.3625C30.7694 17.3625 31.918 17.3537 32.3637 17.3537C33.2624 17.3537 34.0228 16.4758 34.0228 15.3926C34.0228 14.3095 33.2624 13.4314 32.3637 13.4314H30.7581Z" stroke="#379BFD" stroke-width="2" stroke-miterlimit="10" stroke-linecap="round" stroke-linejoin="round"/>
</svg>
